{
  "accessors": [
    {
      "bufferView": 2,
      "componentType": 5126,
      "count": 4,
      "max": [
        167.02888488769531,
        167.02888488769531,
        0
      ],
      "min": [
        -167.02888488769531,
        -167.02888488769531,
        0
      ],
      "type": "VEC3"
    },
    {
      "bufferView": 2,
      "byteOffset": 48,
      "componentType": 5126,
      "count": 4,
      "max": [
        0,
        0,
        1
      ],
      "min": [
        0,
        0,
        1
      ],
      "type": "VEC3"
    },
    {
      "bufferView": 3,
      "componentType": 5126,
      "count": 4,
      "max": [
        1,
        2.3841860752327193e-07,
        0,
        1
      ],
      "min": [
        1,
        1.8270846169343713e-07,
        0,
        1
      ],
      "type": "VEC4"
    },
    {
      "bufferView": 1,
      "componentType": 5126,
      "count": 4,
      "max": [
        1,
        1
      ],
      "min": [
        2.9802322387695312e-08,
        2.9802322387695312e-08
      ],
      "type": "VEC2"
    },
    {
      "bufferView": 0,
      "componentType": 5125,
      "count": 6,
      "max": [
        3
      ],
      "min": [
        0
      ],
      "type": "SCALAR"
    },
    {
      "bufferView": 2,
      "byteOffset": 96,
      "componentType": 5126,
      "count": 37605,
      "max": [
        38.632358551025391,
        42.670330047607422,
        77.825218200683594
      ],
      "min": [
        -38.632358551025391,
        -42.670333862304688,
        13.774539947509766
      ],
      "type": "VEC3"
    },
    {
      "bufferView": 2,
      "byteOffset": 451356,
      "componentType": 5126,
      "count": 37605,
      "max": [
        1,
        0.99999260902404785,
        0.9999997615814209
      ],
      "min": [
        -1,
        -0.9999995231628418,
        -0.99999541044235229
      ],
      "type": "VEC3"
    },
    {
      "bufferView": 3,
      "byteOffset": 64,
      "componentType": 5126,
      "count": 37605,
      "max": [
        1,
        1,
        0.99997740983963013,
        1
      ],
      "min": [
        -0.99999958276748657,
        -1,
        -0.99997615814208984,
        -1
      ],
      "type": "VEC4"
    },
    {
      "bufferView": 1,
      "byteOffset": 32,
      "componentType": 5126,
      "count": 37605,
      "max": [
        0.99950003623962402,
        0.98443400859832764
      ],
      "min": [
        0.00050000002374872565,
        0.00050000002374872565
      ],
      "type": "VEC2"
    },
    {
      "bufferView": 1,
      "byteOffset": 300872,
      "componentType": 5126,
      "count": 37605,
      "max": [
        6.969977855682373,
        6.2713871002197266
      ],
      "min": [
        0.014000000432133675,
        0.014000000432133675
      ],
      "type": "VEC2"
    },
    {
      "bufferView": 0,
      "byteOffset": 24,
      "componentType": 5125,
      "count": 216618,
      "max": [
        37604
      ],
      "min": [
        0
      ],
      "type": "SCALAR"
    },
    {
      "bufferView": 2,
      "byteOffset": 902616,
      "componentType": 5126,
      "count": 1009,
      "max": [
        36.428508758544922,
        42.0152587890625,
        70.110153198242188
      ],
      "min": [
        -36.410926818847656,
        -29.74213981628418,
        13.412538528442383
      ],
      "type": "VEC3"
    },
    {
      "bufferView": 2,
      "byteOffset": 914724,
      "componentType": 5126,
      "count": 1009,
      "max": [
        1,
        0.99960583448410034,
        0.97338384389877319
      ],
      "min": [
        -1,
        -0.99999195337295532,
        -0.99999940395355225
      ],
      "type": "VEC3"
    },
    {
      "bufferView": 3,
      "byteOffset": 601744,
      "componentType": 5126,
      "count": 1009,
      "max": [
        2.4163414380495851e-08,
        0.99942904710769653,
        0.99999910593032837,
        1
      ],
      "min": [
        -1,
        -0.99939996004104614,
        -0.99999266862869263,
        1
      ],
      "type": "VEC4"
    },
    {
      "bufferView": 1,
      "byteOffset": 601712,
      "componentType": 5126,
      "count": 1009,
      "max": [
        0.99822038412094116,
        0.40350255370140076
      ],
      "min": [
        0.72923493385314941,
        0.00050000002374872565
      ],
      "type": "VEC2"
    },
    {
      "bufferView": 1,
      "byteOffset": 609784,
      "componentType": 5126,
      "count": 1009,
      "max": [
        5.0762119293212891,
        2.117811918258667
      ],
      "min": [
        4.0395183563232422,
        0.014536360278725624
      ],
      "type": "VEC2"
    },
    {
      "bufferView": 0,
      "byteOffset": 866496,
      "componentType": 5125,
      "count": 5328,
      "max": [
        1008
      ],
      "min": [
        0
      ],
      "type": "SCALAR"
    },
    {
      "bufferView": 2,
      "byteOffset": 926832,
      "componentType": 5126,
      "count": 224,
      "max": [
        34.142951965332031,
        17.803169250488281,
        15.005326271057129
      ],
      "min": [
        -31.960079193115234,
        -32.509265899658203,
        0
      ],
      "type": "VEC3"
    },
    {
      "bufferView": 2,
      "byteOffset": 929520,
      "componentType": 5126,
      "count": 224,
      "max": [
        0.99942922592163086,
        0.98112934827804565,
        0.10192330181598663
      ],
      "min": [
        -0.99942916631698608,
        -0.98554700613021851,
        -1
      ],
      "type": "VEC3"
    },
    {
      "bufferView": 3,
      "byteOffset": 617888,
      "componentType": 5126,
      "count": 224,
      "max": [
        1,
        0.99990534782409668,
        0.032026264816522598,
        1
      ],
      "min": [
        -0.98681634664535522,
        -0.99991661310195923,
        -0.032110229134559631,
        -1
      ],
      "type": "VEC4"
    },
    {
      "bufferView": 1,
      "byteOffset": 617856,
      "componentType": 5126,
      "count": 224,
      "max": [
        0.41433203220367432,
        0.84239274263381958
      ],
      "min": [
        0.3005642294883728,
        0.64410513639450073
      ],
      "type": "VEC2"
    },
    {
      "bufferView": 1,
      "byteOffset": 619648,
      "componentType": 5126,
      "count": 224,
      "max": [
        -0.37260010838508606,
        1.0544589757919312
      ],
      "min": [
        -0.79760020971298218,
        0.62945932149887085
      ],
      "type": "VEC2"
    },
    {
      "bufferView": 0,
      "byteOffset": 887808,
      "componentType": 5125,
      "count": 624,
      "max": [
        223
      ],
      "min": [
        0
      ],
      "type": "SCALAR"
    }
  ],
  "asset": {
    "extras": {
      "author": "MADE.COM (https://sketchfab.com/made-it)",
      "license": "CC-BY-NC-4.0 (http://creativecommons.org/licenses/by-nc/4.0/)",
      "source": "https://sketchfab.com/3d-models/haru-single-sofa-bed-butter-yellow-1f9d820a0aea42f28af55346d188e0cd",
      "title": "Haru Single Sofa Bed, Butter Yellow"
    },
    "generator": "Sketchfab-5.50.0",
    "version": "2.0"
  },
  "bufferViews": [
    {
      "buffer": 0,
      "byteLength": 890304,
      "byteOffset": 0,
      "name": "floatBufferViews",
      "target": 34963
    },
    {
      "buffer": 0,
      "byteLength": 621440,
      "byteOffset": 890304,
      "byteStride": 8,
      "name": "floatBufferViews",
      "target": 34962
    },
    {
      "buffer": 0,
      "byteLength": 932208,
      "byteOffset": 1511744,
      "byteStride": 12,
      "name": "floatBufferViews",
      "target": 34962
    },
    {
      "buffer": 0,
      "byteLength": 621472,
      "byteOffset": 2443952,
      "byteStride": 16,
      "name": "floatBufferViews",
      "target": 34962
    }
  ],
  "buffers": [
    {
      "byteLength": 3065424,
      "uri": "scene.bin"
    }
  ],
  "images": [
    {
      "uri": "textures/FLOOR_baseColor.png"
    },
    {
      "uri": "textures/FABRIC_baseColor.jpeg"
    },
    {
      "uri": "textures/FABRIC_metallicRoughness.png"
    },
    {
      "uri": "textures/BLACK_FABRIC_baseColor.jpeg"
    }
  ],
  "materials": [
    {
      "alphaMode": "BLEND",
      "doubleSided": true,
      "emissiveFactor": [
        0,
        0,
        0
      ],
      "name": "FLOOR",
      "pbrMetallicRoughness": {
        "baseColorFactor": [
          0.36346291941960002,
          0.36346291941960002,
          0.36346291941960002,
          1
        ],
        "baseColorTexture": {
          "index": 0,
          "texCoord": 0
        },
        "metallicFactor": 0,
        "roughnessFactor": 0.89297135959999996
      }
    },
    {
      "doubleSided": true,
      "emissiveFactor": [
        0,
        0,
        0
      ],
      "name": "FABRIC",
      "occlusionTexture": {
        "index": 2,
        "strength": 0.59297698399999998,
        "texCoord": 0
      },
      "pbrMetallicRoughness": {
        "baseColorFactor": [
          1,
          1,
          1,
          1
        ],
        "baseColorTexture": {
          "index": 1,
          "texCoord": 0
        },
        "metallicFactor": 0,
        "metallicRoughnessTexture": {
          "index": 2,
          "texCoord": 0
        },
        "roughnessFactor": 1
      }
    },
    {
      "doubleSided": true,
      "emissiveFactor": [
        0,
        0,
        0
      ],
      "name": "BLACK_FABRIC",
      "occlusionTexture": {
        "index": 2,
        "strength": 1,
        "texCoord": 0
      },
      "pbrMetallicRoughness": {
        "baseColorFactor": [
          1,
          1,
          1,
          1
        ],
        "baseColorTexture": {
          "index": 3,
          "texCoord": 0
        },
        "metallicFactor": 0,
        "metallicRoughnessTexture": {
          "index": 2,
          "texCoord": 0
        },
        "roughnessFactor": 0.98399548530000003
      }
    },
    {
      "doubleSided": true,
      "emissiveFactor": [
        0.1790150717,
        0.1161910639,
        0.035551716999999997
      ],
      "name": "WOOD",
      "pbrMetallicRoughness": {
        "baseColorFactor": [
          1,
          1,
          1,
          1
        ],
        "baseColorTexture": {
          "index": 3,
          "texCoord": 0
        },
        "metallicFactor": 0,
        "roughnessFactor": 0.62714880220000002
      }
    }
  ],
  "meshes": [
    {
      "name": "Plane001_FLOOR_0",
      "primitives": [
        {
          "attributes": {
            "NORMAL": 1,
            "POSITION": 0,
            "TANGENT": 2,
            "TEXCOORD_0": 3
          },
          "indices": 4,
          "material": 0,
          "mode": 4
        }
      ]
    },
    {
      "name": "FABRIC001_FABRIC_0",
      "primitives": [
        {
          "attributes": {
            "NORMAL": 6,
            "POSITION": 5,
            "TANGENT": 7,
            "TEXCOORD_0": 8,
            "TEXCOORD_1": 9
          },
          "indices": 10,
          "material": 1,
          "mode": 4
        }
      ]
    },
    {
      "name": "BLACK_FABRIC001_BLACK_FABRIC_0",
      "primitives": [
        {
          "attributes": {
            "NORMAL": 12,
            "POSITION": 11,
            "TANGENT": 13,
            "TEXCOORD_0": 14,
            "TEXCOORD_1": 15
          },
          "indices": 16,
          "material": 2,
          "mode": 4
        }
      ]
    },
    {
      "name": "WOOD_WOOD_0",
      "primitives": [
        {
          "attributes": {
            "NORMAL": 18,
            "POSITION": 17,
            "TANGENT": 19,
            "TEXCOORD_0": 20,
            "TEXCOORD_1": 21
          },
          "indices": 22,
          "material": 3,
          "mode": 4
        }
      ]
    }
  ],
  "nodes": [
    {
      "children": [
        1
      ],
      "name": "RootNode (gltf orientation matrix)",
      "rotation": [
        -0.70710678118654746,
        -0,
        -0,
        0.70710678118654757
      ]
    },
    {
      "children": [
        2
      ],
      "name": "RootNode (model correction matrix)"
    },
    {
      "children": [
        3
      ],
      "matrix": [
        1,
        0,
        0,
        0,
        0,
        0,
        1,
        0,
        0,
        -1,
        0,
        0,
        0,
        0,
        0,
        1
      ],
      "name": "27fe98ce0586452d9958eac980865b9b.fbx"
    },
    {
      "children": [
        4,
        6,
        8,
        10
      ],
      "name": "RootNode"
    },
    {
      "children": [
        5
      ],
      "matrix": [
        1,
        0,
        0,
        0,
        0,
        2.2204460492503131e-16,
        -1,
        0,
        0,
        1,
        2.2204460492503131e-16,
        0,
        0,
        0,
        0,
        1
      ],
      "name": "Plane001"
    },
    {
      "mesh": 0,
      "name": "Plane001_FLOOR_0"
    },
    {
      "children": [
        7
      ],
      "matrix": [
        1,
        0,
        0,
        0,
        0,
        2.2204460492503131e-16,
        -1,
        0,
        0,
        1,
        2.2204460492503131e-16,
        0,
        0,
        0,
        0,
        1
      ],
      "name": "FABRIC001"
    },
    {
      "mesh": 1,
      "name": "FABRIC001_FABRIC_0"
    },
    {
      "children": [
        9
      ],
      "matrix": [
        1,
        0,
        0,
        0,
        0,
        2.2204460492503131e-16,
        -1,
        0,
        0,
        1,
        2.2204460492503131e-16,
        0,
        0,
        0,
        0,
        1
      ],
      "name": "BLACK_FABRIC001"
    },
    {
      "mesh": 2,
      "name": "BLACK_FABRIC001_BLACK_FABRIC_0"
    },
    {
      "children": [
        11
      ],
      "matrix": [
        1,
        0,
        0,
        0,
        0,
        2.2204460492503131e-16,
        -1,
        0,
        0,
        1,
        2.2204460492503131e-16,
        0,
        0,
        0,
        0,
        1
      ],
      "name": "WOOD"
    },
    {
      "mesh": 3,
      "name": "WOOD_WOOD_0"
    }
  ],
  "samplers": [
    {
      "magFilter": 9729,
      "minFilter": 9987,
      "wrapS": 10497,
      "wrapT": 10497
    }
  ],
  "scene": 0,
  "scenes": [
    {
      "name": "OSG_Scene",
      "nodes": [
        0
      ]
    }
  ],
  "textures": [
    {
      "sampler": 0,
      "source": 0
    },
    {
      "sampler": 0,
      "source": 1
    },
    {
      "sampler": 0,
      "source": 2
    },
    {
      "sampler": 0,
      "source": 3
    }
  ]
}

