{
    "asset" : {
        "generator" : "Khronos glTF Blender I/O v1.5.17",
        "version" : "2.0"
    },
    "scene" : 0,
    "scenes" : [
        {
            "name" : "Scene",
            "nodes" : [
                12
            ]
        }
    ],
    "nodes" : [
        {
            "mesh" : 0,
            "name" : "HomeButton_PhoneButtons_m_0"
        },
        {
            "children" : [
                0
            ],
            "name" : "HomeButton",
            "translation" : [
                0,
                -1.322485327720642,
                -0.02021721936762333
            ]
        },
        {
            "mesh" : 1,
            "name" : "PhoneBody_PhoneBody_m_0"
        },
        {
            "mesh" : 2,
            "name" : "PhoneBody_PhoneScreen_M_0"
        },
        {
            "children" : [
                2,
                3
            ],
            "name" : "PhoneBody"
        },
        {
            "mesh" : 3,
            "name" : "PowerButton_PhoneButtons_m_0"
        },
        {
            "children" : [
                5
            ],
            "name" : "PowerButton",
            "translation" : [
                -0.7232032418251038,
                1.487350344657898,
                0.007514461874961853
            ]
        },
        {
            "mesh" : 4,
            "name" : "VolumeButton_PhoneButtons_m_0"
        },
        {
            "children" : [
                7
            ],
            "name" : "VolumeButton",
            "rotation" : [
                0,
                0,
                -0.7071068286895752,
                0.7071068286895752
            ],
            "translation" : [
                0.7488519549369812,
                1.1450568437576294,
                0.007514461874961853
            ]
        },
        {
            "children" : [
                1,
                4,
                6,
                8
            ],
            "name" : "RootNode"
        },
        {
            "children" : [
                9
            ],
            "name" : "55dfebbf940a459ba2ed4034ab2d80dc.fbx",
            "rotation" : [
                0.7071068286895752,
                0,
                0,
                0.7071068286895752
            ]
        },
        {
            "children" : [
                10
            ],
            "name" : "RootNode (model correction matrix)"
        },
        {
            "children" : [
                11
            ],
            "name" : "RootNode (gltf orientation matrix)",
            "rotation" : [
                -0.7071068286895752,
                0,
                0,
                0.7071068286895752
            ]
        }
    ],
    "materials" : [
        {
            "doubleSided" : true,
            "name" : "PhoneButtons_m",
            "occlusionTexture" : {
                "index" : 0
            },
            "pbrMetallicRoughness" : {
                "baseColorTexture" : {
                    "index" : 1
                },
                "metallicFactor" : 0.5626905560493469,
                "roughnessFactor" : 0.0958460345864296
            }
        },
        {
            "doubleSided" : true,
            "name" : "PhoneBody_m",
            "occlusionTexture" : {
                "index" : 2
            },
            "pbrMetallicRoughness" : {
                "baseColorTexture" : {
                    "index" : 3
                },
                "roughnessFactor" : 0.3580411672592163
            }
        },
        {
            "doubleSided" : true,
            "emissiveFactor" : [
                0.0071680424734950066,
                0.01460423693060875,
                0.025489015504717827
            ],
            "name" : "PhoneScreen_M",
            "occlusionTexture" : {
                "index" : 4
            },
            "pbrMetallicRoughness" : {
                "baseColorTexture" : {
                    "index" : 5
                },
                "metallicFactor" : 0.16634908318519592,
                "roughnessFactor" : 0.10194359719753265
            }
        }
    ],
    "meshes" : [
        {
            "name" : "HomeButton_PhoneButtons_m_0",
            "primitives" : [
                {
                    "attributes" : {
                        "POSITION" : 0,
                        "NORMAL" : 1,
                        "TEXCOORD_0" : 2
                    },
                    "indices" : 3,
                    "material" : 0
                }
            ]
        },
        {
            "name" : "PhoneBody_PhoneBody_m_0",
            "primitives" : [
                {
                    "attributes" : {
                        "POSITION" : 4,
                        "NORMAL" : 5,
                        "TEXCOORD_0" : 6
                    },
                    "indices" : 7,
                    "material" : 1
                }
            ]
        },
        {
            "name" : "PhoneBody_PhoneScreen_M_0",
            "primitives" : [
                {
                    "attributes" : {
                        "POSITION" : 8,
                        "NORMAL" : 9,
                        "TEXCOORD_0" : 10
                    },
                    "indices" : 11,
                    "material" : 2
                }
            ]
        },
        {
            "name" : "PowerButton_PhoneButtons_m_0",
            "primitives" : [
                {
                    "attributes" : {
                        "POSITION" : 12,
                        "NORMAL" : 13,
                        "TEXCOORD_0" : 14
                    },
                    "indices" : 15,
                    "material" : 0
                }
            ]
        },
        {
            "name" : "VolumeButton_PhoneButtons_m_0",
            "primitives" : [
                {
                    "attributes" : {
                        "POSITION" : 16,
                        "NORMAL" : 17,
                        "TEXCOORD_0" : 18
                    },
                    "indices" : 19,
                    "material" : 0
                }
            ]
        }
    ],
    "textures" : [
        {
            "sampler" : 0,
            "source" : 0
        },
        {
            "sampler" : 0,
            "source" : 1
        },
        {
            "sampler" : 0,
            "source" : 2
        },
        {
            "sampler" : 0,
            "source" : 3
        },
        {
            "sampler" : 0,
            "source" : 4
        },
        {
            "sampler" : 0,
            "source" : 5
        }
    ],
    "images" : [
        {
            "bufferView" : 4,
            "mimeType" : "image/png",
            "name" : "PhoneButtons_m_metallicRoughness"
        },
        {
            "bufferView" : 5,
            "mimeType" : "image/jpeg",
            "name" : "PhoneButtons_m_baseColor"
        },
        {
            "bufferView" : 10,
            "mimeType" : "image/png",
            "name" : "PhoneBody_m_metallicRoughness"
        },
        {
            "bufferView" : 11,
            "mimeType" : "image/jpeg",
            "name" : "PhoneBody_m_baseColor"
        },
        {
            "bufferView" : 16,
            "mimeType" : "image/png",
            "name" : "PhoneScreen_M_metallicRoughness"
        },
        {
            "bufferView" : 17,
            "mimeType" : "image/jpeg",
            "name" : "PhoneScreen_M_baseColor"
        }
    ],
    "accessors" : [
        {
            "bufferView" : 0,
            "componentType" : 5126,
            "count" : 61,
            "max" : [
                0.15613529086112976,
                0.15534693002700806,
                0.125
            ],
            "min" : [
                -0.158980131149292,
                -0.15216979384422302,
                0.07261309772729874
            ],
            "type" : "VEC3"
        },
        {
            "bufferView" : 1,
            "componentType" : 5126,
            "count" : 61,
            "type" : "VEC3"
        },
        {
            "bufferView" : 2,
            "componentType" : 5126,
            "count" : 61,
            "type" : "VEC2"
        },
        {
            "bufferView" : 3,
            "componentType" : 5123,
            "count" : 93,
            "type" : "SCALAR"
        },
        {
            "bufferView" : 6,
            "componentType" : 5126,
            "count" : 240,
            "max" : [
                0.8544949889183044,
                1.5175508260726929,
                0.10068793594837189
            ],
            "min" : [
                -0.8544926047325134,
                -1.511564016342163,
                -0.07404320687055588
            ],
            "type" : "VEC3"
        },
        {
            "bufferView" : 7,
            "componentType" : 5126,
            "count" : 240,
            "type" : "VEC3"
        },
        {
            "bufferView" : 8,
            "componentType" : 5126,
            "count" : 240,
            "type" : "VEC2"
        },
        {
            "bufferView" : 9,
            "componentType" : 5123,
            "count" : 330,
            "type" : "SCALAR"
        },
        {
            "bufferView" : 12,
            "componentType" : 5126,
            "count" : 4,
            "max" : [
                0.7088862061500549,
                1.3761836290359497,
                0.08994802832603455
            ],
            "min" : [
                -0.7088865041732788,
                -1.1208288669586182,
                0.08994802832603455
            ],
            "type" : "VEC3"
        },
        {
            "bufferView" : 13,
            "componentType" : 5126,
            "count" : 4,
            "type" : "VEC3"
        },
        {
            "bufferView" : 14,
            "componentType" : 5126,
            "count" : 4,
            "type" : "VEC2"
        },
        {
            "bufferView" : 15,
            "componentType" : 5123,
            "count" : 6,
            "type" : "SCALAR"
        },
        {
            "bufferView" : 18,
            "componentType" : 5126,
            "count" : 6,
            "max" : [
                0.2027718424797058,
                0.03640943765640259,
                0.030708925798535347
            ],
            "min" : [
                -0.03652539849281311,
                -0.04978369176387787,
                -0.03070886619389057
            ],
            "type" : "VEC3"
        },
        {
            "bufferView" : 19,
            "componentType" : 5126,
            "count" : 6,
            "type" : "VEC3"
        },
        {
            "bufferView" : 20,
            "componentType" : 5126,
            "count" : 6,
            "type" : "VEC2"
        },
        {
            "bufferView" : 21,
            "componentType" : 5123,
            "count" : 6,
            "type" : "SCALAR"
        },
        {
            "bufferView" : 22,
            "componentType" : 5126,
            "count" : 33,
            "max" : [
                0.40978527069091797,
                0.12692710757255554,
                0.042007964104413986
            ],
            "min" : [
                -0.12486771494150162,
                0.03312307596206665,
                -0.042007964104413986
            ],
            "type" : "VEC3"
        },
        {
            "bufferView" : 23,
            "componentType" : 5126,
            "count" : 33,
            "type" : "VEC3"
        },
        {
            "bufferView" : 24,
            "componentType" : 5126,
            "count" : 33,
            "type" : "VEC2"
        },
        {
            "bufferView" : 25,
            "componentType" : 5123,
            "count" : 45,
            "type" : "SCALAR"
        }
    ],
    "bufferViews" : [
        {
            "buffer" : 0,
            "byteLength" : 732,
            "byteOffset" : 0
        },
        {
            "buffer" : 0,
            "byteLength" : 732,
            "byteOffset" : 732
        },
        {
            "buffer" : 0,
            "byteLength" : 488,
            "byteOffset" : 1464
        },
        {
            "buffer" : 0,
            "byteLength" : 186,
            "byteOffset" : 1952
        },
        {
            "buffer" : 0,
            "byteLength" : 65573,
            "byteOffset" : 2140
        },
        {
            "buffer" : 0,
            "byteLength" : 46071,
            "byteOffset" : 67716
        },
        {
            "buffer" : 0,
            "byteLength" : 2880,
            "byteOffset" : 113788
        },
        {
            "buffer" : 0,
            "byteLength" : 2880,
            "byteOffset" : 116668
        },
        {
            "buffer" : 0,
            "byteLength" : 1920,
            "byteOffset" : 119548
        },
        {
            "buffer" : 0,
            "byteLength" : 660,
            "byteOffset" : 121468
        },
        {
            "buffer" : 0,
            "byteLength" : 65573,
            "byteOffset" : 122128
        },
        {
            "buffer" : 0,
            "byteLength" : 46071,
            "byteOffset" : 187704
        },
        {
            "buffer" : 0,
            "byteLength" : 48,
            "byteOffset" : 233776
        },
        {
            "buffer" : 0,
            "byteLength" : 48,
            "byteOffset" : 233824
        },
        {
            "buffer" : 0,
            "byteLength" : 32,
            "byteOffset" : 233872
        },
        {
            "buffer" : 0,
            "byteLength" : 12,
            "byteOffset" : 233904
        },
        {
            "buffer" : 0,
            "byteLength" : 65573,
            "byteOffset" : 233916
        },
        {
            "buffer" : 0,
            "byteLength" : 46071,
            "byteOffset" : 299492
        },
        {
            "buffer" : 0,
            "byteLength" : 72,
            "byteOffset" : 345564
        },
        {
            "buffer" : 0,
            "byteLength" : 72,
            "byteOffset" : 345636
        },
        {
            "buffer" : 0,
            "byteLength" : 48,
            "byteOffset" : 345708
        },
        {
            "buffer" : 0,
            "byteLength" : 12,
            "byteOffset" : 345756
        },
        {
            "buffer" : 0,
            "byteLength" : 396,
            "byteOffset" : 345768
        },
        {
            "buffer" : 0,
            "byteLength" : 396,
            "byteOffset" : 346164
        },
        {
            "buffer" : 0,
            "byteLength" : 264,
            "byteOffset" : 346560
        },
        {
            "buffer" : 0,
            "byteLength" : 90,
            "byteOffset" : 346824
        }
    ],
    "samplers" : [
        {
            "magFilter" : 9729,
            "minFilter" : 9987
        }
    ],
    "buffers" : [
        {
            "byteLength" : 346916,
            "uri" : "data:application/octet-stream;base64,"
        }
    ]
}
