{
    "asset" : {
        "generator" : "Khronos glTF Blender I/O v1.5.17",
        "version" : "2.0"
    },
    "scene" : 0,
    "scenes" : [
        {
            "name" : "Scene",
            "nodes" : [
                7
            ]
        }
    ],
    "nodes" : [
        {
            "mesh" : 0,
            "name" : "Kanaba_Kanaba-Base_0"
        },
        {
            "mesh" : 1,
            "name" : "Kanaba_Kanaba-Outer_0"
        },
        {
            "mesh" : 2,
            "name" : "Kanaba_Kanaba-Pillows_0"
        },
        {
            "children" : [
                0,
                1,
                2
            ],
            "name" : "Kanaba",
            "rotation" : [
                -0.7071068286895752,
                0,
                0,
                0.7071068286895752
            ],
            "translation" : [
                -24.234413146972656,
                38.26318359375,
                22.836978912353516
            ]
        },
        {
            "children" : [
                3
            ],
            "name" : "RootNode"
        },
        {
            "children" : [
                4
            ],
            "name" : "5cf20665edf64fbcb4589eff2f7c7421.fbx",
            "rotation" : [
                0.7071068286895752,
                0,
                0,
                0.7071068286895752
            ]
        },
        {
            "children" : [
                5
            ],
            "name" : "RootNode (model correction matrix)"
        },
        {
            "children" : [
                6
            ],
            "name" : "RootNode (gltf orientation matrix)",
            "rotation" : [
                -0.7071068286895752,
                0,
                0,
                0.7071068286895752
            ]
        }
    ],
    "materials" : [
        {
            "doubleSided" : true,
            "name" : "Kanaba-Base",
            "pbrMetallicRoughness" : {
                "baseColorTexture" : {
                    "index" : 0
                },
                "metallicFactor" : 0,
                "roughnessFactor" : 0.8929713368415833
            }
        },
        {
            "doubleSided" : true,
            "name" : "Kanaba-Outer",
            "pbrMetallicRoughness" : {
                "baseColorTexture" : {
                    "index" : 1
                },
                "metallicFactor" : 0,
                "roughnessFactor" : 0.8929713368415833
            }
        },
        {
            "doubleSided" : true,
            "name" : "Kanaba-Pillows",
            "pbrMetallicRoughness" : {
                "baseColorTexture" : {
                    "index" : 2
                },
                "metallicFactor" : 0,
                "roughnessFactor" : 0.8929713368415833
            }
        }
    ],
    "meshes" : [
        {
            "name" : "Kanaba_Kanaba-Base_0",
            "primitives" : [
                {
                    "attributes" : {
                        "POSITION" : 0,
                        "NORMAL" : 1,
                        "TEXCOORD_0" : 2,
                        "TEXCOORD_1" : 3
                    },
                    "indices" : 4,
                    "material" : 0
                }
            ]
        },
        {
            "name" : "Kanaba_Kanaba-Outer_0",
            "primitives" : [
                {
                    "attributes" : {
                        "POSITION" : 5,
                        "NORMAL" : 6,
                        "TEXCOORD_0" : 7,
                        "TEXCOORD_1" : 8
                    },
                    "indices" : 9,
                    "material" : 1
                }
            ]
        },
        {
            "name" : "Kanaba_Kanaba-Pillows_0",
            "primitives" : [
                {
                    "attributes" : {
                        "POSITION" : 10,
                        "NORMAL" : 11,
                        "TEXCOORD_0" : 12,
                        "TEXCOORD_1" : 13
                    },
                    "indices" : 14,
                    "material" : 2
                }
            ]
        }
    ],
    "textures" : [
        {
            "sampler" : 0,
            "source" : 0
        },
        {
            "sampler" : 0,
            "source" : 1
        },
        {
            "sampler" : 0,
            "source" : 2
        }
    ],
    "images" : [
        {
            "bufferView" : 5,
            "mimeType" : "image/jpeg",
            "name" : "Kanaba-Base_baseColor"
        },
        {
            "bufferView" : 11,
            "mimeType" : "image/jpeg",
            "name" : "Kanaba-Outer_baseColor"
        },
        {
            "bufferView" : 17,
            "mimeType" : "image/png",
            "name" : "Kanaba-Pillows_baseColor"
        }
    ],
    "accessors" : [
        {
            "bufferView" : 0,
            "componentType" : 5126,
            "count" : 193,
            "max" : [
                93.67083740234375,
                94.79788970947266,
                2.737828493118286
            ],
            "min" : [
                -94.0631332397461,
                -91.6200180053711,
                -24.60231590270996
            ],
            "type" : "VEC3"
        },
        {
            "bufferView" : 1,
            "componentType" : 5126,
            "count" : 193,
            "type" : "VEC3"
        },
        {
            "bufferView" : 2,
            "componentType" : 5126,
            "count" : 193,
            "type" : "VEC2"
        },
        {
            "bufferView" : 3,
            "componentType" : 5126,
            "count" : 193,
            "type" : "VEC2"
        },
        {
            "bufferView" : 4,
            "componentType" : 5123,
            "count" : 600,
            "type" : "SCALAR"
        },
        {
            "bufferView" : 6,
            "componentType" : 5126,
            "count" : 113,
            "max" : [
                102.32563781738281,
                102.21107482910156,
                16.35355567932129
            ],
            "min" : [
                -102.28611755371094,
                -102.22868347167969,
                -37.293087005615234
            ],
            "type" : "VEC3"
        },
        {
            "bufferView" : 7,
            "componentType" : 5126,
            "count" : 113,
            "type" : "VEC3"
        },
        {
            "bufferView" : 8,
            "componentType" : 5126,
            "count" : 113,
            "type" : "VEC2"
        },
        {
            "bufferView" : 9,
            "componentType" : 5126,
            "count" : 113,
            "type" : "VEC2"
        },
        {
            "bufferView" : 10,
            "componentType" : 5123,
            "count" : 405,
            "type" : "SCALAR"
        },
        {
            "bufferView" : 12,
            "componentType" : 5126,
            "count" : 336,
            "max" : [
                98.93914031982422,
                97.70088195800781,
                37.68098831176758
            ],
            "min" : [
                -89.81832122802734,
                -100.59549713134766,
                -2.186561107635498
            ],
            "type" : "VEC3"
        },
        {
            "bufferView" : 13,
            "componentType" : 5126,
            "count" : 336,
            "type" : "VEC3"
        },
        {
            "bufferView" : 14,
            "componentType" : 5126,
            "count" : 336,
            "type" : "VEC2"
        },
        {
            "bufferView" : 15,
            "componentType" : 5126,
            "count" : 336,
            "type" : "VEC2"
        },
        {
            "bufferView" : 16,
            "componentType" : 5123,
            "count" : 1083,
            "type" : "SCALAR"
        }
    ],
    "bufferViews" : [
        {
            "buffer" : 0,
            "byteLength" : 2316,
            "byteOffset" : 0
        },
        {
            "buffer" : 0,
            "byteLength" : 2316,
            "byteOffset" : 2316
        },
        {
            "buffer" : 0,
            "byteLength" : 1544,
            "byteOffset" : 4632
        },
        {
            "buffer" : 0,
            "byteLength" : 1544,
            "byteOffset" : 6176
        },
        {
            "buffer" : 0,
            "byteLength" : 1200,
            "byteOffset" : 7720
        },
        {
            "buffer" : 0,
            "byteLength" : 50886,
            "byteOffset" : 8920
        },
        {
            "buffer" : 0,
            "byteLength" : 1356,
            "byteOffset" : 59808
        },
        {
            "buffer" : 0,
            "byteLength" : 1356,
            "byteOffset" : 61164
        },
        {
            "buffer" : 0,
            "byteLength" : 904,
            "byteOffset" : 62520
        },
        {
            "buffer" : 0,
            "byteLength" : 904,
            "byteOffset" : 63424
        },
        {
            "buffer" : 0,
            "byteLength" : 810,
            "byteOffset" : 64328
        },
        {
            "buffer" : 0,
            "byteLength" : 536700,
            "byteOffset" : 65140
        },
        {
            "buffer" : 0,
            "byteLength" : 4032,
            "byteOffset" : 601840
        },
        {
            "buffer" : 0,
            "byteLength" : 4032,
            "byteOffset" : 605872
        },
        {
            "buffer" : 0,
            "byteLength" : 2688,
            "byteOffset" : 609904
        },
        {
            "buffer" : 0,
            "byteLength" : 2688,
            "byteOffset" : 612592
        },
        {
            "buffer" : 0,
            "byteLength" : 2166,
            "byteOffset" : 615280
        },
        {
            "buffer" : 0,
            "byteLength" : 626,
            "byteOffset" : 617448
        }
    ],
    "samplers" : [
        {
            "magFilter" : 9729,
            "minFilter" : 9987
        }
    ],
    "buffers" : [
        {
            "byteLength" : 618076,
            "uri" : "data:application/octet-stream;base64,"
        }
    ]
}
