{
    "asset" : {
        "generator" : "Khronos glTF Blender I/O v1.5.17",
        "version" : "2.0"
    },
    "scene" : 0,
    "scenes" : [
        {
            "name" : "Scene",
            "nodes" : [
                5
            ]
        }
    ],
    "nodes" : [
        {
            "mesh" : 0,
            "name" : "Key_Key_0"
        },
        {
            "children" : [
                0
            ],
            "name" : "Key",
            "rotation" : [
                -0.7071068286895752,
                0,
                0,
                0.7071067094802856
            ],
            "scale" : [
                100,
                100,
                100
            ],
            "translation" : [
                0,
                -0.05943877622485161,
                0.012418998405337334
            ]
        },
        {
            "children" : [
                1
            ],
            "name" : "RootNode"
        },
        {
            "children" : [
                2
            ],
            "name" : "dba80eadb28e4e6f8dfb36e3ff07a9cf.fbx",
            "rotation" : [
                0.7071068286895752,
                0,
                0,
                0.7071068286895752
            ]
        },
        {
            "children" : [
                3
            ],
            "name" : "RootNode (model correction matrix)"
        },
        {
            "children" : [
                4
            ],
            "name" : "RootNode (gltf orientation matrix)",
            "rotation" : [
                -0.7071068286895752,
                0,
                0,
                0.7071068286895752
            ]
        }
    ],
    "materials" : [
        {
            "doubleSided" : true,
            "name" : "material.001",
            "normalTexture" : {
                "index" : 0
            },
            "pbrMetallicRoughness" : {
                "baseColorTexture" : {
                    "index" : 1
                },
                "metallicRoughnessTexture" : {
                    "index" : 2
                }
            }
        }
    ],
    "meshes" : [
        {
            "name" : "Key_Key_0",
            "primitives" : [
                {
                    "attributes" : {
                        "POSITION" : 0,
                        "NORMAL" : 1,
                        "TEXCOORD_0" : 2,
                        "TEXCOORD_1" : 3,
                        "TEXCOORD_2" : 4
                    },
                    "indices" : 5,
                    "material" : 0
                }
            ]
        }
    ],
    "textures" : [
        {
            "sampler" : 0,
            "source" : 0
        },
        {
            "sampler" : 0,
            "source" : 1
        },
        {
            "sampler" : 0,
            "source" : 2
        }
    ],
    "images" : [
        {
            "bufferView" : 6,
            "mimeType" : "image/png",
            "name" : "material_normal"
        },
        {
            "bufferView" : 7,
            "mimeType" : "image/png",
            "name" : "material_baseColor"
        },
        {
            "bufferView" : 8,
            "mimeType" : "image/png",
            "name" : "material_metallicRoughness"
        }
    ],
    "accessors" : [
        {
            "bufferView" : 0,
            "componentType" : 5126,
            "count" : 329,
            "max" : [
                0.08056265860795975,
                0.08947517722845078,
                0.017839672043919563
            ],
            "min" : [
                -0.07411488890647888,
                -0.5149967670440674,
                -0.015423509292304516
            ],
            "type" : "VEC3"
        },
        {
            "bufferView" : 1,
            "componentType" : 5126,
            "count" : 329,
            "type" : "VEC3"
        },
        {
            "bufferView" : 2,
            "componentType" : 5126,
            "count" : 329,
            "type" : "VEC2"
        },
        {
            "bufferView" : 3,
            "componentType" : 5126,
            "count" : 329,
            "type" : "VEC2"
        },
        {
            "bufferView" : 4,
            "componentType" : 5126,
            "count" : 329,
            "type" : "VEC2"
        },
        {
            "bufferView" : 5,
            "componentType" : 5123,
            "count" : 669,
            "type" : "SCALAR"
        }
    ],
    "bufferViews" : [
        {
            "buffer" : 0,
            "byteLength" : 3948,
            "byteOffset" : 0
        },
        {
            "buffer" : 0,
            "byteLength" : 3948,
            "byteOffset" : 3948
        },
        {
            "buffer" : 0,
            "byteLength" : 2632,
            "byteOffset" : 7896
        },
        {
            "buffer" : 0,
            "byteLength" : 2632,
            "byteOffset" : 10528
        },
        {
            "buffer" : 0,
            "byteLength" : 2632,
            "byteOffset" : 13160
        },
        {
            "buffer" : 0,
            "byteLength" : 1338,
            "byteOffset" : 15792
        },
        {
            "buffer" : 0,
            "byteLength" : 237576,
            "byteOffset" : 17132
        },
        {
            "buffer" : 0,
            "byteLength" : 247271,
            "byteOffset" : 254708
        },
        {
            "buffer" : 0,
            "byteLength" : 7710,
            "byteOffset" : 501980
        }
    ],
    "samplers" : [
        {
            "magFilter" : 9729,
            "minFilter" : 9987
        }
    ],
    "buffers" : [
        {
            "byteLength" : 509692,
            "uri" : "data:application/octet-stream;base64,"
        }
    ]
}
