{
    "asset" : {
        "generator" : "Khronos glTF Blender I/O v1.5.17",
        "version" : "2.0"
    },
    "scene" : 0,
    "scenes" : [
        {
            "name" : "Scene",
            "nodes" : [
                8
            ]
        }
    ],
    "nodes" : [
        {
            "mesh" : 0,
            "name" : "Hamper.Cloth_0"
        },
        {
            "mesh" : 1,
            "name" : "Hamper.Outside.001_0"
        },
        {
            "children" : [
                1
            ],
            "name" : "Hamper.Outside.001",
            "rotation" : [
                0.20791228115558624,
                0,
                0,
                0.9781475067138672
            ],
            "scale" : [
                1,
                1.0000054836273193,
                1.0000054836273193
            ]
        },
        {
            "mesh" : 2,
            "name" : "Hamper.Outside.002_0"
        },
        {
            "children" : [
                3
            ],
            "name" : "Hamper.Outside.002",
            "rotation" : [
                0,
                -0.20791228115558624,
                -0.9781475067138672,
                0
            ],
            "scale" : [
                1,
                1.0000054836273193,
                1.0000054836273193
            ]
        },
        {
            "children" : [
                0,
                2,
                4
            ],
            "name" : "Hamper.Cloth",
            "translation" : [
                0,
                0,
                1.6244399547576904
            ]
        },
        {
            "children" : [
                5
            ],
            "name" : "Root"
        },
        {
            "children" : [
                6
            ],
            "name" : "RootNode (model correction matrix)"
        },
        {
            "children" : [
                7
            ],
            "name" : "RootNode (gltf orientation matrix)",
            "rotation" : [
                -0.7071068286895752,
                0,
                0,
                0.7071068286895752
            ]
        }
    ],
    "materials" : [
        {
            "doubleSided" : true,
            "name" : "Hamper.Cloth",
            "pbrMetallicRoughness" : {}
        },
        {
            "doubleSided" : true,
            "name" : "Hamper.Wood",
            "pbrMetallicRoughness" : {}
        }
    ],
    "meshes" : [
        {
            "name" : "Hamper.Cloth_0",
            "primitives" : [
                {
                    "attributes" : {
                        "POSITION" : 0,
                        "NORMAL" : 1
                    },
                    "indices" : 2,
                    "material" : 0
                }
            ]
        },
        {
            "name" : "Hamper.Outside.001_0",
            "primitives" : [
                {
                    "attributes" : {
                        "POSITION" : 3,
                        "NORMAL" : 4
                    },
                    "indices" : 5,
                    "material" : 1
                }
            ]
        },
        {
            "name" : "Hamper.Outside.002_0",
            "primitives" : [
                {
                    "attributes" : {
                        "POSITION" : 6,
                        "NORMAL" : 7
                    },
                    "indices" : 8,
                    "material" : 1
                }
            ]
        }
    ],
    "accessors" : [
        {
            "bufferView" : 0,
            "componentType" : 5126,
            "count" : 55,
            "max" : [
                0.746038019657135,
                0.726795494556427,
                1.4749006032943726
            ],
            "min" : [
                -0.7574153542518616,
                -0.7231016159057617,
                -1.3160459995269775
            ],
            "type" : "VEC3"
        },
        {
            "bufferView" : 1,
            "componentType" : 5126,
            "count" : 55,
            "type" : "VEC3"
        },
        {
            "bufferView" : 2,
            "componentType" : 5123,
            "count" : 366,
            "type" : "SCALAR"
        },
        {
            "bufferView" : 3,
            "componentType" : 5126,
            "count" : 116,
            "max" : [
                0.8237505555152893,
                0.05624999850988388,
                1.753119945526123
            ],
            "min" : [
                -0.8362504839897156,
                -0.05624999850988388,
                -1.7531299591064453
            ],
            "type" : "VEC3"
        },
        {
            "bufferView" : 4,
            "componentType" : 5126,
            "count" : 116,
            "type" : "VEC3"
        },
        {
            "bufferView" : 5,
            "componentType" : 5123,
            "count" : 153,
            "type" : "SCALAR"
        },
        {
            "bufferView" : 6,
            "componentType" : 5126,
            "count" : 114,
            "max" : [
                0.7487502694129944,
                0.05624999850988388,
                1.753119945526123
            ],
            "min" : [
                -0.7362496256828308,
                -0.05624999850988388,
                -1.7531299591064453
            ],
            "type" : "VEC3"
        },
        {
            "bufferView" : 7,
            "componentType" : 5126,
            "count" : 114,
            "type" : "VEC3"
        },
        {
            "bufferView" : 8,
            "componentType" : 5123,
            "count" : 153,
            "type" : "SCALAR"
        }
    ],
    "bufferViews" : [
        {
            "buffer" : 0,
            "byteLength" : 660,
            "byteOffset" : 0
        },
        {
            "buffer" : 0,
            "byteLength" : 660,
            "byteOffset" : 660
        },
        {
            "buffer" : 0,
            "byteLength" : 732,
            "byteOffset" : 1320
        },
        {
            "buffer" : 0,
            "byteLength" : 1392,
            "byteOffset" : 2052
        },
        {
            "buffer" : 0,
            "byteLength" : 1392,
            "byteOffset" : 3444
        },
        {
            "buffer" : 0,
            "byteLength" : 306,
            "byteOffset" : 4836
        },
        {
            "buffer" : 0,
            "byteLength" : 1368,
            "byteOffset" : 5144
        },
        {
            "buffer" : 0,
            "byteLength" : 1368,
            "byteOffset" : 6512
        },
        {
            "buffer" : 0,
            "byteLength" : 306,
            "byteOffset" : 7880
        }
    ],
    "buffers" : [
        {
            "byteLength" : 8188,
            "uri" : "data:application/octet-stream;base64,"
        }
    ]
}
