{
  "accessors": [
    {
      "bufferView": 1,
      "componentType": 5126,
      "count": 240,
      "max": [
        0.89442622661590576,
        0.85064923763275146,
        0.86861801147460938
      ],
      "min": [
        -0.85064786672592163,
        -0.85064923763275146,
        -0.97770380973815918
      ],
      "type": "VEC3"
    },
    {
      "bufferView": 1,
      "byteOffset": 2880,
      "componentType": 5126,
      "count": 240,
      "max": [
        0.98224657773971558,
        0.943523108959198,
        0.99910932779312134
      ],
      "min": [
        -0.9920770525932312,
        -0.94352221488952637,
        -0.94352847337722778
      ],
      "type": "VEC3"
    },
    {
      "bufferView": 0,
      "componentType": 5125,
      "count": 240,
      "max": [
        239
      ],
      "min": [
        0
      ],
      "type": "SCALAR"
    }
  ],
  "asset": {
    "extras": {
      "author": "DarkPixel Studios (https://sketchfab.com/SkeletonDoctor)",
      "license": "CC-BY-4.0 (http://creativecommons.org/licenses/by/4.0/)",
      "source": "https://sketchfab.com/models/fb3bf5e4ac744a13b47a59e07301ce98",
      "title": "Diamond"
    },
    "generator": "Sketchfab-3.18.7",
    "version": "2.0"
  },
  "bufferViews": [
    {
      "buffer": 0,
      "byteLength": 960,
      "byteOffset": 0,
      "name": "floatBufferViews",
      "target": 34963
    },
    {
      "buffer": 0,
      "byteLength": 5760,
      "byteOffset": 960,
      "byteStride": 12,
      "name": "floatBufferViews",
      "target": 34962
    }
  ],
  "buffers": [
    {
      "byteLength": 6720,
      "uri": "scene.bin"
    }
  ],
  "extensionsRequired": [
    "KHR_materials_pbrSpecularGlossiness"
  ],
  "extensionsUsed": [
    "KHR_materials_pbrSpecularGlossiness"
  ],
  "materials": [
    {
      "alphaMode": "BLEND",
      "doubleSided": true,
      "emissiveFactor": [
        0,
        0,
        0
      ],
      "extensions": {
        "KHR_materials_pbrSpecularGlossiness": {
          "diffuseFactor": [
            1,
            1,
            1,
            0.80000000000000004
          ],
          "glossinessFactor": 0.80000000000000004,
          "specularFactor": [
            0.59560606989999998,
            0.59560606989999998,
            0.59560606989999998
          ]
        }
      },
      "name": "Gem_Stone_Diamond"
    }
  ],
  "meshes": [
    {
      "name": "Icosphere_Gem Stone Diamond_0",
      "primitives": [
        {
          "attributes": {
            "NORMAL": 1,
            "POSITION": 0
          },
          "indices": 2,
          "material": 0,
          "mode": 4
        }
      ]
    }
  ],
  "nodes": [
    {
      "children": [
        1
      ],
      "name": "RootNode (gltf orientation matrix)",
      "rotation": [
        -0.70710678118654746,
        -0,
        -0,
        0.70710678118654757
      ]
    },
    {
      "children": [
        2
      ],
      "name": "RootNode (model correction matrix)"
    },
    {
      "children": [
        3
      ],
      "matrix": [
        1,
        0,
        0,
        0,
        0,
        0,
        1,
        0,
        0,
        -1,
        0,
        0,
        0,
        0,
        0,
        1
      ],
      "name": "465231a6c6e144869b22c0146ee5698c.fbx"
    },
    {
      "children": [
        4
      ],
      "name": "RootNode"
    },
    {
      "children": [
        5
      ],
      "name": "Default"
    },
    {
      "children": [
        6
      ],
      "matrix": [
        1,
        0,
        0,
        0,
        0,
        1,
        0,
        0,
        0,
        0,
        1,
        0,
        -2.1889152526855469,
        0.30538475513458252,
        7.62939453125e-06,
        1
      ],
      "name": "567567567"
    },
    {
      "children": [
        7
      ],
      "name": "RootNode"
    },
    {
      "children": [
        8
      ],
      "matrix": [
        100,
        0,
        0,
        0,
        0,
        -1.6292100513126684e-05,
        -99.999999999998678,
        0,
        0,
        99.999999999998678,
        -1.6292100513126684e-05,
        0,
        0,
        97.464996337890625,
        0,
        1
      ],
      "name": "Icosphere"
    },
    {
      "children": [
        9
      ],
      "matrix": [
        1,
        0,
        0,
        0,
        0,
        1,
        -2.646977960169688e-23,
        0,
        0,
        2.646977960169688e-23,
        1,
        0,
        0,
        0,
        0,
        1
      ],
      "name": "Icosphere"
    },
    {
      "children": [
        10
      ],
      "matrix": [
        1,
        0,
        0,
        0,
        0,
        1,
        -2.646977960169688e-23,
        0,
        0,
        2.646977960169688e-23,
        1,
        0,
        0,
        0,
        0,
        1
      ],
      "name": "Icosphere"
    },
    {
      "mesh": 0,
      "name": "Icosphere_Gem Stone Diamond_0"
    }
  ],
  "scene": 0,
  "scenes": [
    {
      "name": "OSG_Scene",
      "nodes": [
        0
      ]
    }
  ]
}

