{
    "asset" : {
        "generator" : "Khronos glTF Blender I/O v1.5.17",
        "version" : "2.0"
    },
    "scene" : 0,
    "scenes" : [
        {
            "name" : "Scene",
            "nodes" : [
                4
            ]
        }
    ],
    "nodes" : [
        {
            "mesh" : 0,
            "name" : "Mesh_0.015"
        },
        {
            "mesh" : 1,
            "name" : "Mesh_1.012"
        },
        {
            "children" : [
                0,
                1
            ],
            "name" : "ce0a01f2734f41668ddead298975495f.obj.cleaner.materialmerger.gle"
        },
        {
            "children" : [
                2
            ],
            "name" : "RootNode (model correction matrix)"
        },
        {
            "children" : [
                3
            ],
            "name" : "RootNode (gltf orientation matrix)",
            "rotation" : [
                -0.7071068286895752,
                0,
                0,
                0.7071068286895752
            ]
        }
    ],
    "materials" : [
        {
            "doubleSided" : true,
            "name" : "Rug_center",
            "normalTexture" : {
                "index" : 0,
                "scale" : 0.9712271094322205
            },
            "pbrMetallicRoughness" : {
                "baseColorTexture" : {
                    "index" : 1
                },
                "metallicRoughnessTexture" : {
                    "index" : 2
                },
                "roughnessFactor" : 0.6236661672592163
            }
        },
        {
            "doubleSided" : true,
            "name" : "Rug_outer_mat",
            "normalTexture" : {
                "index" : 3,
                "scale" : 0.4651295840740204
            },
            "pbrMetallicRoughness" : {
                "baseColorTexture" : {
                    "index" : 4
                },
                "metallicRoughnessTexture" : {
                    "index" : 5
                }
            }
        }
    ],
    "meshes" : [
        {
            "name" : "Mesh_0.015",
            "primitives" : [
                {
                    "attributes" : {
                        "POSITION" : 0,
                        "NORMAL" : 1,
                        "TEXCOORD_0" : 2
                    },
                    "indices" : 3,
                    "material" : 0
                }
            ]
        },
        {
            "name" : "Mesh_1.012",
            "primitives" : [
                {
                    "attributes" : {
                        "POSITION" : 4,
                        "NORMAL" : 5,
                        "TEXCOORD_0" : 6
                    },
                    "indices" : 7,
                    "material" : 1
                }
            ]
        }
    ],
    "textures" : [
        {
            "sampler" : 0,
            "source" : 0
        },
        {
            "sampler" : 0,
            "source" : 1
        },
        {
            "sampler" : 0,
            "source" : 2
        },
        {
            "sampler" : 0,
            "source" : 3
        },
        {
            "sampler" : 0,
            "source" : 4
        },
        {
            "sampler" : 0,
            "source" : 2
        }
    ],
    "images" : [
        {
            "bufferView" : 4,
            "mimeType" : "image/png",
            "name" : "Rug_center_normal"
        },
        {
            "bufferView" : 5,
            "mimeType" : "image/png",
            "name" : "Rug_center_baseColor"
        },
        {
            "bufferView" : 6,
            "mimeType" : "image/png",
            "name" : "Rug_center_metallicRoughness"
        },
        {
            "bufferView" : 11,
            "mimeType" : "image/png",
            "name" : "Rug_outer_mat_normal"
        },
        {
            "bufferView" : 12,
            "mimeType" : "image/png",
            "name" : "Rug_outer_mat_baseColor"
        }
    ],
    "accessors" : [
        {
            "bufferView" : 0,
            "componentType" : 5126,
            "count" : 10,
            "max" : [
                1.8235136270523071,
                3.1238389015197754,
                0.03390880301594734
            ],
            "min" : [
                -1.814463496208191,
                -3.1156725883483887,
                -0.002928607864305377
            ],
            "type" : "VEC3"
        },
        {
            "bufferView" : 1,
            "componentType" : 5126,
            "count" : 10,
            "type" : "VEC3"
        },
        {
            "bufferView" : 2,
            "componentType" : 5126,
            "count" : 10,
            "type" : "VEC2"
        },
        {
            "bufferView" : 3,
            "componentType" : 5123,
            "count" : 45,
            "type" : "SCALAR"
        },
        {
            "bufferView" : 7,
            "componentType" : 5126,
            "count" : 46,
            "max" : [
                2.0331854820251465,
                3.341318130493164,
                0.022653326392173767
            ],
            "min" : [
                -2.034048557281494,
                -3.303435802459717,
                -0.02271193452179432
            ],
            "type" : "VEC3"
        },
        {
            "bufferView" : 8,
            "componentType" : 5126,
            "count" : 46,
            "type" : "VEC3"
        },
        {
            "bufferView" : 9,
            "componentType" : 5126,
            "count" : 46,
            "type" : "VEC2"
        },
        {
            "bufferView" : 10,
            "componentType" : 5123,
            "count" : 99,
            "type" : "SCALAR"
        }
    ],
    "bufferViews" : [
        {
            "buffer" : 0,
            "byteLength" : 120,
            "byteOffset" : 0
        },
        {
            "buffer" : 0,
            "byteLength" : 120,
            "byteOffset" : 120
        },
        {
            "buffer" : 0,
            "byteLength" : 80,
            "byteOffset" : 240
        },
        {
            "buffer" : 0,
            "byteLength" : 90,
            "byteOffset" : 320
        },
        {
            "buffer" : 0,
            "byteLength" : 337003,
            "byteOffset" : 412
        },
        {
            "buffer" : 0,
            "byteLength" : 354495,
            "byteOffset" : 337416
        },
        {
            "buffer" : 0,
            "byteLength" : 625,
            "byteOffset" : 691912
        },
        {
            "buffer" : 0,
            "byteLength" : 552,
            "byteOffset" : 692540
        },
        {
            "buffer" : 0,
            "byteLength" : 552,
            "byteOffset" : 693092
        },
        {
            "buffer" : 0,
            "byteLength" : 368,
            "byteOffset" : 693644
        },
        {
            "buffer" : 0,
            "byteLength" : 198,
            "byteOffset" : 694012
        },
        {
            "buffer" : 0,
            "byteLength" : 600425,
            "byteOffset" : 694212
        },
        {
            "buffer" : 0,
            "byteLength" : 186750,
            "byteOffset" : 1294640
        }
    ],
    "samplers" : [
        {
            "magFilter" : 9729,
            "minFilter" : 9987
        }
    ],
    "buffers" : [
        {
            "byteLength" : 1481392,
            "uri" : "data:application/octet-stream;base64,"
        }
    ]
}
