{
  "accessors": [
    {
      "bufferView": 2,
      "componentType": 5126,
      "count": 32,
      "max": [
        46.500003814697266,
        -0,
        123
      ],
      "min": [
        -46.500003814697266,
        -5,
        -2.9999990463256836
      ],
      "type": "VEC3"
    },
    {
      "bufferView": 2,
      "byteOffset": 384,
      "componentType": 5126,
      "count": 32,
      "max": [
        0.7071068286895752,
        0.58071130514144897,
        0.7071068286895752
      ],
      "min": [
        -0.7071068286895752,
        -0.97898620367050171,
        -0.7071068286895752
      ],
      "type": "VEC3"
    },
    {
      "bufferView": 0,
      "componentType": 5125,
      "count": 174,
      "max": [
        31
      ],
      "min": [
        0
      ],
      "type": "SCALAR"
    },
    {
      "bufferView": 2,
      "byteOffset": 768,
      "componentType": 5126,
      "count": 4,
      "max": [
        33.500007629394531,
        -2.5,
        110.00000762939453
      ],
      "min": [
        -33.500007629394531,
        -2.5,
        10
      ],
      "type": "VEC3"
    },
    {
      "bufferView": 2,
      "byteOffset": 816,
      "componentType": 5126,
      "count": 4,
      "max": [
        0,
        -1,
        0
      ],
      "min": [
        0,
        -1,
        0
      ],
      "type": "VEC3"
    },
    {
      "bufferView": 3,
      "componentType": 5126,
      "count": 4,
      "max": [
        1,
        0,
        0,
        1
      ],
      "min": [
        1,
        0,
        0,
        1
      ],
      "type": "VEC4"
    },
    {
      "bufferView": 1,
      "componentType": 5126,
      "count": 4,
      "max": [
        -0.000901999999769032,
        0.99856597185134888
      ],
      "min": [
        -1.0009020566940308,
        -0.0014339999761432409
      ],
      "type": "VEC2"
    },
    {
      "bufferView": 0,
      "byteOffset": 696,
      "componentType": 5125,
      "count": 6,
      "max": [
        3
      ],
      "min": [
        0
      ],
      "type": "SCALAR"
    },
    {
      "bufferView": 2,
      "byteOffset": 864,
      "componentType": 5126,
      "count": 24,
      "max": [
        43.499988555908203,
        -2.5,
        119.99997711181641
      ],
      "min": [
        -43.499988555908203,
        -2.9999990463256836,
        -0
      ],
      "type": "VEC3"
    },
    {
      "bufferView": 2,
      "byteOffset": 1152,
      "componentType": 5126,
      "count": 24,
      "max": [
        0.7071068286895752,
        -0.7071068286895752,
        0.7071068286895752
      ],
      "min": [
        -0.7071068286895752,
        -1,
        -0.7071068286895752
      ],
      "type": "VEC3"
    },
    {
      "bufferView": 0,
      "byteOffset": 720,
      "componentType": 5125,
      "count": 48,
      "max": [
        23
      ],
      "min": [
        0
      ],
      "type": "SCALAR"
    }
  ],
  "asset": {
    "extras": {
      "author": "Whystler (https://sketchfab.com/Whystler)",
      "license": "CC-BY-NC-ND-4.0 (http://creativecommons.org/licenses/by-nc-nd/4.0/)",
      "source": "https://sketchfab.com/3d-models/jupiter-poster-715283cb6c664e8eb3f116f03fac5728",
      "title": "Jupiter Poster"
    },
    "generator": "Sketchfab-7.3.0",
    "version": "2.0"
  },
  "bufferViews": [
    {
      "buffer": 0,
      "byteLength": 912,
      "byteOffset": 0,
      "name": "floatBufferViews",
      "target": 34963
    },
    {
      "buffer": 0,
      "byteLength": 32,
      "byteOffset": 912,
      "byteStride": 8,
      "name": "floatBufferViews",
      "target": 34962
    },
    {
      "buffer": 0,
      "byteLength": 1440,
      "byteOffset": 944,
      "byteStride": 12,
      "name": "floatBufferViews",
      "target": 34962
    },
    {
      "buffer": 0,
      "byteLength": 64,
      "byteOffset": 2384,
      "byteStride": 16,
      "name": "floatBufferViews",
      "target": 34962
    }
  ],
  "buffers": [
    {
      "byteLength": 2448,
      "uri": "scene.bin"
    }
  ],
  "images": [
    {
      "uri": "textures/material_poster_baseColor.png"
    }
  ],
  "materials": [
    {
      "doubleSided": true,
      "emissiveFactor": [
        0,
        0,
        0
      ],
      "name": "material_frame",
      "pbrMetallicRoughness": {
        "baseColorFactor": [
          0.64447968197058214,
          0.49693299506087041,
          0.076185381481307823,
          1
        ],
        "metallicFactor": 0.91634908536585369,
        "roughnessFactor": 0.059260670731707266
      }
    },
    {
      "doubleSided": true,
      "emissiveFactor": [
        0,
        0,
        0
      ],
      "name": "material_matting",
      "pbrMetallicRoughness": {
        "baseColorFactor": [
          0.51372600000000002,
          0.47450999999999999,
          0.36470599999999997,
          1
        ],
        "metallicFactor": 0,
        "roughnessFactor": 0.84349154199267129
      }
    },
    {
      "doubleSided": true,
      "emissiveFactor": [
        0,
        0,
        0
      ],
      "name": "material_poster",
      "pbrMetallicRoughness": {
        "baseColorFactor": [
          1,
          1,
          1,
          1
        ],
        "baseColorTexture": {
          "index": 0,
          "texCoord": 0
        },
        "metallicFactor": 0,
        "roughnessFactor": 0.84349154199267129
      }
    }
  ],
  "meshes": [
    {
      "primitives": [
        {
          "attributes": {
            "NORMAL": 1,
            "POSITION": 0
          },
          "indices": 2,
          "material": 0,
          "mode": 4
        }
      ]
    },
    {
      "primitives": [
        {
          "attributes": {
            "NORMAL": 4,
            "POSITION": 3,
            "TANGENT": 5,
            "TEXCOORD_0": 6
          },
          "indices": 7,
          "material": 2,
          "mode": 4
        }
      ]
    },
    {
      "primitives": [
        {
          "attributes": {
            "NORMAL": 9,
            "POSITION": 8
          },
          "indices": 10,
          "material": 1,
          "mode": 4
        }
      ]
    }
  ],
  "nodes": [
    {
      "children": [
        1
      ],
      "name": "RootNode (gltf orientation matrix)",
      "rotation": [
        -0.70710678118654746,
        -0,
        -0,
        0.70710678118654757
      ]
    },
    {
      "children": [
        2
      ],
      "name": "RootNode (model correction matrix)"
    },
    {
      "children": [
        3,
        4,
        5
      ],
      "name": "posterframe-matted01a.obj.cleaner.materialmerger.gles"
    },
    {
      "mesh": 0,
      "name": ""
    },
    {
      "mesh": 1,
      "name": ""
    },
    {
      "mesh": 2,
      "name": ""
    }
  ],
  "samplers": [
    {
      "magFilter": 9729,
      "minFilter": 9987,
      "wrapS": 10497,
      "wrapT": 10497
    }
  ],
  "scene": 0,
  "scenes": [
    {
      "name": "OSG_Scene",
      "nodes": [
        0
      ]
    }
  ],
  "textures": [
    {
      "sampler": 0,
      "source": 0
    }
  ]
}

