{
    "asset" : {
        "generator" : "Khronos glTF Blender I/O v1.5.17",
        "version" : "2.0"
    },
    "extensionsUsed" : [
        "KHR_materials_unlit"
    ],
    "scene" : 0,
    "scenes" : [
        {
            "name" : "Scene",
            "nodes" : [
                6
            ]
        }
    ],
    "nodes" : [
        {
            "mesh" : 0,
            "name" : "Mesh_0.014"
        },
        {
            "mesh" : 1,
            "name" : "Mesh_1.011"
        },
        {
            "mesh" : 2,
            "name" : "Mesh_2.009"
        },
        {
            "mesh" : 3,
            "name" : "Mesh_3.006"
        },
        {
            "children" : [
                0,
                1,
                2,
                3
            ],
            "name" : "Library.obj.cleaner"
        },
        {
            "children" : [
                4
            ],
            "name" : "RootNode (model correction matrix)"
        },
        {
            "children" : [
                5
            ],
            "name" : "RootNode (gltf orientation matrix)",
            "rotation" : [
                -0.7071068286895752,
                0,
                0,
                0.7071068286895752
            ]
        }
    ],
    "materials" : [
        {
            "doubleSided" : true,
            "extensions" : {
                "KHR_materials_unlit" : {}
            },
            "name" : "Object001_mtl",
            "pbrMetallicRoughness" : {
                "baseColorTexture" : {
                    "index" : 0
                },
                "metallicFactor" : 0,
                "roughnessFactor" : 0.9
            }
        }
    ],
    "meshes" : [
        {
            "name" : "Mesh_0.014",
            "primitives" : [
                {
                    "attributes" : {
                        "POSITION" : 0,
                        "NORMAL" : 1,
                        "TEXCOORD_0" : 2
                    },
                    "indices" : 3,
                    "material" : 0
                }
            ]
        },
        {
            "name" : "Mesh_1.011",
            "primitives" : [
                {
                    "attributes" : {
                        "POSITION" : 4,
                        "NORMAL" : 5,
                        "TEXCOORD_0" : 6
                    },
                    "indices" : 7,
                    "material" : 0
                }
            ]
        },
        {
            "name" : "Mesh_2.009",
            "primitives" : [
                {
                    "attributes" : {
                        "POSITION" : 8,
                        "NORMAL" : 9,
                        "TEXCOORD_0" : 10
                    },
                    "indices" : 11,
                    "material" : 0
                }
            ]
        },
        {
            "name" : "Mesh_3.006",
            "primitives" : [
                {
                    "attributes" : {
                        "POSITION" : 12,
                        "NORMAL" : 13,
                        "TEXCOORD_0" : 14
                    },
                    "indices" : 15,
                    "material" : 0
                }
            ]
        }
    ],
    "textures" : [
        {
            "sampler" : 0,
            "source" : 0
        }
    ],
    "images" : [
        {
            "bufferView" : 4,
            "mimeType" : "image/jpeg",
            "name" : "Object001_mtl_baseColor"
        }
    ],
    "accessors" : [
        {
            "bufferView" : 0,
            "componentType" : 5126,
            "count" : 695,
            "max" : [
                22.652299880981445,
                7.763199806213379,
                279.7367858886719
            ],
            "min" : [
                -292.0387878417969,
                -14.92940616607666,
                -0.3353999853134155
            ],
            "type" : "VEC3"
        },
        {
            "bufferView" : 1,
            "componentType" : 5126,
            "count" : 695,
            "type" : "VEC3"
        },
        {
            "bufferView" : 2,
            "componentType" : 5126,
            "count" : 695,
            "type" : "VEC2"
        },
        {
            "bufferView" : 3,
            "componentType" : 5123,
            "count" : 789,
            "type" : "SCALAR"
        },
        {
            "bufferView" : 5,
            "componentType" : 5126,
            "count" : 21,
            "max" : [
                22.59830093383789,
                -12.236800193786621,
                279.7367858886719
            ],
            "min" : [
                -292.0387878417969,
                -12.31410026550293,
                -0.13289999961853027
            ],
            "type" : "VEC3"
        },
        {
            "bufferView" : 6,
            "componentType" : 5126,
            "count" : 21,
            "type" : "VEC3"
        },
        {
            "bufferView" : 7,
            "componentType" : 5126,
            "count" : 21,
            "type" : "VEC2"
        },
        {
            "bufferView" : 8,
            "componentType" : 5123,
            "count" : 21,
            "type" : "SCALAR"
        },
        {
            "bufferView" : 9,
            "componentType" : 5126,
            "count" : 262,
            "max" : [
                22.544300079345703,
                7.763199806213379,
                265.3406066894531
            ],
            "min" : [
                -292.0387878417969,
                -12.499674797058105,
                34.18119812011719
            ],
            "type" : "VEC3"
        },
        {
            "bufferView" : 10,
            "componentType" : 5126,
            "count" : 262,
            "type" : "VEC3"
        },
        {
            "bufferView" : 11,
            "componentType" : 5126,
            "count" : 262,
            "type" : "VEC2"
        },
        {
            "bufferView" : 12,
            "componentType" : 5123,
            "count" : 342,
            "type" : "SCALAR"
        },
        {
            "bufferView" : 13,
            "componentType" : 5126,
            "count" : 635,
            "max" : [
                -17.95594596862793,
                8.065699577331543,
                271.7840881347656
            ],
            "min" : [
                -257.02996826171875,
                -21.569602966308594,
                36.28000259399414
            ],
            "type" : "VEC3"
        },
        {
            "bufferView" : 14,
            "componentType" : 5126,
            "count" : 635,
            "type" : "VEC3"
        },
        {
            "bufferView" : 15,
            "componentType" : 5126,
            "count" : 635,
            "type" : "VEC2"
        },
        {
            "bufferView" : 16,
            "componentType" : 5123,
            "count" : 645,
            "type" : "SCALAR"
        }
    ],
    "bufferViews" : [
        {
            "buffer" : 0,
            "byteLength" : 8340,
            "byteOffset" : 0
        },
        {
            "buffer" : 0,
            "byteLength" : 8340,
            "byteOffset" : 8340
        },
        {
            "buffer" : 0,
            "byteLength" : 5560,
            "byteOffset" : 16680
        },
        {
            "buffer" : 0,
            "byteLength" : 1578,
            "byteOffset" : 22240
        },
        {
            "buffer" : 0,
            "byteLength" : 182499,
            "byteOffset" : 23820
        },
        {
            "buffer" : 0,
            "byteLength" : 252,
            "byteOffset" : 206320
        },
        {
            "buffer" : 0,
            "byteLength" : 252,
            "byteOffset" : 206572
        },
        {
            "buffer" : 0,
            "byteLength" : 168,
            "byteOffset" : 206824
        },
        {
            "buffer" : 0,
            "byteLength" : 42,
            "byteOffset" : 206992
        },
        {
            "buffer" : 0,
            "byteLength" : 3144,
            "byteOffset" : 207036
        },
        {
            "buffer" : 0,
            "byteLength" : 3144,
            "byteOffset" : 210180
        },
        {
            "buffer" : 0,
            "byteLength" : 2096,
            "byteOffset" : 213324
        },
        {
            "buffer" : 0,
            "byteLength" : 684,
            "byteOffset" : 215420
        },
        {
            "buffer" : 0,
            "byteLength" : 7620,
            "byteOffset" : 216104
        },
        {
            "buffer" : 0,
            "byteLength" : 7620,
            "byteOffset" : 223724
        },
        {
            "buffer" : 0,
            "byteLength" : 5080,
            "byteOffset" : 231344
        },
        {
            "buffer" : 0,
            "byteLength" : 1290,
            "byteOffset" : 236424
        }
    ],
    "samplers" : [
        {
            "magFilter" : 9729,
            "minFilter" : 9987
        }
    ],
    "buffers" : [
        {
            "byteLength" : 237716,
            "uri" : "data:application/octet-stream;base64,"
        }
    ]
}
