{
  "accessors": [
    {
      "bufferView": 2,
      "componentType": 5126,
      "count": 925,
      "max": [
        0.076286964118480682,
        0.091546796262264252,
        0.018460050225257874
      ],
      "min": [
        -0.076286964118480682,
        -0.51580429077148438,
        -0.015443000011146069
      ],
      "type": "VEC3"
    },
    {
      "bufferView": 2,
      "byteOffset": 11100,
      "componentType": 5126,
      "count": 925,
      "max": [
        0.9999924898147583,
        0.99967682361602783,
        0.9998546838760376
      ],
      "min": [
        -0.99999499320983887,
        -0.9992823600769043,
        -0.99999654293060303
      ],
      "type": "VEC3"
    },
    {
      "bufferView": 3,
      "componentType": 5126,
      "count": 925,
      "max": [
        0.96268093585968018,
        0.98649442195892334,
        0.99998724460601807,
        1
      ],
      "min": [
        -0.99998015165328979,
        -0.99991673231124878,
        -0.99996274709701538,
        -1
      ],
      "type": "VEC4"
    },
    {
      "bufferView": 1,
      "componentType": 5126,
      "count": 925,
      "max": [
        0.90561294555664062,
        0.99204516410827637
      ],
      "min": [
        0.0079547902569174767,
        0.0079547902569174767
      ],
      "type": "VEC2"
    },
    {
      "bufferView": 1,
      "byteOffset": 7400,
      "componentType": 5126,
      "count": 925,
      "max": [
        0.90561294555664062,
        0.99204516410827637
      ],
      "min": [
        0.0079547902569174767,
        0.0079547902569174767
      ],
      "type": "VEC2"
    },
    {
      "bufferView": 1,
      "byteOffset": 14800,
      "componentType": 5126,
      "count": 925,
      "max": [
        0.90561294555664062,
        0.99204516410827637
      ],
      "min": [
        0.0079547902569174767,
        0.0079547902569174767
      ],
      "type": "VEC2"
    },
    {
      "bufferView": 0,
      "componentType": 5125,
      "count": 3348,
      "max": [
        924
      ],
      "min": [
        0
      ],
      "type": "SCALAR"
    }
  ],
  "asset": {
    "extras": {
      "author": "spooneystone (https://sketchfab.com/spooneystone)",
      "license": "CC-BY-4.0 (http://creativecommons.org/licenses/by/4.0/)",
      "source": "https://sketchfab.com/3d-models/key-aeb6b20f890a4ea68b9720c213995984",
      "title": "KEY"
    },
    "generator": "Sketchfab-5.48.1",
    "version": "2.0"
  },
  "bufferViews": [
    {
      "buffer": 0,
      "byteLength": 13392,
      "byteOffset": 0,
      "name": "floatBufferViews",
      "target": 34963
    },
    {
      "buffer": 0,
      "byteLength": 22200,
      "byteOffset": 13392,
      "byteStride": 8,
      "name": "floatBufferViews",
      "target": 34962
    },
    {
      "buffer": 0,
      "byteLength": 22200,
      "byteOffset": 35592,
      "byteStride": 12,
      "name": "floatBufferViews",
      "target": 34962
    },
    {
      "buffer": 0,
      "byteLength": 14800,
      "byteOffset": 57792,
      "byteStride": 16,
      "name": "floatBufferViews",
      "target": 34962
    }
  ],
  "buffers": [
    {
      "byteLength": 72592,
      "uri": "scene.bin"
    }
  ],
  "images": [
    {
      "uri": "textures/material_baseColor.png"
    },
    {
      "uri": "textures/material_metallicRoughness.png"
    },
    {
      "uri": "textures/material_normal.png"
    }
  ],
  "materials": [
    {
      "doubleSided": true,
      "emissiveFactor": [
        0,
        0,
        0
      ],
      "name": "material",
      "normalTexture": {
        "index": 2,
        "scale": 1,
        "texCoord": 0
      },
      "pbrMetallicRoughness": {
        "baseColorFactor": [
          1,
          1,
          1,
          1
        ],
        "baseColorTexture": {
          "index": 0,
          "texCoord": 0
        },
        "metallicFactor": 1,
        "metallicRoughnessTexture": {
          "index": 1,
          "texCoord": 0
        },
        "roughnessFactor": 1
      }
    }
  ],
  "meshes": [
    {
      "name": "Key_Key_0",
      "primitives": [
        {
          "attributes": {
            "NORMAL": 1,
            "POSITION": 0,
            "TANGENT": 2,
            "TEXCOORD_0": 3,
            "TEXCOORD_1": 4,
            "TEXCOORD_2": 5
          },
          "indices": 6,
          "material": 0,
          "mode": 4
        }
      ]
    }
  ],
  "nodes": [
    {
      "children": [
        1
      ],
      "name": "RootNode (gltf orientation matrix)",
      "rotation": [
        -0.70710678118654746,
        -0,
        -0,
        0.70710678118654757
      ]
    },
    {
      "children": [
        2
      ],
      "name": "RootNode (model correction matrix)"
    },
    {
      "children": [
        3
      ],
      "matrix": [
        1,
        0,
        0,
        0,
        0,
        0,
        1,
        0,
        0,
        -1,
        0,
        0,
        0,
        0,
        0,
        1
      ],
      "name": "dba80eadb28e4e6f8dfb36e3ff07a9cf.fbx"
    },
    {
      "children": [
        4
      ],
      "name": "RootNode"
    },
    {
      "children": [
        5
      ],
      "matrix": [
        100,
        0,
        0,
        0,
        0,
        -1.6292067939183141e-05,
        -99.999999999998678,
        0,
        0,
        99.999999999998678,
        -1.6292067939183141e-05,
        0,
        0,
        -0.059438776224851608,
        0.012418998405337334,
        1
      ],
      "name": "Key"
    },
    {
      "mesh": 0,
      "name": "Key_Key_0"
    }
  ],
  "samplers": [
    {
      "magFilter": 9729,
      "minFilter": 9987,
      "wrapS": 10497,
      "wrapT": 10497
    }
  ],
  "scene": 0,
  "scenes": [
    {
      "name": "OSG_Scene",
      "nodes": [
        0
      ]
    }
  ],
  "textures": [
    {
      "sampler": 0,
      "source": 0
    },
    {
      "sampler": 0,
      "source": 1
    },
    {
      "sampler": 0,
      "source": 2
    }
  ]
}

