{
    "asset" : {
        "generator" : "Khronos glTF Blender I/O v1.5.17",
        "version" : "2.0"
    },
    "scene" : 0,
    "scenes" : [
        {
            "name" : "Scene",
            "nodes" : [
                6
            ]
        }
    ],
    "nodes" : [
        {
            "mesh" : 0,
            "name" : "Mesh_0.009"
        },
        {
            "mesh" : 1,
            "name" : "Mesh_1.006"
        },
        {
            "mesh" : 2,
            "name" : "Mesh_2.004"
        },
        {
            "mesh" : 3,
            "name" : "Mesh_3.002"
        },
        {
            "children" : [
                0,
                1,
                2,
                3
            ],
            "name" : "\ufffd\ufffd.obj.cleaner.materialmerger.gles"
        },
        {
            "children" : [
                4
            ],
            "name" : "RootNode (model correction matrix)"
        },
        {
            "children" : [
                5
            ],
            "name" : "RootNode (gltf orientation matrix)",
            "rotation" : [
                -0.7071068286895752,
                0,
                0,
                0.7071068286895752
            ]
        }
    ],
    "materials" : [
        {
            "doubleSided" : true,
            "name" : "material.002",
            "pbrMetallicRoughness" : {
                "baseColorFactor" : [
                    0.01296159252524376,
                    0.23897415399551392,
                    0.3054109215736389,
                    1
                ],
                "metallicFactor" : 0,
                "roughnessFactor" : 0.6000000238418579
            }
        },
        {
            "doubleSided" : true,
            "name" : "Mat_1",
            "pbrMetallicRoughness" : {
                "baseColorFactor" : [
                    0.09503719210624695,
                    0.09503719210624695,
                    0.09503719210624695,
                    1
                ],
                "metallicFactor" : 0,
                "roughnessFactor" : 0.6000000238418579
            }
        },
        {
            "doubleSided" : true,
            "name" : "Mat_2",
            "pbrMetallicRoughness" : {
                "baseColorFactor" : [
                    0.40395233035087585,
                    0.40395233035087585,
                    0.40395233035087585,
                    1
                ],
                "metallicFactor" : 0,
                "roughnessFactor" : 0.6000000238418579
            }
        }
    ],
    "meshes" : [
        {
            "name" : "Mesh_0.009",
            "primitives" : [
                {
                    "attributes" : {
                        "POSITION" : 0,
                        "NORMAL" : 1,
                        "TEXCOORD_0" : 2
                    },
                    "indices" : 3,
                    "material" : 0
                }
            ]
        },
        {
            "name" : "Mesh_1.006",
            "primitives" : [
                {
                    "attributes" : {
                        "POSITION" : 4,
                        "NORMAL" : 5,
                        "TEXCOORD_0" : 6
                    },
                    "indices" : 7,
                    "material" : 1
                }
            ]
        },
        {
            "name" : "Mesh_2.004",
            "primitives" : [
                {
                    "attributes" : {
                        "POSITION" : 8,
                        "NORMAL" : 9,
                        "TEXCOORD_0" : 10
                    },
                    "indices" : 11,
                    "material" : 1
                }
            ]
        },
        {
            "name" : "Mesh_3.002",
            "primitives" : [
                {
                    "attributes" : {
                        "POSITION" : 12,
                        "NORMAL" : 13,
                        "TEXCOORD_0" : 14
                    },
                    "indices" : 15,
                    "material" : 2
                }
            ]
        }
    ],
    "accessors" : [
        {
            "bufferView" : 0,
            "componentType" : 5126,
            "count" : 644,
            "max" : [
                21.306665420532227,
                14.4647855758667,
                66.53047943115234
            ],
            "min" : [
                -21.306665420532227,
                -13.696496963500977,
                6.180168628692627
            ],
            "type" : "VEC3"
        },
        {
            "bufferView" : 1,
            "componentType" : 5126,
            "count" : 644,
            "type" : "VEC3"
        },
        {
            "bufferView" : 2,
            "componentType" : 5126,
            "count" : 644,
            "type" : "VEC2"
        },
        {
            "bufferView" : 3,
            "componentType" : 5123,
            "count" : 1062,
            "type" : "SCALAR"
        },
        {
            "bufferView" : 4,
            "componentType" : 5126,
            "count" : 670,
            "max" : [
                22.962955474853516,
                14.11406135559082,
                75.69766235351562
            ],
            "min" : [
                -22.51240348815918,
                -12.571775436401367,
                0.9532265663146973
            ],
            "type" : "VEC3"
        },
        {
            "bufferView" : 5,
            "componentType" : 5126,
            "count" : 670,
            "type" : "VEC3"
        },
        {
            "bufferView" : 6,
            "componentType" : 5126,
            "count" : 670,
            "type" : "VEC2"
        },
        {
            "bufferView" : 7,
            "componentType" : 5123,
            "count" : 1278,
            "type" : "SCALAR"
        },
        {
            "bufferView" : 8,
            "componentType" : 5126,
            "count" : 807,
            "max" : [
                21.56313705444336,
                14.07653522491455,
                59.75407028198242
            ],
            "min" : [
                -18.782316207885742,
                -13.144916534423828,
                1.7425917387008667
            ],
            "type" : "VEC3"
        },
        {
            "bufferView" : 9,
            "componentType" : 5126,
            "count" : 807,
            "type" : "VEC3"
        },
        {
            "bufferView" : 10,
            "componentType" : 5126,
            "count" : 807,
            "type" : "VEC2"
        },
        {
            "bufferView" : 11,
            "componentType" : 5123,
            "count" : 1275,
            "type" : "SCALAR"
        },
        {
            "bufferView" : 12,
            "componentType" : 5126,
            "count" : 31,
            "max" : [
                6.5572638511657715,
                13.411369323730469,
                73.78639221191406
            ],
            "min" : [
                -6.699981212615967,
                12.726729393005371,
                58.74652862548828
            ],
            "type" : "VEC3"
        },
        {
            "bufferView" : 13,
            "componentType" : 5126,
            "count" : 31,
            "type" : "VEC3"
        },
        {
            "bufferView" : 14,
            "componentType" : 5126,
            "count" : 31,
            "type" : "VEC2"
        },
        {
            "bufferView" : 15,
            "componentType" : 5123,
            "count" : 45,
            "type" : "SCALAR"
        }
    ],
    "bufferViews" : [
        {
            "buffer" : 0,
            "byteLength" : 7728,
            "byteOffset" : 0
        },
        {
            "buffer" : 0,
            "byteLength" : 7728,
            "byteOffset" : 7728
        },
        {
            "buffer" : 0,
            "byteLength" : 5152,
            "byteOffset" : 15456
        },
        {
            "buffer" : 0,
            "byteLength" : 2124,
            "byteOffset" : 20608
        },
        {
            "buffer" : 0,
            "byteLength" : 8040,
            "byteOffset" : 22732
        },
        {
            "buffer" : 0,
            "byteLength" : 8040,
            "byteOffset" : 30772
        },
        {
            "buffer" : 0,
            "byteLength" : 5360,
            "byteOffset" : 38812
        },
        {
            "buffer" : 0,
            "byteLength" : 2556,
            "byteOffset" : 44172
        },
        {
            "buffer" : 0,
            "byteLength" : 9684,
            "byteOffset" : 46728
        },
        {
            "buffer" : 0,
            "byteLength" : 9684,
            "byteOffset" : 56412
        },
        {
            "buffer" : 0,
            "byteLength" : 6456,
            "byteOffset" : 66096
        },
        {
            "buffer" : 0,
            "byteLength" : 2550,
            "byteOffset" : 72552
        },
        {
            "buffer" : 0,
            "byteLength" : 372,
            "byteOffset" : 75104
        },
        {
            "buffer" : 0,
            "byteLength" : 372,
            "byteOffset" : 75476
        },
        {
            "buffer" : 0,
            "byteLength" : 248,
            "byteOffset" : 75848
        },
        {
            "buffer" : 0,
            "byteLength" : 90,
            "byteOffset" : 76096
        }
    ],
    "buffers" : [
        {
            "byteLength" : 76188,
            "uri" : "data:application/octet-stream;base64,"
        }
    ]
}
