{
  "accessors": [
    {
      "bufferView": 2,
      "componentType": 5126,
      "count": 3205,
      "max": [
        22.652299880981445,
        7.7631998062133789,
        279.73678588867188
      ],
      "min": [
        -292.03878784179688,
        -15.207599639892578,
        -0.33539998531341553
      ],
      "type": "VEC3"
    },
    {
      "bufferView": 2,
      "byteOffset": 38460,
      "componentType": 5126,
      "count": 3205,
      "max": [
        0.99998140335083008,
        1,
        0.99982935190200806
      ],
      "min": [
        -0.99998974800109863,
        -0.99953228235244751,
        -0.99998140335083008
      ],
      "type": "VEC3"
    },
    {
      "bufferView": 3,
      "componentType": 5126,
      "count": 3205,
      "max": [
        1,
        1,
        1,
        1
      ],
      "min": [
        -0.99805730581283569,
        -1,
        -0.99984121322631836,
        -1
      ],
      "type": "VEC4"
    },
    {
      "bufferView": 1,
      "componentType": 5126,
      "count": 3205,
      "max": [
        0.99500000476837158,
        0.99479997158050537
      ],
      "min": [
        0.004999999888241291,
        0.004999999888241291
      ],
      "type": "VEC2"
    },
    {
      "bufferView": 0,
      "componentType": 5125,
      "count": 7908,
      "max": [
        3204
      ],
      "min": [
        0
      ],
      "type": "SCALAR"
    },
    {
      "bufferView": 2,
      "byteOffset": 76920,
      "componentType": 5126,
      "count": 974,
      "max": [
        22.652299880981445,
        3.8503000736236572,
        279.73678588867188
      ],
      "min": [
        -292.03878784179688,
        -12.31410026550293,
        -0.33539998531341553
      ],
      "type": "VEC3"
    },
    {
      "bufferView": 2,
      "byteOffset": 88608,
      "componentType": 5126,
      "count": 974,
      "max": [
        0.96302217245101929,
        0.97689473628997803,
        0.70548951625823975
      ],
      "min": [
        -0.85310417413711548,
        -1,
        -0.99619418382644653
      ],
      "type": "VEC3"
    },
    {
      "bufferView": 3,
      "byteOffset": 51280,
      "componentType": 5126,
      "count": 974,
      "max": [
        0.99709689617156982,
        0.91947662830352783,
        0.99894106388092041,
        1
      ],
      "min": [
        -1,
        -0.99882024526596069,
        -0.99924004077911377,
        1
      ],
      "type": "VEC4"
    },
    {
      "bufferView": 1,
      "byteOffset": 25640,
      "componentType": 5126,
      "count": 974,
      "max": [
        0.99419999122619629,
        0.99239999055862427
      ],
      "min": [
        0.004999999888241291,
        0.004999999888241291
      ],
      "type": "VEC2"
    },
    {
      "bufferView": 0,
      "byteOffset": 31632,
      "componentType": 5125,
      "count": 2220,
      "max": [
        973
      ],
      "min": [
        0
      ],
      "type": "SCALAR"
    },
    {
      "bufferView": 2,
      "byteOffset": 100296,
      "componentType": 5126,
      "count": 7771,
      "max": [
        22.544300079345703,
        7.7631998062133789,
        279.73678588867188
      ],
      "min": [
        -292.03878784179688,
        -13.535699844360352,
        34.181198120117188
      ],
      "type": "VEC3"
    },
    {
      "bufferView": 2,
      "byteOffset": 193548,
      "componentType": 5126,
      "count": 7771,
      "max": [
        0.99963468313217163,
        0.99993634223937988,
        0.99998140335083008
      ],
      "min": [
        -0.99965208768844604,
        -0.99996495246887207,
        -0.99984830617904663
      ],
      "type": "VEC3"
    },
    {
      "bufferView": 3,
      "byteOffset": 66864,
      "componentType": 5126,
      "count": 7771,
      "max": [
        0.99998140335083008,
        1,
        0.99996471405029297,
        1
      ],
      "min": [
        -0.99945950508117676,
        -1,
        -0.99997079372406006,
        -1
      ],
      "type": "VEC4"
    },
    {
      "bufferView": 1,
      "byteOffset": 33432,
      "componentType": 5126,
      "count": 7771,
      "max": [
        0.99500000476837158,
        0.99489998817443848
      ],
      "min": [
        0.004999999888241291,
        0.004999999888241291
      ],
      "type": "VEC2"
    },
    {
      "bufferView": 0,
      "byteOffset": 40512,
      "componentType": 5125,
      "count": 34608,
      "max": [
        7770
      ],
      "min": [
        0
      ],
      "type": "SCALAR"
    },
    {
      "bufferView": 2,
      "byteOffset": 286800,
      "componentType": 5126,
      "count": 43387,
      "max": [
        -17.941699981689453,
        8.1593999862670898,
        271.83718872070312
      ],
      "min": [
        -257.11749267578125,
        -22.194999694824219,
        36.279998779296875
      ],
      "type": "VEC3"
    },
    {
      "bufferView": 2,
      "byteOffset": 807444,
      "componentType": 5126,
      "count": 43387,
      "max": [
        0.9999920129776001,
        0.99964946508407593,
        1
      ],
      "min": [
        -0.99999117851257324,
        -0.99949485063552856,
        -1
      ],
      "type": "VEC3"
    },
    {
      "bufferView": 3,
      "byteOffset": 191200,
      "componentType": 5126,
      "count": 43387,
      "max": [
        0.99999570846557617,
        1,
        0.99998986721038818,
        1
      ],
      "min": [
        -0.99999618530273438,
        -1,
        -0.99959057569503784,
        -1
      ],
      "type": "VEC4"
    },
    {
      "bufferView": 1,
      "byteOffset": 95600,
      "componentType": 5126,
      "count": 43387,
      "max": [
        0.99489998817443848,
        0.99489998817443848
      ],
      "min": [
        0.004999999888241291,
        0.004999999888241291
      ],
      "type": "VEC2"
    },
    {
      "bufferView": 0,
      "byteOffset": 178944,
      "componentType": 5125,
      "count": 64752,
      "max": [
        43386
      ],
      "min": [
        0
      ],
      "type": "SCALAR"
    },
    {
      "bufferView": 2,
      "byteOffset": 1328088,
      "componentType": 5126,
      "count": 65532,
      "max": [
        -37.578300476074219,
        7.6022000312805176,
        205.98649597167969
      ],
      "min": [
        -252.08830261230469,
        -18.101699829101562,
        78.24169921875
      ],
      "type": "VEC3"
    },
    {
      "bufferView": 2,
      "byteOffset": 2114472,
      "componentType": 5126,
      "count": 65532,
      "max": [
        0.99968212842941284,
        1,
        0.99997603893280029
      ],
      "min": [
        -0.99998974800109863,
        -1,
        -0.99995243549346924
      ],
      "type": "VEC3"
    },
    {
      "bufferView": 3,
      "byteOffset": 885392,
      "componentType": 5126,
      "count": 65532,
      "max": [
        0.99996614456176758,
        0.99994117021560669,
        0.99999219179153442,
        1
      ],
      "min": [
        -0.99999874830245972,
        -0.99996489286422729,
        -0.99996203184127808,
        -1
      ],
      "type": "VEC4"
    },
    {
      "bufferView": 1,
      "byteOffset": 442696,
      "componentType": 5126,
      "count": 65532,
      "max": [
        0.99500000476837158,
        0.99500000476837158
      ],
      "min": [
        0.004999999888241291,
        0.10260000079870224
      ],
      "type": "VEC2"
    },
    {
      "bufferView": 0,
      "byteOffset": 437952,
      "componentType": 5125,
      "count": 237003,
      "max": [
        65531
      ],
      "min": [
        0
      ],
      "type": "SCALAR"
    },
    {
      "bufferView": 2,
      "byteOffset": 2900856,
      "componentType": 5126,
      "count": 35793,
      "max": [
        -43.165199279785156,
        3.8503000736236572,
        143.74819946289062
      ],
      "min": [
        -181.2528076171875,
        -15.207599639892578,
        79.966697692871094
      ],
      "type": "VEC3"
    },
    {
      "bufferView": 2,
      "byteOffset": 3330372,
      "componentType": 5126,
      "count": 35793,
      "max": [
        0.99979263544082642,
        0.9999467134475708,
        0.99996435642242432
      ],
      "min": [
        -0.99983924627304077,
        -0.9998927116394043,
        -0.99996078014373779
      ],
      "type": "VEC3"
    },
    {
      "bufferView": 3,
      "byteOffset": 1933904,
      "componentType": 5126,
      "count": 35793,
      "max": [
        0.99994808435440063,
        0.99998867511749268,
        0.99985110759735107,
        1
      ],
      "min": [
        -0.99994379281997681,
        -0.99986797571182251,
        -0.99999803304672241,
        -1
      ],
      "type": "VEC4"
    },
    {
      "bufferView": 1,
      "byteOffset": 966952,
      "componentType": 5126,
      "count": 35793,
      "max": [
        0.99489998817443848,
        0.99290001392364502
      ],
      "min": [
        0.0078999996185302734,
        0.21639999747276306
      ],
      "type": "VEC2"
    },
    {
      "bufferView": 0,
      "byteOffset": 1385964,
      "componentType": 5125,
      "count": 124773,
      "max": [
        35792
      ],
      "min": [
        0
      ],
      "type": "SCALAR"
    }
  ],
  "asset": {
    "extras": {
      "author": "Doaa Shiha (https://sketchfab.com/doo7)",
      "license": "CC-BY-4.0 (http://creativecommons.org/licenses/by/4.0/)",
      "source": "https://sketchfab.com/models/777d37fcc42e4c38809fba460cdbf070",
      "title": "Library"
    },
    "generator": "Sketchfab-3.29.3",
    "version": "2.0"
  },
  "bufferViews": [
    {
      "buffer": 0,
      "byteLength": 1885056,
      "byteOffset": 0,
      "name": "floatBufferViews",
      "target": 34963
    },
    {
      "buffer": 0,
      "byteLength": 1253296,
      "byteOffset": 1885056,
      "byteStride": 8,
      "name": "floatBufferViews",
      "target": 34962
    },
    {
      "buffer": 0,
      "byteLength": 3759888,
      "byteOffset": 3138352,
      "byteStride": 12,
      "name": "floatBufferViews",
      "target": 34962
    },
    {
      "buffer": 0,
      "byteLength": 2506592,
      "byteOffset": 6898240,
      "byteStride": 16,
      "name": "floatBufferViews",
      "target": 34962
    }
  ],
  "buffers": [
    {
      "byteLength": 9404832,
      "uri": "scene.bin"
    }
  ],
  "extensionsUsed": [
    "KHR_materials_unlit"
  ],
  "images": [
    {
      "uri": "textures/Object001_mtl_emissive.jpeg"
    },
    {
      "uri": "textures/Object001_mtl_baseColor.jpeg"
    }
  ],
  "materials": [
    {
      "doubleSided": true,
      "emissiveFactor": [
        0,
        0,
        0
      ],
      "emissiveTexture": {
        "index": 0,
        "texCoord": 0
      },
      "extensions": {
        "KHR_materials_unlit": {}
      },
      "name": "Object001_mtl",
      "pbrMetallicRoughness": {
        "baseColorFactor": [
          1,
          1,
          1,
          1
        ],
        "baseColorTexture": {
          "index": 1,
          "texCoord": 0
        },
        "metallicFactor": 0,
        "roughnessFactor": 1
      }
    }
  ],
  "meshes": [
    {
      "primitives": [
        {
          "attributes": {
            "NORMAL": 1,
            "POSITION": 0,
            "TANGENT": 2,
            "TEXCOORD_0": 3
          },
          "indices": 4,
          "material": 0,
          "mode": 4
        }
      ]
    },
    {
      "primitives": [
        {
          "attributes": {
            "NORMAL": 6,
            "POSITION": 5,
            "TANGENT": 7,
            "TEXCOORD_0": 8
          },
          "indices": 9,
          "material": 0,
          "mode": 4
        }
      ]
    },
    {
      "primitives": [
        {
          "attributes": {
            "NORMAL": 11,
            "POSITION": 10,
            "TANGENT": 12,
            "TEXCOORD_0": 13
          },
          "indices": 14,
          "material": 0,
          "mode": 4
        }
      ]
    },
    {
      "primitives": [
        {
          "attributes": {
            "NORMAL": 16,
            "POSITION": 15,
            "TANGENT": 17,
            "TEXCOORD_0": 18
          },
          "indices": 19,
          "material": 0,
          "mode": 4
        }
      ]
    },
    {
      "primitives": [
        {
          "attributes": {
            "NORMAL": 21,
            "POSITION": 20,
            "TANGENT": 22,
            "TEXCOORD_0": 23
          },
          "indices": 24,
          "material": 0,
          "mode": 4
        }
      ]
    },
    {
      "primitives": [
        {
          "attributes": {
            "NORMAL": 26,
            "POSITION": 25,
            "TANGENT": 27,
            "TEXCOORD_0": 28
          },
          "indices": 29,
          "material": 0,
          "mode": 4
        }
      ]
    }
  ],
  "nodes": [
    {
      "children": [
        1
      ],
      "name": "RootNode (gltf orientation matrix)",
      "rotation": [
        -0.70710678118654746,
        -0,
        -0,
        0.70710678118654757
      ]
    },
    {
      "children": [
        2
      ],
      "name": "RootNode (model correction matrix)"
    },
    {
      "children": [
        3,
        4,
        5,
        6,
        7,
        8
      ],
      "name": "Library.obj.cleaner"
    },
    {
      "mesh": 0,
      "name": ""
    },
    {
      "mesh": 1,
      "name": ""
    },
    {
      "mesh": 2,
      "name": ""
    },
    {
      "mesh": 3,
      "name": ""
    },
    {
      "mesh": 4,
      "name": ""
    },
    {
      "mesh": 5,
      "name": ""
    }
  ],
  "samplers": [
    {
      "magFilter": 9729,
      "minFilter": 9987,
      "wrapS": 10497,
      "wrapT": 10497
    }
  ],
  "scene": 0,
  "scenes": [
    {
      "name": "OSG_Scene",
      "nodes": [
        0
      ]
    }
  ],
  "textures": [
    {
      "sampler": 0,
      "source": 0
    },
    {
      "sampler": 0,
      "source": 1
    }
  ]
}

