{
  "accessors": [
    {
      "bufferView": 2,
      "componentType": 5126,
      "count": 4852,
      "max": [
        56.092380523681641,
        58.928882598876953,
        94.035415649414062
      ],
      "min": [
        -56.034244537353516,
        -59.409725189208984,
        0
      ],
      "type": "VEC3"
    },
    {
      "bufferView": 2,
      "byteOffset": 58224,
      "componentType": 5126,
      "count": 4852,
      "max": [
        1,
        1,
        0.99999833106994629
      ],
      "min": [
        -1,
        -1,
        -1
      ],
      "type": "VEC3"
    },
    {
      "bufferView": 1,
      "componentType": 5126,
      "count": 4852,
      "max": [
        0.99329471588134766,
        0.93159538507461548
      ],
      "min": [
        0.0040757935494184494,
        0.0031231946777552366
      ],
      "type": "VEC2"
    },
    {
      "bufferView": 1,
      "byteOffset": 38816,
      "componentType": 5126,
      "count": 4852,
      "max": [
        0.99413824081420898,
        0.98646479845046997
      ],
      "min": [
        0.0047708773054182529,
        0.014856868423521519
      ],
      "type": "VEC2"
    },
    {
      "bufferView": 0,
      "componentType": 5125,
      "count": 24192,
      "max": [
        4851
      ],
      "min": [
        0
      ],
      "type": "SCALAR"
    }
  ],
  "asset": {
    "extras": {
      "author": "adhils (https://sketchfab.com/adhils)",
      "license": "CC-BY-4.0 (http://creativecommons.org/licenses/by/4.0/)",
      "source": "https://sketchfab.com/3d-models/arm-chair-cf5c229d44da47f7bf5b0e3467b76896",
      "title": "Arm Chair"
    },
    "generator": "Sketchfab-8.42.0",
    "version": "2.0"
  },
  "bufferViews": [
    {
      "buffer": 0,
      "byteLength": 96768,
      "byteOffset": 0,
      "name": "floatBufferViews",
      "target": 34963
    },
    {
      "buffer": 0,
      "byteLength": 77632,
      "byteOffset": 96768,
      "byteStride": 8,
      "name": "floatBufferViews",
      "target": 34962
    },
    {
      "buffer": 0,
      "byteLength": 116448,
      "byteOffset": 174400,
      "byteStride": 12,
      "name": "floatBufferViews",
      "target": 34962
    }
  ],
  "buffers": [
    {
      "byteLength": 290848,
      "uri": "scene.bin"
    }
  ],
  "images": [
    {
      "uri": "textures/Scene_-_Root_baseColor.png"
    },
    {
      "uri": "textures/Scene_-_Root_metallicRoughness.png"
    }
  ],
  "materials": [
    {
      "doubleSided": true,
      "name": "Scene_-_Root",
      "pbrMetallicRoughness": {
        "baseColorFactor": [
          1,
          1,
          1,
          1
        ],
        "baseColorTexture": {
          "index": 0,
          "texCoord": 0
        },
        "metallicFactor": 1,
        "metallicRoughnessTexture": {
          "index": 1,
          "texCoord": 0
        },
        "roughnessFactor": 0.19628871809215728
      }
    }
  ],
  "meshes": [
    {
      "name": "sm_armchair__0",
      "primitives": [
        {
          "attributes": {
            "NORMAL": 1,
            "POSITION": 0,
            "TEXCOORD_0": 2,
            "TEXCOORD_1": 3
          },
          "indices": 4,
          "material": 0,
          "mode": 4
        }
      ]
    }
  ],
  "nodes": [
    {
      "children": [
        1
      ],
      "name": "RootNode (gltf orientation matrix)",
      "rotation": [
        -0.70710678118654746,
        -0,
        -0,
        0.70710678118654757
      ]
    },
    {
      "children": [
        2
      ],
      "name": "RootNode (model correction matrix)"
    },
    {
      "children": [
        3
      ],
      "matrix": [
        1,
        0,
        0,
        0,
        0,
        0,
        1,
        0,
        0,
        -1,
        0,
        0,
        0,
        0,
        0,
        1
      ],
      "name": "Armchair.FBX"
    },
    {
      "children": [
        4
      ],
      "name": "RootNode"
    },
    {
      "children": [
        5
      ],
      "matrix": [
        0.99999999999999822,
        -3.3087224502121107e-24,
        5.9604644775390519e-08,
        0,
        5.9604644775390519e-08,
        2.2204460492503131e-16,
        -0.99999999999999811,
        0,
        -3.3087224502121107e-24,
        0.99999999999999989,
        2.2204460492503131e-16,
        0,
        0,
        0,
        0,
        1
      ],
      "name": "sm_armchair"
    },
    {
      "mesh": 0,
      "name": "sm_armchair__0"
    }
  ],
  "samplers": [
    {
      "magFilter": 9729,
      "minFilter": 9987,
      "wrapS": 10497,
      "wrapT": 10497
    }
  ],
  "scene": 0,
  "scenes": [
    {
      "name": "OSG_Scene",
      "nodes": [
        0
      ]
    }
  ],
  "textures": [
    {
      "sampler": 0,
      "source": 0
    },
    {
      "sampler": 0,
      "source": 1
    }
  ]
}

