{
  "accessors": [
    {
      "bufferView": 2,
      "componentType": 5126,
      "count": 34373,
      "max": [
        3.6992061138153076,
        3.4857308864593506,
        7.296475887298584
      ],
      "min": [
        -4.0066328048706055,
        -4.3328990936279297,
        0.13026599586009979
      ],
      "type": "VEC3"
    },
    {
      "bufferView": 2,
      "byteOffset": 412476,
      "componentType": 5126,
      "count": 34373,
      "max": [
        0.99988734722137451,
        0.99994349479675293,
        0.99601399898529053
      ],
      "min": [
        -0.99952453374862671,
        -0.99992036819458008,
        -1
      ],
      "type": "VEC3"
    },
    {
      "bufferView": 1,
      "componentType": 5126,
      "count": 34373,
      "max": [
        0.99989998340606689,
        0.99988001585006714
      ],
      "min": [
        0.00099800003226846457,
        9.9999999747524271e-07
      ],
      "type": "VEC2"
    },
    {
      "bufferView": 0,
      "componentType": 5125,
      "count": 191658,
      "max": [
        34372
      ],
      "min": [
        0
      ],
      "type": "SCALAR"
    },
    {
      "bufferView": 2,
      "byteOffset": 824952,
      "componentType": 5126,
      "count": 65532,
      "max": [
        3.1569910049438477,
        6.2765312194824219,
        16.987476348876953
      ],
      "min": [
        -5.7628397941589355,
        -2.1638600826263428,
        6.9504508972167969
      ],
      "type": "VEC3"
    },
    {
      "bufferView": 2,
      "byteOffset": 1611336,
      "componentType": 5126,
      "count": 65532,
      "max": [
        0.99985712766647339,
        0.99998319149017334,
        0.99998307228088379
      ],
      "min": [
        -0.99994826316833496,
        -0.99986225366592407,
        -0.99996542930603027
      ],
      "type": "VEC3"
    },
    {
      "bufferView": 3,
      "componentType": 5126,
      "count": 65532,
      "max": [
        0.99999946355819702,
        0.99998360872268677,
        0.99996989965438843,
        1
      ],
      "min": [
        -0.99997568130493164,
        -0.99999183416366577,
        -0.99987590312957764,
        -1
      ],
      "type": "VEC4"
    },
    {
      "bufferView": 1,
      "byteOffset": 274984,
      "componentType": 5126,
      "count": 65532,
      "max": [
        0.99901497364044189,
        0.99981701374053955
      ],
      "min": [
        0.0010339999571442604,
        0.00048200000310316682
      ],
      "type": "VEC2"
    },
    {
      "bufferView": 0,
      "byteOffset": 766632,
      "componentType": 5125,
      "count": 325185,
      "max": [
        65531
      ],
      "min": [
        0
      ],
      "type": "SCALAR"
    },
    {
      "bufferView": 2,
      "byteOffset": 2397720,
      "componentType": 5126,
      "count": 65532,
      "max": [
        4.2410187721252441,
        7.7133240699768066,
        18.208221435546875
      ],
      "min": [
        -6.1043329238891602,
        -3.7408180236816406,
        6.8308892250061035
      ],
      "type": "VEC3"
    },
    {
      "bufferView": 2,
      "byteOffset": 3184104,
      "componentType": 5126,
      "count": 65532,
      "max": [
        0.9999765157699585,
        0.9999394416809082,
        0.99998307228088379
      ],
      "min": [
        -0.99998259544372559,
        -0.99986225366592407,
        -0.99998891353607178
      ],
      "type": "VEC3"
    },
    {
      "bufferView": 3,
      "byteOffset": 1048512,
      "componentType": 5126,
      "count": 65532,
      "max": [
        0.99998998641967773,
        0.99997144937515259,
        0.99998116493225098,
        1
      ],
      "min": [
        -0.99996942281723022,
        -0.99999809265136719,
        -0.99999326467514038,
        -1
      ],
      "type": "VEC4"
    },
    {
      "bufferView": 1,
      "byteOffset": 799240,
      "componentType": 5126,
      "count": 65532,
      "max": [
        0.99875998497009277,
        0.99894499778747559
      ],
      "min": [
        0.0010160000529140234,
        0.00012799999967683107
      ],
      "type": "VEC2"
    },
    {
      "bufferView": 0,
      "byteOffset": 2067372,
      "componentType": 5125,
      "count": 318057,
      "max": [
        65531
      ],
      "min": [
        0
      ],
      "type": "SCALAR"
    },
    {
      "bufferView": 2,
      "byteOffset": 3970488,
      "componentType": 5126,
      "count": 65532,
      "max": [
        5.3879079818725586,
        7.7641701698303223,
        19.127962112426758
      ],
      "min": [
        -6.5111727714538574,
        -4.5710010528564453,
        6.6413102149963379
      ],
      "type": "VEC3"
    },
    {
      "bufferView": 2,
      "byteOffset": 4756872,
      "componentType": 5126,
      "count": 65532,
      "max": [
        0.99978572130203247,
        0.99996352195739746,
        0.99999773502349854
      ],
      "min": [
        -0.99998259544372559,
        -0.99995672702789307,
        -0.99999809265136719
      ],
      "type": "VEC3"
    },
    {
      "bufferView": 3,
      "byteOffset": 2097024,
      "componentType": 5126,
      "count": 65532,
      "max": [
        0.99999970197677612,
        0.99998897314071655,
        0.99991941452026367,
        1
      ],
      "min": [
        -0.99998170137405396,
        -0.99999558925628662,
        -0.99999326467514038,
        -1
      ],
      "type": "VEC4"
    },
    {
      "bufferView": 1,
      "byteOffset": 1323496,
      "componentType": 5126,
      "count": 65532,
      "max": [
        0.99982702732086182,
        0.99983102083206177
      ],
      "min": [
        0.00098600005730986595,
        0.00012899999273940921
      ],
      "type": "VEC2"
    },
    {
      "bufferView": 0,
      "byteOffset": 3339600,
      "componentType": 5125,
      "count": 312126,
      "max": [
        65531
      ],
      "min": [
        0
      ],
      "type": "SCALAR"
    },
    {
      "bufferView": 2,
      "byteOffset": 5543256,
      "componentType": 5126,
      "count": 65532,
      "max": [
        6.9844918251037598,
        7.7641701698303223,
        20.176681518554688
      ],
      "min": [
        -6.5503048896789551,
        -5.9228267669677734,
        6.634951114654541
      ],
      "type": "VEC3"
    },
    {
      "bufferView": 2,
      "byteOffset": 6329640,
      "componentType": 5126,
      "count": 65532,
      "max": [
        0.99992275238037109,
        0.99997925758361816,
        0.99998831748962402
      ],
      "min": [
        -0.99988019466400146,
        -0.99998366832733154,
        -0.99998021125793457
      ],
      "type": "VEC3"
    },
    {
      "bufferView": 3,
      "byteOffset": 3145536,
      "componentType": 5126,
      "count": 65532,
      "max": [
        0.99999916553497314,
        0.99999874830245972,
        0.99994772672653198,
        1
      ],
      "min": [
        -0.99999797344207764,
        -0.99988305568695068,
        -0.9999353289604187,
        -1
      ],
      "type": "VEC4"
    },
    {
      "bufferView": 1,
      "byteOffset": 1847752,
      "componentType": 5126,
      "count": 65532,
      "max": [
        0.99899202585220337,
        0.99899297952651978
      ],
      "min": [
        0.0011919999960809946,
        5.199999941396527e-05
      ],
      "type": "VEC2"
    },
    {
      "bufferView": 0,
      "byteOffset": 4588104,
      "componentType": 5125,
      "count": 316263,
      "max": [
        65531
      ],
      "min": [
        0
      ],
      "type": "SCALAR"
    },
    {
      "bufferView": 2,
      "byteOffset": 7116024,
      "componentType": 5126,
      "count": 65532,
      "max": [
        7.5299167633056641,
        4.8325772285461426,
        20.429166793823242
      ],
      "min": [
        -6.6801919937133789,
        -7.8767127990722656,
        5.9160208702087402
      ],
      "type": "VEC3"
    },
    {
      "bufferView": 2,
      "byteOffset": 7902408,
      "componentType": 5126,
      "count": 65532,
      "max": [
        0.99992406368255615,
        0.99987876415252686,
        0.99997568130493164
      ],
      "min": [
        -0.99987715482711792,
        -0.99989187717437744,
        -0.99997973442077637
      ],
      "type": "VEC3"
    },
    {
      "bufferView": 3,
      "byteOffset": 4194048,
      "componentType": 5126,
      "count": 65532,
      "max": [
        0.99993079900741577,
        0.9999929666519165,
        0.99996918439865112,
        1
      ],
      "min": [
        -0.99992936849594116,
        -0.99999207258224487,
        -0.99997389316558838,
        -1
      ],
      "type": "VEC4"
    },
    {
      "bufferView": 1,
      "byteOffset": 2372008,
      "componentType": 5126,
      "count": 65532,
      "max": [
        0.99900400638580322,
        0.9999459981918335
      ],
      "min": [
        0.0010270000202581286,
        3.9999999899009708e-06
      ],
      "type": "VEC2"
    },
    {
      "bufferView": 0,
      "byteOffset": 5853156,
      "componentType": 5125,
      "count": 320100,
      "max": [
        65531
      ],
      "min": [
        0
      ],
      "type": "SCALAR"
    },
    {
      "bufferView": 2,
      "byteOffset": 8688792,
      "componentType": 5126,
      "count": 7657,
      "max": [
        6.7088708877563477,
        6.5025100708007812,
        20.412853240966797
      ],
      "min": [
        -6.5111727714538574,
        -7.9923181533813477,
        6.8030219078063965
      ],
      "type": "VEC3"
    },
    {
      "bufferView": 2,
      "byteOffset": 8780676,
      "componentType": 5126,
      "count": 7657,
      "max": [
        0.99909883737564087,
        0.99865478277206421,
        0.99997222423553467
      ],
      "min": [
        -0.99979883432388306,
        -0.99938380718231201,
        -0.99982517957687378
      ],
      "type": "VEC3"
    },
    {
      "bufferView": 3,
      "byteOffset": 5242560,
      "componentType": 5126,
      "count": 7657,
      "max": [
        0.99981588125228882,
        0.99999761581420898,
        0.99970316886901855,
        1
      ],
      "min": [
        -0.99992728233337402,
        -0.99964785575866699,
        -0.9998897910118103,
        -1
      ],
      "type": "VEC4"
    },
    {
      "bufferView": 1,
      "byteOffset": 2896264,
      "componentType": 5126,
      "count": 7657,
      "max": [
        0.99998700618743896,
        0.99993199110031128
      ],
      "min": [
        0.00039199998718686402,
        4.9999998736893758e-06
      ],
      "type": "VEC2"
    },
    {
      "bufferView": 0,
      "byteOffset": 7133556,
      "componentType": 5125,
      "count": 26055,
      "max": [
        7656
      ],
      "min": [
        0
      ],
      "type": "SCALAR"
    }
  ],
  "asset": {
    "extras": {
      "author": "thesidekick (https://sketchfab.com/thesidekick)",
      "license": "CC-BY-4.0 (http://creativecommons.org/licenses/by/4.0/)",
      "source": "https://sketchfab.com/3d-models/rose-in-a-pot-b18150226582443aa0cfeeae531f3503",
      "title": "Rose in a pot"
    },
    "generator": "Sketchfab-8.51.0",
    "version": "2.0"
  },
  "bufferViews": [
    {
      "buffer": 0,
      "byteLength": 7237776,
      "byteOffset": 0,
      "name": "floatBufferViews",
      "target": 34963
    },
    {
      "buffer": 0,
      "byteLength": 2957520,
      "byteOffset": 7237776,
      "byteStride": 8,
      "name": "floatBufferViews",
      "target": 34962
    },
    {
      "buffer": 0,
      "byteLength": 8872560,
      "byteOffset": 10195296,
      "byteStride": 12,
      "name": "floatBufferViews",
      "target": 34962
    },
    {
      "buffer": 0,
      "byteLength": 5365072,
      "byteOffset": 19067856,
      "byteStride": 16,
      "name": "floatBufferViews",
      "target": 34962
    }
  ],
  "buffers": [
    {
      "byteLength": 24432928,
      "uri": "scene.bin"
    }
  ],
  "images": [
    {
      "uri": "textures/material_baseColor.jpeg"
    },
    {
      "uri": "textures/material_metallicRoughness.png"
    },
    {
      "uri": "textures/Rose_metallicRoughness.png"
    },
    {
      "uri": "textures/Rose_normal.png"
    }
  ],
  "materials": [
    {
      "doubleSided": true,
      "emissiveFactor": [
        0.80756227920297219,
        0.80756227920297219,
        0.80756227920297219
      ],
      "emissiveTexture": {
        "index": 0,
        "texCoord": 0
      },
      "name": "material",
      "occlusionTexture": {
        "index": 1,
        "strength": 1,
        "texCoord": 0
      },
      "pbrMetallicRoughness": {
        "baseColorFactor": [
          1,
          1,
          1,
          1
        ],
        "baseColorTexture": {
          "index": 0,
          "texCoord": 0
        },
        "metallicFactor": 1,
        "metallicRoughnessTexture": {
          "index": 1,
          "texCoord": 0
        },
        "roughnessFactor": 0.56111327305561798
      }
    },
    {
      "doubleSided": true,
      "emissiveFactor": [
        0,
        0,
        0
      ],
      "name": "Rose",
      "normalTexture": {
        "index": 3,
        "scale": 1,
        "texCoord": 0
      },
      "occlusionTexture": {
        "index": 2,
        "strength": 1,
        "texCoord": 0
      },
      "pbrMetallicRoughness": {
        "baseColorFactor": [
          1,
          1,
          1,
          1
        ],
        "baseColorTexture": {
          "index": 0,
          "texCoord": 0
        },
        "metallicFactor": 0,
        "metallicRoughnessTexture": {
          "index": 2,
          "texCoord": 0
        },
        "roughnessFactor": 0.70704452727394329
      }
    }
  ],
  "meshes": [
    {
      "primitives": [
        {
          "attributes": {
            "NORMAL": 1,
            "POSITION": 0,
            "TEXCOORD_0": 2
          },
          "indices": 3,
          "material": 0,
          "mode": 4
        }
      ]
    },
    {
      "primitives": [
        {
          "attributes": {
            "NORMAL": 5,
            "POSITION": 4,
            "TANGENT": 6,
            "TEXCOORD_0": 7
          },
          "indices": 8,
          "material": 1,
          "mode": 4
        }
      ]
    },
    {
      "primitives": [
        {
          "attributes": {
            "NORMAL": 10,
            "POSITION": 9,
            "TANGENT": 11,
            "TEXCOORD_0": 12
          },
          "indices": 13,
          "material": 1,
          "mode": 4
        }
      ]
    },
    {
      "primitives": [
        {
          "attributes": {
            "NORMAL": 15,
            "POSITION": 14,
            "TANGENT": 16,
            "TEXCOORD_0": 17
          },
          "indices": 18,
          "material": 1,
          "mode": 4
        }
      ]
    },
    {
      "primitives": [
        {
          "attributes": {
            "NORMAL": 20,
            "POSITION": 19,
            "TANGENT": 21,
            "TEXCOORD_0": 22
          },
          "indices": 23,
          "material": 1,
          "mode": 4
        }
      ]
    },
    {
      "primitives": [
        {
          "attributes": {
            "NORMAL": 25,
            "POSITION": 24,
            "TANGENT": 26,
            "TEXCOORD_0": 27
          },
          "indices": 28,
          "material": 1,
          "mode": 4
        }
      ]
    },
    {
      "primitives": [
        {
          "attributes": {
            "NORMAL": 30,
            "POSITION": 29,
            "TANGENT": 31,
            "TEXCOORD_0": 32
          },
          "indices": 33,
          "material": 1,
          "mode": 4
        }
      ]
    }
  ],
  "nodes": [
    {
      "children": [
        1
      ],
      "name": "RootNode (gltf orientation matrix)",
      "rotation": [
        -0.70710678118654746,
        -0,
        -0,
        0.70710678118654757
      ]
    },
    {
      "children": [
        2
      ],
      "name": "RootNode (model correction matrix)"
    },
    {
      "children": [
        3,
        4,
        5,
        6,
        7,
        8,
        9
      ],
      "name": "Rose_in_a_pot_SF.obj.cleaner.materialmerger.gles"
    },
    {
      "mesh": 0,
      "name": ""
    },
    {
      "mesh": 1,
      "name": ""
    },
    {
      "mesh": 2,
      "name": ""
    },
    {
      "mesh": 3,
      "name": ""
    },
    {
      "mesh": 4,
      "name": ""
    },
    {
      "mesh": 5,
      "name": ""
    },
    {
      "mesh": 6,
      "name": ""
    }
  ],
  "samplers": [
    {
      "magFilter": 9729,
      "minFilter": 9987,
      "wrapS": 10497,
      "wrapT": 10497
    }
  ],
  "scene": 0,
  "scenes": [
    {
      "name": "OSG_Scene",
      "nodes": [
        0
      ]
    }
  ],
  "textures": [
    {
      "sampler": 0,
      "source": 0
    },
    {
      "sampler": 0,
      "source": 1
    },
    {
      "sampler": 0,
      "source": 2
    },
    {
      "sampler": 0,
      "source": 3
    }
  ]
}

