{
    "asset" : {
        "generator" : "Khronos glTF Blender I/O v1.5.17",
        "version" : "2.0"
    },
    "scene" : 0,
    "scenes" : [
        {
            "name" : "Scene",
            "nodes" : [
                6
            ]
        }
    ],
    "nodes" : [
        {
            "mesh" : 0,
            "name" : "Mesh_0.022"
        },
        {
            "mesh" : 1,
            "name" : "Mesh_3.010"
        },
        {
            "mesh" : 2,
            "name" : "Mesh_6.006"
        },
        {
            "mesh" : 3,
            "name" : "Mesh_7.005"
        },
        {
            "children" : [
                0,
                1,
                2,
                3
            ],
            "name" : "405012.obj.cleaner.materialmerger.gles"
        },
        {
            "children" : [
                4
            ],
            "name" : "RootNode (model correction matrix)"
        },
        {
            "children" : [
                5
            ],
            "name" : "RootNode (gltf orientation matrix)",
            "rotation" : [
                -0.7071068286895752,
                0,
                0,
                0.7071068286895752
            ]
        }
    ],
    "materials" : [
        {
            "doubleSided" : true,
            "emissiveTexture" : {
                "index" : 0
            },
            "name" : "14___Default",
            "pbrMetallicRoughness" : {
                "baseColorTexture" : {
                    "index" : 1
                },
                "metallicFactor" : 0
            }
        },
        {
            "doubleSided" : true,
            "emissiveTexture" : {
                "index" : 2
            },
            "name" : "15___Default",
            "pbrMetallicRoughness" : {
                "baseColorTexture" : {
                    "index" : 3
                },
                "roughnessFactor" : 0
            }
        },
        {
            "doubleSided" : true,
            "emissiveTexture" : {
                "index" : 4
            },
            "name" : "16___Default",
            "pbrMetallicRoughness" : {
                "baseColorTexture" : {
                    "index" : 5
                },
                "metallicFactor" : 0
            }
        }
    ],
    "meshes" : [
        {
            "name" : "Mesh_0.022",
            "primitives" : [
                {
                    "attributes" : {
                        "POSITION" : 0,
                        "NORMAL" : 1,
                        "TEXCOORD_0" : 2
                    },
                    "indices" : 3,
                    "material" : 0
                }
            ]
        },
        {
            "name" : "Mesh_3.010",
            "primitives" : [
                {
                    "attributes" : {
                        "POSITION" : 4,
                        "NORMAL" : 5,
                        "TEXCOORD_0" : 6
                    },
                    "indices" : 7,
                    "material" : 1
                }
            ]
        },
        {
            "name" : "Mesh_6.006",
            "primitives" : [
                {
                    "attributes" : {
                        "POSITION" : 8,
                        "NORMAL" : 9,
                        "TEXCOORD_0" : 10
                    },
                    "indices" : 11,
                    "material" : 2
                }
            ]
        },
        {
            "name" : "Mesh_7.005",
            "primitives" : [
                {
                    "attributes" : {
                        "POSITION" : 12,
                        "NORMAL" : 13,
                        "TEXCOORD_0" : 14
                    },
                    "indices" : 15,
                    "material" : 2
                }
            ]
        }
    ],
    "textures" : [
        {
            "sampler" : 0,
            "source" : 0
        },
        {
            "sampler" : 0,
            "source" : 1
        },
        {
            "sampler" : 0,
            "source" : 2
        },
        {
            "sampler" : 0,
            "source" : 3
        },
        {
            "sampler" : 0,
            "source" : 4
        },
        {
            "sampler" : 0,
            "source" : 5
        }
    ],
    "images" : [
        {
            "bufferView" : 4,
            "mimeType" : "image/jpeg",
            "name" : "14___Default_emissive"
        },
        {
            "bufferView" : 5,
            "mimeType" : "image/jpeg",
            "name" : "14___Default_baseColor"
        },
        {
            "bufferView" : 10,
            "mimeType" : "image/jpeg",
            "name" : "15___Default_emissive"
        },
        {
            "bufferView" : 11,
            "mimeType" : "image/jpeg",
            "name" : "15___Default_baseColor"
        },
        {
            "bufferView" : 16,
            "mimeType" : "image/jpeg",
            "name" : "16___Default_emissive"
        },
        {
            "bufferView" : 17,
            "mimeType" : "image/jpeg",
            "name" : "16___Default_baseColor"
        }
    ],
    "accessors" : [
        {
            "bufferView" : 0,
            "componentType" : 5126,
            "count" : 78,
            "max" : [
                0.08705034106969833,
                0.24804668128490448,
                0.5278885960578918
            ],
            "min" : [
                -0.2696947753429413,
                -0.007129304111003876,
                0.29791125655174255
            ],
            "type" : "VEC3"
        },
        {
            "bufferView" : 1,
            "componentType" : 5126,
            "count" : 78,
            "type" : "VEC3"
        },
        {
            "bufferView" : 2,
            "componentType" : 5126,
            "count" : 78,
            "type" : "VEC2"
        },
        {
            "bufferView" : 3,
            "componentType" : 5123,
            "count" : 114,
            "type" : "SCALAR"
        },
        {
            "bufferView" : 6,
            "componentType" : 5126,
            "count" : 14,
            "max" : [
                -0.06563729047775269,
                0.12302016466856003,
                0.37834447622299194
            ],
            "min" : [
                -0.11672403663396835,
                0.11764197796583176,
                0.33693820238113403
            ],
            "type" : "VEC3"
        },
        {
            "bufferView" : 7,
            "componentType" : 5126,
            "count" : 14,
            "type" : "VEC3"
        },
        {
            "bufferView" : 8,
            "componentType" : 5126,
            "count" : 14,
            "type" : "VEC2"
        },
        {
            "bufferView" : 9,
            "componentType" : 5123,
            "count" : 63,
            "type" : "SCALAR"
        },
        {
            "bufferView" : 12,
            "componentType" : 5126,
            "count" : 21,
            "max" : [
                0.03533969074487686,
                0.13651937246322632,
                0.2826772630214691
            ],
            "min" : [
                -0.21682722866535187,
                0.10442538559436798,
                0.04040615260601044
            ],
            "type" : "VEC3"
        },
        {
            "bufferView" : 13,
            "componentType" : 5126,
            "count" : 21,
            "type" : "VEC3"
        },
        {
            "bufferView" : 14,
            "componentType" : 5126,
            "count" : 21,
            "type" : "VEC2"
        },
        {
            "bufferView" : 15,
            "componentType" : 5123,
            "count" : 21,
            "type" : "SCALAR"
        },
        {
            "bufferView" : 18,
            "componentType" : 5126,
            "count" : 197,
            "max" : [
                0.036322999745607376,
                0.17159999907016754,
                0.28372299671173096
            ],
            "min" : [
                -0.21856689453125,
                0.06997255980968475,
                -0.0026297292206436396
            ],
            "type" : "VEC3"
        },
        {
            "bufferView" : 19,
            "componentType" : 5126,
            "count" : 197,
            "type" : "VEC3"
        },
        {
            "bufferView" : 20,
            "componentType" : 5126,
            "count" : 197,
            "type" : "VEC2"
        },
        {
            "bufferView" : 21,
            "componentType" : 5123,
            "count" : 513,
            "type" : "SCALAR"
        }
    ],
    "bufferViews" : [
        {
            "buffer" : 0,
            "byteLength" : 936,
            "byteOffset" : 0
        },
        {
            "buffer" : 0,
            "byteLength" : 936,
            "byteOffset" : 936
        },
        {
            "buffer" : 0,
            "byteLength" : 624,
            "byteOffset" : 1872
        },
        {
            "buffer" : 0,
            "byteLength" : 228,
            "byteOffset" : 2496
        },
        {
            "buffer" : 0,
            "byteLength" : 625204,
            "byteOffset" : 2724
        },
        {
            "buffer" : 0,
            "byteLength" : 625204,
            "byteOffset" : 627928
        },
        {
            "buffer" : 0,
            "byteLength" : 168,
            "byteOffset" : 1253132
        },
        {
            "buffer" : 0,
            "byteLength" : 168,
            "byteOffset" : 1253300
        },
        {
            "buffer" : 0,
            "byteLength" : 112,
            "byteOffset" : 1253468
        },
        {
            "buffer" : 0,
            "byteLength" : 126,
            "byteOffset" : 1253580
        },
        {
            "buffer" : 0,
            "byteLength" : 273442,
            "byteOffset" : 1253708
        },
        {
            "buffer" : 0,
            "byteLength" : 273442,
            "byteOffset" : 1527152
        },
        {
            "buffer" : 0,
            "byteLength" : 252,
            "byteOffset" : 1800596
        },
        {
            "buffer" : 0,
            "byteLength" : 252,
            "byteOffset" : 1800848
        },
        {
            "buffer" : 0,
            "byteLength" : 168,
            "byteOffset" : 1801100
        },
        {
            "buffer" : 0,
            "byteLength" : 42,
            "byteOffset" : 1801268
        },
        {
            "buffer" : 0,
            "byteLength" : 345314,
            "byteOffset" : 1801312
        },
        {
            "buffer" : 0,
            "byteLength" : 345314,
            "byteOffset" : 2146628
        },
        {
            "buffer" : 0,
            "byteLength" : 2364,
            "byteOffset" : 2491944
        },
        {
            "buffer" : 0,
            "byteLength" : 2364,
            "byteOffset" : 2494308
        },
        {
            "buffer" : 0,
            "byteLength" : 1576,
            "byteOffset" : 2496672
        },
        {
            "buffer" : 0,
            "byteLength" : 1026,
            "byteOffset" : 2498248
        }
    ],
    "samplers" : [
        {
            "magFilter" : 9729,
            "minFilter" : 9987
        }
    ],
    "buffers" : [
        {
            "byteLength" : 2499276,
            "uri" : "data:application/octet-stream;base64,"
        }
    ]
}
