{
  "accessors": [
    {
      "bufferView": 2,
      "componentType": 5126,
      "count": 6632,
      "max": [
        0.55325895547866821,
        1.2214945554733276,
        0.64300280809402466
      ],
      "min": [
        -0.59359300136566162,
        0.23159337043762207,
        -0.56011533737182617
      ],
      "type": "VEC3"
    },
    {
      "bufferView": 2,
      "byteOffset": 79584,
      "componentType": 5126,
      "count": 6632,
      "max": [
        0.99798893928527832,
        0.99981611967086792,
        0.99129647016525269
      ],
      "min": [
        -0.99764168262481689,
        -0.99608355760574341,
        -0.99390506744384766
      ],
      "type": "VEC3"
    },
    {
      "bufferView": 3,
      "componentType": 5126,
      "count": 6632,
      "max": [
        0.50196081399917603,
        0.37254902720451355,
        0.16862745583057404,
        1
      ],
      "min": [
        0.0039215688593685627,
        0.019607843831181526,
        0,
        1
      ],
      "type": "VEC4"
    },
    {
      "bufferView": 1,
      "componentType": 5126,
      "count": 6632,
      "max": [
        1,
        1
      ],
      "min": [
        0,
        0
      ],
      "type": "VEC2"
    },
    {
      "bufferView": 0,
      "componentType": 5125,
      "count": 28056,
      "max": [
        6631
      ],
      "min": [
        0
      ],
      "type": "SCALAR"
    },
    {
      "bufferView": 2,
      "byteOffset": 159168,
      "componentType": 5126,
      "count": 6313,
      "max": [
        0.20292773842811584,
        0.3398972749710083,
        0.20358501374721527
      ],
      "min": [
        -0.20288987457752228,
        0.0001148236624430865,
        -0.20379249751567841
      ],
      "type": "VEC3"
    },
    {
      "bufferView": 2,
      "byteOffset": 234924,
      "componentType": 5126,
      "count": 6313,
      "max": [
        0.99990159273147583,
        0.99967795610427856,
        0.99979054927825928
      ],
      "min": [
        -0.99969524145126343,
        -0.99995881319046021,
        -0.99996095895767212
      ],
      "type": "VEC3"
    },
    {
      "bufferView": 3,
      "byteOffset": 106112,
      "componentType": 5126,
      "count": 6313,
      "max": [
        0.99996232986450195,
        0.99777930974960327,
        0.99983006715774536,
        1
      ],
      "min": [
        -0.99998766183853149,
        -0.99980932474136353,
        -0.99862772226333618,
        -1
      ],
      "type": "VEC4"
    },
    {
      "bufferView": 3,
      "byteOffset": 207120,
      "componentType": 5126,
      "count": 6313,
      "max": [
        1,
        1,
        1,
        1
      ],
      "min": [
        1,
        1,
        1,
        1
      ],
      "type": "VEC4"
    },
    {
      "bufferView": 1,
      "byteOffset": 53056,
      "componentType": 5126,
      "count": 6313,
      "max": [
        0.99800688028335571,
        0.97134089469909668
      ],
      "min": [
        0.0011520721018314362,
        0.00093958515208214521
      ],
      "type": "VEC2"
    },
    {
      "bufferView": 0,
      "byteOffset": 112224,
      "componentType": 5125,
      "count": 26598,
      "max": [
        6312
      ],
      "min": [
        0
      ],
      "type": "SCALAR"
    },
    {
      "bufferView": 2,
      "byteOffset": 310680,
      "componentType": 5126,
      "count": 56369,
      "max": [
        0.21505509316921234,
        0.44578945636749268,
        0.21985465288162231
      ],
      "min": [
        -0.19491519033908844,
        0.21267352998256683,
        -0.21640600264072418
      ],
      "type": "VEC3"
    },
    {
      "bufferView": 2,
      "byteOffset": 987108,
      "componentType": 5126,
      "count": 56369,
      "max": [
        0.99998593330383301,
        0.99943047761917114,
        0.99998480081558228
      ],
      "min": [
        -0.99999260902404785,
        -0.99998247623443604,
        -0.99999535083770752
      ],
      "type": "VEC3"
    },
    {
      "bufferView": 3,
      "byteOffset": 308128,
      "componentType": 5126,
      "count": 56369,
      "max": [
        0.50196081399917603,
        0.49411764740943909,
        0.21568627655506134,
        1
      ],
      "min": [
        0.0039215688593685627,
        0.0039215688593685627,
        0,
        1
      ],
      "type": "VEC4"
    },
    {
      "bufferView": 1,
      "byteOffset": 103560,
      "componentType": 5126,
      "count": 56369,
      "max": [
        1,
        1
      ],
      "min": [
        0,
        0
      ],
      "type": "VEC2"
    },
    {
      "bufferView": 0,
      "byteOffset": 218616,
      "componentType": 5125,
      "count": 205776,
      "max": [
        56368
      ],
      "min": [
        0
      ],
      "type": "SCALAR"
    }
  ],
  "asset": {
    "extras": {
      "author": "Hristo (https://sketchfab.com/arabadzhiyski)",
      "license": "CC-BY-4.0 (http://creativecommons.org/licenses/by/4.0/)",
      "source": "https://sketchfab.com/3d-models/stylized-pot-plant-908a5a01cce446c28e64889b2b48a9d1",
      "title": "Stylized Pot Plant"
    },
    "generator": "Sketchfab-8.22.0",
    "version": "2.0"
  },
  "bufferViews": [
    {
      "buffer": 0,
      "byteLength": 1041720,
      "byteOffset": 0,
      "name": "floatBufferViews",
      "target": 34963
    },
    {
      "buffer": 0,
      "byteLength": 554512,
      "byteOffset": 1041720,
      "byteStride": 8,
      "name": "floatBufferViews",
      "target": 34962
    },
    {
      "buffer": 0,
      "byteLength": 1663536,
      "byteOffset": 1596232,
      "byteStride": 12,
      "name": "floatBufferViews",
      "target": 34962
    },
    {
      "buffer": 0,
      "byteLength": 1210032,
      "byteOffset": 3259768,
      "byteStride": 16,
      "name": "floatBufferViews",
      "target": 34962
    }
  ],
  "buffers": [
    {
      "byteLength": 4469800,
      "uri": "scene.bin"
    }
  ],
  "images": [
    {
      "uri": "textures/matpot_baseColor.png"
    },
    {
      "uri": "textures/matpot_metallicRoughness.png"
    },
    {
      "uri": "textures/matpot_normal.png"
    }
  ],
  "materials": [
    {
      "doubleSided": true,
      "emissiveFactor": [
        0,
        0,
        0
      ],
      "name": "matleaves",
      "pbrMetallicRoughness": {
        "baseColorFactor": [
          0.75686299999999995,
          0.75686299999999995,
          0.75686299999999995,
          1
        ],
        "metallicFactor": 0,
        "roughnessFactor": 0.59999999999999998
      }
    },
    {
      "doubleSided": true,
      "name": "matpot",
      "normalTexture": {
        "index": 2,
        "scale": 1,
        "texCoord": 0
      },
      "pbrMetallicRoughness": {
        "baseColorFactor": [
          1,
          1,
          1,
          1
        ],
        "baseColorTexture": {
          "index": 0,
          "texCoord": 0
        },
        "metallicFactor": 1,
        "metallicRoughnessTexture": {
          "index": 1,
          "texCoord": 0
        },
        "roughnessFactor": 1
      }
    },
    {
      "doubleSided": true,
      "emissiveFactor": [
        0,
        0,
        0
      ],
      "name": "matgrass",
      "pbrMetallicRoughness": {
        "baseColorFactor": [
          0.75686299999999995,
          0.75686299999999995,
          0.75686299999999995,
          1
        ],
        "metallicFactor": 0,
        "roughnessFactor": 0.59999999999999998
      }
    }
  ],
  "meshes": [
    {
      "name": "attribdelete1_/mat/leaves_0",
      "primitives": [
        {
          "attributes": {
            "COLOR_0": 2,
            "NORMAL": 1,
            "POSITION": 0,
            "TEXCOORD_0": 3
          },
          "indices": 4,
          "material": 0,
          "mode": 4
        }
      ]
    },
    {
      "name": "attribdelete1_/mat/pot_0",
      "primitives": [
        {
          "attributes": {
            "COLOR_0": 8,
            "NORMAL": 6,
            "POSITION": 5,
            "TANGENT": 7,
            "TEXCOORD_0": 9
          },
          "indices": 10,
          "material": 1,
          "mode": 4
        }
      ]
    },
    {
      "name": "attribdelete1_/mat/grass_0",
      "primitives": [
        {
          "attributes": {
            "COLOR_0": 13,
            "NORMAL": 12,
            "POSITION": 11,
            "TEXCOORD_0": 14
          },
          "indices": 15,
          "material": 2,
          "mode": 4
        }
      ]
    }
  ],
  "nodes": [
    {
      "children": [
        1
      ],
      "name": "RootNode (gltf orientation matrix)",
      "rotation": [
        -0.70710678118654746,
        -0,
        -0,
        0.70710678118654757
      ]
    },
    {
      "children": [
        2
      ],
      "matrix": [
        0.55573153495788574,
        0,
        0,
        0,
        0,
        0.55573153495788574,
        0,
        0,
        0,
        0,
        0.55573153495788574,
        0,
        0,
        0,
        0,
        1
      ],
      "name": "RootNode (model correction matrix)"
    },
    {
      "children": [
        3
      ],
      "matrix": [
        1,
        0,
        0,
        0,
        0,
        0,
        1,
        0,
        0,
        -1,
        0,
        0,
        0,
        0,
        0,
        1
      ],
      "name": "e98b89a9ddfe435dbe29cabd6991c2cd.fbx"
    },
    {
      "children": [
        4
      ],
      "name": "RootNode"
    },
    {
      "children": [
        5,
        6,
        7
      ],
      "name": "attribdelete1"
    },
    {
      "mesh": 0,
      "name": "attribdelete1_/mat/leaves_0"
    },
    {
      "mesh": 1,
      "name": "attribdelete1_/mat/pot_0"
    },
    {
      "mesh": 2,
      "name": "attribdelete1_/mat/grass_0"
    }
  ],
  "samplers": [
    {
      "magFilter": 9729,
      "minFilter": 9987,
      "wrapS": 10497,
      "wrapT": 10497
    }
  ],
  "scene": 0,
  "scenes": [
    {
      "name": "OSG_Scene",
      "nodes": [
        0
      ]
    }
  ],
  "textures": [
    {
      "sampler": 0,
      "source": 0
    },
    {
      "sampler": 0,
      "source": 1
    },
    {
      "sampler": 0,
      "source": 2
    }
  ]
}

