{
  "accessors": [
    {
      "bufferView": 2,
      "componentType": 5126,
      "count": 346,
      "max": [
        23.801517486572266,
        23.701509475708008,
        6.1115608215332031
      ],
      "min": [
        -23.665176391601562,
        -24.03630256652832,
        -18.355850219726562
      ],
      "type": "VEC3"
    },
    {
      "bufferView": 2,
      "byteOffset": 4152,
      "componentType": 5126,
      "count": 346,
      "max": [
        0.99977743625640869,
        0.99910199642181396,
        0.99997502565383911
      ],
      "min": [
        -0.99948382377624512,
        -0.99912011623382568,
        -0.99976903200149536
      ],
      "type": "VEC3"
    },
    {
      "bufferView": 3,
      "componentType": 5126,
      "count": 346,
      "max": [
        0.99990588426589966,
        0.999747633934021,
        0.97126489877700806,
        1
      ],
      "min": [
        -0.99939107894897461,
        -0.99850732088088989,
        -0.97259551286697388,
        -1
      ],
      "type": "VEC4"
    },
    {
      "bufferView": 1,
      "componentType": 5126,
      "count": 346,
      "max": [
        1.0000001192092896,
        1.0000001192092896
      ],
      "min": [
        0,
        0
      ],
      "type": "VEC2"
    },
    {
      "bufferView": 0,
      "componentType": 5125,
      "count": 1602,
      "max": [
        345
      ],
      "min": [
        0
      ],
      "type": "SCALAR"
    }
  ],
  "asset": {
    "extras": {
      "author": "Will.Hsu (https://sketchfab.com/Will.Hsu)",
      "license": "CC-BY-4.0 (http://creativecommons.org/licenses/by/4.0/)",
      "source": "https://sketchfab.com/models/3f3c081387dc4c41896366d8e196ca4d",
      "title": "Low poly Pillow"
    },
    "generator": "Sketchfab-3.48.2",
    "version": "2.0"
  },
  "bufferViews": [
    {
      "buffer": 0,
      "byteLength": 6408,
      "byteOffset": 0,
      "name": "floatBufferViews",
      "target": 34963
    },
    {
      "buffer": 0,
      "byteLength": 2768,
      "byteOffset": 6408,
      "byteStride": 8,
      "name": "floatBufferViews",
      "target": 34962
    },
    {
      "buffer": 0,
      "byteLength": 8304,
      "byteOffset": 9176,
      "byteStride": 12,
      "name": "floatBufferViews",
      "target": 34962
    },
    {
      "buffer": 0,
      "byteLength": 5536,
      "byteOffset": 17480,
      "byteStride": 16,
      "name": "floatBufferViews",
      "target": 34962
    }
  ],
  "buffers": [
    {
      "byteLength": 23016,
      "uri": "scene.bin"
    }
  ],
  "materials": [
    {
      "doubleSided": true,
      "emissiveFactor": [
        0,
        0,
        0
      ],
      "name": "Material_47",
      "pbrMetallicRoughness": {
        "baseColorFactor": [
          0.46583485530000002,
          0.46583485530000002,
          0.46583485530000002,
          1
        ],
        "metallicFactor": 0,
        "roughnessFactor": 0.89297135959999996
      }
    }
  ],
  "meshes": [
    {
      "name": "Box001_Material #47_0",
      "primitives": [
        {
          "attributes": {
            "NORMAL": 1,
            "POSITION": 0,
            "TANGENT": 2,
            "TEXCOORD_0": 3
          },
          "indices": 4,
          "material": 0,
          "mode": 4
        }
      ]
    }
  ],
  "nodes": [
    {
      "children": [
        1
      ],
      "name": "RootNode (gltf orientation matrix)",
      "rotation": [
        -0.70710678118654746,
        -0,
        -0,
        0.70710678118654757
      ]
    },
    {
      "children": [
        2
      ],
      "name": "RootNode (model correction matrix)"
    },
    {
      "children": [
        3
      ],
      "matrix": [
        1,
        0,
        0,
        0,
        0,
        0,
        1,
        0,
        0,
        -1,
        0,
        0,
        0,
        0,
        0,
        1
      ],
      "name": "afb89be63386493ea613caeaafd2a15c.fbx"
    },
    {
      "children": [
        4
      ],
      "name": "RootNode"
    },
    {
      "children": [
        5
      ],
      "matrix": [
        1,
        0,
        0,
        0,
        0,
        2.2204460492503131e-16,
        -1,
        0,
        0,
        1,
        2.2204460492503131e-16,
        0,
        0,
        27.424097061157227,
        0,
        1
      ],
      "name": "Box001"
    },
    {
      "mesh": 0,
      "name": "Box001_Material #47_0"
    }
  ],
  "scene": 0,
  "scenes": [
    {
      "name": "OSG_Scene",
      "nodes": [
        0
      ]
    }
  ]
}

