{
  "accessors": [
    {
      "bufferView": 2,
      "componentType": 5126,
      "count": 184,
      "max": [
        67.033111572265625,
        0.85644984245300293,
        46.956569671630859
      ],
      "min": [
        -67.033111572265625,
        -0.85644984245300293,
        -46.956569671630859
      ],
      "type": "VEC3"
    },
    {
      "bufferView": 2,
      "byteOffset": 2208,
      "componentType": 5126,
      "count": 184,
      "max": [
        1,
        1,
        1
      ],
      "min": [
        -1,
        -1,
        -1
      ],
      "type": "VEC3"
    },
    {
      "bufferView": 1,
      "componentType": 5126,
      "count": 184,
      "max": [
        0.86610817909240723,
        0.98529702425003052
      ],
      "min": [
        0.039821576327085495,
        0.48214751482009888
      ],
      "type": "VEC2"
    },
    {
      "bufferView": 1,
      "byteOffset": 1472,
      "componentType": 5126,
      "count": 184,
      "max": [
        0.86610817909240723,
        0.98529702425003052
      ],
      "min": [
        0.039821576327085495,
        0.48214751482009888
      ],
      "type": "VEC2"
    },
    {
      "bufferView": 0,
      "componentType": 5125,
      "count": 300,
      "max": [
        183
      ],
      "min": [
        0
      ],
      "type": "SCALAR"
    },
    {
      "bufferView": 2,
      "byteOffset": 4416,
      "componentType": 5126,
      "count": 184,
      "max": [
        -127.31962585449219,
        0.85645270347595215,
        21.206686019897461
      ],
      "min": [
        -202.8668212890625,
        -0.85644674301147461,
        -71.379653930664062
      ],
      "type": "VEC3"
    },
    {
      "bufferView": 2,
      "byteOffset": 6624,
      "componentType": 5126,
      "count": 184,
      "max": [
        1,
        1,
        1
      ],
      "min": [
        -1,
        -1,
        -1
      ],
      "type": "VEC3"
    },
    {
      "bufferView": 1,
      "byteOffset": 2944,
      "componentType": 5126,
      "count": 184,
      "max": [
        0.49512183666229248,
        0.68671000003814697
      ],
      "min": [
        0.04167647659778595,
        0.019968073815107346
      ],
      "type": "VEC2"
    },
    {
      "bufferView": 1,
      "byteOffset": 4416,
      "componentType": 5126,
      "count": 184,
      "max": [
        0.49512183666229248,
        0.68671000003814697
      ],
      "min": [
        0.04167647659778595,
        0.019968073815107346
      ],
      "type": "VEC2"
    },
    {
      "bufferView": 0,
      "byteOffset": 1200,
      "componentType": 5125,
      "count": 300,
      "max": [
        183
      ],
      "min": [
        0
      ],
      "type": "SCALAR"
    },
    {
      "bufferView": 2,
      "byteOffset": 8832,
      "componentType": 5126,
      "count": 184,
      "max": [
        203.32992553710938,
        0.85645270347595215,
        21.206686019897461
      ],
      "min": [
        127.78273010253906,
        -0.85644674301147461,
        -71.379653930664062
      ],
      "type": "VEC3"
    },
    {
      "bufferView": 2,
      "byteOffset": 11040,
      "componentType": 5126,
      "count": 184,
      "max": [
        1,
        1,
        1
      ],
      "min": [
        -1,
        -1,
        -1
      ],
      "type": "VEC3"
    },
    {
      "bufferView": 1,
      "byteOffset": 5888,
      "componentType": 5126,
      "count": 184,
      "max": [
        0.90830636024475098,
        0.85998910665512085
      ],
      "min": [
        0.039643507450819016,
        0.019968073815107346
      ],
      "type": "VEC2"
    },
    {
      "bufferView": 1,
      "byteOffset": 7360,
      "componentType": 5126,
      "count": 184,
      "max": [
        0.90830636024475098,
        0.85998910665512085
      ],
      "min": [
        0.039643507450819016,
        0.019968073815107346
      ],
      "type": "VEC2"
    },
    {
      "bufferView": 0,
      "byteOffset": 2400,
      "componentType": 5125,
      "count": 300,
      "max": [
        183
      ],
      "min": [
        0
      ],
      "type": "SCALAR"
    }
  ],
  "asset": {
    "extras": {
      "author": "Misam Ali Rizvi (https://sketchfab.com/MisamAliRizvi)",
      "license": "CC-BY-4.0 (http://creativecommons.org/licenses/by/4.0/)",
      "source": "https://sketchfab.com/3d-models/frames-version-04-4f73da335ff0498aa7f69c7602927a99",
      "title": "Frames Version 04"
    },
    "generator": "Sketchfab-8.51.0",
    "version": "2.0"
  },
  "bufferViews": [
    {
      "buffer": 0,
      "byteLength": 3600,
      "byteOffset": 0,
      "name": "floatBufferViews",
      "target": 34963
    },
    {
      "buffer": 0,
      "byteLength": 8832,
      "byteOffset": 3600,
      "byteStride": 8,
      "name": "floatBufferViews",
      "target": 34962
    },
    {
      "buffer": 0,
      "byteLength": 13248,
      "byteOffset": 12432,
      "byteStride": 12,
      "name": "floatBufferViews",
      "target": 34962
    }
  ],
  "buffers": [
    {
      "byteLength": 25680,
      "uri": "scene.bin"
    }
  ],
  "extensionsRequired": [
    "KHR_materials_pbrSpecularGlossiness"
  ],
  "extensionsUsed": [
    "KHR_materials_pbrSpecularGlossiness"
  ],
  "images": [
    {
      "uri": "textures/Frames_Version_04_diffuse.jpeg"
    },
    {
      "uri": "textures/Frames_Version_04_specularGlossiness.png"
    }
  ],
  "materials": [
    {
      "doubleSided": true,
      "extensions": {
        "KHR_materials_pbrSpecularGlossiness": {
          "diffuseFactor": [
            1,
            1,
            1,
            1
          ],
          "diffuseTexture": {
            "index": 0,
            "texCoord": 0
          },
          "glossinessFactor": 1,
          "specularFactor": [
            0.013870395028850423,
            0.013870395028850423,
            0.013870395028850423
          ],
          "specularGlossinessTexture": {
            "index": 1,
            "texCoord": 0
          }
        }
      },
      "name": "Frames_Version_04"
    }
  ],
  "meshes": [
    {
      "name": "Frame_Middle_Frames_Version_04_0",
      "primitives": [
        {
          "attributes": {
            "NORMAL": 1,
            "POSITION": 0,
            "TEXCOORD_0": 2,
            "TEXCOORD_1": 3
          },
          "indices": 4,
          "material": 0,
          "mode": 4
        }
      ]
    },
    {
      "name": "Frame_Left_Frames_Version_04_0",
      "primitives": [
        {
          "attributes": {
            "NORMAL": 6,
            "POSITION": 5,
            "TEXCOORD_0": 7,
            "TEXCOORD_1": 8
          },
          "indices": 9,
          "material": 0,
          "mode": 4
        }
      ]
    },
    {
      "name": "Frame_Right_Frames_Version_04_0",
      "primitives": [
        {
          "attributes": {
            "NORMAL": 11,
            "POSITION": 10,
            "TEXCOORD_0": 12,
            "TEXCOORD_1": 13
          },
          "indices": 14,
          "material": 0,
          "mode": 4
        }
      ]
    }
  ],
  "nodes": [
    {
      "children": [
        1
      ],
      "name": "RootNode (gltf orientation matrix)",
      "rotation": [
        -0.70710678118654746,
        -0,
        -0,
        0.70710678118654757
      ]
    },
    {
      "children": [
        2
      ],
      "matrix": [
        1,
        -2.832769343193999e-16,
        -2.832769343193999e-16,
        0,
        -2.832769343193999e-16,
        -1,
        4.8795769672831353e-32,
        0,
        -2.832769343193999e-16,
        3.1450057482662597e-32,
        -1,
        0,
        1.6542323066914832e-14,
        1.7128809690475464,
        115.08005523681641,
        1
      ],
      "name": "RootNode (model correction matrix)"
    },
    {
      "children": [
        3
      ],
      "matrix": [
        1,
        0,
        0,
        0,
        0,
        -1,
        0,
        0,
        0,
        0,
        -1,
        0,
        0,
        0,
        0,
        1
      ],
      "name": "ee3627d90b0f4997beec3691092ccf8c.fbx"
    },
    {
      "children": [
        4
      ],
      "name": "RootNode"
    },
    {
      "children": [
        5,
        8,
        11
      ],
      "matrix": [
        1,
        0,
        0,
        0,
        0,
        -4.3711388064693324e-08,
        0.999999999999999,
        0,
        0,
        -0.999999999999999,
        -4.3711388064693324e-08,
        0,
        0,
        0,
        0,
        1
      ],
      "name": "Frame_Version_04"
    },
    {
      "children": [
        6
      ],
      "matrix": [
        1,
        0,
        0,
        0,
        0,
        -1.6292068472090193e-07,
        -0.99999999999998679,
        0,
        0,
        0.99999999999998679,
        -1.6292068472090193e-07,
        0,
        2.86102294921875e-06,
        -0.03164219856262207,
        0,
        1
      ],
      "name": "Frame_Middle"
    },
    {
      "children": [
        7
      ],
      "matrix": [
        1,
        0,
        -0,
        0,
        0,
        1,
        0,
        0,
        0,
        0,
        1,
        0,
        0,
        -0.85643458366394043,
        -45.296798706054688,
        1
      ],
      "name": ""
    },
    {
      "mesh": 0,
      "name": "Frame_Middle_Frames_Version_04_0"
    },
    {
      "children": [
        9
      ],
      "matrix": [
        1,
        0,
        0,
        0,
        -0,
        -1.6292068472090193e-07,
        -0.99999999999998679,
        0,
        0,
        0.99999999999998679,
        -1.6292068472090193e-07,
        0,
        -165.09323120117188,
        -25.060844421386719,
        0,
        1
      ],
      "name": "Frame_Left"
    },
    {
      "children": [
        10
      ],
      "matrix": [
        1,
        0,
        -0,
        0,
        0,
        1,
        0,
        0,
        0,
        0,
        1,
        0,
        165.09323120117188,
        -0.85643762350082397,
        -20.267593383789062,
        1
      ],
      "name": ""
    },
    {
      "mesh": 1,
      "name": "Frame_Left_Frames_Version_04_0"
    },
    {
      "children": [
        12
      ],
      "matrix": [
        1,
        0,
        0,
        0,
        0,
        -1.6292068472090193e-07,
        -0.99999999999998679,
        0,
        0,
        0.99999999999998679,
        -1.6292068472090193e-07,
        0,
        165.55633544921875,
        -25.060844421386719,
        0,
        1
      ],
      "name": "Frame_Right"
    },
    {
      "children": [
        13
      ],
      "matrix": [
        1,
        0,
        -0,
        0,
        0,
        1,
        0,
        0,
        0,
        0,
        1,
        0,
        -165.55633544921875,
        -0.85643762350082397,
        -20.267593383789062,
        1
      ],
      "name": ""
    },
    {
      "mesh": 2,
      "name": "Frame_Right_Frames_Version_04_0"
    }
  ],
  "samplers": [
    {
      "magFilter": 9729,
      "minFilter": 9987,
      "wrapS": 10497,
      "wrapT": 10497
    }
  ],
  "scene": 0,
  "scenes": [
    {
      "name": "OSG_Scene",
      "nodes": [
        0
      ]
    }
  ],
  "textures": [
    {
      "sampler": 0,
      "source": 0
    },
    {
      "sampler": 0,
      "source": 1
    }
  ]
}

