{
    "asset" : {
        "generator" : "Khronos glTF Blender I/O v1.5.17",
        "version" : "2.0"
    },
    "scene" : 0,
    "scenes" : [
        {
            "name" : "Scene",
            "nodes" : [
                5
            ]
        }
    ],
    "nodes" : [
        {
            "mesh" : 0,
            "name" : "Mesh_0.002"
        },
        {
            "mesh" : 1,
            "name" : "Mesh_1.002"
        },
        {
            "mesh" : 2,
            "name" : "Mesh_2.002"
        },
        {
            "children" : [
                0,
                1,
                2
            ],
            "name" : "alarm-clock.obj.cleaner.materialmerger.gles"
        },
        {
            "children" : [
                3
            ],
            "name" : "RootNode (model correction matrix)",
            "rotation" : [
                -0.49863600730895996,
                0.501360297203064,
                -0.501360297203064,
                0.49863600730895996
            ],
            "translation" : [
                -0.2803957760334015,
                -9.349756240844727,
                -9.070883750915527
            ]
        },
        {
            "children" : [
                4
            ],
            "name" : "RootNode (gltf orientation matrix)",
            "rotation" : [
                -0.7071068286895752,
                0,
                0,
                0.7071068286895752
            ]
        }
    ],
    "materials" : [
        {
            "doubleSided" : true,
            "emissiveFactor" : [
                0.015625,
                0.015625,
                0.015625
            ],
            "name" : "White",
            "pbrMetallicRoughness" : {
                "baseColorTexture" : {
                    "index" : 0
                },
                "metallicFactor" : 0,
                "roughnessFactor" : 0.04706554859876633
            }
        },
        {
            "doubleSided" : true,
            "name" : "mat21",
            "pbrMetallicRoughness" : {
                "metallicFactor" : 0.9041539430618286,
                "roughnessFactor" : 0.4190167784690857
            }
        },
        {
            "doubleSided" : true,
            "name" : "mat23",
            "pbrMetallicRoughness" : {
                "baseColorFactor" : [
                    0.10000000149011612,
                    0.10000000149011612,
                    0.10000000149011612,
                    1
                ],
                "metallicFactor" : 0.9346417784690857,
                "roughnessFactor" : 0.29096800088882446
            }
        }
    ],
    "meshes" : [
        {
            "name" : "Mesh_0.002",
            "primitives" : [
                {
                    "attributes" : {
                        "POSITION" : 0,
                        "NORMAL" : 1,
                        "TEXCOORD_0" : 2
                    },
                    "indices" : 3,
                    "material" : 0
                }
            ]
        },
        {
            "name" : "Mesh_1.002",
            "primitives" : [
                {
                    "attributes" : {
                        "POSITION" : 4,
                        "NORMAL" : 5
                    },
                    "indices" : 6,
                    "material" : 1
                }
            ]
        },
        {
            "name" : "Mesh_2.002",
            "primitives" : [
                {
                    "attributes" : {
                        "POSITION" : 7,
                        "NORMAL" : 8
                    },
                    "indices" : 9,
                    "material" : 2
                }
            ]
        }
    ],
    "textures" : [
        {
            "sampler" : 0,
            "source" : 0
        }
    ],
    "images" : [
        {
            "bufferView" : 4,
            "mimeType" : "image/png",
            "name" : "White_baseColor"
        }
    ],
    "accessors" : [
        {
            "bufferView" : 0,
            "componentType" : 5126,
            "count" : 28,
            "max" : [
                3.080828905105591,
                -0.39737001061439514,
                6.938436985015869
            ],
            "min" : [
                2.588484048843384,
                -15.026433944702148,
                -7.682343006134033
            ],
            "type" : "VEC3"
        },
        {
            "bufferView" : 1,
            "componentType" : 5126,
            "count" : 28,
            "type" : "VEC3"
        },
        {
            "bufferView" : 2,
            "componentType" : 5126,
            "count" : 28,
            "type" : "VEC2"
        },
        {
            "bufferView" : 3,
            "componentType" : 5123,
            "count" : 30,
            "type" : "SCALAR"
        },
        {
            "bufferView" : 5,
            "componentType" : 5126,
            "count" : 12,
            "max" : [
                2.7039339542388916,
                0.9936829805374146,
                8.156243324279785
            ],
            "min" : [
                1.2011899948120117,
                -3.744385004043579,
                -9.070820808410645
            ],
            "type" : "VEC3"
        },
        {
            "bufferView" : 6,
            "componentType" : 5126,
            "count" : 12,
            "type" : "VEC3"
        },
        {
            "bufferView" : 7,
            "componentType" : 5123,
            "count" : 12,
            "type" : "SCALAR"
        },
        {
            "bufferView" : 8,
            "componentType" : 5126,
            "count" : 604,
            "max" : [
                4.603966236114502,
                0.41690298914909363,
                8.041489601135254
            ],
            "min" : [
                -6.069962978363037,
                -18.220773696899414,
                -8.53737735748291
            ],
            "type" : "VEC3"
        },
        {
            "bufferView" : 9,
            "componentType" : 5126,
            "count" : 604,
            "type" : "VEC3"
        },
        {
            "bufferView" : 10,
            "componentType" : 5123,
            "count" : 822,
            "type" : "SCALAR"
        }
    ],
    "bufferViews" : [
        {
            "buffer" : 0,
            "byteLength" : 336,
            "byteOffset" : 0
        },
        {
            "buffer" : 0,
            "byteLength" : 336,
            "byteOffset" : 336
        },
        {
            "buffer" : 0,
            "byteLength" : 224,
            "byteOffset" : 672
        },
        {
            "buffer" : 0,
            "byteLength" : 60,
            "byteOffset" : 896
        },
        {
            "buffer" : 0,
            "byteLength" : 336959,
            "byteOffset" : 956
        },
        {
            "buffer" : 0,
            "byteLength" : 144,
            "byteOffset" : 337916
        },
        {
            "buffer" : 0,
            "byteLength" : 144,
            "byteOffset" : 338060
        },
        {
            "buffer" : 0,
            "byteLength" : 24,
            "byteOffset" : 338204
        },
        {
            "buffer" : 0,
            "byteLength" : 7248,
            "byteOffset" : 338228
        },
        {
            "buffer" : 0,
            "byteLength" : 7248,
            "byteOffset" : 345476
        },
        {
            "buffer" : 0,
            "byteLength" : 1644,
            "byteOffset" : 352724
        }
    ],
    "samplers" : [
        {
            "magFilter" : 9729,
            "minFilter" : 9987
        }
    ],
    "buffers" : [
        {
            "byteLength" : 354368,
            "uri" : "data:application/octet-stream;base64,"
        }
    ]
}
