{
  "accessors": [
    {
      "bufferView": 2,
      "componentType": 5126,
      "count": 583,
      "max": [
        8.8136730194091797,
        -1.6719393730163574,
        0.53096306324005127
      ],
      "min": [
        -5.2688417434692383,
        -10.221564292907715,
        -5.2674093246459961
      ],
      "type": "VEC3"
    },
    {
      "bufferView": 2,
      "byteOffset": 6996,
      "componentType": 5126,
      "count": 583,
      "max": [
        0.99936825037002563,
        1,
        0.99936825037002563
      ],
      "min": [
        -0.99936825037002563,
        -1,
        -0.99998587369918823
      ],
      "type": "VEC3"
    },
    {
      "bufferView": 3,
      "componentType": 5126,
      "count": 583,
      "max": [
        1,
        1,
        0.99936825037002563,
        1
      ],
      "min": [
        -0.99999713897705078,
        -0.99018627405166626,
        -0.78847652673721313,
        1
      ],
      "type": "VEC4"
    },
    {
      "bufferView": 1,
      "componentType": 5126,
      "count": 583,
      "max": [
        0.99950003623962402,
        0.99890613555908203
      ],
      "min": [
        0.00050000002374872565,
        0.00050000002374872565
      ],
      "type": "VEC2"
    },
    {
      "bufferView": 0,
      "componentType": 5125,
      "count": 1299,
      "max": [
        582
      ],
      "min": [
        0
      ],
      "type": "SCALAR"
    }
  ],
  "asset": {
    "extras": {
      "author": "Sophie (https://sketchfab.com/Sofi_EX)",
      "license": "CC-BY-NC-4.0 (http://creativecommons.org/licenses/by-nc/4.0/)",
      "source": "https://sketchfab.com/models/e0245d6f01f141f9812582a9487c3062",
      "title": "Voodoo Doll"
    },
    "generator": "Sketchfab-3.19.6",
    "version": "2.0"
  },
  "bufferViews": [
    {
      "buffer": 0,
      "byteLength": 5196,
      "byteOffset": 0,
      "name": "floatBufferViews",
      "target": 34963
    },
    {
      "buffer": 0,
      "byteLength": 4664,
      "byteOffset": 5196,
      "byteStride": 8,
      "name": "floatBufferViews",
      "target": 34962
    },
    {
      "buffer": 0,
      "byteLength": 13992,
      "byteOffset": 9860,
      "byteStride": 12,
      "name": "floatBufferViews",
      "target": 34962
    },
    {
      "buffer": 0,
      "byteLength": 9328,
      "byteOffset": 23852,
      "byteStride": 16,
      "name": "floatBufferViews",
      "target": 34962
    }
  ],
  "buffers": [
    {
      "byteLength": 33180,
      "uri": "scene.bin"
    }
  ],
  "images": [
    {
      "uri": "textures/Voodoo_Doll_normal.png"
    },
    {
      "uri": "textures/Voodoo_Doll_metallicRoughness.png"
    },
    {
      "uri": "textures/Voodoo_Doll_baseColor.jpg"
    }
  ],
  "materials": [
    {
      "doubleSided": true,
      "emissiveFactor": [
        0,
        0,
        0
      ],
      "name": "Voodoo_Doll",
      "normalTexture": {
        "index": 0,
        "scale": 1,
        "texCoord": 0
      },
      "pbrMetallicRoughness": {
        "baseColorFactor": [
          1,
          1,
          1,
          1
        ],
        "baseColorTexture": {
          "index": 2,
          "texCoord": 0
        },
        "metallicFactor": 1,
        "metallicRoughnessTexture": {
          "index": 1,
          "texCoord": 0
        },
        "roughnessFactor": 1
      }
    }
  ],
  "meshes": [
    {
      "name": "Sphere001_Voodoo Doll_0",
      "primitives": [
        {
          "attributes": {
            "NORMAL": 1,
            "POSITION": 0,
            "TANGENT": 2,
            "TEXCOORD_0": 3
          },
          "indices": 4,
          "material": 0,
          "mode": 4
        }
      ]
    }
  ],
  "nodes": [
    {
      "children": [
        1
      ],
      "name": "RootNode (gltf orientation matrix)",
      "rotation": [
        -0.70710678118654746,
        -0,
        -0,
        0.70710678118654757
      ]
    },
    {
      "children": [
        2
      ],
      "name": "RootNode (model correction matrix)"
    },
    {
      "children": [
        3
      ],
      "matrix": [
        1,
        0,
        0,
        0,
        0,
        0,
        1,
        0,
        0,
        -1,
        0,
        0,
        0,
        0,
        0,
        1
      ],
      "name": "f0430f54bc534a1782fba82b9c9a8c5f.fbx"
    },
    {
      "children": [
        4
      ],
      "name": "RootNode"
    },
    {
      "children": [
        5
      ],
      "matrix": [
        0.79887717465870833,
        0,
        0.60149418933961418,
        0,
        0.60149418933961418,
        0,
        -0.79887717465870844,
        0,
        0,
        1,
        0,
        0,
        0,
        0,
        0,
        1
      ],
      "name": "Sphere001"
    },
    {
      "children": [
        6
      ],
      "matrix": [
        1,
        0,
        -0,
        0,
        0,
        1,
        0,
        0,
        0,
        0,
        1,
        0,
        -1.7724136114120483,
        5.9467487335205078,
        2.36822509765625,
        1
      ],
      "name": ""
    },
    {
      "mesh": 0,
      "name": "Sphere001_Voodoo Doll_0"
    }
  ],
  "samplers": [
    {
      "magFilter": 9729,
      "minFilter": 9987,
      "wrapS": 10497,
      "wrapT": 10497
    }
  ],
  "scene": 0,
  "scenes": [
    {
      "name": "OSG_Scene",
      "nodes": [
        0
      ]
    }
  ],
  "textures": [
    {
      "sampler": 0,
      "source": 0
    },
    {
      "sampler": 0,
      "source": 1
    },
    {
      "sampler": 0,
      "source": 2
    }
  ]
}

