{
    "asset" : {
        "generator" : "Khronos glTF Blender I/O v1.5.17",
        "version" : "2.0"
    },
    "scene" : 0,
    "scenes" : [
        {
            "name" : "Scene",
            "nodes" : [
                6
            ]
        }
    ],
    "nodes" : [
        {
            "mesh" : 0,
            "name" : "potTall_aglaonema_phong1_0"
        },
        {
            "mesh" : 1,
            "name" : "potTall_aglaonema_phong2_0"
        },
        {
            "children" : [
                0,
                1
            ],
            "name" : "potTall_aglaonema",
            "scale" : [
                0.009999999776482582,
                0.009999999776482582,
                0.009999999776482582
            ]
        },
        {
            "children" : [
                2
            ],
            "name" : "RootNode"
        },
        {
            "children" : [
                3
            ],
            "name" : "0e38c8e790e142f2b6e51977dc40cb14.fbx",
            "rotation" : [
                0.7071068286895752,
                0,
                0,
                0.7071068286895752
            ]
        },
        {
            "children" : [
                4
            ],
            "name" : "RootNode (model correction matrix)"
        },
        {
            "children" : [
                5
            ],
            "name" : "RootNode (gltf orientation matrix)",
            "rotation" : [
                -0.7071068286895752,
                0,
                0,
                0.7071068286895752
            ]
        }
    ],
    "materials" : [
        {
            "doubleSided" : true,
            "name" : "phong1",
            "normalTexture" : {
                "index" : 0
            },
            "pbrMetallicRoughness" : {
                "baseColorFactor" : [
                    0.8193024396896362,
                    0.8193024396896362,
                    0.8193024396896362,
                    1
                ],
                "metallicRoughnessTexture" : {
                    "index" : 1
                }
            }
        },
        {
            "alphaCutoff" : 0.4000000059604645,
            "alphaMode" : "MASK",
            "name" : "phong2",
            "normalTexture" : {
                "index" : 2
            },
            "occlusionTexture" : {
                "index" : 3
            },
            "pbrMetallicRoughness" : {
                "baseColorTexture" : {
                    "index" : 4
                },
                "metallicRoughnessTexture" : {
                    "index" : 3
                }
            }
        }
    ],
    "meshes" : [
        {
            "name" : "potTall_aglaonema_phong1_0",
            "primitives" : [
                {
                    "attributes" : {
                        "POSITION" : 0,
                        "NORMAL" : 1,
                        "TEXCOORD_0" : 2
                    },
                    "indices" : 3,
                    "material" : 0
                }
            ]
        },
        {
            "name" : "potTall_aglaonema_phong2_0",
            "primitives" : [
                {
                    "attributes" : {
                        "POSITION" : 4,
                        "NORMAL" : 5,
                        "TEXCOORD_0" : 6
                    },
                    "indices" : 7,
                    "material" : 1
                }
            ]
        }
    ],
    "textures" : [
        {
            "sampler" : 0,
            "source" : 0
        },
        {
            "sampler" : 0,
            "source" : 1
        },
        {
            "sampler" : 0,
            "source" : 2
        },
        {
            "sampler" : 0,
            "source" : 3
        },
        {
            "sampler" : 0,
            "source" : 4
        }
    ],
    "images" : [
        {
            "bufferView" : 4,
            "mimeType" : "image/png",
            "name" : "phong1_normal"
        },
        {
            "bufferView" : 5,
            "mimeType" : "image/png",
            "name" : "phong1_metallicRoughness"
        },
        {
            "bufferView" : 10,
            "mimeType" : "image/png",
            "name" : "phong2_normal"
        },
        {
            "bufferView" : 11,
            "mimeType" : "image/png",
            "name" : "phong2_metallicRoughness"
        },
        {
            "bufferView" : 12,
            "mimeType" : "image/png",
            "name" : "phong2_baseColor"
        }
    ],
    "accessors" : [
        {
            "bufferView" : 0,
            "componentType" : 5126,
            "count" : 21,
            "max" : [
                5.939540386199951,
                97.22296142578125,
                29.592620849609375
            ],
            "min" : [
                -53.651336669921875,
                -1.5868300199508667,
                -30.64931869506836
            ],
            "type" : "VEC3"
        },
        {
            "bufferView" : 1,
            "componentType" : 5126,
            "count" : 21,
            "type" : "VEC3"
        },
        {
            "bufferView" : 2,
            "componentType" : 5126,
            "count" : 21,
            "type" : "VEC2"
        },
        {
            "bufferView" : 3,
            "componentType" : 5123,
            "count" : 75,
            "type" : "SCALAR"
        },
        {
            "bufferView" : 6,
            "componentType" : 5126,
            "count" : 381,
            "max" : [
                37.69702911376953,
                160.4209442138672,
                67.46623229980469
            ],
            "min" : [
                -95.03195190429688,
                91.5868148803711,
                -68.8171157836914
            ],
            "type" : "VEC3"
        },
        {
            "bufferView" : 7,
            "componentType" : 5126,
            "count" : 381,
            "type" : "VEC3"
        },
        {
            "bufferView" : 8,
            "componentType" : 5126,
            "count" : 381,
            "type" : "VEC2"
        },
        {
            "bufferView" : 9,
            "componentType" : 5123,
            "count" : 555,
            "type" : "SCALAR"
        }
    ],
    "bufferViews" : [
        {
            "buffer" : 0,
            "byteLength" : 252,
            "byteOffset" : 0
        },
        {
            "buffer" : 0,
            "byteLength" : 252,
            "byteOffset" : 252
        },
        {
            "buffer" : 0,
            "byteLength" : 168,
            "byteOffset" : 504
        },
        {
            "buffer" : 0,
            "byteLength" : 150,
            "byteOffset" : 672
        },
        {
            "buffer" : 0,
            "byteLength" : 121188,
            "byteOffset" : 824
        },
        {
            "buffer" : 0,
            "byteLength" : 79216,
            "byteOffset" : 122012
        },
        {
            "buffer" : 0,
            "byteLength" : 4572,
            "byteOffset" : 201228
        },
        {
            "buffer" : 0,
            "byteLength" : 4572,
            "byteOffset" : 205800
        },
        {
            "buffer" : 0,
            "byteLength" : 3048,
            "byteOffset" : 210372
        },
        {
            "buffer" : 0,
            "byteLength" : 1110,
            "byteOffset" : 213420
        },
        {
            "buffer" : 0,
            "byteLength" : 99446,
            "byteOffset" : 214532
        },
        {
            "buffer" : 0,
            "byteLength" : 29364,
            "byteOffset" : 313980
        },
        {
            "buffer" : 0,
            "byteLength" : 73644,
            "byteOffset" : 343344
        }
    ],
    "samplers" : [
        {
            "magFilter" : 9729,
            "minFilter" : 9987
        }
    ],
    "buffers" : [
        {
            "byteLength" : 416988,
            "uri" : "data:application/octet-stream;base64,"
        }
    ]
}
