{
    "asset" : {
        "generator" : "Khronos glTF Blender I/O v1.5.17",
        "version" : "2.0"
    },
    "scene" : 0,
    "scenes" : [
        {
            "name" : "Scene",
            "nodes" : [
                14
            ]
        }
    ],
    "nodes" : [
        {
            "mesh" : 0,
            "name" : "Cube_0"
        },
        {
            "children" : [
                0
            ],
            "name" : "Cube",
            "rotation" : [
                -0.025684960186481476,
                -0.7066401839256287,
                -0.025684960186481476,
                0.7066401243209839
            ],
            "translation" : [
                0.4378499984741211,
                -0.1941699981689453,
                1.668619990348816
            ]
        },
        {
            "mesh" : 1,
            "name" : "Cube.001_0"
        },
        {
            "children" : [
                2
            ],
            "name" : "Cube.001",
            "rotation" : [
                -0.023481929674744606,
                -0.706716775894165,
                -0.023481929674744606,
                0.706716775894165
            ],
            "scale" : [
                1,
                0.9999955892562866,
                0.9999955892562866
            ],
            "translation" : [
                0.4378499984741211,
                -0.15861999988555908,
                0.18880000710487366
            ]
        },
        {
            "mesh" : 2,
            "name" : "Cube.002_0"
        },
        {
            "children" : [
                4
            ],
            "name" : "Cube.002",
            "rotation" : [
                0,
                -0.7071068286895752,
                0,
                0.7071068286895752
            ],
            "translation" : [
                0.49838998913764954,
                -0.09769999980926514,
                0.5863699913024902
            ]
        },
        {
            "mesh" : 3,
            "name" : "Cube.003_0"
        },
        {
            "children" : [
                6
            ],
            "name" : "Cube.003",
            "rotation" : [
                0,
                -0.7071068286895752,
                0,
                0.7071068286895752
            ],
            "translation" : [
                0.5665599703788757,
                0,
                1.9540400505065918
            ]
        },
        {
            "mesh" : 4,
            "name" : "Cube.004_0"
        },
        {
            "children" : [
                8
            ],
            "name" : "Cube.004",
            "rotation" : [
                0.022306174039840698,
                -0.7067548632621765,
                0.022306174039840698,
                0.7067549228668213
            ],
            "translation" : [
                0.3470099866390228,
                0.05181000009179115,
                1.3645100593566895
            ]
        },
        {
            "mesh" : 5,
            "name" : "Cube.005_0"
        },
        {
            "children" : [
                10
            ],
            "name" : "Cube.005",
            "rotation" : [
                0.027452781796455383,
                -0.7065736651420593,
                0.027452781796455383,
                0.7065736651420593
            ],
            "scale" : [
                1,
                1.0000046491622925,
                1.0000046491622925
            ],
            "translation" : [
                0.4378499984741211,
                0.18455000221729279,
                0.9719399809837341
            ]
        },
        {
            "children" : [
                1,
                3,
                5,
                7,
                9,
                11
            ],
            "name" : "Root"
        },
        {
            "children" : [
                12
            ],
            "name" : "RootNode (model correction matrix)"
        },
        {
            "children" : [
                13
            ],
            "name" : "RootNode (gltf orientation matrix)",
            "rotation" : [
                -0.7071068286895752,
                0,
                0,
                0.7071068286895752
            ]
        }
    ],
    "materials" : [
        {
            "doubleSided" : true,
            "name" : "Books",
            "pbrMetallicRoughness" : {
                "baseColorTexture" : {
                    "index" : 0
                },
                "metallicFactor" : 0,
                "metallicRoughnessTexture" : {
                    "index" : 1
                }
            }
        }
    ],
    "meshes" : [
        {
            "name" : "Cube_0",
            "primitives" : [
                {
                    "attributes" : {
                        "POSITION" : 0,
                        "NORMAL" : 1,
                        "TEXCOORD_0" : 2
                    },
                    "indices" : 3,
                    "material" : 0
                }
            ]
        },
        {
            "name" : "Cube.001_0",
            "primitives" : [
                {
                    "attributes" : {
                        "POSITION" : 4,
                        "NORMAL" : 5,
                        "TEXCOORD_0" : 6
                    },
                    "indices" : 7,
                    "material" : 0
                }
            ]
        },
        {
            "name" : "Cube.002_0.001",
            "primitives" : [
                {
                    "attributes" : {
                        "POSITION" : 8,
                        "NORMAL" : 9,
                        "TEXCOORD_0" : 10
                    },
                    "indices" : 11,
                    "material" : 0
                }
            ]
        },
        {
            "name" : "Cube.003_0",
            "primitives" : [
                {
                    "attributes" : {
                        "POSITION" : 12,
                        "NORMAL" : 13,
                        "TEXCOORD_0" : 14
                    },
                    "indices" : 15,
                    "material" : 0
                }
            ]
        },
        {
            "name" : "Cube.004_0",
            "primitives" : [
                {
                    "attributes" : {
                        "POSITION" : 16,
                        "NORMAL" : 17,
                        "TEXCOORD_0" : 18
                    },
                    "indices" : 19,
                    "material" : 0
                }
            ]
        },
        {
            "name" : "Cube.005_0",
            "primitives" : [
                {
                    "attributes" : {
                        "POSITION" : 20,
                        "NORMAL" : 21,
                        "TEXCOORD_0" : 22
                    },
                    "indices" : 7,
                    "material" : 0
                }
            ]
        }
    ],
    "textures" : [
        {
            "sampler" : 0,
            "source" : 0
        },
        {
            "sampler" : 0,
            "source" : 1
        }
    ],
    "images" : [
        {
            "bufferView" : 4,
            "mimeType" : "image/png",
            "name" : "Books_baseColor"
        },
        {
            "bufferView" : 5,
            "mimeType" : "image/png",
            "name" : "Books_metallicRoughness"
        }
    ],
    "accessors" : [
        {
            "bufferView" : 0,
            "componentType" : 5126,
            "count" : 56,
            "max" : [
                0.06896567344665527,
                2.4035539627075195,
                3.8073692321777344
            ],
            "min" : [
                -0.07393000274896622,
                0.002434039954096079,
                -0.0001405707444064319
            ],
            "type" : "VEC3"
        },
        {
            "bufferView" : 1,
            "componentType" : 5126,
            "count" : 56,
            "type" : "VEC3"
        },
        {
            "bufferView" : 2,
            "componentType" : 5126,
            "count" : 56,
            "type" : "VEC2"
        },
        {
            "bufferView" : 3,
            "componentType" : 5123,
            "count" : 162,
            "type" : "SCALAR"
        },
        {
            "bufferView" : 6,
            "componentType" : 5126,
            "count" : 42,
            "max" : [
                0.18482999503612518,
                2.401925563812256,
                4.001396179199219
            ],
            "min" : [
                -0.18482999503612518,
                0.005497070029377937,
                0
            ],
            "type" : "VEC3"
        },
        {
            "bufferView" : 7,
            "componentType" : 5126,
            "count" : 42,
            "type" : "VEC3"
        },
        {
            "bufferView" : 8,
            "componentType" : 5126,
            "count" : 42,
            "type" : "VEC2"
        },
        {
            "bufferView" : 9,
            "componentType" : 5123,
            "count" : 108,
            "type" : "SCALAR"
        },
        {
            "bufferView" : 10,
            "componentType" : 5126,
            "count" : 42,
            "max" : [
                0.18482999503612518,
                2.401925563812256,
                3.8332409858703613
            ],
            "min" : [
                -0.18482999503612518,
                0.005440635606646538,
                0
            ],
            "type" : "VEC3"
        },
        {
            "bufferView" : 11,
            "componentType" : 5126,
            "count" : 42,
            "type" : "VEC3"
        },
        {
            "bufferView" : 12,
            "componentType" : 5126,
            "count" : 42,
            "type" : "VEC2"
        },
        {
            "bufferView" : 13,
            "componentType" : 5123,
            "count" : 108,
            "type" : "SCALAR"
        },
        {
            "bufferView" : 14,
            "componentType" : 5126,
            "count" : 59,
            "max" : [
                0.20330999791622162,
                2.641925811767578,
                4.217328071594238
            ],
            "min" : [
                -0.2065855711698532,
                0.005440635606646538,
                -2.354912976443302e-05
            ],
            "type" : "VEC3"
        },
        {
            "bufferView" : 15,
            "componentType" : 5126,
            "count" : 59,
            "type" : "VEC3"
        },
        {
            "bufferView" : 16,
            "componentType" : 5126,
            "count" : 59,
            "type" : "VEC2"
        },
        {
            "bufferView" : 17,
            "componentType" : 5123,
            "count" : 141,
            "type" : "SCALAR"
        },
        {
            "bufferView" : 18,
            "componentType" : 5126,
            "count" : 58,
            "max" : [
                0.20330999791622162,
                2.641925811767578,
                3.7671375274658203
            ],
            "min" : [
                -0.2065855711698532,
                0.005440635606646538,
                -2.354912976443302e-05
            ],
            "type" : "VEC3"
        },
        {
            "bufferView" : 19,
            "componentType" : 5126,
            "count" : 58,
            "type" : "VEC3"
        },
        {
            "bufferView" : 20,
            "componentType" : 5126,
            "count" : 58,
            "type" : "VEC2"
        },
        {
            "bufferView" : 21,
            "componentType" : 5123,
            "count" : 138,
            "type" : "SCALAR"
        },
        {
            "bufferView" : 22,
            "componentType" : 5126,
            "count" : 42,
            "max" : [
                0.18482999503612518,
                2.401925563812256,
                4.001396179199219
            ],
            "min" : [
                -0.18482999503612518,
                0.005497070029377937,
                0
            ],
            "type" : "VEC3"
        },
        {
            "bufferView" : 23,
            "componentType" : 5126,
            "count" : 42,
            "type" : "VEC3"
        },
        {
            "bufferView" : 24,
            "componentType" : 5126,
            "count" : 42,
            "type" : "VEC2"
        }
    ],
    "bufferViews" : [
        {
            "buffer" : 0,
            "byteLength" : 672,
            "byteOffset" : 0
        },
        {
            "buffer" : 0,
            "byteLength" : 672,
            "byteOffset" : 672
        },
        {
            "buffer" : 0,
            "byteLength" : 448,
            "byteOffset" : 1344
        },
        {
            "buffer" : 0,
            "byteLength" : 324,
            "byteOffset" : 1792
        },
        {
            "buffer" : 0,
            "byteLength" : 1102127,
            "byteOffset" : 2116
        },
        {
            "buffer" : 0,
            "byteLength" : 679614,
            "byteOffset" : 1104244
        },
        {
            "buffer" : 0,
            "byteLength" : 504,
            "byteOffset" : 1783860
        },
        {
            "buffer" : 0,
            "byteLength" : 504,
            "byteOffset" : 1784364
        },
        {
            "buffer" : 0,
            "byteLength" : 336,
            "byteOffset" : 1784868
        },
        {
            "buffer" : 0,
            "byteLength" : 216,
            "byteOffset" : 1785204
        },
        {
            "buffer" : 0,
            "byteLength" : 504,
            "byteOffset" : 1785420
        },
        {
            "buffer" : 0,
            "byteLength" : 504,
            "byteOffset" : 1785924
        },
        {
            "buffer" : 0,
            "byteLength" : 336,
            "byteOffset" : 1786428
        },
        {
            "buffer" : 0,
            "byteLength" : 216,
            "byteOffset" : 1786764
        },
        {
            "buffer" : 0,
            "byteLength" : 708,
            "byteOffset" : 1786980
        },
        {
            "buffer" : 0,
            "byteLength" : 708,
            "byteOffset" : 1787688
        },
        {
            "buffer" : 0,
            "byteLength" : 472,
            "byteOffset" : 1788396
        },
        {
            "buffer" : 0,
            "byteLength" : 282,
            "byteOffset" : 1788868
        },
        {
            "buffer" : 0,
            "byteLength" : 696,
            "byteOffset" : 1789152
        },
        {
            "buffer" : 0,
            "byteLength" : 696,
            "byteOffset" : 1789848
        },
        {
            "buffer" : 0,
            "byteLength" : 464,
            "byteOffset" : 1790544
        },
        {
            "buffer" : 0,
            "byteLength" : 276,
            "byteOffset" : 1791008
        },
        {
            "buffer" : 0,
            "byteLength" : 504,
            "byteOffset" : 1791284
        },
        {
            "buffer" : 0,
            "byteLength" : 504,
            "byteOffset" : 1791788
        },
        {
            "buffer" : 0,
            "byteLength" : 336,
            "byteOffset" : 1792292
        }
    ],
    "samplers" : [
        {
            "magFilter" : 9729,
            "minFilter" : 9987
        }
    ],
    "buffers" : [
        {
            "byteLength" : 1792628,
            "uri" : "data:application/octet-stream;base64,"
        }
    ]
}
