{
    "asset" : {
        "generator" : "Khronos glTF Blender I/O v1.5.17",
        "version" : "2.0"
    },
    "scene" : 0,
    "scenes" : [
        {
            "name" : "Scene",
            "nodes" : [
                16
            ]
        }
    ],
    "nodes" : [
        {
            "mesh" : 0,
            "name" : "Material2"
        },
        {
            "mesh" : 1,
            "name" : "Material2.001"
        },
        {
            "mesh" : 2,
            "name" : "Material2.002"
        },
        {
            "mesh" : 3,
            "name" : "Material2.003"
        },
        {
            "mesh" : 4,
            "name" : "Material2.004"
        },
        {
            "mesh" : 5,
            "name" : "Material2.005"
        },
        {
            "mesh" : 6,
            "name" : "Material2.006"
        },
        {
            "mesh" : 7,
            "name" : "Material2.007"
        },
        {
            "mesh" : 8,
            "name" : "Material3"
        },
        {
            "mesh" : 9,
            "name" : "Material3.001"
        },
        {
            "mesh" : 10,
            "name" : "Material3.002"
        },
        {
            "name" : "ID1"
        },
        {
            "children" : [
                11
            ],
            "name" : "skp_camera_Last_Saved_SketchUp_View",
            "rotation" : [
                0.31260520219802856,
                -0.5724071264266968,
                -0.6652946472167969,
                0.3633332848548889
            ],
            "translation" : [
                -20.68194007873535,
                23.835880279541016,
                10.666529655456543
            ]
        },
        {
            "children" : [
                0,
                1,
                2,
                3,
                4,
                5,
                6,
                7,
                8,
                9,
                10,
                12
            ],
            "name" : "SketchUp"
        },
        {
            "children" : [
                13
            ],
            "name" : "Collada visual scene group"
        },
        {
            "children" : [
                14
            ],
            "name" : "RootNode (model correction matrix)"
        },
        {
            "children" : [
                15
            ],
            "name" : "RootNode (gltf orientation matrix)",
            "rotation" : [
                -0.7071068286895752,
                0,
                0,
                0.7071068286895752
            ]
        }
    ],
    "materials" : [
        {
            "alphaMode" : "BLEND",
            "name" : "wicker_modular",
            "pbrMetallicRoughness" : {
                "baseColorTexture" : {
                    "index" : 0
                },
                "metallicFactor" : 0,
                "roughnessFactor" : 0.6000000238418579
            }
        },
        {
            "name" : "Wood_Veneer_02",
            "pbrMetallicRoughness" : {
                "baseColorTexture" : {
                    "index" : 1
                },
                "metallicFactor" : 0,
                "roughnessFactor" : 0.6000000238418579
            }
        },
        {
            "name" : "Wood2",
            "pbrMetallicRoughness" : {
                "baseColorTexture" : {
                    "index" : 2
                },
                "metallicFactor" : 0,
                "roughnessFactor" : 0.6000000238418579
            }
        },
        {
            "name" : "material",
            "pbrMetallicRoughness" : {
                "baseColorFactor" : [
                    0.6431369781494141,
                    0.6980389952659607,
                    0.7333329916000366,
                    1
                ],
                "metallicFactor" : 0,
                "roughnessFactor" : 0.6000000238418579
            }
        },
        {
            "name" : "material_0",
            "pbrMetallicRoughness" : {
                "metallicFactor" : 0,
                "roughnessFactor" : 0.6000000238418579
            }
        }
    ],
    "meshes" : [
        {
            "name" : "Material2",
            "primitives" : [
                {
                    "attributes" : {
                        "POSITION" : 0,
                        "NORMAL" : 1,
                        "TEXCOORD_0" : 2,
                        "TEXCOORD_1" : 3
                    },
                    "indices" : 4,
                    "material" : 0
                }
            ]
        },
        {
            "name" : "Material2.001",
            "primitives" : [
                {
                    "attributes" : {
                        "POSITION" : 5,
                        "NORMAL" : 6,
                        "TEXCOORD_0" : 7,
                        "TEXCOORD_1" : 8
                    },
                    "indices" : 9,
                    "material" : 0
                }
            ]
        },
        {
            "name" : "Material2.002",
            "primitives" : [
                {
                    "attributes" : {
                        "POSITION" : 10,
                        "NORMAL" : 11,
                        "TEXCOORD_0" : 12,
                        "TEXCOORD_1" : 13
                    },
                    "indices" : 9,
                    "material" : 0
                }
            ]
        },
        {
            "name" : "Material2.003",
            "primitives" : [
                {
                    "attributes" : {
                        "POSITION" : 14,
                        "NORMAL" : 15,
                        "TEXCOORD_0" : 16,
                        "TEXCOORD_1" : 17
                    },
                    "indices" : 18,
                    "material" : 0
                }
            ]
        },
        {
            "name" : "Material2.004",
            "primitives" : [
                {
                    "attributes" : {
                        "POSITION" : 19,
                        "NORMAL" : 20,
                        "TEXCOORD_0" : 21,
                        "TEXCOORD_1" : 22
                    },
                    "indices" : 4,
                    "material" : 0
                }
            ]
        },
        {
            "name" : "Material2.005",
            "primitives" : [
                {
                    "attributes" : {
                        "POSITION" : 23,
                        "NORMAL" : 24,
                        "TEXCOORD_0" : 25,
                        "TEXCOORD_1" : 26
                    },
                    "indices" : 9,
                    "material" : 0
                }
            ]
        },
        {
            "name" : "Material2.006",
            "primitives" : [
                {
                    "attributes" : {
                        "POSITION" : 27,
                        "NORMAL" : 28,
                        "TEXCOORD_0" : 29,
                        "TEXCOORD_1" : 30
                    },
                    "indices" : 9,
                    "material" : 0
                }
            ]
        },
        {
            "name" : "Material2.007",
            "primitives" : [
                {
                    "attributes" : {
                        "POSITION" : 31,
                        "NORMAL" : 32,
                        "TEXCOORD_0" : 33
                    },
                    "indices" : 34,
                    "material" : 1
                }
            ]
        },
        {
            "name" : "Material3",
            "primitives" : [
                {
                    "attributes" : {
                        "POSITION" : 35,
                        "NORMAL" : 36,
                        "TEXCOORD_0" : 37
                    },
                    "indices" : 38,
                    "material" : 2
                }
            ]
        },
        {
            "name" : "Material3.001",
            "primitives" : [
                {
                    "attributes" : {
                        "POSITION" : 39,
                        "NORMAL" : 40
                    },
                    "indices" : 41,
                    "material" : 3
                }
            ]
        },
        {
            "name" : "Material3.002",
            "primitives" : [
                {
                    "attributes" : {
                        "POSITION" : 42,
                        "NORMAL" : 43
                    },
                    "indices" : 44,
                    "material" : 4
                }
            ]
        }
    ],
    "textures" : [
        {
            "sampler" : 0,
            "source" : 0
        },
        {
            "sampler" : 0,
            "source" : 1
        },
        {
            "sampler" : 0,
            "source" : 2
        }
    ],
    "images" : [
        {
            "bufferView" : 5,
            "mimeType" : "image/png",
            "name" : "wicker_modular_baseColor"
        },
        {
            "bufferView" : 36,
            "mimeType" : "image/jpeg",
            "name" : "Wood_Veneer_02_baseColor"
        },
        {
            "bufferView" : 41,
            "mimeType" : "image/jpeg",
            "name" : "Wood2_baseColor"
        }
    ],
    "accessors" : [
        {
            "bufferView" : 0,
            "componentType" : 5126,
            "count" : 4,
            "max" : [
                11.811019897460938,
                11.811019897460938,
                13.75984001159668
            ],
            "min" : [
                1.9685039520263672,
                1.9685039520263672,
                13.75984001159668
            ],
            "type" : "VEC3"
        },
        {
            "bufferView" : 1,
            "componentType" : 5126,
            "count" : 4,
            "type" : "VEC3"
        },
        {
            "bufferView" : 2,
            "componentType" : 5126,
            "count" : 4,
            "type" : "VEC2"
        },
        {
            "bufferView" : 3,
            "componentType" : 5126,
            "count" : 4,
            "type" : "VEC2"
        },
        {
            "bufferView" : 4,
            "componentType" : 5123,
            "count" : 6,
            "type" : "SCALAR"
        },
        {
            "bufferView" : 6,
            "componentType" : 5126,
            "count" : 8,
            "max" : [
                13.086000442504883,
                13.366140365600586,
                13.169289588928223
            ],
            "min" : [
                1.0978100299835205,
                13.366140365600586,
                1.1811020374298096
            ],
            "type" : "VEC3"
        },
        {
            "bufferView" : 7,
            "componentType" : 5126,
            "count" : 8,
            "type" : "VEC3"
        },
        {
            "bufferView" : 8,
            "componentType" : 5126,
            "count" : 8,
            "type" : "VEC2"
        },
        {
            "bufferView" : 9,
            "componentType" : 5126,
            "count" : 8,
            "type" : "VEC2"
        },
        {
            "bufferView" : 10,
            "componentType" : 5123,
            "count" : 12,
            "type" : "SCALAR"
        },
        {
            "bufferView" : 11,
            "componentType" : 5126,
            "count" : 8,
            "max" : [
                13.086000442504883,
                13.346460342407227,
                13.169289588928223
            ],
            "min" : [
                1.0978100299835205,
                13.346460342407227,
                1.1811020374298096
            ],
            "type" : "VEC3"
        },
        {
            "bufferView" : 12,
            "componentType" : 5126,
            "count" : 8,
            "type" : "VEC3"
        },
        {
            "bufferView" : 13,
            "componentType" : 5126,
            "count" : 8,
            "type" : "VEC2"
        },
        {
            "bufferView" : 14,
            "componentType" : 5126,
            "count" : 8,
            "type" : "VEC2"
        },
        {
            "bufferView" : 15,
            "componentType" : 5126,
            "count" : 16,
            "max" : [
                11.811019897460938,
                11.811019897460938,
                13.779529571533203
            ],
            "min" : [
                1.9685039520263672,
                1.9685039520263672,
                13.75984001159668
            ],
            "type" : "VEC3"
        },
        {
            "bufferView" : 16,
            "componentType" : 5126,
            "count" : 16,
            "type" : "VEC3"
        },
        {
            "bufferView" : 17,
            "componentType" : 5126,
            "count" : 16,
            "type" : "VEC2"
        },
        {
            "bufferView" : 18,
            "componentType" : 5126,
            "count" : 16,
            "type" : "VEC2"
        },
        {
            "bufferView" : 19,
            "componentType" : 5123,
            "count" : 24,
            "type" : "SCALAR"
        },
        {
            "bufferView" : 20,
            "componentType" : 5126,
            "count" : 4,
            "max" : [
                11.811019897460938,
                11.811019897460938,
                13.779529571533203
            ],
            "min" : [
                1.9685039520263672,
                1.9685039520263672,
                13.779529571533203
            ],
            "type" : "VEC3"
        },
        {
            "bufferView" : 21,
            "componentType" : 5126,
            "count" : 4,
            "type" : "VEC3"
        },
        {
            "bufferView" : 22,
            "componentType" : 5126,
            "count" : 4,
            "type" : "VEC2"
        },
        {
            "bufferView" : 23,
            "componentType" : 5126,
            "count" : 4,
            "type" : "VEC2"
        },
        {
            "bufferView" : 24,
            "componentType" : 5126,
            "count" : 8,
            "max" : [
                12.883859634399414,
                0.33464568853378296,
                13.169289588928223
            ],
            "min" : [
                0.8956692814826965,
                0.33464568853378296,
                1.1811020374298096
            ],
            "type" : "VEC3"
        },
        {
            "bufferView" : 25,
            "componentType" : 5126,
            "count" : 8,
            "type" : "VEC3"
        },
        {
            "bufferView" : 26,
            "componentType" : 5126,
            "count" : 8,
            "type" : "VEC2"
        },
        {
            "bufferView" : 27,
            "componentType" : 5126,
            "count" : 8,
            "type" : "VEC2"
        },
        {
            "bufferView" : 28,
            "componentType" : 5126,
            "count" : 8,
            "max" : [
                12.883859634399414,
                0.3149605989456177,
                13.169289588928223
            ],
            "min" : [
                0.8956692814826965,
                0.3149605989456177,
                1.1811020374298096
            ],
            "type" : "VEC3"
        },
        {
            "bufferView" : 29,
            "componentType" : 5126,
            "count" : 8,
            "type" : "VEC3"
        },
        {
            "bufferView" : 30,
            "componentType" : 5126,
            "count" : 8,
            "type" : "VEC2"
        },
        {
            "bufferView" : 31,
            "componentType" : 5126,
            "count" : 8,
            "type" : "VEC2"
        },
        {
            "bufferView" : 32,
            "componentType" : 5126,
            "count" : 2094,
            "max" : [
                13.779529571533203,
                13.779529571533203,
                13.779529571533203
            ],
            "min" : [
                -1.3511128420771751e-16,
                0,
                2.1094239850158138e-16
            ],
            "type" : "VEC3"
        },
        {
            "bufferView" : 33,
            "componentType" : 5126,
            "count" : 2094,
            "type" : "VEC3"
        },
        {
            "bufferView" : 34,
            "componentType" : 5126,
            "count" : 2094,
            "type" : "VEC2"
        },
        {
            "bufferView" : 35,
            "componentType" : 5123,
            "count" : 3090,
            "type" : "SCALAR"
        },
        {
            "bufferView" : 37,
            "componentType" : 5126,
            "count" : 189,
            "max" : [
                13.779529571533203,
                13.779529571533203,
                13.779529571533203
            ],
            "min" : [
                -1.0057653333829801e-15,
                0,
                11.811019897460938
            ],
            "type" : "VEC3"
        },
        {
            "bufferView" : 38,
            "componentType" : 5126,
            "count" : 189,
            "type" : "VEC3"
        },
        {
            "bufferView" : 39,
            "componentType" : 5126,
            "count" : 189,
            "type" : "VEC2"
        },
        {
            "bufferView" : 40,
            "componentType" : 5123,
            "count" : 273,
            "type" : "SCALAR"
        },
        {
            "bufferView" : 42,
            "componentType" : 5126,
            "count" : 22,
            "max" : [
                11.811019897460938,
                11.811019897460938,
                13.779529571533203
            ],
            "min" : [
                1.9685039520263672,
                1.9685039520263672,
                13.75984001159668
            ],
            "type" : "VEC3"
        },
        {
            "bufferView" : 43,
            "componentType" : 5126,
            "count" : 22,
            "type" : "VEC3"
        },
        {
            "bufferView" : 44,
            "componentType" : 5123,
            "count" : 30,
            "type" : "SCALAR"
        },
        {
            "bufferView" : 45,
            "componentType" : 5126,
            "count" : 3,
            "max" : [
                12.883859634399414,
                0.33464568853378296,
                13.169290542602539
            ],
            "min" : [
                0.8956692814826965,
                0.3149605989456177,
                13.169289588928223
            ],
            "type" : "VEC3"
        },
        {
            "bufferView" : 46,
            "componentType" : 5126,
            "count" : 3,
            "type" : "VEC3"
        },
        {
            "bufferView" : 47,
            "componentType" : 5123,
            "count" : 3,
            "type" : "SCALAR"
        }
    ],
    "bufferViews" : [
        {
            "buffer" : 0,
            "byteLength" : 48,
            "byteOffset" : 0
        },
        {
            "buffer" : 0,
            "byteLength" : 48,
            "byteOffset" : 48
        },
        {
            "buffer" : 0,
            "byteLength" : 32,
            "byteOffset" : 96
        },
        {
            "buffer" : 0,
            "byteLength" : 32,
            "byteOffset" : 128
        },
        {
            "buffer" : 0,
            "byteLength" : 12,
            "byteOffset" : 160
        },
        {
            "buffer" : 0,
            "byteLength" : 8446,
            "byteOffset" : 172
        },
        {
            "buffer" : 0,
            "byteLength" : 96,
            "byteOffset" : 8620
        },
        {
            "buffer" : 0,
            "byteLength" : 96,
            "byteOffset" : 8716
        },
        {
            "buffer" : 0,
            "byteLength" : 64,
            "byteOffset" : 8812
        },
        {
            "buffer" : 0,
            "byteLength" : 64,
            "byteOffset" : 8876
        },
        {
            "buffer" : 0,
            "byteLength" : 24,
            "byteOffset" : 8940
        },
        {
            "buffer" : 0,
            "byteLength" : 96,
            "byteOffset" : 8964
        },
        {
            "buffer" : 0,
            "byteLength" : 96,
            "byteOffset" : 9060
        },
        {
            "buffer" : 0,
            "byteLength" : 64,
            "byteOffset" : 9156
        },
        {
            "buffer" : 0,
            "byteLength" : 64,
            "byteOffset" : 9220
        },
        {
            "buffer" : 0,
            "byteLength" : 192,
            "byteOffset" : 9284
        },
        {
            "buffer" : 0,
            "byteLength" : 192,
            "byteOffset" : 9476
        },
        {
            "buffer" : 0,
            "byteLength" : 128,
            "byteOffset" : 9668
        },
        {
            "buffer" : 0,
            "byteLength" : 128,
            "byteOffset" : 9796
        },
        {
            "buffer" : 0,
            "byteLength" : 48,
            "byteOffset" : 9924
        },
        {
            "buffer" : 0,
            "byteLength" : 48,
            "byteOffset" : 9972
        },
        {
            "buffer" : 0,
            "byteLength" : 48,
            "byteOffset" : 10020
        },
        {
            "buffer" : 0,
            "byteLength" : 32,
            "byteOffset" : 10068
        },
        {
            "buffer" : 0,
            "byteLength" : 32,
            "byteOffset" : 10100
        },
        {
            "buffer" : 0,
            "byteLength" : 96,
            "byteOffset" : 10132
        },
        {
            "buffer" : 0,
            "byteLength" : 96,
            "byteOffset" : 10228
        },
        {
            "buffer" : 0,
            "byteLength" : 64,
            "byteOffset" : 10324
        },
        {
            "buffer" : 0,
            "byteLength" : 64,
            "byteOffset" : 10388
        },
        {
            "buffer" : 0,
            "byteLength" : 96,
            "byteOffset" : 10452
        },
        {
            "buffer" : 0,
            "byteLength" : 96,
            "byteOffset" : 10548
        },
        {
            "buffer" : 0,
            "byteLength" : 64,
            "byteOffset" : 10644
        },
        {
            "buffer" : 0,
            "byteLength" : 64,
            "byteOffset" : 10708
        },
        {
            "buffer" : 0,
            "byteLength" : 25128,
            "byteOffset" : 10772
        },
        {
            "buffer" : 0,
            "byteLength" : 25128,
            "byteOffset" : 35900
        },
        {
            "buffer" : 0,
            "byteLength" : 16752,
            "byteOffset" : 61028
        },
        {
            "buffer" : 0,
            "byteLength" : 6180,
            "byteOffset" : 77780
        },
        {
            "buffer" : 0,
            "byteLength" : 52588,
            "byteOffset" : 83960
        },
        {
            "buffer" : 0,
            "byteLength" : 2268,
            "byteOffset" : 136548
        },
        {
            "buffer" : 0,
            "byteLength" : 2268,
            "byteOffset" : 138816
        },
        {
            "buffer" : 0,
            "byteLength" : 1512,
            "byteOffset" : 141084
        },
        {
            "buffer" : 0,
            "byteLength" : 546,
            "byteOffset" : 142596
        },
        {
            "buffer" : 0,
            "byteLength" : 52588,
            "byteOffset" : 143144
        },
        {
            "buffer" : 0,
            "byteLength" : 264,
            "byteOffset" : 195732
        },
        {
            "buffer" : 0,
            "byteLength" : 264,
            "byteOffset" : 195996
        },
        {
            "buffer" : 0,
            "byteLength" : 60,
            "byteOffset" : 196260
        },
        {
            "buffer" : 0,
            "byteLength" : 36,
            "byteOffset" : 196320
        },
        {
            "buffer" : 0,
            "byteLength" : 36,
            "byteOffset" : 196356
        },
        {
            "buffer" : 0,
            "byteLength" : 6,
            "byteOffset" : 196392
        }
    ],
    "samplers" : [
        {
            "magFilter" : 9729,
            "minFilter" : 9987
        }
    ],
    "buffers" : [
        {
            "byteLength" : 196400,
            "uri" : "data:application/octet-stream;base64,"
        }
    ]
}
