{
  "accessors": [
    {
      "bufferView": 1,
      "componentType": 5126,
      "count": 6296,
      "max": [
        0.25547605752944946,
        0.1551983505487442,
        0.24988795816898346
      ],
      "min": [
        -0.1417301744222641,
        0.028920600190758705,
        -0.1473182886838913
      ],
      "type": "VEC3"
    },
    {
      "bufferView": 1,
      "byteOffset": 75552,
      "componentType": 5126,
      "count": 6296,
      "max": [
        0.99986326694488525,
        1,
        0.99986326694488525
      ],
      "min": [
        -0.99986326694488525,
        -0.99966573715209961,
        -0.99986326694488525
      ],
      "type": "VEC3"
    },
    {
      "bufferView": 2,
      "componentType": 5126,
      "count": 6296,
      "max": [
        1,
        0.97690671682357788,
        0.99999761581420898,
        1
      ],
      "min": [
        -1,
        -0.96778172254562378,
        -0.99999761581420898,
        -1
      ],
      "type": "VEC4"
    },
    {
      "bufferView": 0,
      "componentType": 5125,
      "count": 9654,
      "max": [
        6295
      ],
      "min": [
        0
      ],
      "type": "SCALAR"
    },
    {
      "bufferView": 1,
      "byteOffset": 151104,
      "componentType": 5126,
      "count": 38000,
      "max": [
        0.61056697368621826,
        1.0938097238540649,
        0.55153149366378784
      ],
      "min": [
        -0.4699999988079071,
        0.20859931409358978,
        -0.48381346464157104
      ],
      "type": "VEC3"
    },
    {
      "bufferView": 1,
      "byteOffset": 607104,
      "componentType": 5126,
      "count": 38000,
      "max": [
        0.99530333280563354,
        0.99826490879058838,
        0.99820989370346069
      ],
      "min": [
        -0.9996756911277771,
        -0.39723697304725647,
        -0.99909907579421997
      ],
      "type": "VEC3"
    },
    {
      "bufferView": 2,
      "byteOffset": 100736,
      "componentType": 5126,
      "count": 38000,
      "max": [
        0.99999892711639404,
        0.93638324737548828,
        0.99999910593032837,
        1
      ],
      "min": [
        -1,
        -0.93262368440628052,
        -1,
        -1
      ],
      "type": "VEC4"
    },
    {
      "bufferView": 0,
      "byteOffset": 38616,
      "componentType": 5125,
      "count": 101520,
      "max": [
        37999
      ],
      "min": [
        0
      ],
      "type": "SCALAR"
    },
    {
      "bufferView": 1,
      "byteOffset": 1063104,
      "componentType": 5126,
      "count": 28399,
      "max": [
        0.60779011249542236,
        1.0889551639556885,
        0.54965227842330933
      ],
      "min": [
        -0.46450847387313843,
        0.22562426328659058,
        -0.48041275143623352
      ],
      "type": "VEC3"
    },
    {
      "bufferView": 1,
      "byteOffset": 1403892,
      "componentType": 5126,
      "count": 28399,
      "max": [
        0.99530333280563354,
        0.99826490879058838,
        0.99820989370346069
      ],
      "min": [
        -0.9996756911277771,
        -0.39723697304725647,
        -0.99909907579421997
      ],
      "type": "VEC3"
    },
    {
      "bufferView": 2,
      "byteOffset": 708736,
      "componentType": 5126,
      "count": 28399,
      "max": [
        0.99999892711639404,
        0.86276799440383911,
        0.99999845027923584,
        1
      ],
      "min": [
        -1,
        -0.90741592645645142,
        -1,
        -1
      ],
      "type": "VEC4"
    },
    {
      "bufferView": 0,
      "byteOffset": 444696,
      "componentType": 5125,
      "count": 78477,
      "max": [
        28398
      ],
      "min": [
        0
      ],
      "type": "SCALAR"
    },
    {
      "bufferView": 1,
      "byteOffset": 1744680,
      "componentType": 5126,
      "count": 12644,
      "max": [
        0.60457062721252441,
        0.98927867412567139,
        0.54935318231582642
      ],
      "min": [
        -0.4562910795211792,
        0.057750001549720764,
        -0.47646802663803101
      ],
      "type": "VEC3"
    },
    {
      "bufferView": 1,
      "byteOffset": 1896408,
      "componentType": 5126,
      "count": 12644,
      "max": [
        0.99998319149017334,
        1,
        0.99998319149017334
      ],
      "min": [
        -0.99998319149017334,
        -0.99946463108062744,
        -0.99998319149017334
      ],
      "type": "VEC3"
    },
    {
      "bufferView": 2,
      "byteOffset": 1163120,
      "componentType": 5126,
      "count": 12644,
      "max": [
        1,
        0.06555408239364624,
        0.99999970197677612,
        1
      ],
      "min": [
        -1,
        -0.065549850463867188,
        -0.9999997615814209,
        -1
      ],
      "type": "VEC4"
    },
    {
      "bufferView": 0,
      "byteOffset": 758604,
      "componentType": 5125,
      "count": 19248,
      "max": [
        12643
      ],
      "min": [
        0
      ],
      "type": "SCALAR"
    },
    {
      "bufferView": 1,
      "byteOffset": 2048136,
      "componentType": 5126,
      "count": 4872,
      "max": [
        0.0035818561445921659,
        0.68227612972259521,
        0.43988355994224548
      ],
      "min": [
        -0.024622431024909019,
        0.6355319619178772,
        0.41167926788330078
      ],
      "type": "VEC3"
    },
    {
      "bufferView": 1,
      "byteOffset": 2106600,
      "componentType": 5126,
      "count": 4872,
      "max": [
        0.99587094783782959,
        1,
        0.99587094783782959
      ],
      "min": [
        -0.99587094783782959,
        -0.97670650482177734,
        -0.99587094783782959
      ],
      "type": "VEC3"
    },
    {
      "bufferView": 2,
      "byteOffset": 1365424,
      "componentType": 5126,
      "count": 4872,
      "max": [
        1,
        0.28359460830688477,
        0.99904680252075195,
        1
      ],
      "min": [
        -0.9990469217300415,
        -0.2850150465965271,
        -0.99904680252075195,
        -1
      ],
      "type": "VEC4"
    },
    {
      "bufferView": 0,
      "byteOffset": 835596,
      "componentType": 5125,
      "count": 7410,
      "max": [
        4871
      ],
      "min": [
        0
      ],
      "type": "SCALAR"
    },
    {
      "bufferView": 1,
      "byteOffset": 2165064,
      "componentType": 5126,
      "count": 24,
      "max": [
        0.28053545951843262,
        0.35804998874664307,
        0.27494734525680542
      ],
      "min": [
        -0.16678957641124725,
        0.35804998874664307,
        -0.17237769067287445
      ],
      "type": "VEC3"
    },
    {
      "bufferView": 1,
      "byteOffset": 2165352,
      "componentType": 5126,
      "count": 24,
      "max": [
        2.7781992455671407e-17,
        1,
        1.7353091198504946e-16
      ],
      "min": [
        2.7781992455671407e-17,
        1,
        1.7353091198504946e-16
      ],
      "type": "VEC3"
    },
    {
      "bufferView": 2,
      "byteOffset": 1443376,
      "componentType": 5126,
      "count": 24,
      "max": [
        1,
        -2.7781936207389753e-17,
        4.8257959406328155e-07,
        1
      ],
      "min": [
        1,
        -2.7782078482455113e-17,
        -3.291972348051786e-07,
        1
      ],
      "type": "VEC4"
    },
    {
      "bufferView": 0,
      "byteOffset": 865236,
      "componentType": 5125,
      "count": 66,
      "max": [
        23
      ],
      "min": [
        0
      ],
      "type": "SCALAR"
    }
  ],
  "asset": {
    "extras": {
      "author": "Malek Almsri (https://sketchfab.com/malekalmsri)",
      "license": "CC-BY-4.0 (http://creativecommons.org/licenses/by/4.0/)",
      "source": "https://sketchfab.com/models/7c5e77d572c848458e5d898ac49f6f27",
      "title": "Indoor Plant"
    },
    "generator": "Sketchfab-3.18.6",
    "version": "2.0"
  },
  "bufferViews": [
    {
      "buffer": 0,
      "byteLength": 865500,
      "byteOffset": 0,
      "name": "floatBufferViews",
      "target": 34963
    },
    {
      "buffer": 0,
      "byteLength": 2165640,
      "byteOffset": 865500,
      "byteStride": 12,
      "name": "floatBufferViews",
      "target": 34962
    },
    {
      "buffer": 0,
      "byteLength": 1443760,
      "byteOffset": 3031140,
      "byteStride": 16,
      "name": "floatBufferViews",
      "target": 34962
    }
  ],
  "buffers": [
    {
      "byteLength": 4474900,
      "uri": "scene.bin"
    }
  ],
  "materials": [
    {
      "doubleSided": true,
      "emissiveFactor": [
        0,
        0,
        0
      ],
      "name": "FrontColor",
      "pbrMetallicRoughness": {
        "baseColorFactor": [
          1,
          1,
          1,
          1
        ],
        "metallicFactor": 0,
        "roughnessFactor": 0.59999999999999998
      }
    },
    {
      "doubleSided": true,
      "emissiveFactor": [
        0,
        0,
        0
      ],
      "name": "Color_E04_1",
      "pbrMetallicRoughness": {
        "baseColorFactor": [
          1,
          1,
          0.59999999999999998,
          1
        ],
        "metallicFactor": 0,
        "roughnessFactor": 0.59999999999999998
      }
    },
    {
      "doubleSided": true,
      "emissiveFactor": [
        0,
        0,
        0
      ],
      "name": "Color_F11",
      "pbrMetallicRoughness": {
        "baseColorFactor": [
          0.298039,
          0.59999999999999998,
          0,
          1
        ],
        "metallicFactor": 0,
        "roughnessFactor": 0.59999999999999998
      }
    },
    {
      "doubleSided": true,
      "emissiveFactor": [
        0,
        0,
        0
      ],
      "name": "Translucent_Glass_Gray",
      "pbrMetallicRoughness": {
        "baseColorFactor": [
          1,
          1,
          1,
          1
        ],
        "metallicFactor": 0,
        "roughnessFactor": 0.59999999999999998
      }
    },
    {
      "doubleSided": true,
      "emissiveFactor": [
        0,
        0,
        0
      ],
      "name": "Groundcover_Gravel_1inch",
      "pbrMetallicRoughness": {
        "baseColorFactor": [
          0.596078,
          0.52156899999999995,
          0.43137300000000001,
          1
        ],
        "metallicFactor": 0,
        "roughnessFactor": 0.59999999999999998
      }
    }
  ],
  "meshes": [
    {
      "name": "Mesh1_FrontColor_0",
      "primitives": [
        {
          "attributes": {
            "NORMAL": 1,
            "POSITION": 0,
            "TANGENT": 2
          },
          "indices": 3,
          "material": 0,
          "mode": 4
        }
      ]
    },
    {
      "name": "Mesh2__Color_E04_1_0",
      "primitives": [
        {
          "attributes": {
            "NORMAL": 5,
            "POSITION": 4,
            "TANGENT": 6
          },
          "indices": 7,
          "material": 1,
          "mode": 4
        }
      ]
    },
    {
      "name": "Mesh2_Color_F11_0",
      "primitives": [
        {
          "attributes": {
            "NORMAL": 9,
            "POSITION": 8,
            "TANGENT": 10
          },
          "indices": 11,
          "material": 2,
          "mode": 4
        }
      ]
    },
    {
      "name": "Mesh2_FrontColor_0",
      "primitives": [
        {
          "attributes": {
            "NORMAL": 13,
            "POSITION": 12,
            "TANGENT": 14
          },
          "indices": 15,
          "material": 0,
          "mode": 4
        }
      ]
    },
    {
      "name": "Mesh2_Translucent_Glass_Gray_0",
      "primitives": [
        {
          "attributes": {
            "NORMAL": 17,
            "POSITION": 16,
            "TANGENT": 18
          },
          "indices": 19,
          "material": 3,
          "mode": 4
        }
      ]
    },
    {
      "name": "Mesh2_Groundcover_Gravel_1inch_0",
      "primitives": [
        {
          "attributes": {
            "NORMAL": 21,
            "POSITION": 20,
            "TANGENT": 22
          },
          "indices": 23,
          "material": 4,
          "mode": 4
        }
      ]
    }
  ],
  "nodes": [
    {
      "children": [
        1
      ],
      "name": "RootNode (gltf orientation matrix)",
      "rotation": [
        -0.70710678118654746,
        -0,
        -0,
        0.70710678118654757
      ]
    },
    {
      "children": [
        2
      ],
      "name": "RootNode (model correction matrix)"
    },
    {
      "children": [
        3
      ],
      "matrix": [
        1,
        0,
        0,
        0,
        0,
        0,
        1,
        0,
        0,
        -1,
        0,
        0,
        0,
        0,
        0,
        1
      ],
      "name": "68dacc3def5344d8ab49e2ed4cbcb82b.fbx"
    },
    {
      "children": [
        4
      ],
      "name": "RootNode"
    },
    {
      "children": [
        5
      ],
      "name": "Model"
    },
    {
      "children": [
        6,
        9
      ],
      "name": "plantpot_malek1"
    },
    {
      "children": [
        7
      ],
      "name": "undersk_l1"
    },
    {
      "children": [
        8
      ],
      "name": "Mesh1"
    },
    {
      "mesh": 0,
      "name": "Mesh1_FrontColor_0"
    },
    {
      "children": [
        10,
        11,
        12,
        13,
        14
      ],
      "name": "Mesh2"
    },
    {
      "mesh": 1,
      "name": "Mesh2__Color_E04_1_0"
    },
    {
      "mesh": 2,
      "name": "Mesh2_Color_F11_0"
    },
    {
      "mesh": 3,
      "name": "Mesh2_FrontColor_0"
    },
    {
      "mesh": 4,
      "name": "Mesh2_Translucent_Glass_Gray_0"
    },
    {
      "mesh": 5,
      "name": "Mesh2_Groundcover_Gravel_1inch_0"
    }
  ],
  "scene": 0,
  "scenes": [
    {
      "name": "OSG_Scene",
      "nodes": [
        0
      ]
    }
  ]
}

