{
    "asset" : {
        "generator" : "Khronos glTF Blender I/O v1.5.17",
        "version" : "2.0"
    },
    "scene" : 0,
    "scenes" : [
        {
            "name" : "Scene",
            "nodes" : [
                5
            ]
        }
    ],
    "nodes" : [
        {
            "mesh" : 0,
            "name" : "WalletMastor_diffuse_lambert4_0"
        },
        {
            "children" : [
                0
            ],
            "name" : "WalletMastor_diffuse",
            "translation" : [
                0.26918697357177734,
                -1.2740546464920044,
                -11.827258110046387
            ]
        },
        {
            "children" : [
                1
            ],
            "name" : "group1"
        },
        {
            "children" : [
                2
            ],
            "name" : "RootNode"
        },
        {
            "children" : [
                3
            ],
            "name" : "WalletMastor_diffuse.fbx",
            "rotation" : [
                0.7071068286895752,
                0,
                0,
                0.7071068286895752
            ]
        },
        {
            "children" : [
                4
            ],
            "name" : "Sketchfab_model",
            "rotation" : [
                -0.7071068286895752,
                0,
                0,
                0.7071068286895752
            ]
        }
    ],
    "materials" : [
        {
            "doubleSided" : true,
            "name" : "lambert4",
            "pbrMetallicRoughness" : {
                "baseColorTexture" : {
                    "index" : 0
                },
                "metallicFactor" : 0,
                "roughnessFactor" : 0.6000000238418579
            }
        }
    ],
    "meshes" : [
        {
            "name" : "WalletMastor_diffuse_lambert4_0",
            "primitives" : [
                {
                    "attributes" : {
                        "POSITION" : 0,
                        "NORMAL" : 1,
                        "TEXCOORD_0" : 2
                    },
                    "indices" : 3,
                    "material" : 0
                }
            ]
        }
    ],
    "textures" : [
        {
            "sampler" : 0,
            "source" : 0
        }
    ],
    "images" : [
        {
            "bufferView" : 4,
            "mimeType" : "image/jpeg",
            "name" : "lambert4_baseColor"
        }
    ],
    "accessors" : [
        {
            "bufferView" : 0,
            "componentType" : 5126,
            "count" : 267,
            "max" : [
                12.315996170043945,
                2.4622645378112793,
                18.405845642089844
            ],
            "min" : [
                -12.85437297821045,
                0.09238727390766144,
                5.222797870635986
            ],
            "type" : "VEC3"
        },
        {
            "bufferView" : 1,
            "componentType" : 5126,
            "count" : 267,
            "type" : "VEC3"
        },
        {
            "bufferView" : 2,
            "componentType" : 5126,
            "count" : 267,
            "type" : "VEC2"
        },
        {
            "bufferView" : 3,
            "componentType" : 5123,
            "count" : 669,
            "type" : "SCALAR"
        }
    ],
    "bufferViews" : [
        {
            "buffer" : 0,
            "byteLength" : 3204,
            "byteOffset" : 0
        },
        {
            "buffer" : 0,
            "byteLength" : 3204,
            "byteOffset" : 3204
        },
        {
            "buffer" : 0,
            "byteLength" : 2136,
            "byteOffset" : 6408
        },
        {
            "buffer" : 0,
            "byteLength" : 1338,
            "byteOffset" : 8544
        },
        {
            "buffer" : 0,
            "byteLength" : 133533,
            "byteOffset" : 9884
        }
    ],
    "samplers" : [
        {
            "magFilter" : 9729,
            "minFilter" : 9987
        }
    ],
    "buffers" : [
        {
            "byteLength" : 143420,
            "uri" : "data:application/octet-stream;base64,"
        }
    ]
}
