{
    "asset" : {
        "generator" : "Khronos glTF Blender I/O v1.5.17",
        "version" : "2.0"
    },
    "scene" : 0,
    "scenes" : [
        {
            "name" : "Scene",
            "nodes" : [
                5
            ]
        }
    ],
    "nodes" : [
        {
            "mesh" : 0,
            "name" : "Mesh_0.013"
        },
        {
            "mesh" : 1,
            "name" : "Mesh_1.010"
        },
        {
            "mesh" : 2,
            "name" : "Mesh_2.008"
        },
        {
            "children" : [
                0,
                1,
                2
            ],
            "name" : "100715.obj.cleaner.materialmerger.gles"
        },
        {
            "children" : [
                3
            ],
            "name" : "RootNode (model correction matrix)"
        },
        {
            "children" : [
                4
            ],
            "name" : "RootNode (gltf orientation matrix)",
            "rotation" : [
                -0.7071068286895752,
                0,
                0,
                0.7071068286895752
            ]
        }
    ],
    "materials" : [
        {
            "doubleSided" : true,
            "name" : "06___Default",
            "pbrMetallicRoughness" : {
                "baseColorTexture" : {
                    "index" : 0
                },
                "metallicFactor" : 0
            }
        },
        {
            "doubleSided" : true,
            "name" : "07___Default",
            "pbrMetallicRoughness" : {
                "baseColorFactor" : [
                    0.21960000693798065,
                    0.18039999902248383,
                    0.1137000024318695,
                    1
                ],
                "roughnessFactor" : 0.9679909944534302
            }
        }
    ],
    "meshes" : [
        {
            "name" : "Mesh_0.013",
            "primitives" : [
                {
                    "attributes" : {
                        "POSITION" : 0,
                        "NORMAL" : 1,
                        "TEXCOORD_0" : 2
                    },
                    "indices" : 3,
                    "material" : 0
                }
            ]
        },
        {
            "name" : "Mesh_1.010",
            "primitives" : [
                {
                    "attributes" : {
                        "POSITION" : 4,
                        "NORMAL" : 5
                    },
                    "indices" : 6,
                    "material" : 1
                }
            ]
        },
        {
            "name" : "Mesh_2.008",
            "primitives" : [
                {
                    "attributes" : {
                        "POSITION" : 7,
                        "NORMAL" : 8
                    },
                    "indices" : 9,
                    "material" : 1
                }
            ]
        }
    ],
    "textures" : [
        {
            "sampler" : 0,
            "source" : 0
        }
    ],
    "images" : [
        {
            "bufferView" : 4,
            "mimeType" : "image/png",
            "name" : "06___Default_baseColor"
        }
    ],
    "accessors" : [
        {
            "bufferView" : 0,
            "componentType" : 5126,
            "count" : 22,
            "max" : [
                912.4061279296875,
                36.62601852416992,
                743.1390380859375
            ],
            "min" : [
                -298.4194641113281,
                -1176.6845703125,
                725.1785278320312
            ],
            "type" : "VEC3"
        },
        {
            "bufferView" : 1,
            "componentType" : 5126,
            "count" : 22,
            "type" : "VEC3"
        },
        {
            "bufferView" : 2,
            "componentType" : 5126,
            "count" : 22,
            "type" : "VEC2"
        },
        {
            "bufferView" : 3,
            "componentType" : 5123,
            "count" : 120,
            "type" : "SCALAR"
        },
        {
            "bufferView" : 5,
            "componentType" : 5126,
            "count" : 270,
            "max" : [
                689.2509155273438,
                -183.802490234375,
                711.32568359375
            ],
            "min" : [
                -69.10885620117188,
                -956.2775268554688,
                1.3616000413894653
            ],
            "type" : "VEC3"
        },
        {
            "bufferView" : 6,
            "componentType" : 5126,
            "count" : 270,
            "type" : "VEC3"
        },
        {
            "bufferView" : 7,
            "componentType" : 5123,
            "count" : 336,
            "type" : "SCALAR"
        },
        {
            "bufferView" : 8,
            "componentType" : 5126,
            "count" : 57,
            "max" : [
                689.412109375,
                -183.69903564453125,
                726.7726440429688
            ],
            "min" : [
                -69.1573486328125,
                -956.3797607421875,
                1.3616000413894653
            ],
            "type" : "VEC3"
        },
        {
            "bufferView" : 9,
            "componentType" : 5126,
            "count" : 57,
            "type" : "VEC3"
        },
        {
            "bufferView" : 10,
            "componentType" : 5123,
            "count" : 117,
            "type" : "SCALAR"
        }
    ],
    "bufferViews" : [
        {
            "buffer" : 0,
            "byteLength" : 264,
            "byteOffset" : 0
        },
        {
            "buffer" : 0,
            "byteLength" : 264,
            "byteOffset" : 264
        },
        {
            "buffer" : 0,
            "byteLength" : 176,
            "byteOffset" : 528
        },
        {
            "buffer" : 0,
            "byteLength" : 240,
            "byteOffset" : 704
        },
        {
            "buffer" : 0,
            "byteLength" : 366460,
            "byteOffset" : 944
        },
        {
            "buffer" : 0,
            "byteLength" : 3240,
            "byteOffset" : 367404
        },
        {
            "buffer" : 0,
            "byteLength" : 3240,
            "byteOffset" : 370644
        },
        {
            "buffer" : 0,
            "byteLength" : 672,
            "byteOffset" : 373884
        },
        {
            "buffer" : 0,
            "byteLength" : 684,
            "byteOffset" : 374556
        },
        {
            "buffer" : 0,
            "byteLength" : 684,
            "byteOffset" : 375240
        },
        {
            "buffer" : 0,
            "byteLength" : 234,
            "byteOffset" : 375924
        }
    ],
    "samplers" : [
        {
            "magFilter" : 9729,
            "minFilter" : 9987
        }
    ],
    "buffers" : [
        {
            "byteLength" : 376160,
            "uri" : "data:application/octet-stream;base64,"
        }
    ]
}
