{
  "accessors": [
    {
      "bufferView": 2,
      "componentType": 5126,
      "count": 2016,
      "max": [
        910.03057861328125,
        29.864700317382812,
        743.47882080078125
      ],
      "min": [
        -289.777099609375,
        -1169.9429931640625,
        724.9998779296875
      ],
      "type": "VEC3"
    },
    {
      "bufferView": 2,
      "byteOffset": 24192,
      "componentType": 5126,
      "count": 2016,
      "max": [
        0.99910897016525269,
        0.99911230802536011,
        0.99942851066589355
      ],
      "min": [
        -0.99911230802536011,
        -0.99911230802536011,
        -0.99942851066589355
      ],
      "type": "VEC3"
    },
    {
      "bufferView": 3,
      "componentType": 5126,
      "count": 2016,
      "max": [
        0.99703037738800049,
        0.98879045248031616,
        0.99944198131561279,
        1
      ],
      "min": [
        -0.99860072135925293,
        -0.99999946355819702,
        -0.99943751096725464,
        -1
      ],
      "type": "VEC4"
    },
    {
      "bufferView": 1,
      "componentType": 5126,
      "count": 2016,
      "max": [
        0.7523999810218811,
        0.7523999810218811
      ],
      "min": [
        0.2476000040769577,
        0.2476000040769577
      ],
      "type": "VEC2"
    },
    {
      "bufferView": 0,
      "componentType": 5125,
      "count": 12084,
      "max": [
        2015
      ],
      "min": [
        0
      ],
      "type": "SCALAR"
    },
    {
      "bufferView": 2,
      "byteOffset": 48384,
      "componentType": 5126,
      "count": 3990,
      "max": [
        689.256103515625,
        -183.79730224609375,
        726.7725830078125
      ],
      "min": [
        -69.114097595214844,
        -956.28277587890625,
        1.3616000413894653
      ],
      "type": "VEC3"
    },
    {
      "bufferView": 2,
      "byteOffset": 96264,
      "componentType": 5126,
      "count": 3990,
      "max": [
        1,
        0.99833083152770996,
        1
      ],
      "min": [
        -0.99817562103271484,
        -0.998848557472229,
        -1
      ],
      "type": "VEC3"
    },
    {
      "bufferView": 3,
      "byteOffset": 32256,
      "componentType": 5126,
      "count": 3990,
      "max": [
        0,
        0,
        0,
        1
      ],
      "min": [
        0,
        0,
        0,
        1
      ],
      "type": "VEC4"
    },
    {
      "bufferView": 0,
      "byteOffset": 48336,
      "componentType": 5125,
      "count": 6726,
      "max": [
        3989
      ],
      "min": [
        0
      ],
      "type": "SCALAR"
    },
    {
      "bufferView": 2,
      "byteOffset": 144144,
      "componentType": 5126,
      "count": 6195,
      "max": [
        689.3572998046875,
        -183.73919677734375,
        726.7725830078125
      ],
      "min": [
        -69.103897094726562,
        -956.3389892578125,
        1.3616000413894653
      ],
      "type": "VEC3"
    },
    {
      "bufferView": 2,
      "byteOffset": 218484,
      "componentType": 5126,
      "count": 6195,
      "max": [
        0.99972623586654663,
        0.99973088502883911,
        1
      ],
      "min": [
        -0.99973315000534058,
        -0.99973088502883911,
        -1
      ],
      "type": "VEC3"
    },
    {
      "bufferView": 3,
      "byteOffset": 96096,
      "componentType": 5126,
      "count": 6195,
      "max": [
        0,
        0,
        0,
        1
      ],
      "min": [
        0,
        0,
        0,
        1
      ],
      "type": "VEC4"
    },
    {
      "bufferView": 0,
      "byteOffset": 75240,
      "componentType": 5125,
      "count": 11832,
      "max": [
        6194
      ],
      "min": [
        0
      ],
      "type": "SCALAR"
    }
  ],
  "asset": {
    "extras": {
      "author": "Zuo Modern (https://sketchfab.com/zuo)",
      "license": "CC-BY-NC-ND-4.0 (http://creativecommons.org/licenses/by-nc-nd/4.0/)",
      "source": "https://sketchfab.com/models/d295e42a0eb74c9897806ea4fa7b41cd",
      "title": "Tintern Dining Table Stone & A. Brass - 100715"
    },
    "generator": "Sketchfab-3.20.7",
    "version": "2.0"
  },
  "bufferViews": [
    {
      "buffer": 0,
      "byteLength": 122568,
      "byteOffset": 0,
      "name": "floatBufferViews",
      "target": 34963
    },
    {
      "buffer": 0,
      "byteLength": 16128,
      "byteOffset": 122568,
      "byteStride": 8,
      "name": "floatBufferViews",
      "target": 34962
    },
    {
      "buffer": 0,
      "byteLength": 292824,
      "byteOffset": 138696,
      "byteStride": 12,
      "name": "floatBufferViews",
      "target": 34962
    },
    {
      "buffer": 0,
      "byteLength": 195216,
      "byteOffset": 431520,
      "byteStride": 16,
      "name": "floatBufferViews",
      "target": 34962
    }
  ],
  "buffers": [
    {
      "byteLength": 626736,
      "uri": "scene.bin"
    }
  ],
  "images": [
    {
      "uri": "textures/06___Default_baseColor.png"
    }
  ],
  "materials": [
    {
      "doubleSided": true,
      "emissiveFactor": [
        0,
        0,
        0
      ],
      "name": "06___Default",
      "pbrMetallicRoughness": {
        "baseColorFactor": [
          1,
          1,
          1,
          1
        ],
        "baseColorTexture": {
          "index": 0,
          "texCoord": 0
        },
        "metallicFactor": 0,
        "roughnessFactor": 1
      }
    },
    {
      "doubleSided": true,
      "emissiveFactor": [
        0,
        0,
        0
      ],
      "name": "07___Default",
      "pbrMetallicRoughness": {
        "baseColorFactor": [
          0.21959999999999999,
          0.1804,
          0.1137,
          1
        ],
        "metallicFactor": 1,
        "roughnessFactor": 0.96799097060000006
      }
    }
  ],
  "meshes": [
    {
      "primitives": [
        {
          "attributes": {
            "NORMAL": 1,
            "POSITION": 0,
            "TANGENT": 2,
            "TEXCOORD_0": 3
          },
          "indices": 4,
          "material": 0,
          "mode": 4
        }
      ]
    },
    {
      "primitives": [
        {
          "attributes": {
            "NORMAL": 6,
            "POSITION": 5,
            "TANGENT": 7
          },
          "indices": 8,
          "material": 1,
          "mode": 4
        }
      ]
    },
    {
      "primitives": [
        {
          "attributes": {
            "NORMAL": 10,
            "POSITION": 9,
            "TANGENT": 11
          },
          "indices": 12,
          "material": 1,
          "mode": 4
        }
      ]
    }
  ],
  "nodes": [
    {
      "children": [
        1
      ],
      "name": "RootNode (gltf orientation matrix)",
      "rotation": [
        -0.70710678118654746,
        -0,
        -0,
        0.70710678118654757
      ]
    },
    {
      "children": [
        2
      ],
      "name": "RootNode (model correction matrix)"
    },
    {
      "children": [
        3,
        4,
        5
      ],
      "name": "100715.obj.cleaner.materialmerger.gles"
    },
    {
      "mesh": 0,
      "name": ""
    },
    {
      "mesh": 1,
      "name": ""
    },
    {
      "mesh": 2,
      "name": ""
    }
  ],
  "samplers": [
    {
      "magFilter": 9729,
      "minFilter": 9987,
      "wrapS": 10497,
      "wrapT": 10497
    }
  ],
  "scene": 0,
  "scenes": [
    {
      "name": "OSG_Scene",
      "nodes": [
        0
      ]
    }
  ],
  "textures": [
    {
      "sampler": 0,
      "source": 0
    }
  ]
}

