{
    "asset" : {
        "generator" : "Khronos glTF Blender I/O v1.5.17",
        "version" : "2.0"
    },
    "scene" : 0,
    "scenes" : [
        {
            "name" : "Scene",
            "nodes" : [
                17
            ]
        }
    ],
    "nodes" : [
        {
            "mesh" : 0,
            "name" : "Mesh_1.008"
        },
        {
            "children" : [
                0
            ],
            "name" : "Door_3"
        },
        {
            "mesh" : 1,
            "name" : "Mesh_4.003"
        },
        {
            "children" : [
                2
            ],
            "name" : "Feet.001_6"
        },
        {
            "mesh" : 2,
            "name" : "Mesh_5.002"
        },
        {
            "children" : [
                4
            ],
            "name" : "Feet.002_7"
        },
        {
            "mesh" : 3,
            "name" : "Mesh_6.002"
        },
        {
            "children" : [
                6
            ],
            "name" : "Feet.003_8"
        },
        {
            "mesh" : 4,
            "name" : "Mesh_3.004"
        },
        {
            "children" : [
                8
            ],
            "name" : "Feet_5"
        },
        {
            "mesh" : 5,
            "name" : "Mesh_2.006"
        },
        {
            "children" : [
                10
            ],
            "name" : "Handle_4"
        },
        {
            "mesh" : 6,
            "name" : "Mesh_0.011"
        },
        {
            "children" : [
                12
            ],
            "name" : "Wardrobe_2"
        },
        {
            "children" : [
                1,
                3,
                5,
                7,
                9,
                11,
                13
            ],
            "name" : "GLTF_SceneRootNode",
            "rotation" : [
                0.7071068286895752,
                0,
                0,
                0.7071068286895752
            ]
        },
        {
            "children" : [
                14
            ],
            "name" : "root"
        },
        {
            "children" : [
                15
            ],
            "name" : "RootNode (model correction matrix)"
        },
        {
            "children" : [
                16
            ],
            "name" : "RootNode (gltf orientation matrix)",
            "rotation" : [
                -0.7071068286895752,
                0,
                0,
                0.7071068286895752
            ]
        }
    ],
    "materials" : [
        {
            "doubleSided" : true,
            "name" : "Main",
            "pbrMetallicRoughness" : {
                "baseColorTexture" : {
                    "index" : 0
                },
                "metallicFactor" : 0,
                "roughnessFactor" : 0.5
            }
        },
        {
            "doubleSided" : true,
            "name" : "silver",
            "pbrMetallicRoughness" : {
                "baseColorFactor" : [
                    0.800000011920929,
                    0.800000011920929,
                    0.800000011920929,
                    1
                ],
                "roughnessFactor" : 0.3090910017490387
            }
        }
    ],
    "meshes" : [
        {
            "name" : "Mesh_1.008",
            "primitives" : [
                {
                    "attributes" : {
                        "POSITION" : 0,
                        "NORMAL" : 1,
                        "TEXCOORD_0" : 2
                    },
                    "indices" : 3,
                    "material" : 0
                }
            ]
        },
        {
            "name" : "Mesh_4.003",
            "primitives" : [
                {
                    "attributes" : {
                        "POSITION" : 4,
                        "NORMAL" : 5,
                        "TEXCOORD_0" : 6
                    },
                    "indices" : 7,
                    "material" : 1
                }
            ]
        },
        {
            "name" : "Mesh_5.002",
            "primitives" : [
                {
                    "attributes" : {
                        "POSITION" : 8,
                        "NORMAL" : 9,
                        "TEXCOORD_0" : 10
                    },
                    "indices" : 7,
                    "material" : 1
                }
            ]
        },
        {
            "name" : "Mesh_6.002",
            "primitives" : [
                {
                    "attributes" : {
                        "POSITION" : 11,
                        "NORMAL" : 12,
                        "TEXCOORD_0" : 13
                    },
                    "indices" : 14,
                    "material" : 1
                }
            ]
        },
        {
            "name" : "Mesh_3.004",
            "primitives" : [
                {
                    "attributes" : {
                        "POSITION" : 15,
                        "NORMAL" : 16,
                        "TEXCOORD_0" : 17
                    },
                    "indices" : 7,
                    "material" : 1
                }
            ]
        },
        {
            "name" : "Mesh_2.006",
            "primitives" : [
                {
                    "attributes" : {
                        "POSITION" : 18,
                        "NORMAL" : 19,
                        "TEXCOORD_0" : 20
                    },
                    "indices" : 21,
                    "material" : 1
                }
            ]
        },
        {
            "name" : "Mesh_0.011",
            "primitives" : [
                {
                    "attributes" : {
                        "POSITION" : 22,
                        "NORMAL" : 23,
                        "TEXCOORD_0" : 24
                    },
                    "indices" : 25,
                    "material" : 0
                }
            ]
        }
    ],
    "textures" : [
        {
            "sampler" : 0,
            "source" : 0
        }
    ],
    "images" : [
        {
            "bufferView" : 4,
            "mimeType" : "image/jpeg",
            "name" : "Main_baseColor"
        }
    ],
    "accessors" : [
        {
            "bufferView" : 0,
            "componentType" : 5126,
            "count" : 56,
            "max" : [
                0.7210139632225037,
                2.135105609893799,
                0.31983593106269836
            ],
            "min" : [
                -0.7210139632225037,
                0.06526327133178711,
                0.3001176118850708
            ],
            "type" : "VEC3"
        },
        {
            "bufferView" : 1,
            "componentType" : 5126,
            "count" : 56,
            "type" : "VEC3"
        },
        {
            "bufferView" : 2,
            "componentType" : 5126,
            "count" : 56,
            "type" : "VEC2"
        },
        {
            "bufferView" : 3,
            "componentType" : 5123,
            "count" : 72,
            "type" : "SCALAR"
        },
        {
            "bufferView" : 5,
            "componentType" : 5126,
            "count" : 24,
            "max" : [
                -0.5659154057502747,
                0.04674140363931656,
                0.26187729835510254
            ],
            "min" : [
                -0.6683672070503235,
                0.000370146706700325,
                0.15942558646202087
            ],
            "type" : "VEC3"
        },
        {
            "bufferView" : 6,
            "componentType" : 5126,
            "count" : 24,
            "type" : "VEC3"
        },
        {
            "bufferView" : 7,
            "componentType" : 5126,
            "count" : 24,
            "type" : "VEC2"
        },
        {
            "bufferView" : 8,
            "componentType" : 5123,
            "count" : 36,
            "type" : "SCALAR"
        },
        {
            "bufferView" : 9,
            "componentType" : 5126,
            "count" : 24,
            "max" : [
                0.6683672666549683,
                0.04674140363931656,
                0.26187729835510254
            ],
            "min" : [
                0.565915584564209,
                0.0003701448440551758,
                0.15942558646202087
            ],
            "type" : "VEC3"
        },
        {
            "bufferView" : 10,
            "componentType" : 5126,
            "count" : 24,
            "type" : "VEC3"
        },
        {
            "bufferView" : 11,
            "componentType" : 5126,
            "count" : 24,
            "type" : "VEC2"
        },
        {
            "bufferView" : 12,
            "componentType" : 5126,
            "count" : 28,
            "max" : [
                -0.5659154057502747,
                0.04674140363931656,
                -0.15366560220718384
            ],
            "min" : [
                -0.6683672070503235,
                0.000370146706700325,
                -0.2561172544956207
            ],
            "type" : "VEC3"
        },
        {
            "bufferView" : 13,
            "componentType" : 5126,
            "count" : 28,
            "type" : "VEC3"
        },
        {
            "bufferView" : 14,
            "componentType" : 5126,
            "count" : 28,
            "type" : "VEC2"
        },
        {
            "bufferView" : 15,
            "componentType" : 5123,
            "count" : 36,
            "type" : "SCALAR"
        },
        {
            "bufferView" : 16,
            "componentType" : 5126,
            "count" : 24,
            "max" : [
                0.6683672666549683,
                0.04674140736460686,
                -0.15366561710834503
            ],
            "min" : [
                0.565915584564209,
                0.0003701448440551758,
                -0.2561173141002655
            ],
            "type" : "VEC3"
        },
        {
            "bufferView" : 17,
            "componentType" : 5126,
            "count" : 24,
            "type" : "VEC3"
        },
        {
            "bufferView" : 18,
            "componentType" : 5126,
            "count" : 24,
            "type" : "VEC2"
        },
        {
            "bufferView" : 19,
            "componentType" : 5126,
            "count" : 142,
            "max" : [
                0.13431158661842346,
                1.479513168334961,
                0.37603455781936646
            ],
            "min" : [
                -0.13431154191493988,
                0.8263569474220276,
                0.2991766333580017
            ],
            "type" : "VEC3"
        },
        {
            "bufferView" : 20,
            "componentType" : 5126,
            "count" : 142,
            "type" : "VEC3"
        },
        {
            "bufferView" : 21,
            "componentType" : 5126,
            "count" : 142,
            "type" : "VEC2"
        },
        {
            "bufferView" : 22,
            "componentType" : 5123,
            "count" : 318,
            "type" : "SCALAR"
        },
        {
            "bufferView" : 23,
            "componentType" : 5126,
            "count" : 66,
            "max" : [
                0.75,
                2.165184497833252,
                0.29999998211860657
            ],
            "min" : [
                -0.75,
                0.03518462926149368,
                -0.29999998211860657
            ],
            "type" : "VEC3"
        },
        {
            "bufferView" : 24,
            "componentType" : 5126,
            "count" : 66,
            "type" : "VEC3"
        },
        {
            "bufferView" : 25,
            "componentType" : 5126,
            "count" : 66,
            "type" : "VEC2"
        },
        {
            "bufferView" : 26,
            "componentType" : 5123,
            "count" : 84,
            "type" : "SCALAR"
        }
    ],
    "bufferViews" : [
        {
            "buffer" : 0,
            "byteLength" : 672,
            "byteOffset" : 0
        },
        {
            "buffer" : 0,
            "byteLength" : 672,
            "byteOffset" : 672
        },
        {
            "buffer" : 0,
            "byteLength" : 448,
            "byteOffset" : 1344
        },
        {
            "buffer" : 0,
            "byteLength" : 144,
            "byteOffset" : 1792
        },
        {
            "buffer" : 0,
            "byteLength" : 129323,
            "byteOffset" : 1936
        },
        {
            "buffer" : 0,
            "byteLength" : 288,
            "byteOffset" : 131260
        },
        {
            "buffer" : 0,
            "byteLength" : 288,
            "byteOffset" : 131548
        },
        {
            "buffer" : 0,
            "byteLength" : 192,
            "byteOffset" : 131836
        },
        {
            "buffer" : 0,
            "byteLength" : 72,
            "byteOffset" : 132028
        },
        {
            "buffer" : 0,
            "byteLength" : 288,
            "byteOffset" : 132100
        },
        {
            "buffer" : 0,
            "byteLength" : 288,
            "byteOffset" : 132388
        },
        {
            "buffer" : 0,
            "byteLength" : 192,
            "byteOffset" : 132676
        },
        {
            "buffer" : 0,
            "byteLength" : 336,
            "byteOffset" : 132868
        },
        {
            "buffer" : 0,
            "byteLength" : 336,
            "byteOffset" : 133204
        },
        {
            "buffer" : 0,
            "byteLength" : 224,
            "byteOffset" : 133540
        },
        {
            "buffer" : 0,
            "byteLength" : 72,
            "byteOffset" : 133764
        },
        {
            "buffer" : 0,
            "byteLength" : 288,
            "byteOffset" : 133836
        },
        {
            "buffer" : 0,
            "byteLength" : 288,
            "byteOffset" : 134124
        },
        {
            "buffer" : 0,
            "byteLength" : 192,
            "byteOffset" : 134412
        },
        {
            "buffer" : 0,
            "byteLength" : 1704,
            "byteOffset" : 134604
        },
        {
            "buffer" : 0,
            "byteLength" : 1704,
            "byteOffset" : 136308
        },
        {
            "buffer" : 0,
            "byteLength" : 1136,
            "byteOffset" : 138012
        },
        {
            "buffer" : 0,
            "byteLength" : 636,
            "byteOffset" : 139148
        },
        {
            "buffer" : 0,
            "byteLength" : 792,
            "byteOffset" : 139784
        },
        {
            "buffer" : 0,
            "byteLength" : 792,
            "byteOffset" : 140576
        },
        {
            "buffer" : 0,
            "byteLength" : 528,
            "byteOffset" : 141368
        },
        {
            "buffer" : 0,
            "byteLength" : 168,
            "byteOffset" : 141896
        }
    ],
    "samplers" : [
        {
            "magFilter" : 9729,
            "minFilter" : 9987
        }
    ],
    "buffers" : [
        {
            "byteLength" : 142064,
            "uri" : "data:application/octet-stream;base64,"
        }
    ]
}
