{
  "accessors": [
    {
      "bufferView": 2,
      "componentType": 5126,
      "count": 20,
      "max": [
        0.24658499658107758,
        0.098581902682781219,
        0.29829299449920654
      ],
      "min": [
        -0.2672480046749115,
        0.074687100946903229,
        -0.28814101219177246
      ],
      "type": "VEC3"
    },
    {
      "bufferView": 2,
      "byteOffset": 240,
      "componentType": 5126,
      "count": 20,
      "max": [
        0.87461787462234497,
        0,
        0.87461787462234497
      ],
      "min": [
        -0.87461787462234497,
        -1,
        -0.87461787462234497
      ],
      "type": "VEC3"
    },
    {
      "bufferView": 1,
      "componentType": 5126,
      "count": 20,
      "max": [
        0.15299500524997711,
        1.0471999645233154
      ],
      "min": [
        -0.02929689921438694,
        0.99837201833724976
      ],
      "type": "VEC2"
    },
    {
      "bufferView": 0,
      "componentType": 5125,
      "count": 30,
      "max": [
        19
      ],
      "min": [
        0
      ],
      "type": "SCALAR"
    },
    {
      "bufferView": 2,
      "byteOffset": 480,
      "componentType": 5126,
      "count": 15042,
      "max": [
        0.30755001306533813,
        0.098581902682781219,
        0.33091399073600769
      ],
      "min": [
        -0.30803200602531433,
        0.010838200338184834,
        -0.3381359875202179
      ],
      "type": "VEC3"
    },
    {
      "bufferView": 2,
      "byteOffset": 180984,
      "componentType": 5126,
      "count": 15042,
      "max": [
        0.87927371263504028,
        1,
        0.87935042381286621
      ],
      "min": [
        -0.87927371263504028,
        -1,
        -0.87935042381286621
      ],
      "type": "VEC3"
    },
    {
      "bufferView": 1,
      "byteOffset": 160,
      "componentType": 5126,
      "count": 15042,
      "max": [
        1,
        2.0049099922180176
      ],
      "min": [
        0,
        1
      ],
      "type": "VEC2"
    },
    {
      "bufferView": 0,
      "byteOffset": 120,
      "componentType": 5125,
      "count": 41358,
      "max": [
        15041
      ],
      "min": [
        0
      ],
      "type": "SCALAR"
    },
    {
      "bufferView": 2,
      "byteOffset": 361488,
      "componentType": 5126,
      "count": 2596,
      "max": [
        0.31205299496650696,
        0.043032299727201462,
        0.33496299386024475
      ],
      "min": [
        -0.29616400599479675,
        0.038433201611042023,
        -0.33377400040626526
      ],
      "type": "VEC3"
    },
    {
      "bufferView": 2,
      "byteOffset": 392640,
      "componentType": 5126,
      "count": 2596,
      "max": [
        0.94626134634017944,
        1,
        0.99082523584365845
      ],
      "min": [
        -0.94626134634017944,
        -1,
        -0.99082523584365845
      ],
      "type": "VEC3"
    },
    {
      "bufferView": 1,
      "byteOffset": 120496,
      "componentType": 5126,
      "count": 2596,
      "max": [
        1.5,
        3.5
      ],
      "min": [
        -0.5,
        1.5
      ],
      "type": "VEC2"
    },
    {
      "bufferView": 0,
      "byteOffset": 165552,
      "componentType": 5125,
      "count": 7752,
      "max": [
        2595
      ],
      "min": [
        0
      ],
      "type": "SCALAR"
    },
    {
      "bufferView": 2,
      "byteOffset": 423792,
      "componentType": 5126,
      "count": 65532,
      "max": [
        0.0019726799800992012,
        0.14435799419879913,
        0.13195599615573883
      ],
      "min": [
        -0.31637001037597656,
        0,
        -0.31825399398803711
      ],
      "type": "VEC3"
    },
    {
      "bufferView": 2,
      "byteOffset": 1210176,
      "componentType": 5126,
      "count": 65532,
      "max": [
        0.99978625774383545,
        0.99967974424362183,
        0.99955785274505615
      ],
      "min": [
        -0.99978625774383545,
        -0.99967974424362183,
        -0.99955785274505615
      ],
      "type": "VEC3"
    },
    {
      "bufferView": 1,
      "byteOffset": 141264,
      "componentType": 5126,
      "count": 65532,
      "max": [
        1,
        2
      ],
      "min": [
        0,
        1
      ],
      "type": "VEC2"
    },
    {
      "bufferView": 0,
      "byteOffset": 196560,
      "componentType": 5125,
      "count": 293556,
      "max": [
        65531
      ],
      "min": [
        0
      ],
      "type": "SCALAR"
    },
    {
      "bufferView": 2,
      "byteOffset": 1996560,
      "componentType": 5126,
      "count": 12615,
      "max": [
        -0.022383200004696846,
        0.10814099758863449,
        0.13626900315284729
      ],
      "min": [
        -0.31791099905967712,
        0,
        -0.32257598638534546
      ],
      "type": "VEC3"
    },
    {
      "bufferView": 2,
      "byteOffset": 2147940,
      "componentType": 5126,
      "count": 12615,
      "max": [
        0.99901151657104492,
        0.99967974424362183,
        0.99955785274505615
      ],
      "min": [
        -0.99901151657104492,
        -0.99967974424362183,
        -0.99955785274505615
      ],
      "type": "VEC3"
    },
    {
      "bufferView": 1,
      "byteOffset": 665520,
      "componentType": 5126,
      "count": 12615,
      "max": [
        1,
        2
      ],
      "min": [
        0,
        1
      ],
      "type": "VEC2"
    },
    {
      "bufferView": 0,
      "byteOffset": 1370784,
      "componentType": 5125,
      "count": 56424,
      "max": [
        12614
      ],
      "min": [
        0
      ],
      "type": "SCALAR"
    },
    {
      "bufferView": 2,
      "byteOffset": 2299320,
      "componentType": 5126,
      "count": 1078,
      "max": [
        -0.0036039398983120918,
        0.12154699862003326,
        0.20875799655914307
      ],
      "min": [
        -0.028633600100874901,
        0.11268000304698944,
        0.0052824001759290695
      ],
      "type": "VEC3"
    },
    {
      "bufferView": 2,
      "byteOffset": 2312256,
      "componentType": 5126,
      "count": 1078,
      "max": [
        0.99608564376831055,
        1,
        0.99841350317001343
      ],
      "min": [
        -0.99608564376831055,
        -1,
        -0.99841350317001343
      ],
      "type": "VEC3"
    },
    {
      "bufferView": 1,
      "byteOffset": 766440,
      "componentType": 5126,
      "count": 1078,
      "max": [
        1,
        2
      ],
      "min": [
        0,
        1
      ],
      "type": "VEC2"
    },
    {
      "bufferView": 0,
      "byteOffset": 1596480,
      "componentType": 5125,
      "count": 3948,
      "max": [
        1077
      ],
      "min": [
        0
      ],
      "type": "SCALAR"
    },
    {
      "bufferView": 2,
      "byteOffset": 2325192,
      "componentType": 5126,
      "count": 1582,
      "max": [
        -0.0088820504024624825,
        0.13033300638198853,
        0.20237399637699127
      ],
      "min": [
        -0.036238700151443481,
        0.10341399908065796,
        0.16996000707149506
      ],
      "type": "VEC3"
    },
    {
      "bufferView": 2,
      "byteOffset": 2344176,
      "componentType": 5126,
      "count": 1582,
      "max": [
        0.99596762657165527,
        1,
        0.9961516261100769
      ],
      "min": [
        -0.99596762657165527,
        -1,
        -0.9961516261100769
      ],
      "type": "VEC3"
    },
    {
      "bufferView": 1,
      "byteOffset": 775064,
      "componentType": 5126,
      "count": 1582,
      "max": [
        1,
        2
      ],
      "min": [
        0,
        1
      ],
      "type": "VEC2"
    },
    {
      "bufferView": 0,
      "byteOffset": 1612272,
      "componentType": 5125,
      "count": 6096,
      "max": [
        1581
      ],
      "min": [
        0
      ],
      "type": "SCALAR"
    },
    {
      "bufferView": 2,
      "byteOffset": 2363160,
      "componentType": 5126,
      "count": 904,
      "max": [
        0.0010352099779993296,
        0.12349700182676315,
        0.175928995013237
      ],
      "min": [
        -0.029157599434256554,
        0.11072999984025955,
        -0.025527000427246094
      ],
      "type": "VEC3"
    },
    {
      "bufferView": 2,
      "byteOffset": 2374008,
      "componentType": 5126,
      "count": 904,
      "max": [
        0.99608564376831055,
        0.99984776973724365,
        0.9961516261100769
      ],
      "min": [
        -0.99608564376831055,
        -0.99984776973724365,
        -0.9961516261100769
      ],
      "type": "VEC3"
    },
    {
      "bufferView": 1,
      "byteOffset": 787720,
      "componentType": 5126,
      "count": 904,
      "max": [
        1,
        2
      ],
      "min": [
        0,
        1
      ],
      "type": "VEC2"
    },
    {
      "bufferView": 0,
      "byteOffset": 1636656,
      "componentType": 5125,
      "count": 3240,
      "max": [
        903
      ],
      "min": [
        0
      ],
      "type": "SCALAR"
    },
    {
      "bufferView": 2,
      "byteOffset": 2384856,
      "componentType": 5126,
      "count": 1402,
      "max": [
        -0.018018199130892754,
        0.14341999590396881,
        -0.10783199965953827
      ],
      "min": [
        -0.025713900104165077,
        0.13404199481010437,
        -0.12655700743198395
      ],
      "type": "VEC3"
    },
    {
      "bufferView": 2,
      "byteOffset": 2401680,
      "componentType": 5126,
      "count": 1402,
      "max": [
        0.71829408407211304,
        0.73384004831314087,
        0.98808532953262329
      ],
      "min": [
        -0.71829408407211304,
        -0.73384004831314087,
        -0.98808532953262329
      ],
      "type": "VEC3"
    },
    {
      "bufferView": 1,
      "byteOffset": 794952,
      "componentType": 5126,
      "count": 1402,
      "max": [
        1,
        2
      ],
      "min": [
        0,
        1
      ],
      "type": "VEC2"
    },
    {
      "bufferView": 0,
      "byteOffset": 1649616,
      "componentType": 5125,
      "count": 3996,
      "max": [
        1401
      ],
      "min": [
        0
      ],
      "type": "SCALAR"
    },
    {
      "bufferView": 2,
      "byteOffset": 2418504,
      "componentType": 5126,
      "count": 2179,
      "max": [
        0.31791099905967712,
        0.052230700850486755,
        0.3381359875202179
      ],
      "min": [
        -0.29031598567962646,
        0.047631498426198959,
        -0.33087900280952454
      ],
      "type": "VEC3"
    },
    {
      "bufferView": 2,
      "byteOffset": 2444652,
      "componentType": 5126,
      "count": 2179,
      "max": [
        0.98269897699356079,
        1,
        0.96300649642944336
      ],
      "min": [
        -0.98269897699356079,
        -1,
        -0.96300649642944336
      ],
      "type": "VEC3"
    },
    {
      "bufferView": 1,
      "byteOffset": 806168,
      "componentType": 5126,
      "count": 2179,
      "max": [
        1.5,
        3.5
      ],
      "min": [
        -0.5,
        1.5
      ],
      "type": "VEC2"
    },
    {
      "bufferView": 0,
      "byteOffset": 1665600,
      "componentType": 5125,
      "count": 6444,
      "max": [
        2178
      ],
      "min": [
        0
      ],
      "type": "SCALAR"
    },
    {
      "bufferView": 2,
      "byteOffset": 2470800,
      "componentType": 5126,
      "count": 5326,
      "max": [
        0.026368100196123123,
        0.13519300520420074,
        0.18744899332523346
      ],
      "min": [
        -0.037781700491905212,
        0.098581902682781219,
        -0.18124200403690338
      ],
      "type": "VEC3"
    },
    {
      "bufferView": 2,
      "byteOffset": 2534712,
      "componentType": 5126,
      "count": 5326,
      "max": [
        0.99667352437973022,
        1,
        0.99882465600967407
      ],
      "min": [
        -0.99667352437973022,
        -1,
        -0.99882465600967407
      ],
      "type": "VEC3"
    },
    {
      "bufferView": 1,
      "byteOffset": 823600,
      "componentType": 5126,
      "count": 5326,
      "max": [
        1,
        2
      ],
      "min": [
        0,
        1
      ],
      "type": "VEC2"
    },
    {
      "bufferView": 0,
      "byteOffset": 1691376,
      "componentType": 5125,
      "count": 17304,
      "max": [
        5325
      ],
      "min": [
        0
      ],
      "type": "SCALAR"
    }
  ],
  "asset": {
    "extras": {
      "author": "Artistjodi (https://sketchfab.com/Artistjodi)",
      "license": "CC-BY-NC-ND-4.0 (http://creativecommons.org/licenses/by-nc-nd/4.0/)",
      "source": "https://sketchfab.com/3d-models/notebook-939b5587e99148e89e5f919201cda14b",
      "title": "Notebook"
    },
    "generator": "Sketchfab-10.23.0",
    "version": "2.0"
  },
  "bufferViews": [
    {
      "buffer": 0,
      "byteLength": 1760592,
      "byteOffset": 0,
      "name": "floatBufferViews",
      "target": 34963
    },
    {
      "buffer": 0,
      "byteLength": 866208,
      "byteOffset": 1760592,
      "byteStride": 8,
      "name": "floatBufferViews",
      "target": 34962
    },
    {
      "buffer": 0,
      "byteLength": 2598624,
      "byteOffset": 2626800,
      "byteStride": 12,
      "name": "floatBufferViews",
      "target": 34962
    }
  ],
  "buffers": [
    {
      "byteLength": 5225424,
      "uri": "scene.bin"
    }
  ],
  "images": [
    {
      "uri": "textures/ID_155bd63454-8eb5-fa44-84c7-4c8cfa1f28f4_16_baseColor.jpeg"
    },
    {
      "uri": "textures/ID_1520ab8f46-2424-a745-a676-af6c7faa4efc_16_baseColor.png"
    },
    {
      "uri": "textures/ID_1573b98ae9-826d-3a4a-b989-159e5f116758_16_baseColor.jpeg"
    },
    {
      "uri": "textures/ID_1563a69b59-cdb0-5441-a013-99f66112ebcc_16_baseColor.jpeg"
    }
  ],
  "materials": [
    {
      "doubleSided": true,
      "emissiveFactor": [
        0,
        0,
        0
      ],
      "name": "ID_155bd63454-8eb5-fa44-84c7-4c8cfa1f28f4_16",
      "pbrMetallicRoughness": {
        "baseColorFactor": [
          1,
          1,
          1,
          1
        ],
        "baseColorTexture": {
          "index": 0,
          "texCoord": 0
        },
        "metallicFactor": 0,
        "roughnessFactor": 0.4638039141174235
      }
    },
    {
      "alphaCutoff": 1,
      "alphaMode": "MASK",
      "doubleSided": true,
      "emissiveFactor": [
        0,
        0,
        0
      ],
      "name": "ID_1520ab8f46-2424-a745-a676-af6c7faa4efc_16",
      "pbrMetallicRoughness": {
        "baseColorFactor": [
          1,
          1,
          1,
          1
        ],
        "baseColorTexture": {
          "index": 1,
          "texCoord": 0
        },
        "metallicFactor": 0,
        "roughnessFactor": 1
      }
    },
    {
      "doubleSided": true,
      "emissiveFactor": [
        0,
        0,
        0
      ],
      "name": "ID_1573b98ae9-826d-3a4a-b989-159e5f116758_16",
      "pbrMetallicRoughness": {
        "baseColorFactor": [
          1,
          1,
          1,
          1
        ],
        "baseColorTexture": {
          "index": 2,
          "texCoord": 0
        },
        "metallicFactor": 0,
        "roughnessFactor": 0.39692190765722973
      }
    },
    {
      "doubleSided": true,
      "emissiveFactor": [
        0,
        0,
        0
      ],
      "name": "ID_1563a69b59-cdb0-5441-a013-99f66112ebcc_16",
      "pbrMetallicRoughness": {
        "baseColorFactor": [
          1,
          1,
          1,
          1
        ],
        "baseColorTexture": {
          "index": 3,
          "texCoord": 0
        },
        "metallicFactor": 0,
        "roughnessFactor": 0.53068592057761732
      }
    },
    {
      "doubleSided": true,
      "emissiveFactor": [
        0,
        0,
        0
      ],
      "name": "ID_152e3a737a-1cba-374c-b168-d4c4c0725747_16",
      "pbrMetallicRoughness": {
        "baseColorFactor": [
          1,
          1,
          1,
          1
        ],
        "metallicFactor": 1,
        "roughnessFactor": 0.34163024890746718
      }
    },
    {
      "doubleSided": true,
      "emissiveFactor": [
        0,
        0,
        0
      ],
      "name": "ID_152b1293f1-2a70-8146-8dfc-21371a6ea673_16",
      "pbrMetallicRoughness": {
        "baseColorFactor": [
          0.030488511677590136,
          0.030488511677590136,
          0.035640812458961862,
          1
        ],
        "metallicFactor": 0,
        "roughnessFactor": 0.95594297840354003
      }
    },
    {
      "doubleSided": true,
      "emissiveFactor": [
        0,
        0,
        0
      ],
      "name": "ID_15d3431336-5166-4749-b6e3-b79ef1e206f8_16",
      "pbrMetallicRoughness": {
        "baseColorFactor": [
          1,
          1,
          1,
          1
        ],
        "metallicFactor": 0,
        "roughnessFactor": 1
      }
    },
    {
      "doubleSided": true,
      "emissiveFactor": [
        0,
        0,
        0
      ],
      "name": "ID_15de94720a-93fd-ea49-957a-14d2e31349e7_16",
      "pbrMetallicRoughness": {
        "baseColorFactor": [
          1,
          1,
          1,
          1
        ],
        "metallicFactor": 0,
        "roughnessFactor": 0
      }
    },
    {
      "doubleSided": true,
      "emissiveFactor": [
        0,
        0,
        0
      ],
      "name": "ID_15f2f38339-bd0a-c74d-af56-4a7a4dd4703b_16_42amVlCBgBZHBNGTnMdyjsU_6_4_reflection",
      "pbrMetallicRoughness": {
        "baseColorFactor": [
          0.98809800000000003,
          0.99624599999999996,
          0.99607800000000002,
          1
        ],
        "metallicFactor": 0,
        "roughnessFactor": 0
      }
    },
    {
      "doubleSided": true,
      "emissiveFactor": [
        0,
        0,
        0
      ],
      "name": "ID_15f26cb8f5-1202-694e-b4ad-93ff250b8bb0_16",
      "pbrMetallicRoughness": {
        "baseColorFactor": [
          0.89800000000000002,
          0.89800000000000002,
          0.89800000000000002,
          1
        ],
        "metallicFactor": 0,
        "roughnessFactor": 1
      }
    }
  ],
  "meshes": [
    {
      "name": "material-1",
      "primitives": [
        {
          "attributes": {
            "NORMAL": 1,
            "POSITION": 0,
            "TEXCOORD_0": 2
          },
          "indices": 3,
          "material": 1,
          "mode": 4
        }
      ]
    },
    {
      "name": "material-0",
      "primitives": [
        {
          "attributes": {
            "NORMAL": 5,
            "POSITION": 4,
            "TEXCOORD_0": 6
          },
          "indices": 7,
          "material": 0,
          "mode": 4
        }
      ]
    },
    {
      "name": "material-2",
      "primitives": [
        {
          "attributes": {
            "NORMAL": 9,
            "POSITION": 8,
            "TEXCOORD_0": 10
          },
          "indices": 11,
          "material": 2,
          "mode": 4
        }
      ]
    },
    {
      "name": "material-4",
      "primitives": [
        {
          "attributes": {
            "NORMAL": 13,
            "POSITION": 12,
            "TEXCOORD_0": 14
          },
          "indices": 15,
          "material": 4,
          "mode": 4
        }
      ]
    },
    {
      "name": "material-4",
      "primitives": [
        {
          "attributes": {
            "NORMAL": 17,
            "POSITION": 16,
            "TEXCOORD_0": 18
          },
          "indices": 19,
          "material": 4,
          "mode": 4
        }
      ]
    },
    {
      "name": "material-5",
      "primitives": [
        {
          "attributes": {
            "NORMAL": 21,
            "POSITION": 20,
            "TEXCOORD_0": 22
          },
          "indices": 23,
          "material": 5,
          "mode": 4
        }
      ]
    },
    {
      "name": "material-6",
      "primitives": [
        {
          "attributes": {
            "NORMAL": 25,
            "POSITION": 24,
            "TEXCOORD_0": 26
          },
          "indices": 27,
          "material": 6,
          "mode": 4
        }
      ]
    },
    {
      "name": "material-7",
      "primitives": [
        {
          "attributes": {
            "NORMAL": 29,
            "POSITION": 28,
            "TEXCOORD_0": 30
          },
          "indices": 31,
          "material": 7,
          "mode": 4
        }
      ]
    },
    {
      "name": "material-10",
      "primitives": [
        {
          "attributes": {
            "NORMAL": 33,
            "POSITION": 32,
            "TEXCOORD_0": 34
          },
          "indices": 35,
          "material": 9,
          "mode": 4
        }
      ]
    },
    {
      "name": "material-3",
      "primitives": [
        {
          "attributes": {
            "NORMAL": 37,
            "POSITION": 36,
            "TEXCOORD_0": 38
          },
          "indices": 39,
          "material": 3,
          "mode": 4
        }
      ]
    },
    {
      "name": "material-8",
      "primitives": [
        {
          "attributes": {
            "NORMAL": 41,
            "POSITION": 40,
            "TEXCOORD_0": 42
          },
          "indices": 43,
          "material": 8,
          "mode": 4
        }
      ]
    }
  ],
  "nodes": [
    {
      "children": [
        1
      ],
      "name": "RootNode (gltf orientation matrix)",
      "rotation": [
        -0.70710678118654746,
        -0,
        -0,
        0.70710678118654757
      ]
    },
    {
      "children": [
        2
      ],
      "name": "RootNode (model correction matrix)"
    },
    {
      "children": [
        3
      ],
      "matrix": [
        1,
        0,
        0,
        0,
        0,
        -4.3711390063094768e-08,
        0.999999999999999,
        0,
        0,
        -0.999999999999999,
        -4.3711390063094768e-08,
        0,
        0,
        0,
        0,
        1
      ],
      "name": "Collada visual scene group"
    },
    {
      "children": [
        4
      ],
      "matrix": [
        0.38338299999999997,
        2.6286999999999999e-08,
        -0.441023,
        0,
        -2.6286999999999999e-08,
        0.58436600000000005,
        1.19795e-08,
        0,
        0.44102200000000003,
        1.19795e-08,
        0.38338299999999997,
        0,
        0,
        7.10543e-15,
        -1.1920900000000001e-07,
        1
      ],
      "name": "Furniture"
    },
    {
      "children": [
        5,
        6,
        7,
        8,
        9,
        10,
        11,
        12,
        13,
        14,
        15
      ],
      "name": "mesh_node"
    },
    {
      "mesh": 0,
      "name": "material-1"
    },
    {
      "mesh": 1,
      "name": "material-0"
    },
    {
      "mesh": 2,
      "name": "material-2"
    },
    {
      "mesh": 3,
      "name": "material-4"
    },
    {
      "mesh": 4,
      "name": "material-4"
    },
    {
      "mesh": 5,
      "name": "material-5"
    },
    {
      "mesh": 6,
      "name": "material-6"
    },
    {
      "mesh": 7,
      "name": "material-7"
    },
    {
      "mesh": 8,
      "name": "material-10"
    },
    {
      "mesh": 9,
      "name": "material-3"
    },
    {
      "mesh": 10,
      "name": "material-8"
    }
  ],
  "samplers": [
    {
      "magFilter": 9729,
      "minFilter": 9987,
      "wrapS": 10497,
      "wrapT": 10497
    }
  ],
  "scene": 0,
  "scenes": [
    {
      "name": "OSG_Scene",
      "nodes": [
        0
      ]
    }
  ],
  "textures": [
    {
      "sampler": 0,
      "source": 0
    },
    {
      "sampler": 0,
      "source": 1
    },
    {
      "sampler": 0,
      "source": 2
    },
    {
      "sampler": 0,
      "source": 3
    }
  ]
}

