{
  "accessors": [
    {
      "bufferView": 2,
      "componentType": 5126,
      "count": 16645,
      "max": [
        12.766648292541504,
        12.773548126220703,
        32.433769226074219
      ],
      "min": [
        -12.791793823242188,
        -12.765891075134277,
        -17.616094589233398
      ],
      "type": "VEC3"
    },
    {
      "bufferView": 2,
      "byteOffset": 199740,
      "componentType": 5126,
      "count": 16645,
      "max": [
        0.99999827146530151,
        0.99997943639755249,
        1
      ],
      "min": [
        -0.99999469518661499,
        -0.99992871284484863,
        -1
      ],
      "type": "VEC3"
    },
    {
      "bufferView": 3,
      "componentType": 5126,
      "count": 16645,
      "max": [
        0.99999701976776123,
        0.99999898672103882,
        0.99989557266235352,
        1
      ],
      "min": [
        -0.99999982118606567,
        -0.99999964237213135,
        -0.9999992847442627,
        -1
      ],
      "type": "VEC4"
    },
    {
      "bufferView": 1,
      "componentType": 5126,
      "count": 16645,
      "max": [
        0.9949989914894104,
        0.99501001834869385
      ],
      "min": [
        0.0042119999416172504,
        0.0042119999416172504
      ],
      "type": "VEC2"
    },
    {
      "bufferView": 0,
      "componentType": 5125,
      "count": 83868,
      "max": [
        16644
      ],
      "min": [
        0
      ],
      "type": "SCALAR"
    }
  ],
  "asset": {
    "extras": {
      "author": "RomanGurd (https://sketchfab.com/RomanGurd)",
      "license": "CC-BY-4.0 (http://creativecommons.org/licenses/by/4.0/)",
      "source": "https://sketchfab.com/3d-models/cage-lamp-6b3848ec358e458c8807e51bbe0bf0b4",
      "title": "Cage Lamp"
    },
    "generator": "Sketchfab-9.0.0",
    "version": "2.0"
  },
  "bufferViews": [
    {
      "buffer": 0,
      "byteLength": 335472,
      "byteOffset": 0,
      "name": "floatBufferViews",
      "target": 34963
    },
    {
      "buffer": 0,
      "byteLength": 133160,
      "byteOffset": 335472,
      "byteStride": 8,
      "name": "floatBufferViews",
      "target": 34962
    },
    {
      "buffer": 0,
      "byteLength": 399480,
      "byteOffset": 468632,
      "byteStride": 12,
      "name": "floatBufferViews",
      "target": 34962
    },
    {
      "buffer": 0,
      "byteLength": 266320,
      "byteOffset": 868112,
      "byteStride": 16,
      "name": "floatBufferViews",
      "target": 34962
    }
  ],
  "buffers": [
    {
      "byteLength": 1134432,
      "uri": "scene.bin"
    }
  ],
  "images": [
    {
      "uri": "textures/CageCandle_lp_5_lp_default_baseColor.png"
    },
    {
      "uri": "textures/CageCandle_lp_5_lp_default_metallicRoughness.png"
    },
    {
      "uri": "textures/CageCandle_lp_5_lp_default_emissive.png"
    },
    {
      "uri": "textures/CageCandle_lp_5_lp_default_normal.png"
    }
  ],
  "materials": [
    {
      "doubleSided": true,
      "emissiveFactor": [
        1,
        1,
        1
      ],
      "emissiveTexture": {
        "index": 2,
        "texCoord": 0
      },
      "name": "CageCandle_lp_5_lp_default",
      "normalTexture": {
        "index": 3,
        "scale": 1,
        "texCoord": 0
      },
      "occlusionTexture": {
        "index": 1,
        "strength": 1,
        "texCoord": 0
      },
      "pbrMetallicRoughness": {
        "baseColorFactor": [
          1,
          1,
          1,
          1
        ],
        "baseColorTexture": {
          "index": 0,
          "texCoord": 0
        },
        "metallicFactor": 1,
        "metallicRoughnessTexture": {
          "index": 1,
          "texCoord": 0
        },
        "roughnessFactor": 1
      }
    }
  ],
  "meshes": [
    {
      "name": "CageCandle_CageCandle_lp_5_lp_default_0",
      "primitives": [
        {
          "attributes": {
            "NORMAL": 1,
            "POSITION": 0,
            "TANGENT": 2,
            "TEXCOORD_0": 3
          },
          "indices": 4,
          "material": 0,
          "mode": 4
        }
      ]
    }
  ],
  "nodes": [
    {
      "children": [
        1
      ],
      "name": "RootNode (gltf orientation matrix)",
      "rotation": [
        -0.70710678118654746,
        -0,
        -0,
        0.70710678118654757
      ]
    },
    {
      "children": [
        2
      ],
      "name": "RootNode (model correction matrix)"
    },
    {
      "children": [
        3
      ],
      "matrix": [
        1,
        0,
        0,
        0,
        0,
        0,
        1,
        0,
        0,
        -1,
        0,
        0,
        0,
        0,
        0,
        1
      ],
      "name": "b96daa2f2f474fa88beaad16cc97f2d7.fbx"
    },
    {
      "children": [
        4
      ],
      "name": "RootNode"
    },
    {
      "children": [
        5
      ],
      "matrix": [
        1,
        0,
        0,
        0,
        0,
        2.2204460492503131e-16,
        -1,
        0,
        0,
        1,
        2.2204460492503131e-16,
        0,
        0,
        0,
        0,
        1
      ],
      "name": "CageCandle"
    },
    {
      "mesh": 0,
      "name": "CageCandle_CageCandle_lp_5_lp_default_0"
    }
  ],
  "samplers": [
    {
      "magFilter": 9729,
      "minFilter": 9987,
      "wrapS": 10497,
      "wrapT": 10497
    }
  ],
  "scene": 0,
  "scenes": [
    {
      "name": "OSG_Scene",
      "nodes": [
        0
      ]
    }
  ],
  "textures": [
    {
      "sampler": 0,
      "source": 0
    },
    {
      "sampler": 0,
      "source": 1
    },
    {
      "sampler": 0,
      "source": 2
    },
    {
      "sampler": 0,
      "source": 3
    }
  ]
}

