{
    "asset" : {
        "generator" : "Khronos glTF Blender I/O v1.5.17",
        "version" : "2.0"
    },
    "scene" : 0,
    "scenes" : [
        {
            "name" : "Scene",
            "nodes" : [
                8
            ]
        }
    ],
    "nodes" : [
        {
            "mesh" : 0,
            "name" : "bath_01_low_lambert1_0"
        },
        {
            "children" : [
                0
            ],
            "name" : "bath_01_low"
        },
        {
            "mesh" : 1,
            "name" : "bath_04_low_lambert1_0"
        },
        {
            "children" : [
                2
            ],
            "name" : "bath_04_low"
        },
        {
            "children" : [
                1,
                3
            ],
            "name" : "bath_low",
            "scale" : [
                0.03280840069055557,
                0.03280840069055557,
                0.03280840069055557
            ]
        },
        {
            "children" : [
                4
            ],
            "name" : "RootNode"
        },
        {
            "children" : [
                5
            ],
            "name" : "bath_low.fbx",
            "rotation" : [
                0.7071068286895752,
                0,
                0,
                0.7071068286895752
            ]
        },
        {
            "children" : [
                6
            ],
            "name" : "RootNode (model correction matrix)"
        },
        {
            "children" : [
                7
            ],
            "name" : "RootNode (gltf orientation matrix)",
            "rotation" : [
                -0.7071068286895752,
                0,
                0,
                0.7071068286895752
            ]
        }
    ],
    "materials" : [
        {
            "doubleSided" : true,
            "name" : "lambert1.001",
            "normalTexture" : {
                "index" : 0
            },
            "occlusionTexture" : {
                "index" : 1
            },
            "pbrMetallicRoughness" : {
                "baseColorTexture" : {
                    "index" : 2
                },
                "metallicRoughnessTexture" : {
                    "index" : 1
                }
            }
        }
    ],
    "meshes" : [
        {
            "name" : "bath_01_low_lambert1_0",
            "primitives" : [
                {
                    "attributes" : {
                        "POSITION" : 0,
                        "NORMAL" : 1,
                        "TEXCOORD_0" : 2
                    },
                    "indices" : 3,
                    "material" : 0
                }
            ]
        },
        {
            "name" : "bath_04_low_lambert1_0",
            "primitives" : [
                {
                    "attributes" : {
                        "POSITION" : 4,
                        "NORMAL" : 5,
                        "TEXCOORD_0" : 6
                    },
                    "indices" : 7,
                    "material" : 0
                }
            ]
        }
    ],
    "textures" : [
        {
            "sampler" : 0,
            "source" : 0
        },
        {
            "sampler" : 0,
            "source" : 1
        },
        {
            "sampler" : 0,
            "source" : 2
        }
    ],
    "images" : [
        {
            "bufferView" : 4,
            "mimeType" : "image/png",
            "name" : "lambert1_normal"
        },
        {
            "bufferView" : 5,
            "mimeType" : "image/png",
            "name" : "lambert1_metallicRoughness"
        },
        {
            "bufferView" : 6,
            "mimeType" : "image/png",
            "name" : "lambert1_baseColor"
        }
    ],
    "accessors" : [
        {
            "bufferView" : 0,
            "componentType" : 5126,
            "count" : 323,
            "max" : [
                190.00936889648438,
                154.6526336669922,
                78.3257064819336
            ],
            "min" : [
                -150.98402404785156,
                23.215734481811523,
                -78.38435363769531
            ],
            "type" : "VEC3"
        },
        {
            "bufferView" : 1,
            "componentType" : 5126,
            "count" : 323,
            "type" : "VEC3"
        },
        {
            "bufferView" : 2,
            "componentType" : 5126,
            "count" : 323,
            "type" : "VEC2"
        },
        {
            "bufferView" : 3,
            "componentType" : 5123,
            "count" : 804,
            "type" : "SCALAR"
        },
        {
            "bufferView" : 7,
            "componentType" : 5126,
            "count" : 616,
            "max" : [
                116.38277435302734,
                47.22096633911133,
                67.69001770019531
            ],
            "min" : [
                -94.83953094482422,
                -0.34158992767333984,
                -67.76217651367188
            ],
            "type" : "VEC3"
        },
        {
            "bufferView" : 8,
            "componentType" : 5126,
            "count" : 616,
            "type" : "VEC3"
        },
        {
            "bufferView" : 9,
            "componentType" : 5126,
            "count" : 616,
            "type" : "VEC2"
        },
        {
            "bufferView" : 10,
            "componentType" : 5123,
            "count" : 1056,
            "type" : "SCALAR"
        }
    ],
    "bufferViews" : [
        {
            "buffer" : 0,
            "byteLength" : 3876,
            "byteOffset" : 0
        },
        {
            "buffer" : 0,
            "byteLength" : 3876,
            "byteOffset" : 3876
        },
        {
            "buffer" : 0,
            "byteLength" : 2584,
            "byteOffset" : 7752
        },
        {
            "buffer" : 0,
            "byteLength" : 1608,
            "byteOffset" : 10336
        },
        {
            "buffer" : 0,
            "byteLength" : 424185,
            "byteOffset" : 11944
        },
        {
            "buffer" : 0,
            "byteLength" : 266847,
            "byteOffset" : 436132
        },
        {
            "buffer" : 0,
            "byteLength" : 274886,
            "byteOffset" : 702980
        },
        {
            "buffer" : 0,
            "byteLength" : 7392,
            "byteOffset" : 977868
        },
        {
            "buffer" : 0,
            "byteLength" : 7392,
            "byteOffset" : 985260
        },
        {
            "buffer" : 0,
            "byteLength" : 4928,
            "byteOffset" : 992652
        },
        {
            "buffer" : 0,
            "byteLength" : 2112,
            "byteOffset" : 997580
        }
    ],
    "samplers" : [
        {
            "magFilter" : 9729,
            "minFilter" : 9987
        }
    ],
    "buffers" : [
        {
            "byteLength" : 999692,
            "uri" : "data:application/octet-stream;base64,"
        }
    ]
}
