{
    "asset" : {
        "generator" : "Khronos glTF Blender I/O v1.5.17",
        "version" : "2.0"
    },
    "scene" : 0,
    "scenes" : [
        {
            "name" : "Scene",
            "nodes" : [
                7
            ]
        }
    ],
    "nodes" : [
        {
            "mesh" : 0,
            "name" : "Mesh_0.005"
        },
        {
            "mesh" : 1,
            "name" : "Mesh_1.003"
        },
        {
            "name" : "_rootJoint",
            "rotation" : [
                -0.7071068286895752,
                0,
                0,
                0.7071068286895752
            ]
        },
        {
            "children" : [
                0,
                1,
                2
            ],
            "name" : "Armature"
        },
        {
            "children" : [
                3
            ],
            "name" : "RootNode"
        },
        {
            "children" : [
                4
            ],
            "name" : "e008719f6b504c47b6a752217d44d4e0.fbx",
            "rotation" : [
                0.7071068286895752,
                0,
                0,
                0.7071068286895752
            ]
        },
        {
            "children" : [
                5
            ],
            "name" : "RootNode (model correction matrix)"
        },
        {
            "children" : [
                6
            ],
            "name" : "RootNode (gltf orientation matrix)",
            "rotation" : [
                -0.7071068286895752,
                0,
                0,
                0.7071068286895752
            ]
        }
    ],
    "materials" : [
        {
            "doubleSided" : true,
            "name" : "plant",
            "normalTexture" : {
                "index" : 0,
                "scale" : 0.9285442233085632
            },
            "pbrMetallicRoughness" : {
                "baseColorTexture" : {
                    "index" : 1
                },
                "metallicFactor" : 0,
                "roughnessFactor" : 0.6000000238418579
            }
        },
        {
            "alphaMode" : "BLEND",
            "doubleSided" : true,
            "name" : "Leaf2",
            "normalTexture" : {
                "index" : 2,
                "scale" : 0.7395198345184326
            },
            "pbrMetallicRoughness" : {
                "baseColorTexture" : {
                    "index" : 3
                },
                "metallicFactor" : 0,
                "roughnessFactor" : 0.6000000238418579
            }
        }
    ],
    "meshes" : [
        {
            "name" : "Mesh_0.005",
            "primitives" : [
                {
                    "attributes" : {
                        "POSITION" : 0,
                        "NORMAL" : 1,
                        "TEXCOORD_0" : 2
                    },
                    "indices" : 3,
                    "material" : 0
                }
            ]
        },
        {
            "name" : "Mesh_1.003",
            "primitives" : [
                {
                    "attributes" : {
                        "POSITION" : 4,
                        "NORMAL" : 5,
                        "TEXCOORD_0" : 6
                    },
                    "indices" : 7,
                    "material" : 1
                }
            ]
        }
    ],
    "textures" : [
        {
            "sampler" : 0,
            "source" : 0
        },
        {
            "sampler" : 0,
            "source" : 1
        },
        {
            "sampler" : 0,
            "source" : 2
        },
        {
            "sampler" : 0,
            "source" : 3
        }
    ],
    "images" : [
        {
            "bufferView" : 4,
            "mimeType" : "image/png",
            "name" : "plant_normal"
        },
        {
            "bufferView" : 5,
            "mimeType" : "image/png",
            "name" : "plant_baseColor"
        },
        {
            "bufferView" : 10,
            "mimeType" : "image/png",
            "name" : "Leaf2_normal"
        },
        {
            "bufferView" : 11,
            "mimeType" : "image/png",
            "name" : "Leaf2_baseColor"
        }
    ],
    "accessors" : [
        {
            "bufferView" : 0,
            "componentType" : 5126,
            "count" : 331,
            "max" : [
                1.249032974243164,
                5.576590538024902,
                1.2501296997070312
            ],
            "min" : [
                -1.072216272354126,
                -0.00555872917175293,
                -1.1746201515197754
            ],
            "type" : "VEC3"
        },
        {
            "bufferView" : 1,
            "componentType" : 5126,
            "count" : 331,
            "type" : "VEC3"
        },
        {
            "bufferView" : 2,
            "componentType" : 5126,
            "count" : 331,
            "type" : "VEC2"
        },
        {
            "bufferView" : 3,
            "componentType" : 5123,
            "count" : 678,
            "type" : "SCALAR"
        },
        {
            "bufferView" : 6,
            "componentType" : 5126,
            "count" : 240,
            "max" : [
                1.9142653942108154,
                5.483982086181641,
                1.9135150909423828
            ],
            "min" : [
                -1.8644697666168213,
                0.707093358039856,
                -1.9144500494003296
            ],
            "type" : "VEC3"
        },
        {
            "bufferView" : 7,
            "componentType" : 5126,
            "count" : 240,
            "type" : "VEC3"
        },
        {
            "bufferView" : 8,
            "componentType" : 5126,
            "count" : 240,
            "type" : "VEC2"
        },
        {
            "bufferView" : 9,
            "componentType" : 5123,
            "count" : 810,
            "type" : "SCALAR"
        }
    ],
    "bufferViews" : [
        {
            "buffer" : 0,
            "byteLength" : 3972,
            "byteOffset" : 0
        },
        {
            "buffer" : 0,
            "byteLength" : 3972,
            "byteOffset" : 3972
        },
        {
            "buffer" : 0,
            "byteLength" : 2648,
            "byteOffset" : 7944
        },
        {
            "buffer" : 0,
            "byteLength" : 1356,
            "byteOffset" : 10592
        },
        {
            "buffer" : 0,
            "byteLength" : 939477,
            "byteOffset" : 11948
        },
        {
            "buffer" : 0,
            "byteLength" : 693016,
            "byteOffset" : 951428
        },
        {
            "buffer" : 0,
            "byteLength" : 2880,
            "byteOffset" : 1644444
        },
        {
            "buffer" : 0,
            "byteLength" : 2880,
            "byteOffset" : 1647324
        },
        {
            "buffer" : 0,
            "byteLength" : 1920,
            "byteOffset" : 1650204
        },
        {
            "buffer" : 0,
            "byteLength" : 1620,
            "byteOffset" : 1652124
        },
        {
            "buffer" : 0,
            "byteLength" : 245670,
            "byteOffset" : 1653744
        },
        {
            "buffer" : 0,
            "byteLength" : 190559,
            "byteOffset" : 1899416
        }
    ],
    "samplers" : [
        {
            "magFilter" : 9729,
            "minFilter" : 9987
        }
    ],
    "buffers" : [
        {
            "byteLength" : 2089976,
            "uri" : "data:application/octet-stream;base64,"
        }
    ]
}
