{
  "accessors": [
    {
      "bufferView": 2,
      "componentType": 5126,
      "count": 840,
      "max": [
        1.8315980434417725,
        3.1322619915008545,
        0.044284999370574951
      ],
      "min": [
        -1.8213499784469604,
        -3.117142915725708,
        -0.0099510001018643379
      ],
      "type": "VEC3"
    },
    {
      "bufferView": 2,
      "byteOffset": 10080,
      "componentType": 5126,
      "count": 840,
      "max": [
        0.72844964265823364,
        0.68726658821105957,
        1
      ],
      "min": [
        -0.72263056039810181,
        -0.73611390590667725,
        -1
      ],
      "type": "VEC3"
    },
    {
      "bufferView": 3,
      "componentType": 5126,
      "count": 840,
      "max": [
        1,
        0.66651749610900879,
        0.71156251430511475,
        1
      ],
      "min": [
        0,
        -0.61578065156936646,
        -0.71156299114227295,
        -1
      ],
      "type": "VEC4"
    },
    {
      "bufferView": 1,
      "componentType": 5126,
      "count": 840,
      "max": [
        0.78754299879074097,
        0.96013301610946655
      ],
      "min": [
        0.25096699595451355,
        0.036579001694917679
      ],
      "type": "VEC2"
    },
    {
      "bufferView": 0,
      "componentType": 5125,
      "count": 4992,
      "max": [
        839
      ],
      "min": [
        0
      ],
      "type": "SCALAR"
    },
    {
      "bufferView": 2,
      "byteOffset": 20160,
      "componentType": 5126,
      "count": 2348,
      "max": [
        2.0305769443511963,
        3.3393290042877197,
        0.066831000149250031
      ],
      "min": [
        -2.034466028213501,
        -3.3037259578704834,
        -0.02565700002014637
      ],
      "type": "VEC3"
    },
    {
      "bufferView": 2,
      "byteOffset": 48336,
      "componentType": 5126,
      "count": 2348,
      "max": [
        0.99998009204864502,
        0.99990248680114746,
        0.99999320507049561
      ],
      "min": [
        -0.99999547004699707,
        -0.99996435642242432,
        -0.99999856948852539
      ],
      "type": "VEC3"
    },
    {
      "bufferView": 3,
      "byteOffset": 13440,
      "componentType": 5126,
      "count": 2348,
      "max": [
        1,
        1,
        0.99999505281448364,
        1
      ],
      "min": [
        -0.76099854707717896,
        -0.75662386417388916,
        -0.99999153614044189,
        -1
      ],
      "type": "VEC4"
    },
    {
      "bufferView": 1,
      "byteOffset": 6720,
      "componentType": 5126,
      "count": 2348,
      "max": [
        0.99984902143478394,
        0.3524940013885498
      ],
      "min": [
        0.00015100000018719584,
        0.00015100000018719584
      ],
      "type": "VEC2"
    },
    {
      "bufferView": 0,
      "byteOffset": 19968,
      "componentType": 5125,
      "count": 12432,
      "max": [
        2347
      ],
      "min": [
        0
      ],
      "type": "SCALAR"
    }
  ],
  "asset": {
    "extras": {
      "author": "zeg.ai (https://sketchfab.com/zeg.ai)",
      "license": "CC-BY-4.0 (http://creativecommons.org/licenses/by/4.0/)",
      "source": "https://sketchfab.com/3d-models/rug-fb0a0301abf6431485b70e497aa3f5bc",
      "title": "Rug"
    },
    "generator": "Sketchfab-6.84.0",
    "version": "2.0"
  },
  "bufferViews": [
    {
      "buffer": 0,
      "byteLength": 69696,
      "byteOffset": 0,
      "name": "floatBufferViews",
      "target": 34963
    },
    {
      "buffer": 0,
      "byteLength": 25504,
      "byteOffset": 69696,
      "byteStride": 8,
      "name": "floatBufferViews",
      "target": 34962
    },
    {
      "buffer": 0,
      "byteLength": 76512,
      "byteOffset": 95200,
      "byteStride": 12,
      "name": "floatBufferViews",
      "target": 34962
    },
    {
      "buffer": 0,
      "byteLength": 51008,
      "byteOffset": 171712,
      "byteStride": 16,
      "name": "floatBufferViews",
      "target": 34962
    }
  ],
  "buffers": [
    {
      "byteLength": 222720,
      "uri": "scene.bin"
    }
  ],
  "images": [
    {
      "uri": "textures/Rug_center_baseColor.png"
    },
    {
      "uri": "textures/Rug_center_metallicRoughness.png"
    },
    {
      "uri": "textures/Rug_center_normal.png"
    },
    {
      "uri": "textures/Rug_outer_mat_baseColor.png"
    },
    {
      "uri": "textures/Rug_outer_mat_normal.png"
    }
  ],
  "materials": [
    {
      "doubleSided": true,
      "name": "Rug_center",
      "normalTexture": {
        "index": 2,
        "scale": 0.97122713409999994,
        "texCoord": 0
      },
      "pbrMetallicRoughness": {
        "baseColorFactor": [
          1,
          1,
          1,
          1
        ],
        "baseColorTexture": {
          "index": 0,
          "texCoord": 0
        },
        "metallicFactor": 1,
        "metallicRoughnessTexture": {
          "index": 1,
          "texCoord": 0
        },
        "roughnessFactor": 0.62366615849999996
      }
    },
    {
      "doubleSided": true,
      "name": "Rug_outer_mat",
      "normalTexture": {
        "index": 4,
        "scale": 0.46512957319999998,
        "texCoord": 0
      },
      "pbrMetallicRoughness": {
        "baseColorFactor": [
          1,
          1,
          1,
          1
        ],
        "baseColorTexture": {
          "index": 3,
          "texCoord": 0
        },
        "metallicFactor": 1,
        "metallicRoughnessTexture": {
          "index": 1,
          "texCoord": 0
        },
        "roughnessFactor": 1
      }
    }
  ],
  "meshes": [
    {
      "primitives": [
        {
          "attributes": {
            "NORMAL": 1,
            "POSITION": 0,
            "TANGENT": 2,
            "TEXCOORD_0": 3
          },
          "indices": 4,
          "material": 0,
          "mode": 4
        }
      ]
    },
    {
      "primitives": [
        {
          "attributes": {
            "NORMAL": 6,
            "POSITION": 5,
            "TANGENT": 7,
            "TEXCOORD_0": 8
          },
          "indices": 9,
          "material": 1,
          "mode": 4
        }
      ]
    }
  ],
  "nodes": [
    {
      "children": [
        1
      ],
      "name": "RootNode (gltf orientation matrix)",
      "rotation": [
        -0.70710678118654746,
        -0,
        -0,
        0.70710678118654757
      ]
    },
    {
      "children": [
        2
      ],
      "name": "RootNode (model correction matrix)"
    },
    {
      "children": [
        3,
        4
      ],
      "name": "ce0a01f2734f41668ddead298975495f.obj.cleaner.materialmerger.gles"
    },
    {
      "mesh": 0,
      "name": ""
    },
    {
      "mesh": 1,
      "name": ""
    }
  ],
  "samplers": [
    {
      "magFilter": 9729,
      "minFilter": 9987,
      "wrapS": 10497,
      "wrapT": 10497
    }
  ],
  "scene": 0,
  "scenes": [
    {
      "name": "OSG_Scene",
      "nodes": [
        0
      ]
    }
  ],
  "textures": [
    {
      "sampler": 0,
      "source": 0
    },
    {
      "sampler": 0,
      "source": 1
    },
    {
      "sampler": 0,
      "source": 2
    },
    {
      "sampler": 0,
      "source": 3
    },
    {
      "sampler": 0,
      "source": 4
    }
  ]
}

