{
    "asset" : {
        "generator" : "Khronos glTF Blender I/O v1.5.17",
        "version" : "2.0"
    },
    "scene" : 0,
    "scenes" : [
        {
            "name" : "Scene",
            "nodes" : [
                7
            ]
        }
    ],
    "nodes" : [
        {
            "mesh" : 0,
            "name" : "Henrik_Hand_Tufted_Wool_Rug_Grey_and_RedMulti_120x180cm_HENRIK_"
        },
        {
            "children" : [
                0
            ],
            "name" : "Henrik_Hand_Tufted_Wool_Rug_Grey_and_RedMulti_120x180cm",
            "rotation" : [
                -0.7071068286895752,
                0,
                0,
                0.7071068286895752
            ]
        },
        {
            "mesh" : 1,
            "name" : "Plane001_FLOOR_0"
        },
        {
            "children" : [
                2
            ],
            "name" : "Plane001",
            "rotation" : [
                -0.7071068286895752,
                0,
                0,
                0.7071068286895752
            ]
        },
        {
            "children" : [
                1,
                3
            ],
            "name" : "RootNode"
        },
        {
            "children" : [
                4
            ],
            "name" : "f01adbfefa6f4f88a558e7ac270fee3c.fbx",
            "rotation" : [
                0.7071068286895752,
                0,
                0,
                0.7071068286895752
            ]
        },
        {
            "children" : [
                5
            ],
            "name" : "RootNode (model correction matrix)"
        },
        {
            "children" : [
                6
            ],
            "name" : "RootNode (gltf orientation matrix)",
            "rotation" : [
                -0.7071068286895752,
                0,
                0,
                0.7071068286895752
            ]
        }
    ],
    "materials" : [
        {
            "doubleSided" : true,
            "name" : "HENRIK_LARGE_WOOL_RUG",
            "normalTexture" : {
                "index" : 0,
                "scale" : 0.6968368887901306
            },
            "pbrMetallicRoughness" : {
                "baseColorTexture" : {
                    "index" : 1
                },
                "metallicFactor" : 0,
                "roughnessFactor" : 0.8929713368415833
            }
        },
        {
            "alphaMode" : "BLEND",
            "doubleSided" : true,
            "name" : "FLOOR",
            "pbrMetallicRoughness" : {
                "baseColorFactor" : [
                    0,
                    0,
                    0,
                    1
                ],
                "baseColorTexture" : {
                    "index" : 2
                },
                "metallicFactor" : 0
            }
        }
    ],
    "meshes" : [
        {
            "name" : "Henrik_Hand_Tufted_Wool_Rug_Grey_and_RedMulti_120x180cm_HENRIK_",
            "primitives" : [
                {
                    "attributes" : {
                        "POSITION" : 0,
                        "NORMAL" : 1,
                        "TEXCOORD_0" : 2,
                        "TEXCOORD_1" : 3
                    },
                    "indices" : 4,
                    "material" : 0
                }
            ]
        },
        {
            "name" : "Plane001_FLOOR_0",
            "primitives" : [
                {
                    "attributes" : {
                        "POSITION" : 5,
                        "NORMAL" : 6,
                        "TEXCOORD_0" : 7
                    },
                    "indices" : 8,
                    "material" : 1
                }
            ]
        }
    ],
    "textures" : [
        {
            "sampler" : 0,
            "source" : 0
        },
        {
            "sampler" : 0,
            "source" : 1
        },
        {
            "sampler" : 0,
            "source" : 2
        }
    ],
    "images" : [
        {
            "bufferView" : 5,
            "mimeType" : "image/png",
            "name" : "HENRIK_LARGE_WOOL_RUG_normal"
        },
        {
            "bufferView" : 6,
            "mimeType" : "image/jpeg",
            "name" : "HENRIK_LARGE_WOOL_RUG_baseColor"
        },
        {
            "bufferView" : 11,
            "mimeType" : "image/png",
            "name" : "FLOOR_baseColor"
        }
    ],
    "accessors" : [
        {
            "bufferView" : 0,
            "componentType" : 5126,
            "count" : 26,
            "max" : [
                119.59777069091797,
                79.91911315917969,
                2.4563138484954834
            ],
            "min" : [
                -119.56790924072266,
                -79.58329010009766,
                0.29325762391090393
            ],
            "type" : "VEC3"
        },
        {
            "bufferView" : 1,
            "componentType" : 5126,
            "count" : 26,
            "type" : "VEC3"
        },
        {
            "bufferView" : 2,
            "componentType" : 5126,
            "count" : 26,
            "type" : "VEC2"
        },
        {
            "bufferView" : 3,
            "componentType" : 5126,
            "count" : 26,
            "type" : "VEC2"
        },
        {
            "bufferView" : 4,
            "componentType" : 5123,
            "count" : 48,
            "type" : "SCALAR"
        },
        {
            "bufferView" : 7,
            "componentType" : 5126,
            "count" : 4,
            "max" : [
                222.51390075683594,
                222.51390075683594,
                0
            ],
            "min" : [
                -222.51390075683594,
                -222.51390075683594,
                0
            ],
            "type" : "VEC3"
        },
        {
            "bufferView" : 8,
            "componentType" : 5126,
            "count" : 4,
            "type" : "VEC3"
        },
        {
            "bufferView" : 9,
            "componentType" : 5126,
            "count" : 4,
            "type" : "VEC2"
        },
        {
            "bufferView" : 10,
            "componentType" : 5123,
            "count" : 6,
            "type" : "SCALAR"
        }
    ],
    "bufferViews" : [
        {
            "buffer" : 0,
            "byteLength" : 312,
            "byteOffset" : 0
        },
        {
            "buffer" : 0,
            "byteLength" : 312,
            "byteOffset" : 312
        },
        {
            "buffer" : 0,
            "byteLength" : 208,
            "byteOffset" : 624
        },
        {
            "buffer" : 0,
            "byteLength" : 208,
            "byteOffset" : 832
        },
        {
            "buffer" : 0,
            "byteLength" : 96,
            "byteOffset" : 1040
        },
        {
            "buffer" : 0,
            "byteLength" : 403466,
            "byteOffset" : 1136
        },
        {
            "buffer" : 0,
            "byteLength" : 802163,
            "byteOffset" : 404604
        },
        {
            "buffer" : 0,
            "byteLength" : 48,
            "byteOffset" : 1206768
        },
        {
            "buffer" : 0,
            "byteLength" : 48,
            "byteOffset" : 1206816
        },
        {
            "buffer" : 0,
            "byteLength" : 32,
            "byteOffset" : 1206864
        },
        {
            "buffer" : 0,
            "byteLength" : 12,
            "byteOffset" : 1206896
        },
        {
            "buffer" : 0,
            "byteLength" : 27190,
            "byteOffset" : 1206908
        }
    ],
    "samplers" : [
        {
            "magFilter" : 9729,
            "minFilter" : 9987
        }
    ],
    "buffers" : [
        {
            "byteLength" : 1234100,
            "uri" : "data:application/octet-stream;base64,"
        }
    ]
}
