{
    "asset" : {
        "generator" : "Khronos glTF Blender I/O v1.5.17",
        "version" : "2.0"
    },
    "scene" : 0,
    "scenes" : [
        {
            "name" : "Scene",
            "nodes" : [
                6
            ]
        }
    ],
    "nodes" : [
        {
            "mesh" : 0,
            "name" : "Object001_Object001_mtl_0"
        },
        {
            "children" : [
                0
            ],
            "name" : "Node_5",
            "translation" : [
                0,
                0,
                0.566864013671875
            ]
        },
        {
            "children" : [
                1
            ],
            "name" : "Object001",
            "rotation" : [
                -0.7071068286895752,
                0,
                0,
                0.7071068286895752
            ],
            "translation" : [
                0,
                -0.566864013671875,
                0
            ]
        },
        {
            "children" : [
                2
            ],
            "name" : "RootNode"
        },
        {
            "children" : [
                3
            ],
            "name" : "Bedside Table.fbx",
            "rotation" : [
                0.7071068286895752,
                0,
                0,
                0.7071068286895752
            ]
        },
        {
            "children" : [
                4
            ],
            "name" : "RootNode (model correction matrix)"
        },
        {
            "children" : [
                5
            ],
            "name" : "RootNode (gltf orientation matrix)",
            "rotation" : [
                -0.7071068286895752,
                0,
                0,
                0.7071068286895752
            ]
        }
    ],
    "materials" : [
        {
            "doubleSided" : true,
            "name" : "Object001_mtl.002",
            "pbrMetallicRoughness" : {
                "baseColorTexture" : {
                    "index" : 0
                },
                "metallicFactor" : 0,
                "roughnessFactor" : 0.8929713368415833
            }
        }
    ],
    "meshes" : [
        {
            "name" : "Object001_Object001_mtl_0",
            "primitives" : [
                {
                    "attributes" : {
                        "POSITION" : 0,
                        "NORMAL" : 1,
                        "TEXCOORD_0" : 2,
                        "TEXCOORD_1" : 3
                    },
                    "indices" : 4,
                    "material" : 0
                }
            ]
        }
    ],
    "textures" : [
        {
            "sampler" : 0,
            "source" : 0
        }
    ],
    "images" : [
        {
            "bufferView" : 5,
            "mimeType" : "image/jpeg",
            "name" : "Object001_mtl_baseColor"
        }
    ],
    "accessors" : [
        {
            "bufferView" : 0,
            "componentType" : 5126,
            "count" : 247,
            "max" : [
                8.423574447631836,
                8.065573692321777,
                25.105693817138672
            ],
            "min" : [
                -8.425607681274414,
                -8.050457954406738,
                -0.5367621183395386
            ],
            "type" : "VEC3"
        },
        {
            "bufferView" : 1,
            "componentType" : 5126,
            "count" : 247,
            "type" : "VEC3"
        },
        {
            "bufferView" : 2,
            "componentType" : 5126,
            "count" : 247,
            "type" : "VEC2"
        },
        {
            "bufferView" : 3,
            "componentType" : 5126,
            "count" : 247,
            "type" : "VEC2"
        },
        {
            "bufferView" : 4,
            "componentType" : 5123,
            "count" : 441,
            "type" : "SCALAR"
        }
    ],
    "bufferViews" : [
        {
            "buffer" : 0,
            "byteLength" : 2964,
            "byteOffset" : 0
        },
        {
            "buffer" : 0,
            "byteLength" : 2964,
            "byteOffset" : 2964
        },
        {
            "buffer" : 0,
            "byteLength" : 1976,
            "byteOffset" : 5928
        },
        {
            "buffer" : 0,
            "byteLength" : 1976,
            "byteOffset" : 7904
        },
        {
            "buffer" : 0,
            "byteLength" : 882,
            "byteOffset" : 9880
        },
        {
            "buffer" : 0,
            "byteLength" : 49436,
            "byteOffset" : 10764
        }
    ],
    "samplers" : [
        {
            "magFilter" : 9729,
            "minFilter" : 9987
        }
    ],
    "buffers" : [
        {
            "byteLength" : 60200,
            "uri" : "data:application/octet-stream;base64,"
        }
    ]
}
