{
    "asset" : {
        "generator" : "Khronos glTF Blender I/O v1.5.17",
        "version" : "2.0"
    },
    "scene" : 0,
    "scenes" : [
        {
            "name" : "Scene",
            "nodes" : [
                5
            ]
        }
    ],
    "nodes" : [
        {
            "mesh" : 0,
            "name" : "Cube__0"
        },
        {
            "children" : [
                0
            ],
            "name" : "Cube",
            "rotation" : [
                0,
                0.7071068286895752,
                0.7071068286895752,
                5.338508302088485e-08
            ],
            "scale" : [
                -41.04253387451172,
                -41.04253387451172,
                -41.04253387451172
            ],
            "translation" : [
                -1.3231277465820312,
                -91.25699615478516,
                3.9006710052490234
            ]
        },
        {
            "children" : [
                1
            ],
            "name" : "RootNode"
        },
        {
            "children" : [
                2
            ],
            "name" : "ff817df80d5748a4812f81d26cf3d6a0.fbx",
            "rotation" : [
                0.7071068286895752,
                0,
                0,
                0.7071068286895752
            ]
        },
        {
            "children" : [
                3
            ],
            "name" : "RootNode (model correction matrix)"
        },
        {
            "children" : [
                4
            ],
            "name" : "RootNode (gltf orientation matrix)",
            "rotation" : [
                -0.7071068286895752,
                0,
                0,
                0.7071068286895752
            ]
        }
    ],
    "materials" : [
        {
            "doubleSided" : true,
            "name" : "Scene_-_Root.001",
            "pbrMetallicRoughness" : {
                "baseColorTexture" : {
                    "index" : 0
                },
                "metallicRoughnessTexture" : {
                    "index" : 1
                }
            }
        }
    ],
    "meshes" : [
        {
            "name" : "Cube__0",
            "primitives" : [
                {
                    "attributes" : {
                        "POSITION" : 0,
                        "NORMAL" : 1,
                        "TEXCOORD_0" : 2
                    },
                    "indices" : 3,
                    "material" : 0
                }
            ]
        }
    ],
    "textures" : [
        {
            "sampler" : 0,
            "source" : 0
        },
        {
            "sampler" : 0,
            "source" : 1
        }
    ],
    "images" : [
        {
            "bufferView" : 4,
            "mimeType" : "image/jpeg",
            "name" : "Scene_-_Root_baseColor"
        },
        {
            "bufferView" : 5,
            "mimeType" : "image/png",
            "name" : "Scene_-_Root_metallicRoughness"
        }
    ],
    "accessors" : [
        {
            "bufferView" : 0,
            "componentType" : 5126,
            "count" : 279,
            "max" : [
                7.0831451416015625,
                1.4649608135223389,
                -2.2284319400787354
            ],
            "min" : [
                -6.982146739959717,
                -0.6230446100234985,
                -10.829854011535645
            ],
            "type" : "VEC3"
        },
        {
            "bufferView" : 1,
            "componentType" : 5126,
            "count" : 279,
            "type" : "VEC3"
        },
        {
            "bufferView" : 2,
            "componentType" : 5126,
            "count" : 279,
            "type" : "VEC2"
        },
        {
            "bufferView" : 3,
            "componentType" : 5123,
            "count" : 327,
            "type" : "SCALAR"
        }
    ],
    "bufferViews" : [
        {
            "buffer" : 0,
            "byteLength" : 3348,
            "byteOffset" : 0
        },
        {
            "buffer" : 0,
            "byteLength" : 3348,
            "byteOffset" : 3348
        },
        {
            "buffer" : 0,
            "byteLength" : 2232,
            "byteOffset" : 6696
        },
        {
            "buffer" : 0,
            "byteLength" : 654,
            "byteOffset" : 8928
        },
        {
            "buffer" : 0,
            "byteLength" : 53188,
            "byteOffset" : 9584
        },
        {
            "buffer" : 0,
            "byteLength" : 6291,
            "byteOffset" : 62772
        }
    ],
    "samplers" : [
        {
            "magFilter" : 9729,
            "minFilter" : 9987
        }
    ],
    "buffers" : [
        {
            "byteLength" : 69064,
            "uri" : "data:application/octet-stream;base64,"
        }
    ]
}
