{
  "accessors": [
    {
      "bufferView": 2,
      "componentType": 5126,
      "count": 96,
      "max": [
        475.99993896484375,
        140.65951538085938,
        5.0003972053527832
      ],
      "min": [
        -140,
        -475.33511352539062,
        -0.00028673824272118509
      ],
      "type": "VEC3"
    },
    {
      "bufferView": 2,
      "byteOffset": 1152,
      "componentType": 5126,
      "count": 96,
      "max": [
        1,
        1,
        1
      ],
      "min": [
        -1,
        -1,
        -1
      ],
      "type": "VEC3"
    },
    {
      "bufferView": 3,
      "componentType": 5126,
      "count": 96,
      "max": [
        1,
        1,
        1,
        1
      ],
      "min": [
        -1,
        -1,
        -1,
        -1
      ],
      "type": "VEC4"
    },
    {
      "bufferView": 1,
      "componentType": 5126,
      "count": 96,
      "max": [
        1.1846809387207031,
        1.1798336505889893
      ],
      "min": [
        -0.18468093872070312,
        -0.18465512990951538
      ],
      "type": "VEC2"
    },
    {
      "bufferView": 0,
      "componentType": 5125,
      "count": 144,
      "max": [
        95
      ],
      "min": [
        0
      ],
      "type": "SCALAR"
    },
    {
      "bufferView": 2,
      "byteOffset": 2304,
      "componentType": 5126,
      "count": 26520,
      "max": [
        315.32977294921875,
        147.501708984375,
        10.000287055969238
      ],
      "min": [
        -315.00177001953125,
        -482.50009155273438,
        -15.000181198120117
      ],
      "type": "VEC3"
    },
    {
      "bufferView": 2,
      "byteOffset": 320544,
      "componentType": 5126,
      "count": 26520,
      "max": [
        1,
        1,
        1
      ],
      "min": [
        -1,
        -1,
        -1
      ],
      "type": "VEC3"
    },
    {
      "bufferView": 3,
      "byteOffset": 1536,
      "componentType": 5126,
      "count": 26520,
      "max": [
        1,
        1,
        1,
        1
      ],
      "min": [
        -1,
        -1,
        -1,
        -1
      ],
      "type": "VEC4"
    },
    {
      "bufferView": 1,
      "byteOffset": 768,
      "componentType": 5126,
      "count": 26520,
      "max": [
        1.5268334150314331,
        1.2178796529769897
      ],
      "min": [
        -0.52683341503143311,
        -0.21787959337234497
      ],
      "type": "VEC2"
    },
    {
      "bufferView": 0,
      "byteOffset": 576,
      "componentType": 5125,
      "count": 131136,
      "max": [
        26519
      ],
      "min": [
        0
      ],
      "type": "SCALAR"
    }
  ],
  "asset": {
    "extras": {
      "author": "Zuo Modern (https://sketchfab.com/zuo)",
      "license": "CC-BY-NC-ND-4.0 (http://creativecommons.org/licenses/by-nc-nd/4.0/)",
      "source": "https://sketchfab.com/models/09cfa2f6142846cba5ecaa1eab83a894",
      "title": "Four Faces Mirror Gold - A10806"
    },
    "generator": "Sketchfab-3.46.1",
    "version": "2.0"
  },
  "bufferViews": [
    {
      "buffer": 0,
      "byteLength": 525120,
      "byteOffset": 0,
      "name": "floatBufferViews",
      "target": 34963
    },
    {
      "buffer": 0,
      "byteLength": 212928,
      "byteOffset": 525120,
      "byteStride": 8,
      "name": "floatBufferViews",
      "target": 34962
    },
    {
      "buffer": 0,
      "byteLength": 638784,
      "byteOffset": 738048,
      "byteStride": 12,
      "name": "floatBufferViews",
      "target": 34962
    },
    {
      "buffer": 0,
      "byteLength": 425856,
      "byteOffset": 1376832,
      "byteStride": 16,
      "name": "floatBufferViews",
      "target": 34962
    }
  ],
  "buffers": [
    {
      "byteLength": 1802688,
      "uri": "scene.bin"
    }
  ],
  "images": [
    {
      "uri": "textures/07_-_Default_metallicRoughness.png"
    }
  ],
  "materials": [
    {
      "doubleSided": true,
      "name": "Material_336",
      "pbrMetallicRoughness": {
        "baseColorFactor": [
          1,
          1,
          1,
          1
        ],
        "metallicFactor": 1,
        "roughnessFactor": 0
      }
    },
    {
      "doubleSided": true,
      "name": "07_-_Default",
      "pbrMetallicRoughness": {
        "baseColorFactor": [
          0.97998638100000002,
          0.65704998780000001,
          0.32466854979999998,
          1
        ],
        "metallicFactor": 0.71247383929999997,
        "metallicRoughnessTexture": {
          "index": 0,
          "texCoord": 0
        },
        "roughnessFactor": 0.77536692110000005
      }
    }
  ],
  "meshes": [
    {
      "name": "Box010_Material #336_0",
      "primitives": [
        {
          "attributes": {
            "NORMAL": 1,
            "POSITION": 0,
            "TANGENT": 2,
            "TEXCOORD_0": 3
          },
          "indices": 4,
          "material": 0,
          "mode": 4
        }
      ]
    },
    {
      "name": "Box003_07 - Default_0",
      "primitives": [
        {
          "attributes": {
            "NORMAL": 6,
            "POSITION": 5,
            "TANGENT": 7,
            "TEXCOORD_0": 8
          },
          "indices": 9,
          "material": 1,
          "mode": 4
        }
      ]
    }
  ],
  "nodes": [
    {
      "children": [
        1
      ],
      "name": "RootNode (gltf orientation matrix)",
      "rotation": [
        -0.70710678118654746,
        -0,
        -0,
        0.70710678118654757
      ]
    },
    {
      "children": [
        2
      ],
      "name": "RootNode (model correction matrix)"
    },
    {
      "children": [
        3
      ],
      "matrix": [
        1,
        0,
        0,
        0,
        0,
        0,
        1,
        0,
        0,
        -1,
        0,
        0,
        0,
        0,
        0,
        1
      ],
      "name": "b36ca8c7358b40a3b547155d7fe212d8.fbx"
    },
    {
      "children": [
        4
      ],
      "name": "RootNode"
    },
    {
      "children": [
        5,
        7
      ],
      "matrix": [
        1,
        0,
        0,
        0,
        0,
        2.2204460492503131e-16,
        -1,
        0,
        0,
        1,
        2.2204460492503131e-16,
        0,
        449.625244140625,
        1102.34765625,
        1750.93408203125,
        1
      ],
      "name": "A10806"
    },
    {
      "children": [
        6
      ],
      "matrix": [
        0,
        5.5511151231257827e-17,
        1,
        0,
        0.99999999999968736,
        7.9075363135228116e-07,
        -5.5511151231257827e-17,
        0,
        -7.9075363140779231e-07,
        0.99999999999968736,
        0,
        0,
        167.171142578125,
        -4.003662109375,
        -168.000732421875,
        1
      ],
      "name": "Box010"
    },
    {
      "mesh": 0,
      "name": "Box010_Material #336_0"
    },
    {
      "children": [
        8
      ],
      "matrix": [
        0.99999999999994671,
        -3.2584136912017354e-07,
        7.1054273576010019e-15,
        -0,
        9.5181546080867221e-14,
        3.1391647326017846e-07,
        0.99999999999995071,
        -0,
        3.2584136912015972e-07,
        0.99999999999989764,
        -3.1391647326017846e-07,
        -0,
        -0.16400146484375,
        2.5,
        167.499267578125,
        1
      ],
      "name": "Box003"
    },
    {
      "mesh": 1,
      "name": "Box003_07 - Default_0"
    }
  ],
  "samplers": [
    {
      "magFilter": 9729,
      "minFilter": 9987,
      "wrapS": 10497,
      "wrapT": 10497
    }
  ],
  "scene": 0,
  "scenes": [
    {
      "name": "OSG_Scene",
      "nodes": [
        0
      ]
    }
  ],
  "textures": [
    {
      "sampler": 0,
      "source": 0
    }
  ]
}

