{
  "accessors": [
    {
      "bufferView": 2,
      "componentType": 5126,
      "count": 192,
      "max": [
        0.42904600501060486,
        -3.3845970630645752,
        1.1859860420227051
      ],
      "min": [
        -0.19630099833011627,
        -4.6384267807006836,
        0.13450799882411957
      ],
      "type": "VEC3"
    },
    {
      "bufferView": 2,
      "byteOffset": 2304,
      "componentType": 5126,
      "count": 192,
      "max": [
        0.99970716238021851,
        0.99970716238021851,
        1
      ],
      "min": [
        -0.99970716238021851,
        -0.99970716238021851,
        -1
      ],
      "type": "VEC3"
    },
    {
      "bufferView": 1,
      "componentType": 5126,
      "count": 192,
      "max": [
        0.99409997463226318,
        0.99279999732971191
      ],
      "min": [
        0.76620000600814819,
        0.30790001153945923
      ],
      "type": "VEC2"
    },
    {
      "bufferView": 0,
      "componentType": 5125,
      "count": 300,
      "max": [
        191
      ],
      "min": [
        0
      ],
      "type": "SCALAR"
    },
    {
      "bufferView": 2,
      "byteOffset": 4608,
      "componentType": 5126,
      "count": 384,
      "max": [
        -0.3046799898147583,
        0.637673020362854,
        3.4470639228820801
      ],
      "min": [
        -1.0075340270996094,
        -2.4935309886932373,
        0.13450799882411957
      ],
      "type": "VEC3"
    },
    {
      "bufferView": 2,
      "byteOffset": 9216,
      "componentType": 5126,
      "count": 384,
      "max": [
        1,
        1,
        1
      ],
      "min": [
        -1,
        -1,
        -1
      ],
      "type": "VEC3"
    },
    {
      "bufferView": 1,
      "byteOffset": 1536,
      "componentType": 5126,
      "count": 384,
      "max": [
        0.99409997463226318,
        0.99279999732971191
      ],
      "min": [
        0.76620000600814819,
        0.30790001153945923
      ],
      "type": "VEC2"
    },
    {
      "bufferView": 0,
      "byteOffset": 1200,
      "componentType": 5125,
      "count": 600,
      "max": [
        383
      ],
      "min": [
        0
      ],
      "type": "SCALAR"
    },
    {
      "bufferView": 2,
      "byteOffset": 13824,
      "componentType": 5126,
      "count": 604,
      "max": [
        2.4948480129241943,
        -1.795801043510437,
        2.1776909828186035
      ],
      "min": [
        -0.54826897382736206,
        -5.5655040740966797,
        -0.082962997257709503
      ],
      "type": "VEC3"
    },
    {
      "bufferView": 2,
      "byteOffset": 21072,
      "componentType": 5126,
      "count": 604,
      "max": [
        0.93523979187011719,
        0.93523979187011719,
        1
      ],
      "min": [
        -0.93523979187011719,
        -0.93523979187011719,
        -1
      ],
      "type": "VEC3"
    },
    {
      "bufferView": 1,
      "byteOffset": 4608,
      "componentType": 5126,
      "count": 604,
      "max": [
        0.96960002183914185,
        0.99949997663497925
      ],
      "min": [
        0.00050000002374872565,
        0.00050000002374872565
      ],
      "type": "VEC2"
    },
    {
      "bufferView": 0,
      "byteOffset": 3600,
      "componentType": 5125,
      "count": 1470,
      "max": [
        603
      ],
      "min": [
        0
      ],
      "type": "SCALAR"
    },
    {
      "bufferView": 2,
      "byteOffset": 28320,
      "componentType": 5126,
      "count": 604,
      "max": [
        1,
        1.6343619823455811,
        2.1776909828186035
      ],
      "min": [
        -1,
        -1.6343619823455811,
        -0.082962997257709503
      ],
      "type": "VEC3"
    },
    {
      "bufferView": 2,
      "byteOffset": 35568,
      "componentType": 5126,
      "count": 604,
      "max": [
        1,
        1,
        1
      ],
      "min": [
        -1,
        -1,
        -1
      ],
      "type": "VEC3"
    },
    {
      "bufferView": 1,
      "byteOffset": 9440,
      "componentType": 5126,
      "count": 604,
      "max": [
        0.96960002183914185,
        0.99949997663497925
      ],
      "min": [
        0.00050000002374872565,
        0.00050000002374872565
      ],
      "type": "VEC2"
    },
    {
      "bufferView": 0,
      "byteOffset": 9480,
      "componentType": 5125,
      "count": 1470,
      "max": [
        603
      ],
      "min": [
        0
      ],
      "type": "SCALAR"
    },
    {
      "bufferView": 2,
      "byteOffset": 42816,
      "componentType": 5126,
      "count": 604,
      "max": [
        1.730571985244751,
        0.24901999533176422,
        4.4387688636779785
      ],
      "min": [
        -1.1032500267028809,
        -3.4484000205993652,
        2.1781139373779297
      ],
      "type": "VEC3"
    },
    {
      "bufferView": 2,
      "byteOffset": 50064,
      "componentType": 5126,
      "count": 604,
      "max": [
        0.96197932958602905,
        0.96197932958602905,
        1
      ],
      "min": [
        -0.96197932958602905,
        -0.96197932958602905,
        -1
      ],
      "type": "VEC3"
    },
    {
      "bufferView": 1,
      "byteOffset": 14272,
      "componentType": 5126,
      "count": 604,
      "max": [
        0.96960002183914185,
        0.99949997663497925
      ],
      "min": [
        0.00050000002374872565,
        0.00050000002374872565
      ],
      "type": "VEC2"
    },
    {
      "bufferView": 0,
      "byteOffset": 15360,
      "componentType": 5125,
      "count": 1470,
      "max": [
        603
      ],
      "min": [
        0
      ],
      "type": "SCALAR"
    }
  ],
  "asset": {
    "extras": {
      "author": "LadyIReyna (https://sketchfab.com/LadyIReyna)",
      "license": "CC-BY-4.0 (http://creativecommons.org/licenses/by/4.0/)",
      "source": "https://sketchfab.com/3d-models/cage-for-many-things-4460c58b184244d8906ae6b822ff1ccd",
      "title": "Cage for many things"
    },
    "generator": "Sketchfab-9.1.1",
    "version": "2.0"
  },
  "bufferViews": [
    {
      "buffer": 0,
      "byteLength": 21240,
      "byteOffset": 0,
      "name": "floatBufferViews",
      "target": 34963
    },
    {
      "buffer": 0,
      "byteLength": 19104,
      "byteOffset": 21240,
      "byteStride": 8,
      "name": "floatBufferViews",
      "target": 34962
    },
    {
      "buffer": 0,
      "byteLength": 57312,
      "byteOffset": 40344,
      "byteStride": 12,
      "name": "floatBufferViews",
      "target": 34962
    }
  ],
  "buffers": [
    {
      "byteLength": 97656,
      "uri": "scene.bin"
    }
  ],
  "images": [
    {
      "uri": "textures/catche_baseColor.png"
    },
    {
      "uri": "textures/catche.001_baseColor.png"
    },
    {
      "uri": "textures/catche.002_baseColor.png"
    }
  ],
  "materials": [
    {
      "doubleSided": true,
      "emissiveFactor": [
        0,
        0,
        0
      ],
      "name": "catche",
      "pbrMetallicRoughness": {
        "baseColorFactor": [
          1,
          1,
          1,
          1
        ],
        "baseColorTexture": {
          "index": 0,
          "texCoord": 0
        },
        "metallicFactor": 0,
        "roughnessFactor": 0.59999999999999998
      }
    },
    {
      "doubleSided": true,
      "emissiveFactor": [
        0,
        0,
        0
      ],
      "name": "catche.001",
      "pbrMetallicRoughness": {
        "baseColorFactor": [
          1,
          1,
          1,
          1
        ],
        "baseColorTexture": {
          "index": 1,
          "texCoord": 0
        },
        "metallicFactor": 0,
        "roughnessFactor": 0.59999999999999998
      }
    },
    {
      "doubleSided": true,
      "emissiveFactor": [
        0,
        0,
        0
      ],
      "name": "catche.001_NONE",
      "pbrMetallicRoughness": {
        "baseColorFactor": [
          1,
          1,
          1,
          1
        ],
        "baseColorTexture": {
          "index": 1,
          "texCoord": 0
        },
        "metallicFactor": 0.08049242424242424,
        "roughnessFactor": 0.59999999999999998
      }
    },
    {
      "doubleSided": true,
      "emissiveFactor": [
        0,
        0,
        0
      ],
      "name": "catche.002",
      "pbrMetallicRoughness": {
        "baseColorFactor": [
          1,
          1,
          1,
          1
        ],
        "baseColorTexture": {
          "index": 2,
          "texCoord": 0
        },
        "metallicFactor": 0,
        "roughnessFactor": 0.59999999999999998
      }
    },
    {
      "doubleSided": true,
      "emissiveFactor": [
        0,
        0,
        0
      ],
      "name": "catche_Catche_diff.png",
      "pbrMetallicRoughness": {
        "baseColorFactor": [
          1,
          1,
          1,
          1
        ],
        "baseColorTexture": {
          "index": 0,
          "texCoord": 0
        },
        "metallicFactor": 0,
        "roughnessFactor": 0.59999999999999998
      }
    }
  ],
  "meshes": [
    {
      "primitives": [
        {
          "attributes": {
            "NORMAL": 1,
            "POSITION": 0,
            "TEXCOORD_0": 2
          },
          "indices": 3,
          "material": 2,
          "mode": 4
        }
      ]
    },
    {
      "primitives": [
        {
          "attributes": {
            "NORMAL": 5,
            "POSITION": 4,
            "TEXCOORD_0": 6
          },
          "indices": 7,
          "material": 0,
          "mode": 4
        }
      ]
    },
    {
      "primitives": [
        {
          "attributes": {
            "NORMAL": 9,
            "POSITION": 8,
            "TEXCOORD_0": 10
          },
          "indices": 11,
          "material": 1,
          "mode": 4
        }
      ]
    },
    {
      "primitives": [
        {
          "attributes": {
            "NORMAL": 13,
            "POSITION": 12,
            "TEXCOORD_0": 14
          },
          "indices": 15,
          "material": 3,
          "mode": 4
        }
      ]
    },
    {
      "primitives": [
        {
          "attributes": {
            "NORMAL": 17,
            "POSITION": 16,
            "TEXCOORD_0": 18
          },
          "indices": 19,
          "material": 4,
          "mode": 4
        }
      ]
    }
  ],
  "nodes": [
    {
      "children": [
        1
      ],
      "name": "RootNode (gltf orientation matrix)",
      "rotation": [
        -0.70710678118654746,
        -0,
        -0,
        0.70710678118654757
      ]
    },
    {
      "children": [
        2
      ],
      "matrix": [
        0.89835929870605469,
        0,
        0,
        0,
        0,
        0.89835929870605469,
        0,
        0,
        0,
        0,
        0.89835929870605469,
        0,
        0,
        0,
        0,
        1
      ],
      "name": "RootNode (model correction matrix)"
    },
    {
      "children": [
        3,
        4,
        5,
        6,
        7
      ],
      "name": "098f65e737e34c30b2658d07bbb164da.obj.cleaner.materialmerger.gles"
    },
    {
      "mesh": 0,
      "name": ""
    },
    {
      "mesh": 1,
      "name": ""
    },
    {
      "mesh": 2,
      "name": ""
    },
    {
      "mesh": 3,
      "name": ""
    },
    {
      "mesh": 4,
      "name": ""
    }
  ],
  "samplers": [
    {
      "magFilter": 9729,
      "minFilter": 9987,
      "wrapS": 10497,
      "wrapT": 10497
    }
  ],
  "scene": 0,
  "scenes": [
    {
      "name": "OSG_Scene",
      "nodes": [
        0
      ]
    }
  ],
  "textures": [
    {
      "sampler": 0,
      "source": 0
    },
    {
      "sampler": 0,
      "source": 1
    },
    {
      "sampler": 0,
      "source": 2
    }
  ]
}

