{
  "accessors": [
    {
      "bufferView": 2,
      "componentType": 5126,
      "count": 699,
      "max": [
        39.162349700927734,
        37.245609283447266,
        50
      ],
      "min": [
        -39.162349700927734,
        -37.24560546875,
        0.61515617370605469
      ],
      "type": "VEC3"
    },
    {
      "bufferView": 2,
      "byteOffset": 8388,
      "componentType": 5126,
      "count": 699,
      "max": [
        0.91989332437515259,
        0.96723318099975586,
        1
      ],
      "min": [
        -0.91989326477050781,
        -0.96723306179046631,
        -1
      ],
      "type": "VEC3"
    },
    {
      "bufferView": 1,
      "componentType": 5126,
      "count": 699,
      "max": [
        0.35905390977859497,
        0.74256187677383423
      ],
      "min": [
        0.0058731730096042156,
        0.63606429100036621
      ],
      "type": "VEC2"
    },
    {
      "bufferView": 0,
      "componentType": 5125,
      "count": 2928,
      "max": [
        698
      ],
      "min": [
        0
      ],
      "type": "SCALAR"
    },
    {
      "bufferView": 2,
      "byteOffset": 16776,
      "componentType": 5126,
      "count": 45810,
      "max": [
        103.92967987060547,
        114.51180267333984,
        34.919902801513672
      ],
      "min": [
        -27.653013229370117,
        -120.99475860595703,
        -81.195663452148438
      ],
      "type": "VEC3"
    },
    {
      "bufferView": 2,
      "byteOffset": 566496,
      "componentType": 5126,
      "count": 45810,
      "max": [
        0.99996346235275269,
        0.99987870454788208,
        1
      ],
      "min": [
        -0.99982011318206787,
        -0.99996232986450195,
        -0.99998635053634644
      ],
      "type": "VEC3"
    },
    {
      "bufferView": 1,
      "byteOffset": 5592,
      "componentType": 5126,
      "count": 45810,
      "max": [
        0.49683412909507751,
        0.49002471566200256
      ],
      "min": [
        0.079342946410179138,
        0.25734180212020874
      ],
      "type": "VEC2"
    },
    {
      "bufferView": 0,
      "byteOffset": 11712,
      "componentType": 5125,
      "count": 117588,
      "max": [
        45809
      ],
      "min": [
        0
      ],
      "type": "SCALAR"
    },
    {
      "bufferView": 2,
      "byteOffset": 1116216,
      "componentType": 5126,
      "count": 9266,
      "max": [
        78.426620483398438,
        51.914211273193359,
        0.63510555028915405
      ],
      "min": [
        -88.10748291015625,
        -106.83931732177734,
        -78.454460144042969
      ],
      "type": "VEC3"
    },
    {
      "bufferView": 2,
      "byteOffset": 1227408,
      "componentType": 5126,
      "count": 9266,
      "max": [
        0.99980849027633667,
        0.9998936653137207,
        0.99916344881057739
      ],
      "min": [
        -0.99979615211486816,
        -0.99991774559020996,
        -0.99916344881057739
      ],
      "type": "VEC3"
    },
    {
      "bufferView": 1,
      "byteOffset": 372072,
      "componentType": 5126,
      "count": 9266,
      "max": [
        0.46593225002288818,
        0.49604308605194092
      ],
      "min": [
        0.0046277232468128204,
        0.40212517976760864
      ],
      "type": "VEC2"
    },
    {
      "bufferView": 0,
      "byteOffset": 482064,
      "componentType": 5125,
      "count": 35916,
      "max": [
        9265
      ],
      "min": [
        0
      ],
      "type": "SCALAR"
    }
  ],
  "asset": {
    "extras": {
      "author": "Anna Obradow (https://sketchfab.com/AnnaObradow)",
      "license": "CC-BY-4.0 (http://creativecommons.org/licenses/by/4.0/)",
      "source": "https://sketchfab.com/3d-models/purple-flowers-fa217fe0c7614f73aa9f4bc59685df73",
      "title": "Purple Flowers"
    },
    "generator": "Sketchfab-8.20.0",
    "version": "2.0"
  },
  "bufferViews": [
    {
      "buffer": 0,
      "byteLength": 625728,
      "byteOffset": 0,
      "name": "floatBufferViews",
      "target": 34963
    },
    {
      "buffer": 0,
      "byteLength": 446200,
      "byteOffset": 625728,
      "byteStride": 8,
      "name": "floatBufferViews",
      "target": 34962
    },
    {
      "buffer": 0,
      "byteLength": 1338600,
      "byteOffset": 1071928,
      "byteStride": 12,
      "name": "floatBufferViews",
      "target": 34962
    }
  ],
  "buffers": [
    {
      "byteLength": 2410528,
      "uri": "scene.bin"
    }
  ],
  "images": [
    {
      "uri": "textures/MadeiraHouse_baseColor.png"
    }
  ],
  "materials": [
    {
      "doubleSided": true,
      "emissiveFactor": [
        0,
        0,
        0
      ],
      "name": "MadeiraHouse",
      "pbrMetallicRoughness": {
        "baseColorFactor": [
          1,
          1,
          1,
          1
        ],
        "baseColorTexture": {
          "index": 0,
          "texCoord": 0
        },
        "metallicFactor": 0,
        "roughnessFactor": 0.59999999999999998
      }
    }
  ],
  "meshes": [
    {
      "name": "PotWhite_MadeiraHouse_0",
      "primitives": [
        {
          "attributes": {
            "NORMAL": 1,
            "POSITION": 0,
            "TEXCOORD_0": 2
          },
          "indices": 3,
          "material": 0,
          "mode": 4
        }
      ]
    },
    {
      "name": "FlowerViolett_MadeiraHouse_0",
      "primitives": [
        {
          "attributes": {
            "NORMAL": 5,
            "POSITION": 4,
            "TEXCOORD_0": 6
          },
          "indices": 7,
          "material": 0,
          "mode": 4
        }
      ]
    },
    {
      "name": "FLowerLeafs_MadeiraHouse_0",
      "primitives": [
        {
          "attributes": {
            "NORMAL": 9,
            "POSITION": 8,
            "TEXCOORD_0": 10
          },
          "indices": 11,
          "material": 0,
          "mode": 4
        }
      ]
    }
  ],
  "nodes": [
    {
      "children": [
        1
      ],
      "name": "RootNode (gltf orientation matrix)",
      "rotation": [
        -0.70710678118654746,
        -0,
        -0,
        0.70710678118654757
      ]
    },
    {
      "children": [
        2
      ],
      "name": "RootNode (model correction matrix)"
    },
    {
      "children": [
        3
      ],
      "matrix": [
        1,
        0,
        0,
        0,
        0,
        0,
        1,
        0,
        0,
        -1,
        0,
        0,
        0,
        0,
        0,
        1
      ],
      "name": "7594f3fea56149bab846dc99591597a0.fbx"
    },
    {
      "children": [
        4,
        6,
        9
      ],
      "name": "RootNode"
    },
    {
      "children": [
        5
      ],
      "matrix": [
        1,
        0,
        0,
        0,
        0,
        2.2204460492503131e-16,
        -1,
        0,
        0,
        1.330101490020752,
        2.9534185986185334e-16,
        0,
        0,
        1.21356201171875,
        0,
        1
      ],
      "name": "PotWhite"
    },
    {
      "mesh": 0,
      "name": "PotWhite_MadeiraHouse_0"
    },
    {
      "children": [
        7
      ],
      "matrix": [
        1,
        0,
        0,
        0,
        0,
        0.99999999999998668,
        1.6292068494294582e-07,
        0,
        0,
        -1.6292068494294582e-07,
        0.99999999999998668,
        0,
        -7.4910697937011719,
        35.468246459960938,
        5.4720416069030762,
        1
      ],
      "name": "FlowerViolett"
    },
    {
      "children": [
        8
      ],
      "matrix": [
        1,
        0,
        -0,
        0,
        0,
        1,
        0,
        0,
        0,
        0,
        1,
        0,
        -13.678218841552734,
        118.68540191650391,
        -0.18992388248443604,
        1
      ],
      "name": ""
    },
    {
      "mesh": 1,
      "name": "FlowerViolett_MadeiraHouse_0"
    },
    {
      "children": [
        10
      ],
      "matrix": [
        0.73050626926972584,
        5.9604647001746132e-08,
        0.89438441837318772,
        0,
        -0.81631839442934706,
        0.47184665795796704,
        0.66674425948883276,
        0,
        -0.365441878750974,
        -1.0540036188955972,
        0.29848199590773439,
        0,
        2.1444668769836426,
        56.471977233886719,
        1.3676806688308716,
        1
      ],
      "name": "FLowerLeafs"
    },
    {
      "children": [
        11
      ],
      "matrix": [
        1,
        0,
        -0,
        0,
        0,
        1,
        0,
        0,
        0,
        0,
        1,
        0,
        -0.71901702880859375,
        46.165534973144531,
        2.0424375534057617,
        1
      ],
      "name": ""
    },
    {
      "mesh": 2,
      "name": "FLowerLeafs_MadeiraHouse_0"
    }
  ],
  "samplers": [
    {
      "magFilter": 9729,
      "minFilter": 9987,
      "wrapS": 10497,
      "wrapT": 10497
    }
  ],
  "scene": 0,
  "scenes": [
    {
      "name": "OSG_Scene",
      "nodes": [
        0
      ]
    }
  ],
  "textures": [
    {
      "sampler": 0,
      "source": 0
    }
  ]
}

