{
    "asset" : {
        "generator" : "Khronos glTF Blender I/O v1.5.17",
        "version" : "2.0"
    },
    "scene" : 0,
    "scenes" : [
        {
            "name" : "Scene",
            "nodes" : [
                9
            ]
        }
    ],
    "nodes" : [
        {
            "mesh" : 0,
            "name" : "Notebook_Cover_02 - Default_0"
        },
        {
            "children" : [
                0
            ],
            "name" : "Notebook_Cover",
            "rotation" : [
                -0.7071068286895752,
                0,
                0,
                0.7071068286895752
            ],
            "translation" : [
                -10.296993255615234,
                0.5396451950073242,
                14.63839054107666
            ]
        },
        {
            "mesh" : 1,
            "name" : "Notebook_Side_01 - Default_0"
        },
        {
            "children" : [
                2
            ],
            "name" : "Notebook_Side",
            "rotation" : [
                -0.7071068286895752,
                0,
                0,
                0.7071068286895752
            ],
            "translation" : [
                -10.296993255615234,
                0.5396451950073242,
                14.63839054107666
            ]
        },
        {
            "mesh" : 2,
            "name" : "Spine_03 - Default_0"
        },
        {
            "children" : [
                4
            ],
            "name" : "Spine",
            "rotation" : [
                0,
                1,
                0,
                9.600628345651785e-07
            ],
            "scale" : [
                0.2945860028266907,
                0.2945860028266907,
                1.7359440326690674
            ],
            "translation" : [
                -19.95043182373047,
                1.0059460401535034,
                29.077220916748047
            ]
        },
        {
            "children" : [
                1,
                3,
                5
            ],
            "name" : "RootNode"
        },
        {
            "children" : [
                6
            ],
            "name" : "23ed766d5bd14844a166b84a38d35fc4.fbx",
            "rotation" : [
                0.7071068286895752,
                0,
                0,
                0.7071068286895752
            ]
        },
        {
            "children" : [
                7
            ],
            "name" : "RootNode (model correction matrix)"
        },
        {
            "children" : [
                8
            ],
            "name" : "RootNode (gltf orientation matrix)",
            "rotation" : [
                -0.7071068286895752,
                0,
                0,
                0.7071068286895752
            ]
        }
    ],
    "materials" : [
        {
            "doubleSided" : true,
            "name" : "02_-_Default",
            "pbrMetallicRoughness" : {
                "baseColorFactor" : [
                    0.6078429818153381,
                    0.3098039925098419,
                    0.11372499912977219,
                    1
                ],
                "metallicFactor" : 0,
                "roughnessFactor" : 0.8929713368415833
            }
        },
        {
            "doubleSided" : true,
            "name" : "01_-_Default",
            "pbrMetallicRoughness" : {
                "baseColorTexture" : {
                    "index" : 0
                },
                "metallicFactor" : 0,
                "roughnessFactor" : 0.8929713368415833
            }
        },
        {
            "doubleSided" : true,
            "name" : "03_-_Default",
            "pbrMetallicRoughness" : {
                "baseColorFactor" : [
                    0.047058798372745514,
                    0.0784313976764679,
                    0.1568630039691925,
                    1
                ],
                "metallicFactor" : 0,
                "roughnessFactor" : 0.8929713368415833
            }
        }
    ],
    "meshes" : [
        {
            "name" : "Notebook_Cover_02 - Default_0",
            "primitives" : [
                {
                    "attributes" : {
                        "POSITION" : 0,
                        "NORMAL" : 1,
                        "TEXCOORD_0" : 2
                    },
                    "indices" : 3,
                    "material" : 0
                }
            ]
        },
        {
            "name" : "Notebook_Side_01 - Default_0",
            "primitives" : [
                {
                    "attributes" : {
                        "POSITION" : 4,
                        "NORMAL" : 5,
                        "TEXCOORD_0" : 6
                    },
                    "indices" : 7,
                    "material" : 1
                }
            ]
        },
        {
            "name" : "Spine_03 - Default_0",
            "primitives" : [
                {
                    "attributes" : {
                        "POSITION" : 8,
                        "NORMAL" : 9,
                        "TEXCOORD_0" : 10
                    },
                    "indices" : 11,
                    "material" : 2
                }
            ]
        }
    ],
    "textures" : [
        {
            "sampler" : 0,
            "source" : 0
        }
    ],
    "images" : [
        {
            "bufferView" : 8,
            "mimeType" : "image/jpeg",
            "name" : "01_-_Default_baseColor"
        }
    ],
    "accessors" : [
        {
            "bufferView" : 0,
            "componentType" : 5126,
            "count" : 4,
            "max" : [
                9.661776542663574,
                14.630473136901855,
                0.9085904955863953
            ],
            "min" : [
                -9.661776542663574,
                -14.630473136901855,
                0.9085904955863953
            ],
            "type" : "VEC3"
        },
        {
            "bufferView" : 1,
            "componentType" : 5126,
            "count" : 4,
            "type" : "VEC3"
        },
        {
            "bufferView" : 2,
            "componentType" : 5126,
            "count" : 4,
            "type" : "VEC2"
        },
        {
            "bufferView" : 3,
            "componentType" : 5123,
            "count" : 6,
            "type" : "SCALAR"
        },
        {
            "bufferView" : 4,
            "componentType" : 5126,
            "count" : 20,
            "max" : [
                9.661776542663574,
                14.630473136901855,
                0.9085904955863953
            ],
            "min" : [
                -9.661776542663574,
                -14.630473136901855,
                0
            ],
            "type" : "VEC3"
        },
        {
            "bufferView" : 5,
            "componentType" : 5126,
            "count" : 20,
            "type" : "VEC3"
        },
        {
            "bufferView" : 6,
            "componentType" : 5126,
            "count" : 20,
            "type" : "VEC2"
        },
        {
            "bufferView" : 7,
            "componentType" : 5123,
            "count" : 30,
            "type" : "SCALAR"
        },
        {
            "bufferView" : 9,
            "componentType" : 5126,
            "count" : 28,
            "max" : [
                1.9393641948699951,
                2.239384889602661,
                16.652076721191406
            ],
            "min" : [
                -1.9393641948699951,
                -2.239384889602661,
                0
            ],
            "type" : "VEC3"
        },
        {
            "bufferView" : 10,
            "componentType" : 5126,
            "count" : 28,
            "type" : "VEC3"
        },
        {
            "bufferView" : 11,
            "componentType" : 5126,
            "count" : 28,
            "type" : "VEC2"
        },
        {
            "bufferView" : 12,
            "componentType" : 5123,
            "count" : 60,
            "type" : "SCALAR"
        }
    ],
    "bufferViews" : [
        {
            "buffer" : 0,
            "byteLength" : 48,
            "byteOffset" : 0
        },
        {
            "buffer" : 0,
            "byteLength" : 48,
            "byteOffset" : 48
        },
        {
            "buffer" : 0,
            "byteLength" : 32,
            "byteOffset" : 96
        },
        {
            "buffer" : 0,
            "byteLength" : 12,
            "byteOffset" : 128
        },
        {
            "buffer" : 0,
            "byteLength" : 240,
            "byteOffset" : 140
        },
        {
            "buffer" : 0,
            "byteLength" : 240,
            "byteOffset" : 380
        },
        {
            "buffer" : 0,
            "byteLength" : 160,
            "byteOffset" : 620
        },
        {
            "buffer" : 0,
            "byteLength" : 60,
            "byteOffset" : 780
        },
        {
            "buffer" : 0,
            "byteLength" : 3167,
            "byteOffset" : 840
        },
        {
            "buffer" : 0,
            "byteLength" : 336,
            "byteOffset" : 4008
        },
        {
            "buffer" : 0,
            "byteLength" : 336,
            "byteOffset" : 4344
        },
        {
            "buffer" : 0,
            "byteLength" : 224,
            "byteOffset" : 4680
        },
        {
            "buffer" : 0,
            "byteLength" : 120,
            "byteOffset" : 4904
        }
    ],
    "samplers" : [
        {
            "magFilter" : 9729,
            "minFilter" : 9987
        }
    ],
    "buffers" : [
        {
            "byteLength" : 5024,
            "uri" : "data:application/octet-stream;base64,"
        }
    ]
}
