{
    "asset" : {
        "generator" : "Khronos glTF Blender I/O v1.5.17",
        "version" : "2.0"
    },
    "scene" : 0,
    "scenes" : [
        {
            "name" : "Scene",
            "nodes" : [
                20
            ]
        }
    ],
    "nodes" : [
        {
            "mesh" : 0,
            "name" : "Mesh_0.012"
        },
        {
            "mesh" : 1,
            "name" : "Mesh_1.009"
        },
        {
            "children" : [
                0,
                1
            ],
            "name" : "Base",
            "scale" : [
                0.3937007784843445,
                0.3937007784843445,
                0.3937007784843445
            ]
        },
        {
            "mesh" : 2,
            "name" : "Mesh_13.002"
        },
        {
            "children" : [
                3
            ],
            "name" : "Book001",
            "scale" : [
                0.3937007784843445,
                0.3937007784843445,
                0.3937007784843445
            ]
        },
        {
            "mesh" : 3,
            "name" : "Mesh_12.002"
        },
        {
            "children" : [
                5
            ],
            "name" : "Book002",
            "scale" : [
                0.3937007784843445,
                0.3937007784843445,
                0.3937007784843445
            ]
        },
        {
            "mesh" : 4,
            "name" : "Mesh_10.002"
        },
        {
            "children" : [
                7
            ],
            "name" : "Book003",
            "scale" : [
                0.3937007784843445,
                0.3937007784843445,
                0.3937007784843445
            ]
        },
        {
            "mesh" : 5,
            "name" : "Mesh_2.007"
        },
        {
            "children" : [
                9
            ],
            "name" : "BookCollection01",
            "scale" : [
                0.3937007784843445,
                0.3937007784843445,
                0.3937007784843445
            ]
        },
        {
            "mesh" : 6,
            "name" : "Mesh_3.005"
        },
        {
            "children" : [
                11
            ],
            "name" : "BookCollection02",
            "scale" : [
                0.3937007784843445,
                0.3937007784843445,
                0.3937007784843445
            ]
        },
        {
            "mesh" : 7,
            "name" : "Mesh_4.004"
        },
        {
            "children" : [
                13
            ],
            "name" : "BookCollection03",
            "scale" : [
                0.3937007784843445,
                0.3937007784843445,
                0.3937007784843445
            ]
        },
        {
            "mesh" : 8,
            "name" : "Mesh_11.002"
        },
        {
            "children" : [
                15
            ],
            "name" : "BookCollection05",
            "scale" : [
                0.3937007784843445,
                0.3937007784843445,
                0.3937007784843445
            ]
        },
        {
            "children" : [
                2,
                4,
                6,
                8,
                10,
                12,
                14,
                16
            ],
            "name" : "RootNode"
        },
        {
            "children" : [
                17
            ],
            "name" : "c1fcf6921c644155be5389c979a114a2.fbx",
            "rotation" : [
                0.7071068286895752,
                0,
                0,
                0.7071068286895752
            ]
        },
        {
            "children" : [
                18
            ],
            "name" : "RootNode (model correction matrix)"
        },
        {
            "children" : [
                19
            ],
            "name" : "RootNode (gltf orientation matrix)",
            "rotation" : [
                -0.7071068286895752,
                0,
                0,
                0.7071068286895752
            ]
        }
    ],
    "materials" : [
        {
            "doubleSided" : true,
            "name" : "DarkWood_MAT",
            "pbrMetallicRoughness" : {
                "baseColorTexture" : {
                    "index" : 0
                },
                "metallicFactor" : 0,
                "roughnessFactor" : 0.6000000238418579
            }
        },
        {
            "doubleSided" : true,
            "name" : "LightWood_MAT",
            "pbrMetallicRoughness" : {
                "baseColorTexture" : {
                    "index" : 1
                },
                "metallicFactor" : 0,
                "roughnessFactor" : 0.6000000238418579
            }
        },
        {
            "doubleSided" : true,
            "name" : "Books_MAT",
            "pbrMetallicRoughness" : {
                "baseColorTexture" : {
                    "index" : 2
                },
                "metallicFactor" : 0,
                "roughnessFactor" : 0.6000000238418579
            }
        }
    ],
    "meshes" : [
        {
            "name" : "Mesh_0.012",
            "primitives" : [
                {
                    "attributes" : {
                        "POSITION" : 0,
                        "NORMAL" : 1,
                        "TEXCOORD_0" : 2
                    },
                    "indices" : 3,
                    "material" : 0
                }
            ]
        },
        {
            "name" : "Mesh_1.009",
            "primitives" : [
                {
                    "attributes" : {
                        "POSITION" : 4,
                        "NORMAL" : 5,
                        "TEXCOORD_0" : 6
                    },
                    "indices" : 7,
                    "material" : 1
                }
            ]
        },
        {
            "name" : "Mesh_13.002",
            "primitives" : [
                {
                    "attributes" : {
                        "POSITION" : 8,
                        "NORMAL" : 9,
                        "TEXCOORD_0" : 10
                    },
                    "indices" : 11,
                    "material" : 2
                }
            ]
        },
        {
            "name" : "Mesh_12.002",
            "primitives" : [
                {
                    "attributes" : {
                        "POSITION" : 12,
                        "NORMAL" : 13,
                        "TEXCOORD_0" : 14
                    },
                    "indices" : 15,
                    "material" : 2
                }
            ]
        },
        {
            "name" : "Mesh_10.002",
            "primitives" : [
                {
                    "attributes" : {
                        "POSITION" : 16,
                        "NORMAL" : 17,
                        "TEXCOORD_0" : 18
                    },
                    "indices" : 19,
                    "material" : 2
                }
            ]
        },
        {
            "name" : "Mesh_2.007",
            "primitives" : [
                {
                    "attributes" : {
                        "POSITION" : 20,
                        "NORMAL" : 21,
                        "TEXCOORD_0" : 22
                    },
                    "indices" : 23,
                    "material" : 2
                }
            ]
        },
        {
            "name" : "Mesh_3.005",
            "primitives" : [
                {
                    "attributes" : {
                        "POSITION" : 24,
                        "NORMAL" : 25,
                        "TEXCOORD_0" : 26
                    },
                    "indices" : 23,
                    "material" : 2
                }
            ]
        },
        {
            "name" : "Mesh_4.004",
            "primitives" : [
                {
                    "attributes" : {
                        "POSITION" : 27,
                        "NORMAL" : 28,
                        "TEXCOORD_0" : 29
                    },
                    "indices" : 23,
                    "material" : 2
                }
            ]
        },
        {
            "name" : "Mesh_11.002",
            "primitives" : [
                {
                    "attributes" : {
                        "POSITION" : 30,
                        "NORMAL" : 31,
                        "TEXCOORD_0" : 32
                    },
                    "indices" : 23,
                    "material" : 2
                }
            ]
        }
    ],
    "textures" : [
        {
            "sampler" : 0,
            "source" : 0
        },
        {
            "sampler" : 0,
            "source" : 1
        },
        {
            "sampler" : 0,
            "source" : 2
        }
    ],
    "images" : [
        {
            "bufferView" : 4,
            "mimeType" : "image/jpeg",
            "name" : "DarkWood_MAT_baseColor"
        },
        {
            "bufferView" : 9,
            "mimeType" : "image/jpeg",
            "name" : "LightWood_MAT_baseColor"
        },
        {
            "bufferView" : 14,
            "mimeType" : "image/jpeg",
            "name" : "Books_MAT_baseColor"
        }
    ],
    "accessors" : [
        {
            "bufferView" : 0,
            "componentType" : 5126,
            "count" : 163,
            "max" : [
                50.050228118896484,
                63.403419494628906,
                11.614965438842773
            ],
            "min" : [
                -28.027076721191406,
                -42.9436149597168,
                -11.249066352844238
            ],
            "type" : "VEC3"
        },
        {
            "bufferView" : 1,
            "componentType" : 5126,
            "count" : 163,
            "type" : "VEC3"
        },
        {
            "bufferView" : 2,
            "componentType" : 5126,
            "count" : 163,
            "type" : "VEC2"
        },
        {
            "bufferView" : 3,
            "componentType" : 5123,
            "count" : 201,
            "type" : "SCALAR"
        },
        {
            "bufferView" : 5,
            "componentType" : 5126,
            "count" : 166,
            "max" : [
                50.050228118896484,
                63.403419494628906,
                11.614965438842773
            ],
            "min" : [
                -28.027076721191406,
                -42.94361114501953,
                -11.249066352844238
            ],
            "type" : "VEC3"
        },
        {
            "bufferView" : 6,
            "componentType" : 5126,
            "count" : 166,
            "type" : "VEC3"
        },
        {
            "bufferView" : 7,
            "componentType" : 5126,
            "count" : 166,
            "type" : "VEC2"
        },
        {
            "bufferView" : 8,
            "componentType" : 5123,
            "count" : 168,
            "type" : "SCALAR"
        },
        {
            "bufferView" : 10,
            "componentType" : 5126,
            "count" : 36,
            "max" : [
                23.95026397705078,
                -5.865987777709961,
                6.82531213760376
            ],
            "min" : [
                16.384265899658203,
                -19.55586051940918,
                -2.7986536026000977
            ],
            "type" : "VEC3"
        },
        {
            "bufferView" : 11,
            "componentType" : 5126,
            "count" : 36,
            "type" : "VEC3"
        },
        {
            "bufferView" : 12,
            "componentType" : 5126,
            "count" : 36,
            "type" : "VEC2"
        },
        {
            "bufferView" : 13,
            "componentType" : 5123,
            "count" : 36,
            "type" : "SCALAR"
        },
        {
            "bufferView" : 15,
            "componentType" : 5126,
            "count" : 32,
            "max" : [
                -8.012762069702148,
                -17.763601303100586,
                12.342586517333984
            ],
            "min" : [
                -24.609891891479492,
                -19.43060874938965,
                -1.2303106784820557
            ],
            "type" : "VEC3"
        },
        {
            "bufferView" : 16,
            "componentType" : 5126,
            "count" : 32,
            "type" : "VEC3"
        },
        {
            "bufferView" : 17,
            "componentType" : 5126,
            "count" : 32,
            "type" : "VEC2"
        },
        {
            "bufferView" : 18,
            "componentType" : 5123,
            "count" : 36,
            "type" : "SCALAR"
        },
        {
            "bufferView" : 19,
            "componentType" : 5126,
            "count" : 34,
            "max" : [
                14.598712921142578,
                43.2972526550293,
                8.214953422546387
            ],
            "min" : [
                -1.9984163045883179,
                41.630245208740234,
                -5.357944488525391
            ],
            "type" : "VEC3"
        },
        {
            "bufferView" : 20,
            "componentType" : 5126,
            "count" : 34,
            "type" : "VEC3"
        },
        {
            "bufferView" : 21,
            "componentType" : 5126,
            "count" : 34,
            "type" : "VEC2"
        },
        {
            "bufferView" : 22,
            "componentType" : 5123,
            "count" : 36,
            "type" : "SCALAR"
        },
        {
            "bufferView" : 23,
            "componentType" : 5126,
            "count" : 16,
            "max" : [
                -2.409360408782959,
                17.291200637817383,
                4.841727256774902
            ],
            "min" : [
                -25.8011417388916,
                1.0436919927597046,
                -6.325648784637451
            ],
            "type" : "VEC3"
        },
        {
            "bufferView" : 24,
            "componentType" : 5126,
            "count" : 16,
            "type" : "VEC3"
        },
        {
            "bufferView" : 25,
            "componentType" : 5126,
            "count" : 16,
            "type" : "VEC2"
        },
        {
            "bufferView" : 26,
            "componentType" : 5123,
            "count" : 24,
            "type" : "SCALAR"
        },
        {
            "bufferView" : 27,
            "componentType" : 5126,
            "count" : 16,
            "max" : [
                47.61673355102539,
                -23.433197021484375,
                4.841727256774902
            ],
            "min" : [
                24.224950790405273,
                -39.68070602416992,
                -6.325648784637451
            ],
            "type" : "VEC3"
        },
        {
            "bufferView" : 28,
            "componentType" : 5126,
            "count" : 16,
            "type" : "VEC3"
        },
        {
            "bufferView" : 29,
            "componentType" : 5126,
            "count" : 16,
            "type" : "VEC2"
        },
        {
            "bufferView" : 30,
            "componentType" : 5126,
            "count" : 16,
            "max" : [
                43.99172592163086,
                37.50684356689453,
                4.841727256774902
            ],
            "min" : [
                20.599946975708008,
                21.25933265686035,
                -6.325648784637451
            ],
            "type" : "VEC3"
        },
        {
            "bufferView" : 31,
            "componentType" : 5126,
            "count" : 16,
            "type" : "VEC3"
        },
        {
            "bufferView" : 32,
            "componentType" : 5126,
            "count" : 16,
            "type" : "VEC2"
        },
        {
            "bufferView" : 33,
            "componentType" : 5126,
            "count" : 16,
            "max" : [
                16.27988052368164,
                -3.255289077758789,
                4.841727256774902
            ],
            "min" : [
                -7.11190128326416,
                -19.502798080444336,
                -6.325648784637451
            ],
            "type" : "VEC3"
        },
        {
            "bufferView" : 34,
            "componentType" : 5126,
            "count" : 16,
            "type" : "VEC3"
        },
        {
            "bufferView" : 35,
            "componentType" : 5126,
            "count" : 16,
            "type" : "VEC2"
        }
    ],
    "bufferViews" : [
        {
            "buffer" : 0,
            "byteLength" : 1956,
            "byteOffset" : 0
        },
        {
            "buffer" : 0,
            "byteLength" : 1956,
            "byteOffset" : 1956
        },
        {
            "buffer" : 0,
            "byteLength" : 1304,
            "byteOffset" : 3912
        },
        {
            "buffer" : 0,
            "byteLength" : 402,
            "byteOffset" : 5216
        },
        {
            "buffer" : 0,
            "byteLength" : 272164,
            "byteOffset" : 5620
        },
        {
            "buffer" : 0,
            "byteLength" : 1992,
            "byteOffset" : 277784
        },
        {
            "buffer" : 0,
            "byteLength" : 1992,
            "byteOffset" : 279776
        },
        {
            "buffer" : 0,
            "byteLength" : 1328,
            "byteOffset" : 281768
        },
        {
            "buffer" : 0,
            "byteLength" : 336,
            "byteOffset" : 283096
        },
        {
            "buffer" : 0,
            "byteLength" : 251566,
            "byteOffset" : 283432
        },
        {
            "buffer" : 0,
            "byteLength" : 432,
            "byteOffset" : 535000
        },
        {
            "buffer" : 0,
            "byteLength" : 432,
            "byteOffset" : 535432
        },
        {
            "buffer" : 0,
            "byteLength" : 288,
            "byteOffset" : 535864
        },
        {
            "buffer" : 0,
            "byteLength" : 72,
            "byteOffset" : 536152
        },
        {
            "buffer" : 0,
            "byteLength" : 467756,
            "byteOffset" : 536224
        },
        {
            "buffer" : 0,
            "byteLength" : 384,
            "byteOffset" : 1003980
        },
        {
            "buffer" : 0,
            "byteLength" : 384,
            "byteOffset" : 1004364
        },
        {
            "buffer" : 0,
            "byteLength" : 256,
            "byteOffset" : 1004748
        },
        {
            "buffer" : 0,
            "byteLength" : 72,
            "byteOffset" : 1005004
        },
        {
            "buffer" : 0,
            "byteLength" : 408,
            "byteOffset" : 1005076
        },
        {
            "buffer" : 0,
            "byteLength" : 408,
            "byteOffset" : 1005484
        },
        {
            "buffer" : 0,
            "byteLength" : 272,
            "byteOffset" : 1005892
        },
        {
            "buffer" : 0,
            "byteLength" : 72,
            "byteOffset" : 1006164
        },
        {
            "buffer" : 0,
            "byteLength" : 192,
            "byteOffset" : 1006236
        },
        {
            "buffer" : 0,
            "byteLength" : 192,
            "byteOffset" : 1006428
        },
        {
            "buffer" : 0,
            "byteLength" : 128,
            "byteOffset" : 1006620
        },
        {
            "buffer" : 0,
            "byteLength" : 48,
            "byteOffset" : 1006748
        },
        {
            "buffer" : 0,
            "byteLength" : 192,
            "byteOffset" : 1006796
        },
        {
            "buffer" : 0,
            "byteLength" : 192,
            "byteOffset" : 1006988
        },
        {
            "buffer" : 0,
            "byteLength" : 128,
            "byteOffset" : 1007180
        },
        {
            "buffer" : 0,
            "byteLength" : 192,
            "byteOffset" : 1007308
        },
        {
            "buffer" : 0,
            "byteLength" : 192,
            "byteOffset" : 1007500
        },
        {
            "buffer" : 0,
            "byteLength" : 128,
            "byteOffset" : 1007692
        },
        {
            "buffer" : 0,
            "byteLength" : 192,
            "byteOffset" : 1007820
        },
        {
            "buffer" : 0,
            "byteLength" : 192,
            "byteOffset" : 1008012
        },
        {
            "buffer" : 0,
            "byteLength" : 128,
            "byteOffset" : 1008204
        }
    ],
    "samplers" : [
        {
            "magFilter" : 9729,
            "minFilter" : 9987
        }
    ],
    "buffers" : [
        {
            "byteLength" : 1008332,
            "uri" : "data:application/octet-stream;base64,"
        }
    ]
}
