{
    "asset" : {
        "generator" : "Khronos glTF Blender I/O v1.5.17",
        "version" : "2.0"
    },
    "scene" : 0,
    "scenes" : [
        {
            "name" : "Scene",
            "nodes" : [
                11
            ]
        }
    ],
    "nodes" : [
        {
            "mesh" : 0,
            "name" : "Base_Base_0"
        },
        {
            "children" : [
                0
            ],
            "name" : "Base",
            "rotation" : [
                0,
                -0.7071068286895752,
                -0.7071068286895752,
                5.338509012631221e-08
            ],
            "scale" : [
                100,
                100,
                100
            ],
            "translation" : [
                2.684337615966797,
                -0.12458115816116333,
                67.8893814086914
            ]
        },
        {
            "mesh" : 1,
            "name" : "Display_iMac_0"
        },
        {
            "children" : [
                2
            ],
            "name" : "Display",
            "rotation" : [
                0,
                -0.6755902767181396,
                -0.7372773289680481,
                1.8778228749738446e-08
            ],
            "scale" : [
                100,
                99.99999237060547,
                99.99999237060547
            ],
            "translation" : [
                2.684337854385376,
                83.15935516357422,
                64.77539825439453
            ]
        },
        {
            "mesh" : 2,
            "name" : "Keyboard_Keyboard_0"
        },
        {
            "children" : [
                4
            ],
            "name" : "Keyboard",
            "rotation" : [
                -0.0011384669924154878,
                0.7104156017303467,
                0.7037810683250427,
                0.000785717333201319
            ],
            "scale" : [
                100.00000762939453,
                99.99999237060547,
                99.99999237060547
            ],
            "translation" : [
                22.16293716430664,
                1.5659465789794922,
                -0.4766106605529785
            ]
        },
        {
            "mesh" : 3,
            "name" : "Mouse.001_Mouse_0"
        },
        {
            "children" : [
                6
            ],
            "name" : "Mouse.001",
            "rotation" : [
                -0.7070590853691101,
                0.008222750388085842,
                0.008222751319408417,
                0.7070589661598206
            ],
            "scale" : [
                100,
                100,
                100
            ],
            "translation" : [
                -49.72929000854492,
                1.0549920797348022,
                2.455425262451172
            ]
        },
        {
            "children" : [
                1,
                3,
                5,
                7
            ],
            "name" : "RootNode"
        },
        {
            "children" : [
                8
            ],
            "name" : "2da2326d0b3e4a7d9b49861455ee94a0.fbx",
            "rotation" : [
                0.7071068286895752,
                0,
                0,
                0.7071068286895752
            ]
        },
        {
            "children" : [
                9
            ],
            "name" : "RootNode (model correction matrix)",
            "scale" : [
                0.005049819592386484,
                0.005049819592386484,
                0.005049819592386484
            ]
        },
        {
            "children" : [
                10
            ],
            "name" : "RootNode (gltf orientation matrix)",
            "rotation" : [
                -0.7071068286895752,
                0,
                0,
                0.7071068286895752
            ]
        }
    ],
    "materials" : [
        {
            "doubleSided" : true,
            "name" : "Base",
            "pbrMetallicRoughness" : {
                "baseColorTexture" : {
                    "index" : 0
                },
                "metallicFactor" : 0,
                "roughnessFactor" : 0.11723333597183228
            }
        },
        {
            "doubleSided" : true,
            "name" : "iMac",
            "pbrMetallicRoughness" : {
                "baseColorTexture" : {
                    "index" : 1
                },
                "metallicRoughnessTexture" : {
                    "index" : 2
                },
                "roughnessFactor" : 0.5367652773857117
            }
        },
        {
            "doubleSided" : true,
            "name" : "Keyboard",
            "normalTexture" : {
                "index" : 3,
                "scale" : 0.6766092777252197
            },
            "pbrMetallicRoughness" : {
                "baseColorTexture" : {
                    "index" : 4
                },
                "metallicFactor" : 0.2327566295862198,
                "metallicRoughnessTexture" : {
                    "index" : 5
                },
                "roughnessFactor" : 0.8164532780647278
            }
        },
        {
            "doubleSided" : true,
            "name" : "Mouse",
            "pbrMetallicRoughness" : {
                "baseColorTexture" : {
                    "index" : 6
                },
                "metallicFactor" : 0,
                "roughnessFactor" : 0.1841152459383011
            }
        }
    ],
    "meshes" : [
        {
            "name" : "Base_Base_0",
            "primitives" : [
                {
                    "attributes" : {
                        "POSITION" : 0,
                        "NORMAL" : 1,
                        "TEXCOORD_0" : 2
                    },
                    "indices" : 3,
                    "material" : 0
                }
            ]
        },
        {
            "name" : "Display_iMac_0",
            "primitives" : [
                {
                    "attributes" : {
                        "POSITION" : 4,
                        "NORMAL" : 5,
                        "TEXCOORD_0" : 6
                    },
                    "indices" : 7,
                    "material" : 1
                }
            ]
        },
        {
            "name" : "Keyboard_Keyboard_0",
            "primitives" : [
                {
                    "attributes" : {
                        "POSITION" : 8,
                        "NORMAL" : 9,
                        "TEXCOORD_0" : 10
                    },
                    "indices" : 11,
                    "material" : 2
                }
            ]
        },
        {
            "name" : "Mouse.001_Mouse_0",
            "primitives" : [
                {
                    "attributes" : {
                        "POSITION" : 12,
                        "NORMAL" : 13,
                        "TEXCOORD_0" : 14
                    },
                    "indices" : 15,
                    "material" : 3
                }
            ]
        }
    ],
    "textures" : [
        {
            "sampler" : 0,
            "source" : 0
        },
        {
            "sampler" : 0,
            "source" : 1
        },
        {
            "sampler" : 0,
            "source" : 2
        },
        {
            "sampler" : 0,
            "source" : 3
        },
        {
            "sampler" : 0,
            "source" : 4
        },
        {
            "sampler" : 0,
            "source" : 5
        },
        {
            "sampler" : 0,
            "source" : 6
        }
    ],
    "images" : [
        {
            "bufferView" : 4,
            "mimeType" : "image/jpeg",
            "name" : "Base_baseColor"
        },
        {
            "bufferView" : 9,
            "mimeType" : "image/png",
            "name" : "iMac_baseColor"
        },
        {
            "bufferView" : 10,
            "mimeType" : "image/png",
            "name" : "iMac_metallicRoughness"
        },
        {
            "bufferView" : 15,
            "mimeType" : "image/png",
            "name" : "Keyboard_normal"
        },
        {
            "bufferView" : 16,
            "mimeType" : "image/jpeg",
            "name" : "Keyboard_baseColor"
        },
        {
            "bufferView" : 17,
            "mimeType" : "image/png",
            "name" : "Keyboard_metallicRoughness"
        },
        {
            "bufferView" : 22,
            "mimeType" : "image/jpeg",
            "name" : "Mouse_baseColor"
        }
    ],
    "accessors" : [
        {
            "bufferView" : 0,
            "componentType" : 5126,
            "count" : 266,
            "max" : [
                0.27695563435554504,
                0.3404255509376526,
                0.8383777737617493
            ],
            "min" : [
                -0.27695563435554504,
                -0.25486308336257935,
                -0.0018446333706378937
            ],
            "type" : "VEC3"
        },
        {
            "bufferView" : 1,
            "componentType" : 5126,
            "count" : 266,
            "type" : "VEC3"
        },
        {
            "bufferView" : 2,
            "componentType" : 5126,
            "count" : 266,
            "type" : "VEC2"
        },
        {
            "bufferView" : 3,
            "componentType" : 5123,
            "count" : 528,
            "type" : "SCALAR"
        },
        {
            "bufferView" : 5,
            "componentType" : 5126,
            "count" : 43,
            "max" : [
                0.9443134069442749,
                0.11619794368743896,
                0.649236261844635
            ],
            "min" : [
                -0.9453619122505188,
                -0.06487319618463516,
                -0.6536937355995178
            ],
            "type" : "VEC3"
        },
        {
            "bufferView" : 6,
            "componentType" : 5126,
            "count" : 43,
            "type" : "VEC3"
        },
        {
            "bufferView" : 7,
            "componentType" : 5126,
            "count" : 43,
            "type" : "VEC2"
        },
        {
            "bufferView" : 8,
            "componentType" : 5123,
            "count" : 126,
            "type" : "SCALAR"
        },
        {
            "bufferView" : 11,
            "componentType" : 5126,
            "count" : 78,
            "max" : [
                0.4523688852787018,
                0.2362077385187149,
                0.015702782198786736
            ],
            "min" : [
                -0.4523695111274719,
                -0.1750716269016266,
                -0.020578620955348015
            ],
            "type" : "VEC3"
        },
        {
            "bufferView" : 12,
            "componentType" : 5126,
            "count" : 78,
            "type" : "VEC3"
        },
        {
            "bufferView" : 13,
            "componentType" : 5126,
            "count" : 78,
            "type" : "VEC2"
        },
        {
            "bufferView" : 14,
            "componentType" : 5123,
            "count" : 108,
            "type" : "SCALAR"
        },
        {
            "bufferView" : 18,
            "componentType" : 5126,
            "count" : 155,
            "max" : [
                0.046926360577344894,
                0.09313713014125824,
                0.014296005479991436
            ],
            "min" : [
                -0.046780649572610855,
                -0.0925503671169281,
                -0.01339002326130867
            ],
            "type" : "VEC3"
        },
        {
            "bufferView" : 19,
            "componentType" : 5126,
            "count" : 155,
            "type" : "VEC3"
        },
        {
            "bufferView" : 20,
            "componentType" : 5126,
            "count" : 155,
            "type" : "VEC2"
        },
        {
            "bufferView" : 21,
            "componentType" : 5123,
            "count" : 381,
            "type" : "SCALAR"
        }
    ],
    "bufferViews" : [
        {
            "buffer" : 0,
            "byteLength" : 3192,
            "byteOffset" : 0
        },
        {
            "buffer" : 0,
            "byteLength" : 3192,
            "byteOffset" : 3192
        },
        {
            "buffer" : 0,
            "byteLength" : 2128,
            "byteOffset" : 6384
        },
        {
            "buffer" : 0,
            "byteLength" : 1056,
            "byteOffset" : 8512
        },
        {
            "buffer" : 0,
            "byteLength" : 132544,
            "byteOffset" : 9568
        },
        {
            "buffer" : 0,
            "byteLength" : 516,
            "byteOffset" : 142112
        },
        {
            "buffer" : 0,
            "byteLength" : 516,
            "byteOffset" : 142628
        },
        {
            "buffer" : 0,
            "byteLength" : 344,
            "byteOffset" : 143144
        },
        {
            "buffer" : 0,
            "byteLength" : 252,
            "byteOffset" : 143488
        },
        {
            "buffer" : 0,
            "byteLength" : 1477829,
            "byteOffset" : 143740
        },
        {
            "buffer" : 0,
            "byteLength" : 46471,
            "byteOffset" : 1621572
        },
        {
            "buffer" : 0,
            "byteLength" : 936,
            "byteOffset" : 1668044
        },
        {
            "buffer" : 0,
            "byteLength" : 936,
            "byteOffset" : 1668980
        },
        {
            "buffer" : 0,
            "byteLength" : 624,
            "byteOffset" : 1669916
        },
        {
            "buffer" : 0,
            "byteLength" : 216,
            "byteOffset" : 1670540
        },
        {
            "buffer" : 0,
            "byteLength" : 78386,
            "byteOffset" : 1670756
        },
        {
            "buffer" : 0,
            "byteLength" : 365856,
            "byteOffset" : 1749144
        },
        {
            "buffer" : 0,
            "byteLength" : 81761,
            "byteOffset" : 2115000
        },
        {
            "buffer" : 0,
            "byteLength" : 1860,
            "byteOffset" : 2196764
        },
        {
            "buffer" : 0,
            "byteLength" : 1860,
            "byteOffset" : 2198624
        },
        {
            "buffer" : 0,
            "byteLength" : 1240,
            "byteOffset" : 2200484
        },
        {
            "buffer" : 0,
            "byteLength" : 762,
            "byteOffset" : 2201724
        },
        {
            "buffer" : 0,
            "byteLength" : 50075,
            "byteOffset" : 2202488
        }
    ],
    "samplers" : [
        {
            "magFilter" : 9729,
            "minFilter" : 9987
        }
    ],
    "buffers" : [
        {
            "byteLength" : 2252564,
            "uri" : "data:application/octet-stream;base64,"
        }
    ]
}
