{
    "asset" : {
        "generator" : "Khronos glTF Blender I/O v1.5.17",
        "version" : "2.0"
    },
    "scene" : 0,
    "scenes" : [
        {
            "name" : "Scene",
            "nodes" : [
                3
            ]
        }
    ],
    "nodes" : [
        {
            "mesh" : 0,
            "name" : "Mesh_0.021"
        },
        {
            "children" : [
                0
            ],
            "name" : "ad4db0dd3e644bfdab2a6ebfbe788848.obj.cleaner.materialmerger.gle"
        },
        {
            "children" : [
                1
            ],
            "name" : "RootNode (model correction matrix)"
        },
        {
            "children" : [
                2
            ],
            "name" : "RootNode (gltf orientation matrix)",
            "rotation" : [
                -0.7071068286895752,
                0,
                0,
                0.7071068286895752
            ]
        }
    ],
    "materials" : [
        {
            "doubleSided" : true,
            "name" : "key_1.001",
            "normalTexture" : {
                "index" : 0
            },
            "occlusionTexture" : {
                "index" : 1
            },
            "pbrMetallicRoughness" : {
                "baseColorTexture" : {
                    "index" : 2
                },
                "metallicRoughnessTexture" : {
                    "index" : 1
                }
            }
        }
    ],
    "meshes" : [
        {
            "name" : "Mesh_0.021",
            "primitives" : [
                {
                    "attributes" : {
                        "POSITION" : 0,
                        "NORMAL" : 1,
                        "TEXCOORD_0" : 2
                    },
                    "indices" : 3,
                    "material" : 0
                }
            ]
        }
    ],
    "textures" : [
        {
            "sampler" : 0,
            "source" : 0
        },
        {
            "sampler" : 0,
            "source" : 1
        },
        {
            "sampler" : 0,
            "source" : 2
        }
    ],
    "images" : [
        {
            "bufferView" : 4,
            "mimeType" : "image/png",
            "name" : "key_1.001_normal"
        },
        {
            "bufferView" : 5,
            "mimeType" : "image/png",
            "name" : "key_1.001_metallicRoughness"
        },
        {
            "bufferView" : 6,
            "mimeType" : "image/png",
            "name" : "key_1.001_baseColor"
        }
    ],
    "accessors" : [
        {
            "bufferView" : 0,
            "componentType" : 5126,
            "count" : 193,
            "max" : [
                0.06540662050247192,
                0.0630253255367279,
                0.003986728377640247
            ],
            "min" : [
                -0.06560447812080383,
                -0.20683690905570984,
                -0.003986728377640247
            ],
            "type" : "VEC3"
        },
        {
            "bufferView" : 1,
            "componentType" : 5126,
            "count" : 193,
            "type" : "VEC3"
        },
        {
            "bufferView" : 2,
            "componentType" : 5126,
            "count" : 193,
            "type" : "VEC2"
        },
        {
            "bufferView" : 3,
            "componentType" : 5123,
            "count" : 252,
            "type" : "SCALAR"
        }
    ],
    "bufferViews" : [
        {
            "buffer" : 0,
            "byteLength" : 2316,
            "byteOffset" : 0
        },
        {
            "buffer" : 0,
            "byteLength" : 2316,
            "byteOffset" : 2316
        },
        {
            "buffer" : 0,
            "byteLength" : 1544,
            "byteOffset" : 4632
        },
        {
            "buffer" : 0,
            "byteLength" : 504,
            "byteOffset" : 6176
        },
        {
            "buffer" : 0,
            "byteLength" : 200039,
            "byteOffset" : 6680
        },
        {
            "buffer" : 0,
            "byteLength" : 281398,
            "byteOffset" : 206720
        },
        {
            "buffer" : 0,
            "byteLength" : 144537,
            "byteOffset" : 488120
        }
    ],
    "samplers" : [
        {
            "magFilter" : 9729,
            "minFilter" : 9987
        }
    ],
    "buffers" : [
        {
            "byteLength" : 632660,
            "uri" : "data:application/octet-stream;base64,"
        }
    ]
}
