{
    "asset" : {
        "generator" : "Khronos glTF Blender I/O v1.5.17",
        "version" : "2.0"
    },
    "scene" : 0,
    "scenes" : [
        {
            "name" : "Scene",
            "nodes" : [
                7
            ]
        }
    ],
    "nodes" : [
        {
            "mesh" : 0,
            "name" : "Book_01 - Default_0"
        },
        {
            "mesh" : 1,
            "name" : "Book_02 - Default_0"
        },
        {
            "mesh" : 2,
            "name" : "Book_03 - Default_0"
        },
        {
            "children" : [
                0,
                1,
                2
            ],
            "name" : "Book",
            "scale" : [
                1,
                1,
                1.6018407344818115
            ],
            "translation" : [
                -8.830020904541016,
                4.1942596435546875,
                0
            ]
        },
        {
            "children" : [
                3
            ],
            "name" : "RootNode"
        },
        {
            "children" : [
                4
            ],
            "name" : "Composition Notebook.FBX",
            "rotation" : [
                0.7071068286895752,
                0,
                0,
                0.7071068286895752
            ]
        },
        {
            "children" : [
                5
            ],
            "name" : "RootNode (model correction matrix)",
            "rotation" : [
                -0.0647842064499855,
                0,
                0,
                0.9978992938995361
            ],
            "translation" : [
                0,
                -0.5422073006629944,
                0.03520101308822632
            ]
        },
        {
            "children" : [
                6
            ],
            "name" : "RootNode (gltf orientation matrix)",
            "rotation" : [
                -0.7071068286895752,
                0,
                0,
                0.7071068286895752
            ]
        }
    ],
    "materials" : [
        {
            "doubleSided" : true,
            "name" : "01_-_Default.001",
            "pbrMetallicRoughness" : {
                "baseColorTexture" : {
                    "index" : 0
                },
                "roughnessFactor" : 0.8929713368415833
            }
        },
        {
            "doubleSided" : true,
            "name" : "02_-_Default.001",
            "pbrMetallicRoughness" : {
                "baseColorTexture" : {
                    "index" : 1
                },
                "roughnessFactor" : 0.8929713368415833
            }
        },
        {
            "doubleSided" : true,
            "name" : "03_-_Default.001",
            "normalTexture" : {
                "index" : 2
            },
            "pbrMetallicRoughness" : {
                "baseColorTexture" : {
                    "index" : 3
                },
                "metallicFactor" : 0.6358612775802612,
                "roughnessFactor" : 0.8929713368415833
            }
        }
    ],
    "meshes" : [
        {
            "name" : "Book_01 - Default_0",
            "primitives" : [
                {
                    "attributes" : {
                        "POSITION" : 0,
                        "NORMAL" : 1,
                        "TEXCOORD_0" : 2
                    },
                    "indices" : 3,
                    "material" : 0
                }
            ]
        },
        {
            "name" : "Book_02 - Default_0",
            "primitives" : [
                {
                    "attributes" : {
                        "POSITION" : 4,
                        "NORMAL" : 5,
                        "TEXCOORD_0" : 6
                    },
                    "indices" : 7,
                    "material" : 1
                }
            ]
        },
        {
            "name" : "Book_03 - Default_0",
            "primitives" : [
                {
                    "attributes" : {
                        "POSITION" : 8,
                        "NORMAL" : 9,
                        "TEXCOORD_0" : 10
                    },
                    "indices" : 11,
                    "material" : 2
                }
            ]
        }
    ],
    "textures" : [
        {
            "sampler" : 0,
            "source" : 0
        },
        {
            "sampler" : 0,
            "source" : 1
        },
        {
            "sampler" : 0,
            "source" : 2
        },
        {
            "sampler" : 0,
            "source" : 3
        }
    ],
    "images" : [
        {
            "bufferView" : 4,
            "mimeType" : "image/jpeg",
            "name" : "01_-_Default_baseColor"
        },
        {
            "bufferView" : 9,
            "mimeType" : "image/jpeg",
            "name" : "02_-_Default_baseColor"
        },
        {
            "bufferView" : 14,
            "mimeType" : "image/png",
            "name" : "03_-_Default_normal"
        },
        {
            "bufferView" : 15,
            "mimeType" : "image/jpeg",
            "name" : "03_-_Default_baseColor"
        }
    ],
    "accessors" : [
        {
            "bufferView" : 0,
            "componentType" : 5126,
            "count" : 35,
            "max" : [
                300,
                400,
                16
            ],
            "min" : [
                -296.9808044433594,
                -401.8710632324219,
                -16
            ],
            "type" : "VEC3"
        },
        {
            "bufferView" : 1,
            "componentType" : 5126,
            "count" : 35,
            "type" : "VEC3"
        },
        {
            "bufferView" : 2,
            "componentType" : 5126,
            "count" : 35,
            "type" : "VEC2"
        },
        {
            "bufferView" : 3,
            "componentType" : 5123,
            "count" : 51,
            "type" : "SCALAR"
        },
        {
            "bufferView" : 5,
            "componentType" : 5126,
            "count" : 4,
            "max" : [
                300,
                400,
                -15
            ],
            "min" : [
                -252,
                -400,
                -15
            ],
            "type" : "VEC3"
        },
        {
            "bufferView" : 6,
            "componentType" : 5126,
            "count" : 4,
            "type" : "VEC3"
        },
        {
            "bufferView" : 7,
            "componentType" : 5126,
            "count" : 4,
            "type" : "VEC2"
        },
        {
            "bufferView" : 8,
            "componentType" : 5123,
            "count" : 6,
            "type" : "SCALAR"
        },
        {
            "bufferView" : 10,
            "componentType" : 5126,
            "count" : 26,
            "max" : [
                299.17742919921875,
                400.2923278808594,
                14
            ],
            "min" : [
                -294.9151916503906,
                -400.2923278808594,
                -14.000003814697266
            ],
            "type" : "VEC3"
        },
        {
            "bufferView" : 11,
            "componentType" : 5126,
            "count" : 26,
            "type" : "VEC3"
        },
        {
            "bufferView" : 12,
            "componentType" : 5126,
            "count" : 26,
            "type" : "VEC2"
        },
        {
            "bufferView" : 13,
            "componentType" : 5123,
            "count" : 30,
            "type" : "SCALAR"
        }
    ],
    "bufferViews" : [
        {
            "buffer" : 0,
            "byteLength" : 420,
            "byteOffset" : 0
        },
        {
            "buffer" : 0,
            "byteLength" : 420,
            "byteOffset" : 420
        },
        {
            "buffer" : 0,
            "byteLength" : 280,
            "byteOffset" : 840
        },
        {
            "buffer" : 0,
            "byteLength" : 102,
            "byteOffset" : 1120
        },
        {
            "buffer" : 0,
            "byteLength" : 382925,
            "byteOffset" : 1224
        },
        {
            "buffer" : 0,
            "byteLength" : 48,
            "byteOffset" : 384152
        },
        {
            "buffer" : 0,
            "byteLength" : 48,
            "byteOffset" : 384200
        },
        {
            "buffer" : 0,
            "byteLength" : 32,
            "byteOffset" : 384248
        },
        {
            "buffer" : 0,
            "byteLength" : 12,
            "byteOffset" : 384280
        },
        {
            "buffer" : 0,
            "byteLength" : 171328,
            "byteOffset" : 384292
        },
        {
            "buffer" : 0,
            "byteLength" : 312,
            "byteOffset" : 555620
        },
        {
            "buffer" : 0,
            "byteLength" : 312,
            "byteOffset" : 555932
        },
        {
            "buffer" : 0,
            "byteLength" : 208,
            "byteOffset" : 556244
        },
        {
            "buffer" : 0,
            "byteLength" : 60,
            "byteOffset" : 556452
        },
        {
            "buffer" : 0,
            "byteLength" : 34245,
            "byteOffset" : 556512
        },
        {
            "buffer" : 0,
            "byteLength" : 16238,
            "byteOffset" : 590760
        }
    ],
    "samplers" : [
        {
            "magFilter" : 9729,
            "minFilter" : 9987
        }
    ],
    "buffers" : [
        {
            "byteLength" : 607000,
            "uri" : "data:application/octet-stream;base64,"
        }
    ]
}
