{
    "asset" : {
        "generator" : "Khronos glTF Blender I/O v1.6.16",
        "version" : "2.0"
    },
    "scene" : 0,
    "scenes" : [
        {
            "name" : "Scene",
            "nodes" : [
                13,
                14,
                15
            ]
        }
    ],
    "nodes" : [
        {
            "mesh" : 0,
            "name" : "base_low_lambert1_0"
        },
        {
            "children" : [
                0
            ],
            "name" : "base_low"
        },
        {
            "mesh" : 1,
            "name" : "bedsheet_low_lambert1_0"
        },
        {
            "children" : [
                2
            ],
            "name" : "bedsheet_low",
            "translation" : [
                0,
                -0.1391855925321579,
                0
            ]
        },
        {
            "mesh" : 2,
            "name" : "lcushion_low_lambert1_0"
        },
        {
            "children" : [
                4
            ],
            "name" : "lcushion_low",
            "translation" : [
                0,
                -0.1391855925321579,
                0
            ]
        },
        {
            "mesh" : 3,
            "name" : "mattress_low_lambert1_0"
        },
        {
            "children" : [
                6
            ],
            "name" : "mattress_low",
            "translation" : [
                0,
                -0.1391855925321579,
                0
            ]
        },
        {
            "mesh" : 4,
            "name" : "rcushion_low_lambert1_0"
        },
        {
            "children" : [
                8
            ],
            "name" : "rcushion_low",
            "translation" : [
                0,
                -0.1391855925321579,
                0
            ]
        },
        {
            "children" : [
                1,
                3,
                5,
                7,
                9
            ],
            "name" : "RootNode"
        },
        {
            "children" : [
                10
            ],
            "name" : "2a8b9c3f28e94863adb057fdab40642b.fbx",
            "rotation" : [
                0.7071068286895752,
                0,
                0,
                0.7071068286895752
            ]
        },
        {
            "children" : [
                11
            ],
            "name" : "RootNode (model correction matrix)"
        },
        {
            "children" : [
                12
            ],
            "name" : "RootNode (gltf orientation matrix)",
            "rotation" : [
                -0.7071068286895752,
                0,
                0,
                0.7071068286895752
            ]
        },
        {
            "name" : "Light",
            "rotation" : [
                0.16907575726509094,
                0.7558803558349609,
                -0.27217137813568115,
                0.570947527885437
            ],
            "translation" : [
                4.076245307922363,
                5.903861999511719,
                -1.0054539442062378
            ]
        },
        {
            "name" : "Camera",
            "rotation" : [
                0.483536034822464,
                0.33687159419059753,
                -0.20870360732078552,
                0.7804827094078064
            ],
            "translation" : [
                7.358891487121582,
                4.958309173583984,
                6.925790786743164
            ]
        }
    ],
    "materials" : [
        {
            "doubleSided" : true,
            "name" : "lambert1",
            "occlusionTexture" : {
                "index" : 0
            },
            "pbrMetallicRoughness" : {
                "baseColorTexture" : {
                    "index" : 1
                },
                "metallicFactor" : 0
            }
        }
    ],
    "meshes" : [
        {
            "name" : "base_low_lambert1_0",
            "primitives" : [
                {
                    "attributes" : {
                        "POSITION" : 0,
                        "NORMAL" : 1,
                        "TEXCOORD_0" : 2
                    },
                    "indices" : 3,
                    "material" : 0
                }
            ]
        },
        {
            "name" : "bedsheet_low_lambert1_0",
            "primitives" : [
                {
                    "attributes" : {
                        "POSITION" : 4,
                        "NORMAL" : 5,
                        "TEXCOORD_0" : 6
                    },
                    "indices" : 7,
                    "material" : 0
                }
            ]
        },
        {
            "name" : "lcushion_low_lambert1_0",
            "primitives" : [
                {
                    "attributes" : {
                        "POSITION" : 8,
                        "NORMAL" : 9,
                        "TEXCOORD_0" : 10
                    },
                    "indices" : 11,
                    "material" : 0
                }
            ]
        },
        {
            "name" : "mattress_low_lambert1_0",
            "primitives" : [
                {
                    "attributes" : {
                        "POSITION" : 12,
                        "NORMAL" : 13,
                        "TEXCOORD_0" : 14
                    },
                    "indices" : 15,
                    "material" : 0
                }
            ]
        },
        {
            "name" : "rcushion_low_lambert1_0",
            "primitives" : [
                {
                    "attributes" : {
                        "POSITION" : 16,
                        "NORMAL" : 17,
                        "TEXCOORD_0" : 18
                    },
                    "indices" : 19,
                    "material" : 0
                }
            ]
        }
    ],
    "textures" : [
        {
            "sampler" : 0,
            "source" : 0
        },
        {
            "sampler" : 0,
            "source" : 1
        }
    ],
    "images" : [
        {
            "bufferView" : 4,
            "mimeType" : "image/png",
            "name" : "lambert1_metallicRoughness"
        },
        {
            "bufferView" : 5,
            "mimeType" : "image/png",
            "name" : "lambert1_baseColor"
        }
    ],
    "accessors" : [
        {
            "bufferView" : 0,
            "componentType" : 5126,
            "count" : 70,
            "max" : [
                4.841971397399902,
                4.062583923339844,
                6.91452169418335
            ],
            "min" : [
                -4.841971397399902,
                -0.17920368909835815,
                -7.217073917388916
            ],
            "type" : "VEC3"
        },
        {
            "bufferView" : 1,
            "componentType" : 5126,
            "count" : 70,
            "type" : "VEC3"
        },
        {
            "bufferView" : 2,
            "componentType" : 5126,
            "count" : 70,
            "type" : "VEC2"
        },
        {
            "bufferView" : 3,
            "componentType" : 5123,
            "count" : 108,
            "type" : "SCALAR"
        },
        {
            "bufferView" : 6,
            "componentType" : 5126,
            "count" : 22,
            "max" : [
                5.004413604736328,
                2.1447131633758545,
                1.8433520793914795
            ],
            "min" : [
                -5.004413604736328,
                0.6871979236602783,
                -7.3524322509765625
            ],
            "type" : "VEC3"
        },
        {
            "bufferView" : 7,
            "componentType" : 5126,
            "count" : 22,
            "type" : "VEC3"
        },
        {
            "bufferView" : 8,
            "componentType" : 5126,
            "count" : 22,
            "type" : "VEC2"
        },
        {
            "bufferView" : 9,
            "componentType" : 5123,
            "count" : 72,
            "type" : "SCALAR"
        },
        {
            "bufferView" : 10,
            "componentType" : 5126,
            "count" : 78,
            "max" : [
                3.6238927841186523,
                2.7254364490509033,
                6.303804397583008
            ],
            "min" : [
                0.1791234016418457,
                2.0122978687286377,
                4.060666561126709
            ],
            "type" : "VEC3"
        },
        {
            "bufferView" : 11,
            "componentType" : 5126,
            "count" : 78,
            "type" : "VEC3"
        },
        {
            "bufferView" : 12,
            "componentType" : 5126,
            "count" : 78,
            "type" : "VEC2"
        },
        {
            "bufferView" : 13,
            "componentType" : 5123,
            "count" : 240,
            "type" : "SCALAR"
        },
        {
            "bufferView" : 14,
            "componentType" : 5126,
            "count" : 48,
            "max" : [
                4.645978927612305,
                2.077897548675537,
                6.4525041580200195
            ],
            "min" : [
                -4.645978927612305,
                1.3070095777511597,
                -7.056394577026367
            ],
            "type" : "VEC3"
        },
        {
            "bufferView" : 15,
            "componentType" : 5126,
            "count" : 48,
            "type" : "VEC3"
        },
        {
            "bufferView" : 16,
            "componentType" : 5126,
            "count" : 48,
            "type" : "VEC2"
        },
        {
            "bufferView" : 17,
            "componentType" : 5123,
            "count" : 198,
            "type" : "SCALAR"
        },
        {
            "bufferView" : 18,
            "componentType" : 5126,
            "count" : 77,
            "max" : [
                -0.3021175265312195,
                2.7254364490509033,
                6.303804397583008
            ],
            "min" : [
                -3.746886968612671,
                2.0122978687286377,
                4.060666561126709
            ],
            "type" : "VEC3"
        },
        {
            "bufferView" : 19,
            "componentType" : 5126,
            "count" : 77,
            "type" : "VEC3"
        },
        {
            "bufferView" : 20,
            "componentType" : 5126,
            "count" : 77,
            "type" : "VEC2"
        },
        {
            "bufferView" : 21,
            "componentType" : 5123,
            "count" : 240,
            "type" : "SCALAR"
        }
    ],
    "bufferViews" : [
        {
            "buffer" : 0,
            "byteLength" : 840,
            "byteOffset" : 0
        },
        {
            "buffer" : 0,
            "byteLength" : 840,
            "byteOffset" : 840
        },
        {
            "buffer" : 0,
            "byteLength" : 560,
            "byteOffset" : 1680
        },
        {
            "buffer" : 0,
            "byteLength" : 216,
            "byteOffset" : 2240
        },
        {
            "buffer" : 0,
            "byteLength" : 5592,
            "byteOffset" : 2456
        },
        {
            "buffer" : 0,
            "byteLength" : 2674,
            "byteOffset" : 8048
        },
        {
            "buffer" : 0,
            "byteLength" : 264,
            "byteOffset" : 10724
        },
        {
            "buffer" : 0,
            "byteLength" : 264,
            "byteOffset" : 10988
        },
        {
            "buffer" : 0,
            "byteLength" : 176,
            "byteOffset" : 11252
        },
        {
            "buffer" : 0,
            "byteLength" : 144,
            "byteOffset" : 11428
        },
        {
            "buffer" : 0,
            "byteLength" : 936,
            "byteOffset" : 11572
        },
        {
            "buffer" : 0,
            "byteLength" : 936,
            "byteOffset" : 12508
        },
        {
            "buffer" : 0,
            "byteLength" : 624,
            "byteOffset" : 13444
        },
        {
            "buffer" : 0,
            "byteLength" : 480,
            "byteOffset" : 14068
        },
        {
            "buffer" : 0,
            "byteLength" : 576,
            "byteOffset" : 14548
        },
        {
            "buffer" : 0,
            "byteLength" : 576,
            "byteOffset" : 15124
        },
        {
            "buffer" : 0,
            "byteLength" : 384,
            "byteOffset" : 15700
        },
        {
            "buffer" : 0,
            "byteLength" : 396,
            "byteOffset" : 16084
        },
        {
            "buffer" : 0,
            "byteLength" : 924,
            "byteOffset" : 16480
        },
        {
            "buffer" : 0,
            "byteLength" : 924,
            "byteOffset" : 17404
        },
        {
            "buffer" : 0,
            "byteLength" : 616,
            "byteOffset" : 18328
        },
        {
            "buffer" : 0,
            "byteLength" : 480,
            "byteOffset" : 18944
        }
    ],
    "samplers" : [
        {
            "magFilter" : 9729,
            "minFilter" : 9987
        }
    ],
    "buffers" : [
        {
            "byteLength" : 19424,
            "uri" : "data:application/octet-stream;base64,"
        }
    ]
}
